<svg xmlns="http://www.w3.org/2000/svg" width="72.69" height="72.655" viewBox="0 0 72.69 72.655">
  <g id="Grupo_163244" data-name="Grupo 163244" transform="translate(9446.851 6472)">
    <g id="D6tGYs.tif" transform="translate(-9713.152 -4360.921)">
      <g id="Grupo_145519" data-name="Grupo 145519" transform="translate(266.302 -2111.079)">
        <path id="Trazado_244041" data-name="Trazado 244041" d="M266.3-2090.273v-17.991a3.337,3.337,0,0,1,3.529-2.778c3.138.063,6.278.016,9.417.018a3.465,3.465,0,0,1,3.565,2.983,16.818,16.818,0,0,1,.118,2.9c.014,1.069.005,1.071,1.047,1.071,4.556,0,9.113.079,13.666-.031a3.861,3.861,0,0,1,3.986,3.939c0,1.18.012,2.361,0,3.541-.006.5.131.707.694.663,1.173-.091,1.175-.055,1.176-1.234,0-1.015-.029-2.031.01-3.045a3.892,3.892,0,0,1,1.2-2.86,3.422,3.422,0,0,1,2.427-.978c3.21.015,6.421-.035,9.63.03a1.936,1.936,0,0,0,2.059-1.254,9.779,9.779,0,0,1,6.842-5.478c6.171-1.3,11.411,1.731,12.9,7.476,1.259,4.847-.187,9.5-5.189,12.284a10.668,10.668,0,0,1-15.226-5.944,10.682,10.682,0,0,1-.593-3.756c.01-.49-.1-.689-.6-.687-3.163.01-6.326-.013-9.488.016-.8.007-1.128.342-1.146,1.128-.032,1.392,0,2.786-.016,4.178-.009.582.349.752.8.91a14.273,14.273,0,0,1,5.392,3.3,14.025,14.025,0,0,1,3.606,5.847,3.87,3.87,0,0,0,.8,1.4,18.362,18.362,0,0,1,4.432,10.009,18.93,18.93,0,0,1-.5,7.157c-.187.72-.146.787.584.793,1.487.012,2.974-.006,4.461.006a3.676,3.676,0,0,1,3.795,3.74c.033,2.455.019,4.91,0,7.365a1.5,1.5,0,0,0,.64,1.391,5.228,5.228,0,0,1,1.668,2.5,1.761,1.761,0,0,0,2.091,1.306,5.527,5.527,0,0,1,2.243.214,3.429,3.429,0,0,1,2.582,3.385c.005,1.605-.055,3.213.017,4.815a3.271,3.271,0,0,1-2.917,3.53h-15.44a3.582,3.582,0,0,1-3.022-3.695c-.046-1.391-.044-2.785,0-4.176a3.917,3.917,0,0,1,4.131-4.085c.755-.02,1.51-.014,2.265,0,.484.008.694-.207.674-.68a3.677,3.677,0,0,1,1.855-3.5.894.894,0,0,0,.412-.844c0-2.478.016-4.955-.009-7.433a1,1,0,0,0-1.08-1.136c-1.909-.072-3.821-.032-5.732-.021a1.03,1.03,0,0,0-.907.685,18.49,18.49,0,0,1-2.622,3.678,19.158,19.158,0,0,1-8.293,5.336,17.424,17.424,0,0,1-5.71.888,18.749,18.749,0,0,1-9.508-2.63c-.2-.116-.366-.305-.633-.281a1.284,1.284,0,0,0-.083.759c-.007,2.855.017,5.711-.011,8.566a3.856,3.856,0,0,1-4.146,4.1h-.566c-.425,0-.849,0-1.274,0-1.014,0-1.394.566-1.054,1.536a.472.472,0,0,0,.492.316c.377.028.755-.007,1.132.034.33.036.637.165.676.515a3.34,3.34,0,0,1-.129,2.071H270.976a3.651,3.651,0,0,1-.143-2.14c.023-.3.282-.41.56-.446.305-.04.613-.011.918-.033.29-.021.685.1.8-.278a1.893,1.893,0,0,0-.049-1.38c-.117-.237-.414-.183-.645-.186-.825-.011-1.65.007-2.474-.007a3.5,3.5,0,0,1-3.636-2.9v-15.583a3.612,3.612,0,0,1,3.827-3.03c1.84-.031,3.681,0,5.522-.009.894,0,.91-.032.931-.9a15.923,15.923,0,0,1,.138-3.1,3.615,3.615,0,0,1,3.586-2.93c.849-.011,1.7.006,2.548-.005.745-.01.814-.072.8-.895a18.567,18.567,0,0,1,2.071-8.729,16.443,16.443,0,0,1,2.506-3.674,3.614,3.614,0,0,0,.773-1.332,14.048,14.048,0,0,1,9.029-9.193.971.971,0,0,0,.791-1.063c-.035-1.273,0-2.549-.014-3.823-.011-.988-.32-1.321-1.327-1.326-4.6-.024-9.2,0-13.8-.017-.611,0-.753.281-.75.826.013,2.974.006,5.947.007,8.921a4.8,4.8,0,0,1-.555,2.384,3.377,3.377,0,0,1-3.039,1.879q-4.884.079-9.769,0A3.39,3.39,0,0,1,266.3-2090.273Z" transform="translate(-266.302 2111.079)"/>
        <path id="Trazado_244042" data-name="Trazado 244042" d="M293.255-1752.479c-3.28,0-6.56-.014-9.84.014-.57,0-.7-.167-.693-.711.025-3.139.01-6.277.014-9.416,0-1.212.353-1.56,1.556-1.56,5.427,0,10.855.005,16.282-.01a1.071,1.071,0,0,1,.993.489,14.448,14.448,0,0,0,1.6,1.888,1.9,1.9,0,0,1,.629,1.542c-.038,2.383-.029,4.767,0,7.15.005.492-.122.63-.622.626C299.863-1752.49,296.559-1752.479,293.255-1752.479Z" transform="translate(-280.391 1813.423)" fill="#80d4ef"/>
        <path id="Trazado_244043" data-name="Trazado 244043" d="M461.007-1959.637a8.589,8.589,0,0,0-3.693-4.747c-.06-.182.051-.216.118-.271a7.082,7.082,0,0,0,2.745-5.931c-.036-1.722,0-3.445-.008-5.168a3.564,3.564,0,0,0-3.786-3.827,19.73,19.73,0,0,1-3.946-.239,13.859,13.859,0,0,1-5.061-2.269c-.685-.482-.7-.467-.951.3-.067.2-.13.4-.2.6a3.726,3.726,0,0,1-3.934,2.8c-.7-.015-.859.19-.845.864.045,2.17.076,4.344,0,6.513a7.336,7.336,0,0,0,2.994,6.533,8.6,8.6,0,0,0-3.748,4.644c-.292.023-.326-.2-.415-.349a8.522,8.522,0,0,1-1.182-4.525q-.014-4.956,0-9.912a11.74,11.74,0,0,1,12.605-11.931,11.665,11.665,0,0,1,10.734,10.664c.216,4.17.191,8.347-.007,12.519A7.424,7.424,0,0,1,461.007-1959.637Z" transform="translate(-414.555 2004.247)" fill="#666d77"/>
        <path id="Trazado_244044" data-name="Trazado 244044" d="M474.535-1920.138a4.54,4.54,0,0,1-2.345-3.871c-.059-1.91-.019-3.822-.027-5.734,0-.259.04-.419.349-.5a5.849,5.849,0,0,0,3.49-2.481.363.363,0,0,1,.569-.142,15.919,15.919,0,0,0,8,1.665c1.287-.033,1.637.341,1.64,1.629,0,1.746.013,3.493,0,5.239a4.7,4.7,0,0,1-2.388,4.2,4.849,4.849,0,0,0-2.019-3.251,4.462,4.462,0,0,0-2.735-.8C476.818-1924.112,475.224-1922.711,474.535-1920.138Z" transform="translate(-442.927 1958.24)" fill="#ebcfb7"/>
        <path id="Trazado_244045" data-name="Trazado 244045" d="M288.62-2051.439c-1.769,0-3.538-.011-5.308.008-.421,0-.576-.107-.573-.552q.027-4.14,0-8.281c0-.453.155-.547.571-.546q5.307.021,10.615,0c.4,0,.522.1.52.509-.017,2.783-.022,5.567,0,8.351,0,.49-.208.52-.591.517C292.111-2051.447,290.365-2051.439,288.62-2051.439Z" transform="translate(-280.405 2067.948)" fill="#80d4ef"/>
        <path id="Trazado_244046" data-name="Trazado 244046" d="M653.445-1686.54c-2.219,0-4.438,0-6.657,0-1.115,0-1.494-.381-1.5-1.478,0-1.393-.008-2.786,0-4.179a1.176,1.176,0,0,1,1.34-1.346c1.653-.009,3.306-.035,4.957.015.62.019.746-.182.715-.749-.048-.895-.008-1.794-.014-2.691,0-.567.147-1.058.75-1.215.636-.165,1.01.2,1.276.742.57,1.163,1.171,2.31,1.726,3.48a.643.643,0,0,0,.7.424c1.18-.021,2.361-.014,3.541-.006.93.006,1.357.4,1.37,1.324q.03,2.16,0,4.321c-.011.959-.425,1.354-1.407,1.359C657.977-1686.534,655.711-1686.541,653.445-1686.54Z" transform="translate(-591.473 1756.849)" fill="#e5e8ec"/>
        <path id="Trazado_244047" data-name="Trazado 244047" d="M408.694-1895.905c0,2.971.027,5.942-.007,8.913a10.5,10.5,0,0,0,3.222,7.945,1.018,1.018,0,0,1,.313.742,4.643,4.643,0,0,0,4.687,4.588,16.621,16.621,0,0,0,1.768-.007c.46-.034.588.144.531.561a3.178,3.178,0,0,0,0,.495c.021.931.022.931-.861.687a16.39,16.39,0,0,1-10.183-23.245c.127-.245.279-.477.419-.715Z" transform="translate(-386.463 1926.489)" fill="#fff59d"/>
        <path id="Trazado_244048" data-name="Trazado 244048" d="M556.576-1897.206a16.314,16.314,0,0,1-2.4,19.867,16.331,16.331,0,0,1-7.558,4.355c-.453.12-.735.18-.573-.455.109-.427-.185-1.052.135-1.27s.9-.088,1.371-.088a6.278,6.278,0,0,0,2.571-.355,4.507,4.507,0,0,0,2.915-4.066,1.486,1.486,0,0,1,.451-1.044,10.248,10.248,0,0,0,3.087-7.431c.009-2.878,0-5.756,0-8.634Z" transform="translate(-506.283 1927.574)" fill="#fff59d"/>
        <path id="Trazado_244049" data-name="Trazado 244049" d="M292.855-1665.442c3.279,0,6.557.012,9.835-.012.529,0,.725.1.705.678-.046,1.335-.338,1.665-1.683,1.666q-8.88,0-17.761,0c-1.338,0-1.911-.754-1.617-2.079.093-.417.4-.243.613-.244C286.251-1665.446,289.553-1665.442,292.855-1665.442Z" transform="translate(-279.994 1728.742)" fill="#ccd0d7"/>
        <path id="Trazado_244050" data-name="Trazado 244050" d="M288.226-1978.507c1.747,0,3.493.014,5.239-.01.453-.006.6.108.6.584-.007,1.443-.329,1.791-1.793,1.791q-4.142,0-8.284,0c-1.327,0-1.923-.793-1.619-2.092.085-.364.336-.267.547-.268C284.686-1978.51,286.456-1978.507,288.226-1978.507Z" transform="translate(-280.021 1997.34)" fill="#969ea8"/>
        <path id="Trazado_244051" data-name="Trazado 244051" d="M363.526-1809.056c-2.126,0-4.174,0-6.221.005-.3,0-.347-.126-.344-.38.011-1.06-.012-2.121.016-3.181a1.056,1.056,0,0,1,1.072-1.1c1.2-.057,2.4-.02,3.6-.033a.34.34,0,0,1,.392.308A19.965,19.965,0,0,0,363.526-1809.056Z" transform="translate(-344.088 1855.963)" fill="#fefefe"/>
        <path id="Trazado_244052" data-name="Trazado 244052" d="M288.579-2091.323c-1.722,0-3.444-.025-5.166.014-.55.012-.666-.162-.655-.676.028-1.341.32-1.658,1.679-1.659q4.211,0,8.421,0a1.5,1.5,0,0,1,1.6,2.089c-.1.373-.371.223-.568.224C292.117-2091.317,290.348-2091.323,288.579-2091.323Z" transform="translate(-280.421 2096.12)" fill="#969ea8"/>
        <path id="Trazado_244053" data-name="Trazado 244053" d="M546.9-1818.743a.811.811,0,0,1,.853.135,5.821,5.821,0,0,1,3.231,4.98,10.638,10.638,0,0,1,0,1.486,2.326,2.326,0,0,1-2.365,2.241c-.613.011-1.228-.02-1.84.01-.386.019-.5-.13-.465-.488a3.272,3.272,0,0,0,0-.637c-.067-.712-.045-1.253.9-1.448a1.83,1.83,0,0,0,1.378-1.719C548.763-1815.945,548.725-1817.67,546.9-1818.743Z" transform="translate(-506.539 1860.318)" fill="#d84318"/>
        <path id="Trazado_244054" data-name="Trazado 244054" d="M507.4-1850.151h-.5c-1.21,0-1.21,0-1.64-1.154a2.636,2.636,0,0,1,1.032-3.221,2.306,2.306,0,0,1,2.982.609,3.158,3.158,0,0,1-.16,3.638c-.113.178-.291.122-.446.125C508.246-1850.146,507.822-1850.151,507.4-1850.151Z" transform="translate(-471.176 1891.215)" fill="#aab1bb"/>
        <path id="Trazado_244055" data-name="Trazado 244055" d="M335.531-1630.056c-.966,0-1.932-.016-2.9.007-.4.01-.573-.067-.579-.533-.023-1.8-.043-1.8,1.767-1.8,1.579,0,3.158.015,4.736-.01.434-.007.551.122.556.554.02,1.78.035,1.78-1.744,1.78Z" transform="translate(-322.713 1700.36)" fill="#aab1bb"/>
        <path id="Trazado_244056" data-name="Trazado 244056" d="M500.323-1803.027c-.99,0-1.98-.024-2.968.011-.451.016-.543-.136-.542-.56,0-1.435.329-1.782,1.785-1.783,1.225,0,2.45,0,3.675,0a1.525,1.525,0,0,1,1.594,2.109c-.091.325-.323.215-.505.217C502.349-1803.021,501.336-1803.027,500.323-1803.027Z" transform="translate(-464.082 1848.77)" fill="#ccd0d7"/>
        <path id="Trazado_244057" data-name="Trazado 244057" d="M467.365-1812.254v.834c0,1.319,0,1.319-1.318,1.241a2.208,2.208,0,0,1-2.121-1.848c-.4-2.73.36-5.381,3.17-6.865a2.177,2.177,0,0,1,.836-.249,13.08,13.08,0,0,0-.951.931,3.773,3.773,0,0,0-.763,2.927,1.092,1.092,0,0,1-.763,1.275c-.972.422-.955.461-.482,1.407.57,1.141.568,1.137,1.7.581C466.881-1812.12,467.062-1812.3,467.365-1812.254Z" transform="translate(-435.78 1860.594)" fill="#d84318"/>
        <path id="Trazado_244058" data-name="Trazado 244058" d="M689.392-2058.421c-.565,0-1.133-.038-1.693.011-.516.045-.562-.178-.516-.6.184-1.738.174-1.739,1.9-1.739h.988c1.268,0,1.268,0,1.48,1.236.188,1.1.188,1.1-.958,1.1Z" transform="translate(-627.409 2067.899)" fill="#80d4ef"/>
        <path id="Trazado_244059" data-name="Trazado 244059" d="M689.432-2027.778c.59,0,1.18.017,1.769-.006.392-.016.454.116.409.494-.216,1.828-.2,1.83-2.013,1.83-.212,0-.426.014-.637,0-.485-.04-1.163.235-1.413-.129a3.975,3.975,0,0,1-.4-1.842c-.03-.311.128-.349.374-.346C688.158-2027.773,688.795-2027.778,689.432-2027.778Z" transform="translate(-627.387 2039.613)" fill="#80d4ef"/>
        <path id="Trazado_244060" data-name="Trazado 244060" d="M737.706-2058.422c-1.035,0-2.063-.005-3.09,0-.269,0-.38-.1-.384-.368a4.332,4.332,0,0,0-.058-.63c-.216-1.337-.218-1.337,1.111-1.337C737.382-2060.753,737.382-2060.753,737.706-2058.422Z" transform="translate(-667.648 2067.899)" fill="#80d4ef"/>
        <path id="Trazado_244061" data-name="Trazado 244061" d="M733.3-2025.436c.1-.7.208-1.322.268-1.952.032-.33.2-.37.469-.368.871.006,1.742.008,2.614,0,.291,0,.465.055.346.4a1.523,1.523,0,0,0-.034.209c-.331,1.689-.364,1.717-2.052,1.717Z" transform="translate(-666.993 2039.589)" fill="#80d4ef"/>
        <path id="Trazado_244062" data-name="Trazado 244062" d="M648.014-2058.943h-.635c-1.23,0-1.23,0-.857-1.213.344-1.119.344-1.13,1.534-1.115.629.008,1.475-.271,1.829.11s-.13,1.178-.14,1.8c-.006.345-.133.443-.462.422C648.862-2058.964,648.437-2058.943,648.014-2058.943Z" transform="translate(-592.347 2068.421)" fill="#80d4ef"/>
        <path id="Trazado_244063" data-name="Trazado 244063" d="M647.957-2027.951c.515,0,1.151-.185,1.51.051s.171.962.33,1.44c.215.646.069.875-.632.811a13.867,13.867,0,0,0-1.9,0,.564.564,0,0,1-.616-.421C645.855-2027.907,645.9-2027.979,647.957-2027.951Z" transform="translate(-592.234 2039.814)" fill="#80d4ef"/>
        <path id="Trazado_244064" data-name="Trazado 244064" d="M515.828-1745.313c0,.775.031,1.453-.009,2.126a1.1,1.1,0,0,1-1.137,1.031,1.113,1.113,0,0,1-1.139-1.033c-.031-.3-.006-.613-.017-.92-.008-.218.055-.371.3-.389A4.3,4.3,0,0,0,515.828-1745.313Z" transform="translate(-478.421 1797.249)" fill="#969ea8"/>
        <path id="Trazado_244065" data-name="Trazado 244065" d="M505.021-1771.293c.169-.437-.4-1.253.727-1.18,1.092.071,1.658.423,1.634,1.208-.024.761-.561,1.068-1.629,1.145C504.633-1770.039,505.171-1770.839,505.021-1771.293Z" transform="translate(-471.123 1820.557)" fill="#e9cdb5"/>
        <path id="Trazado_244066" data-name="Trazado 244066" d="M662.721-2088.6a8.043,8.043,0,0,1,3.056-1.873c-.276.586-.517,1.077-.738,1.577a.442.442,0,0,1-.479.3C664-2088.617,663.449-2088.6,662.721-2088.6Z" transform="translate(-606.433 2093.403)" fill="#7fd1ec"/>
        <path id="Trazado_244067" data-name="Trazado 244067" d="M725.143-2088.467h-.606c-1.767.008-1.777,0-2.353-1.851A7.927,7.927,0,0,1,725.143-2088.467Z" transform="translate(-657.452 2093.265)" fill="#7fd1ec"/>
        <path id="Trazado_244068" data-name="Trazado 244068" d="M725.314-1994.861a7.524,7.524,0,0,1-2.849,1.732C722.985-1994.926,723.317-1995.129,725.314-1994.861Z" transform="translate(-657.693 2011.446)" fill="#7fd2ec"/>
        <path id="Trazado_244069" data-name="Trazado 244069" d="M663.289-1994.887c1.936-.293,2.274-.093,2.873,1.74A7.994,7.994,0,0,1,663.289-1994.887Z" transform="translate(-606.92 2011.48)" fill="#7fd2ec"/>
        <path id="Trazado_244070" data-name="Trazado 244070" d="M696.223-2086.873l.9-1.562a6.348,6.348,0,0,1,.994,1.562Z" transform="translate(-635.178 2091.65)" fill="#7ed0ea"/>
        <path id="Trazado_244071" data-name="Trazado 244071" d="M696.776-1994.641h1.762a5.648,5.648,0,0,1-.9,1.552A5.833,5.833,0,0,1,696.776-1994.641Z" transform="translate(-635.652 2011.174)" fill="#7ed1eb"/>
        <path id="Trazado_244072" data-name="Trazado 244072" d="M666.846-1908.66a3.544,3.544,0,0,1-.24.311c-.413.42-.764,1.025-1.265,1.2-.588.209-.915-.557-1.358-.881a10.571,10.571,0,0,0-13.184.65c-.389.347-.615.415-.93-.02a4.547,4.547,0,0,0-.495-.5c-.724-.724-.724-.724.031-1.38a12.907,12.907,0,0,1,17.048.285C666.573-1908.884,666.7-1908.782,666.846-1908.66Z" transform="translate(-594.518 1940.573)"/>
        <path id="Trazado_244073" data-name="Trazado 244073" d="M678.05-1877.1a5.587,5.587,0,0,0-3.836,1.377c-.293.252-.472.316-.714-.013a3.3,3.3,0,0,0-.347-.351c-1.048-1.045-1.048-1.045.154-1.9a8.22,8.22,0,0,1,10.068.56c.322.29.371.456.022.752-.411.349-.711.927-1.172,1.1-.513.189-.834-.506-1.289-.744A6.044,6.044,0,0,0,678.05-1877.1Z" transform="translate(-614.724 1912.336)"/>
        <path id="Trazado_244074" data-name="Trazado 244074" d="M699.689-1845.456c-.35.316-.708.622-1.047.949s-.629.794-1.2.333c-.088-.071-.282.008-.414-.028-.31-.084-.508.455-.82.165a18.86,18.86,0,0,1-1.387-1.41c-.167-.192.121-.3.241-.393A3.453,3.453,0,0,1,699.689-1845.456Z" transform="translate(-633.928 1884.118)" fill="#010101"/>
        <path id="Trazado_244075" data-name="Trazado 244075" d="M468.249-1690.078a13.019,13.019,0,0,1,8.639,3.354c.377.334.395.533.013.854-.413.347-.73.972-1.179,1.072-.473.1-.826-.572-1.25-.883a10.525,10.525,0,0,0-13.229.614c-.391.347-.573.349-.932-.02-1.28-1.314-1.3-1.305.185-2.411A13.014,13.014,0,0,1,468.249-1690.078Z" transform="translate(-431.952 1749.857)"/>
        <path id="Trazado_244076" data-name="Trazado 244076" d="M493.385-1654.421c-.153.124-.364.275-.552.451-.327.306-.59.777-.97.9-.428.14-.706-.425-1.069-.653a5.8,5.8,0,0,0-6.79.395c-.454.37-.683.306-1-.083a3.681,3.681,0,0,0-.65-.647c-.487-.359-.442-.614.014-1a8.247,8.247,0,0,1,10.581.049A1.031,1.031,0,0,1,493.385-1654.421Z" transform="translate(-451.378 1721.438)"/>
        <path id="Trazado_244077" data-name="Trazado 244077" d="M507.446-1623.857a3.687,3.687,0,0,1,2.15.673c.276.2.4.36.069.632a6.871,6.871,0,0,0-.751.746c-.32.356-.618.717-1.147.306a.378.378,0,0,0-.342-.021c-.883.524-1.272-.211-1.753-.682-.758-.743-.736-.827.24-1.3A3.879,3.879,0,0,1,507.446-1623.857Z" transform="translate(-471.224 1693.039)" fill="#010101"/>
        <path id="Trazado_244078" data-name="Trazado 244078" d="M279.465-1928.821a12.409,12.409,0,0,1,7.361,3.291c.4.347.453.567.021.914s-.74.962-1.187,1.054c-.425.088-.789-.571-1.2-.875a10.483,10.483,0,0,0-13.176.543c-.411.358-.624.44-1.046-.009-1.2-1.277-1.226-1.253.186-2.331C272.621-1927.912,275.341-1928.819,279.465-1928.821Z" transform="translate(-268.915 1954.7)"/>
        <path id="Trazado_244079" data-name="Trazado 244079" d="M297.42-1895.9a8.121,8.121,0,0,1,5.429,2.021c.343.291.342.461.012.747-.409.353-.71.929-1.172,1.1-.516.187-.846-.5-1.294-.75a5.82,5.82,0,0,0-6.662.559c-.341.282-.537.336-.828-.023a5.309,5.309,0,0,0-.849-.847c-.433-.336-.3-.543.051-.845A8.215,8.215,0,0,1,297.42-1895.9Z" transform="translate(-288.167 1926.449)"/>
        <path id="Trazado_244080" data-name="Trazado 244080" d="M319.824-1861.993c-.061.069-.133.157-.212.237-.231.234-.47.461-.7.7-.352.371-.672.812-1.266.363a.374.374,0,0,0-.338-.029c-.858.541-1.229-.185-1.7-.644-.769-.757-.763-.853.212-1.317a3.431,3.431,0,0,1,3.662.3C319.618-1862.289,319.781-1862.217,319.824-1861.993Z" transform="translate(-308.142 1898.287)" fill="#010101"/>
        <path id="Trazado_244081" data-name="Trazado 244081" d="M539.414-1904.183a1.167,1.167,0,0,1,1.176,1.15,1.182,1.182,0,0,1-1.151,1.179,1.158,1.158,0,0,1-1.167-1.154A1.145,1.145,0,0,1,539.414-1904.183Z" transform="translate(-499.655 1933.561)" fill="#010101"/>
        <path id="Trazado_244082" data-name="Trazado 244082" d="M489.915-1904.171a1.148,1.148,0,0,1,1.176,1.142,1.166,1.166,0,0,1-1.139,1.186,1.178,1.178,0,0,1-1.18-1.148A1.161,1.161,0,0,1,489.915-1904.171Z" transform="translate(-457.183 1933.551)" fill="#010101"/>
        <path id="Trazado_244083" data-name="Trazado 244083" d="M664-1647.712c0,1.178,0,1.178-1.164,1.178-1.2,0-1.2,0-1.2-1.228,0-1.123,0-1.123,1.106-1.123h.071C664-1648.885,664-1648.885,664-1647.712Z" transform="translate(-605.508 1714.513)" fill="#030303"/>
        <path id="Trazado_244084" data-name="Trazado 244084" d="M696.964-1647.685c0,1.151,0,1.151-1.118,1.151-1.238,0-1.238,0-1.238-1.255,0-1.1,0-1.1,1.061-1.1h.07C696.964-1648.885,696.964-1648.885,696.964-1647.685Z" transform="translate(-633.792 1714.513)" fill="#030303"/>
        <path id="Trazado_244085" data-name="Trazado 244085" d="M729.931-1647.71c0,1.175,0,1.175-1.161,1.175-1.19,0-1.19,0-1.19-1.231,0-1.12,0-1.12,1.106-1.12h.07C729.931-1648.886,729.931-1648.886,729.931-1647.71Z" transform="translate(-662.082 1714.514)" fill="#030303"/>
      </g>
    </g>
  </g>
</svg>
