<svg xmlns="http://www.w3.org/2000/svg" xmlns:xlink="http://www.w3.org/1999/xlink" width="159" height="159" viewBox="0 0 159 159">
  <defs>
    <clipPath id="clip-path">
      <ellipse id="Elipse_5633" data-name="Elipse 5633" cx="69.527" cy="70.042" rx="69.527" ry="70.042" transform="translate(0 0)" fill="none"/>
    </clipPath>
  </defs>
  <g id="Grupo_163246" data-name="Grupo 163246" transform="translate(-308 -5847)">
    <g id="Grupo_163183" data-name="Grupo 163183">
      <g id="Elipse_5720" data-name="Elipse 5720" transform="translate(308 5847)" fill="none" stroke="#ccc47d" stroke-width="10">
        <circle cx="79.5" cy="79.5" r="79.5" stroke="none"/>
        <circle cx="79.5" cy="79.5" r="74.5" fill="none"/>
      </g>
      <g id="Grupo_163182" data-name="Grupo 163182" transform="translate(-3436.924 10746.128)">
        <g id="Grupo_145573" data-name="Grupo 145573" transform="translate(3754.898 -4889.67)" clip-path="url(#clip-path)">
          <ellipse id="Elipse_5633-2" data-name="Elipse 5633" cx="69.527" cy="70.042" rx="69.527" ry="70.042" transform="translate(0 0)" fill="#1b3f5e"/>
          <g id="Grupo_145520" data-name="Grupo 145520" transform="translate(13.086 27.376)">
            <path id="Trazado_244086" data-name="Trazado 244086" d="M3965.916-4542.032c-14.854-5.26-29.352-13.275-35.923-27.639-6.485-14.178-3.254-32.227,7.749-43.273,3.827-3.844,8.651-6.932,14.025-7.657,7.591-1.023,15.015,2.749,21.188,7.284s11.781,10,18.727,13.227c7.882,3.666,16.835,4.155,25.166,6.64,5.082,1.515,10.11,3.915,13.453,8.031,3.321,4.09,4.648,9.509,4.711,14.777.179,15.106-10.205,29.673-24.441,34.737-9.327,3.316-19.1,1.212-28.35-1.225C3977-4538.506,3971.431-4540.08,3965.916-4542.032Z" transform="translate(-3922.132 4620.984)" fill="#edf2ff" opacity="0.3"/>
            <path id="Trazado_244087" data-name="Trazado 244087" d="M3957.079-4544.074c-13.76,8.836-29.476,15.7-45.114,12.248a38.383,38.383,0,0,1-29.337-32.745c-.579-5.454.083-11.257,2.978-16.059,4.087-6.786,11.87-10.5,19.453-12.74s15.536-3.447,22.582-7.108c8-4.155,14.162-11.119,21.51-16.36,4.482-3.2,9.631-5.81,15.055-6.005,5.388-.193,10.544,2.042,14.764,5.212,12.1,9.092,16.96,26.424,11.789,41.069-3.388,9.6-11.364,16.24-19.267,22.254C3967.027-4550.909,3962.188-4547.356,3957.079-4544.074Z" transform="translate(-3882.437 4622.855)" fill="none" stroke="#edf2ff" stroke-miterlimit="10" stroke-width="1" opacity="0.5"/>
          </g>
          <g id="Grupo_145537" data-name="Grupo 145537" transform="translate(25.16 18.544)">
            <g id="Grupo_145536" data-name="Grupo 145536">
              <g id="Grupo_145532" data-name="Grupo 145532" transform="translate(15.073 10.918)">
                <path id="Trazado_244088" data-name="Trazado 244088" d="M4202.439-4176.214s-1.53-3.893,4.779-9.149l-.1,8.7Z" transform="translate(-4196.607 4228.165)" fill="#ad2f12"/>
                <g id="Grupo_145526" data-name="Grupo 145526" transform="translate(0 26.447)">
                  <path id="Trazado_244089" data-name="Trazado 244089" d="M4152.645-4337.354c-2.247-4.581-4.078-7.873-5.234-7.354a.761.761,0,0,0-.362.88,41.662,41.662,0,0,0,3.078,6.839Z" transform="translate(-4147.023 4344.761)" fill="#f9b384"/>
                  <path id="Trazado_244090" data-name="Trazado 244090" d="M4157-4294.615l-3.945,2.551c-1.731-.781-3.242-2.358-4.286-5.281a1.489,1.489,0,0,1,.107-1.243l.825-1.413a3,3,0,0,0,.406-1.677l-.08-1.708a.443.443,0,0,1,.122-.33l.609-.629a.288.288,0,0,1,.4-.024l1.275,1.042-.248-.016s.209,2.208,1.85,2.315l.853,1.092Z" transform="translate(-4148.513 4308.573)" fill="#f9b384"/>
                  <path id="Trazado_244091" data-name="Trazado 244091" d="M4188.166-4285.4l-.535.344-2.115-5.32-.852-1.092c-1.641-.109-1.851-2.317-1.851-2.317l.25.018,1.929.111a2.157,2.157,0,0,1,1.431.67l1.311,1.358a2.3,2.3,0,0,1,.543.95A9.1,9.1,0,0,1,4188.166-4285.4Z" transform="translate(-4179.141 4299.012)" fill="#f9b384"/>
                  <path id="Trazado_244092" data-name="Trazado 244092" d="M4187.105-4233.156l-.89,8.45s-2.551,2.018-2.676,2.228a40.412,40.412,0,0,1-1.9-4.339c-1.243-3.031-2.631-6.534-2.631-6.534l5.544-3.135,1.945,2.54Z" transform="translate(-4175.729 4247.595)" fill="#f9b384"/>
                  <path id="Trazado_244093" data-name="Trazado 244093" d="M4210.11-4210.953l-.891,8.448s-2.549,2.02-2.676,2.23a41.459,41.459,0,0,1-1.9-4.341l4.86-7.13Z" transform="translate(-4198.735 4225.394)" fill="#e28b6d"/>
                  <g id="Grupo_145521" data-name="Grupo 145521" transform="translate(3.47 5.035)">
                    <path id="Trazado_244094" data-name="Trazado 244094" d="M4183.827-4291.793c-.125-.146-.684-.895-.862-1.133-1.951-.147-2.107-2.531-2.108-2.555l-.01-.2.2,0c3.161-.071,3.83.774,4.23,1.28a1.61,1.61,0,0,0,.189.216l-.255.285a2,2,0,0,1-.234-.264c-.369-.468-.927-1.168-3.713-1.136.077.532.413,1.944,1.813,2l.091,0,.055.074c.262.353.79,1.055.9,1.184Z" transform="translate(-4180.847 4295.688)" fill="#e28b6d"/>
                  </g>
                  <g id="Grupo_145522" data-name="Grupo 145522" transform="translate(2.679 7.459)">
                    <path id="Trazado_244095" data-name="Trazado 244095" d="M4175.674-4269.968a.781.781,0,0,1-.484-.171c-.262-.213-2.053-1.621-2.053-1.621l.237-.3s1.794,1.412,2.057,1.628a.382.382,0,0,0,.365.061c.229-.088.4-.424.473-.945l.377.056c-.124.849-.455,1.146-.711,1.245A.717.717,0,0,1,4175.674-4269.968Z" transform="translate(-4173.137 4272.063)" fill="#e28b6d"/>
                  </g>
                  <g id="Grupo_145523" data-name="Grupo 145523" transform="translate(1.586 4.649)">
                    <path id="Trazado_244096" data-name="Trazado 244096" d="M4164.408-4298.771a4.452,4.452,0,0,0-1.818-.288l-.1-.368c.334-.094,2.021.082,2.249.458Z" transform="translate(-4162.485 4299.452)" fill="#e28b6d"/>
                  </g>
                  <g id="Grupo_145524" data-name="Grupo 145524" transform="translate(2.178 9.135)">
                    <path id="Trazado_244097" data-name="Trazado 244097" d="M4171.2-4253.23a2.949,2.949,0,0,1-1.345-.521l-1.606-1.055.208-.319,1.61,1.057c.411.277,1.119.593,1.34.395a.436.436,0,0,0,.113-.345,2.346,2.346,0,0,0-.695-1.417l.244-.294a2.728,2.728,0,0,1,.833,1.7.8.8,0,0,1-.24.635A.67.67,0,0,1,4171.2-4253.23Z" transform="translate(-4168.245 4255.729)" fill="#e28b6d"/>
                  </g>
                  <g id="Grupo_145525" data-name="Grupo 145525" transform="translate(1.35 10.691)">
                    <path id="Trazado_244098" data-name="Trazado 244098" d="M4162.782-4238.324a2.553,2.553,0,0,1-1.19-.464l-1.411-.927.208-.32,1.416.93c.355.239.964.516,1.149.349a.36.36,0,0,0,.092-.285,2.094,2.094,0,0,0-.6-1.23l.244-.293a2.429,2.429,0,0,1,.741,1.517.731.731,0,0,1-.219.576A.623.623,0,0,1,4162.782-4238.324Z" transform="translate(-4160.181 4240.565)" fill="#e28b6d"/>
                  </g>
                </g>
                <g id="Grupo_145527" data-name="Grupo 145527" transform="translate(13.924 139.873)">
                  <path id="Trazado_244099" data-name="Trazado 244099" d="M4292.388-3183.926l-.417,1.881a13.737,13.737,0,0,0-9.245,5.24h15.464l.535-8A26.087,26.087,0,0,1,4292.388-3183.926Z" transform="translate(-4282.727 3190.397)" fill="#ee6f57"/>
                  <path id="Trazado_244100" data-name="Trazado 244100" d="M4383.208-3233.688l.306-4.592-5.215-1-1.429,6.47A26.137,26.137,0,0,0,4383.208-3233.688Z" transform="translate(-4367.21 3239.277)" fill="#f9b384"/>
                </g>
                <g id="Grupo_145528" data-name="Grupo 145528" transform="translate(47.822 138.448)">
                  <path id="Trazado_244101" data-name="Trazado 244101" d="M4620.245-3246.532l-1.91-6.64-5.226.7,1.268,6.316A29.112,29.112,0,0,0,4620.245-3246.532Z" transform="translate(-4613.11 3253.172)" fill="#f9b384"/>
                  <path id="Trazado_244102" data-name="Trazado 244102" d="M4640.658-3183.278c-2.572-3.45-5.69-3.551-8.926-3.776l-.4-1.4a29.154,29.154,0,0,1-5.867.372l1.6,7.973Z" transform="translate(-4624.196 3195.091)" fill="#ee6f57"/>
                </g>
                <path id="Trazado_244103" data-name="Trazado 244103" d="M4355.193-3993.322l-.669,18.61c-.015.5-.031,1.005-.05,1.5-.344,10.219-1.009,20.032-1.93,29.517-1.044,10.743-2.413,21.065-4.023,31.082h-10.558c-1.407-22.332-3.777-49.138.573-73.391l2.648-6.484Z" transform="translate(-4316.648 4055.827)" fill="#2b54af"/>
                <path id="Trazado_244104" data-name="Trazado 244104" d="M4503.559-4019.693c2.651,22.164,4.945,46.977,3.926,70.118l-11.47,2.23c-3.134-19.3-8.6-44.119-9.3-66.493l-1.528-18.192,17.2,4.809Z" transform="translate(-4450.487 4090.564)" fill="#2b54af"/>
                <rect id="Rectángulo_43390" data-name="Rectángulo 43390" width="7.661" height="9.497" transform="translate(32.196 16.915)" fill="#f9b384"/>
                <path id="Trazado_244105" data-name="Trazado 244105" d="M4394.581-4384.393c2.8,3.887,6.371,2.185,7.71-.428l9.111,40.486c-8.5,3.662-16.678,4.2-24.339-.14l4.841-38.334Z" transform="translate(-4362.435 4407.156)" fill="#fff"/>
                <path id="Trazado_244106" data-name="Trazado 244106" d="M4410.8-4591.475c1.7-3.35,2.076-8.529-1.871-8.744a8.475,8.475,0,0,0-12.182.608c-6.222-1.914-7.141,9.489.777,9.053Z" transform="translate(-4366.712 4602.52)" fill="#05070c"/>
                <path id="Trazado_244107" data-name="Trazado 244107" d="M4460.814-4437.66v5.051a6.463,6.463,0,0,0,5.322-2.24s-2.234-1.561-4-2.811Z" transform="translate(-4428.618 4454.575)" fill="#e5776e" opacity="0.4"/>
                <path id="Trazado_244108" data-name="Trazado 244108" d="M4452.413-4548.753l-.607,5.864a12.23,12.23,0,0,1-3.518,5.594,5.65,5.65,0,0,1-5.187,1.04,4.914,4.914,0,0,1-3.273-3.117,5.168,5.168,0,0,1-.092-2.836,3.606,3.606,0,0,0,.084-.5,5.515,5.515,0,0,0-.161-2.015,10.249,10.249,0,0,1-.126-4.292l6.875-2.176Z" transform="translate(-4409.371 4556.455)" fill="#f9b384"/>
                <path id="Trazado_244109" data-name="Trazado 244109" d="M4284.484-4325.473a34.39,34.39,0,0,1-12.361,0,203.849,203.849,0,0,1,5.1-29.412l-10-.976a37.571,37.571,0,0,1,.635-4.978,45.489,45.489,0,0,1,1.582-5.9c.022-.072.05-.144.077-.216,2.415-6.988,6.8-12.251,17.583-14.049C4290.474-4364.9,4290.22-4341.085,4284.484-4325.473Z" transform="translate(-4254.887 4403.73)" fill="#d84318"/>
                <path id="Trazado_244110" data-name="Trazado 244110" d="M4544.479-4342.207c.607,3.628,1.143,7.26,1.689,11.042a32.938,32.938,0,0,1-12.425,1.463,108.781,108.781,0,0,1-4.144-20.1.462.462,0,0,0-.007-.077c-1.235-11.044-2.035-22.7-.627-34.824a27.911,27.911,0,0,1,13.17,4.382,9.63,9.63,0,0,1,3.418,3.93,68.5,68.5,0,0,1,5.49,17l-9.271,3.766q.408,1.7.772,3.357C4543.3-4348.851,4543.92-4345.532,4544.479-4342.207Z" transform="translate(-4489.105 4407.056)" fill="#d84318"/>
                <path id="Trazado_244111" data-name="Trazado 244111" d="M4222.5-4199.978l-1.241,10.1-.578.765-2.84,3.759a5.489,5.489,0,0,1-4.337,2.3,5.533,5.533,0,0,1-4.612-2.562l-5.028-7.36c2.473-3.306,4.855-6.667,5.542-11.065,3.243,3.78,4.206,5.205,4.206,5.205Z" transform="translate(-4198.031 4244.922)" fill="#d84318"/>
                <path id="Trazado_244112" data-name="Trazado 244112" d="M4427.5-4562.643a18.193,18.193,0,0,0,7.658-2c.809,1.545,2.721,3.583,5.524,2.82l.306-1.689.217-2.871-8.44-2.7-6.613,2.176Z" transform="translate(-4397.514 4572.513)" fill="#05070c"/>
                <path id="Trazado_244113" data-name="Trazado 244113" d="M4556.015-4058.523a23.52,23.52,0,0,1-14.879-7.6c-.019-.023-.043-.042-.061-.064l.053-.012,12.953-2.389C4554.832-4065.168,4555.456-4061.849,4556.015-4058.523Z" transform="translate(-4500.644 4123.373)" fill="#ad2f12"/>
                <path id="Trazado_244114" data-name="Trazado 244114" d="M4467.277-3793.455c1.644,10.006.215,19.639-.707,29.124C4458.871-3776.321,4466.256-3790.905,4467.277-3793.455Z" transform="translate(-4430.673 3876.468)" fill="#124193"/>
                <g id="Grupo_145529" data-name="Grupo 145529" transform="translate(11.225 40.767)">
                  <rect id="Rectángulo_43391" data-name="Rectángulo 43391" width="0.382" height="8.99" transform="translate(0 0.236) rotate(-38.067)" fill="#ad2f12"/>
                </g>
                <path id="Trazado_244115" data-name="Trazado 244115" d="M4619.526-4246.223l1.913,10.96s-3.409,2.259-4.457.408C4616.165-4236.3,4617.237-4241.016,4619.526-4246.223Z" transform="translate(-4568.519 4282.78)" fill="#ad2f12"/>
                <path id="Trazado_244116" data-name="Trazado 244116" d="M4417.549-4214.466l-2.319.162a.614.614,0,0,0-.54.47l-.015.058a1.44,1.44,0,0,0,.214,1.206l.419.578a.22.22,0,0,1-.034.3h0a1.131,1.131,0,0,0-.649.949,1.193,1.193,0,0,0,.023.292h0a1.058,1.058,0,0,0,.719.811l.226.064a.049.049,0,0,1,.025.073l-.326.546a1.482,1.482,0,0,0,.459,1.507c.07.118.3.162.424.179l1.022.139a3.672,3.672,0,0,1,1.342.476c2.062,1.209,4.585,1.083,7.106.963l-.2-6.625a23.594,23.594,0,0,0-5.978-3.317l-5.442-3.874C4412.837-4218.986,4413.583-4217.514,4417.549-4214.466Z" transform="translate(-4386.169 4258.809)" fill="#f9b384"/>
                <path id="Trazado_244117" data-name="Trazado 244117" d="M4530.256-4156.289l.8,3.385c1.043,4.394-2.253,8.575-6.38,8.094l-19.625-2.384,1.5-11.187Z" transform="translate(-4468.319 4203.95)" fill="#d84318"/>
                <rect id="Rectángulo_43392" data-name="Rectángulo 43392" width="23.337" height="0.382" transform="matrix(0.117, -0.993, 0.993, 0.117, 19.623, 59.551)" fill="#ad2f12"/>
                <rect id="Rectángulo_43393" data-name="Rectángulo 43393" width="0.382" height="14.771" transform="translate(38.216 45.76) rotate(-85.163)" fill="#ad2f12"/>
                <g id="Grupo_145530" data-name="Grupo 145530" transform="translate(29.085 46.63)">
                  <path id="Trazado_244118" data-name="Trazado 244118" d="M4433.729-4147.264c-.113-.012-2.762-.29-3.233-.421l.1-.369c.366.1,2.412.332,3.169.411Z" transform="translate(-4430.496 4148.055)" fill="#e28b6d"/>
                </g>
                <g id="Grupo_145531" data-name="Grupo 145531" transform="translate(29.356 49.148)">
                  <path id="Trazado_244119" data-name="Trazado 244119" d="M4436.451-4122.716c-.115-.011-2.841-.289-3.313-.42l.1-.369c.366.1,2.47.33,3.249.409Z" transform="translate(-4433.138 4123.505)" fill="#e28b6d"/>
                </g>
                <path id="Trazado_244120" data-name="Trazado 244120" d="M4549.549-4496.481c4.8.717,5.438-6.93.34-3.871Z" transform="translate(-4508.249 4511.486)" fill="#f9b384"/>
                <path id="Trazado_244121" data-name="Trazado 244121" d="M4559.917-4492.466a1.782,1.782,0,0,1-.019-.773,1.407,1.407,0,0,1,.383-.716,1.025,1.025,0,0,1,.78-.319.817.817,0,0,1,.687.443l-.12.09a.745.745,0,0,0-.565-.2.861.861,0,0,0-.518.254,1.527,1.527,0,0,0-.336.533,3.339,3.339,0,0,0-.144.674Z" transform="translate(-4517.504 4505.382)" fill="#e28b6d"/>
                <path id="Trazado_244122" data-name="Trazado 244122" d="M4458.635-4494.434c0,.493-.279.892-.622.892s-.621-.4-.621-.892.278-.893.621-.893S4458.635-4494.928,4458.635-4494.434Z" transform="translate(-4425.548 4506.325)" fill="#05070c"/>
                <path id="Trazado_244123" data-name="Trazado 244123" d="M4504.28-4499.091c0,.492-.279.892-.621.892s-.622-.4-.622-.892.278-.893.622-.893S4504.28-4499.583,4504.28-4499.091Z" transform="translate(-4466.508 4510.504)" fill="#05070c"/>
                <path id="Trazado_244124" data-name="Trazado 244124" d="M4474.262-4494.311a3.844,3.844,0,0,1-.4,1.292c-.18.4-.454.788-.633,1.141a.9.9,0,0,0,0,1,4.378,4.378,0,0,0,.95.807l-.086.156a2.933,2.933,0,0,1-1.177-.71,1.112,1.112,0,0,1-.286-.732,1.662,1.662,0,0,1,.194-.727c.226-.427.48-.748.7-1.126a6.348,6.348,0,0,0,.571-1.142Z" transform="translate(-4439.216 4505.446)" fill="#e28b6d"/>
                <path id="Trazado_244125" data-name="Trazado 244125" d="M4474.943-4446.627l3.368-.959a2.019,2.019,0,0,1-1.625,1.889C4475.766-4445.486,4474.943-4446.627,4474.943-4446.627Z" transform="translate(-4441.298 4463.482)" fill="#fff"/>
                <path id="Trazado_244126" data-name="Trazado 244126" d="M4443.223-4466.84a1.669,1.669,0,0,1-1.516,1.667,5.145,5.145,0,0,1-.092-2.836,3.633,3.633,0,0,0,.084-.5A1.669,1.669,0,0,1,4443.223-4466.84Z" transform="translate(-4411.25 4482.258)" fill="#fc8879" opacity="0.4"/>
                <circle id="Elipse_5638" data-name="Elipse 5638" cx="1.674" cy="1.674" r="1.674" transform="matrix(0.16, -0.987, 0.987, 0.16, 37.292, 15.607)" fill="#fc8879" opacity="0.4"/>
                <path id="Trazado_244127" data-name="Trazado 244127" d="M4302.6-4101.13l-.441,2.768a5.49,5.49,0,0,1-4.337,2.3,31.381,31.381,0,0,1,5.3-11.044Z" transform="translate(-4282.354 4157.935)" fill="#ad2f12"/>
                <path id="Trazado_244128" data-name="Trazado 244128" d="M4277.321-4232.952l-3.9-5.008a45.638,45.638,0,0,1,1.582-5.9c.022-.073.049-.144.076-.215A22.079,22.079,0,0,1,4277.321-4232.952Z" transform="translate(-4260.45 4280.854)" fill="#ad2f12"/>
              </g>
              <path id="Trazado_244129" data-name="Trazado 244129" d="M4030.126-4684.024a11.089,11.089,0,0,1-4.632-3.425,13.781,13.781,0,0,0,2.3-7.643,13.93,13.93,0,0,0-14.133-13.839,13.843,13.843,0,0,0-13.521,14.737,13.9,13.9,0,0,0,12.976,12.918,13.792,13.792,0,0,0,9.072-2.691,11.849,11.849,0,0,0,7.914.3A.19.19,0,0,0,4030.126-4684.024Z" transform="translate(-4000.114 4708.934)" fill="#fff" stroke="#708cd5" stroke-miterlimit="10" stroke-width="4.166"/>
              <g id="Grupo_145535" data-name="Grupo 145535" transform="translate(8.35 4.488)">
                <path id="Trazado_244130" data-name="Trazado 244130" d="M4099.373-4614.349a4.44,4.44,0,0,0-4.951-4.409,4.451,4.451,0,0,0-3.89,3.841,4.42,4.42,0,0,0,1.109,3.538,3.929,3.929,0,0,1,.991,2.644v0a2.3,2.3,0,0,0,2.3,2.3h0a2.3,2.3,0,0,0,2.3-2.3v0a4.189,4.189,0,0,1,1.062-2.727A4.4,4.4,0,0,0,4099.373-4614.349Z" transform="translate(-4089.573 4623.547)" fill="#fbc343"/>
                <g id="Grupo_145533" data-name="Grupo 145533" transform="translate(3.779 16.488)">
                  <path id="Trazado_244131" data-name="Trazado 244131" d="M4119.911-4503.108a1.6,1.6,0,0,0,1.583-1.385h-3.166A1.6,1.6,0,0,0,4119.911-4503.108Z" transform="translate(-4118.329 4504.493)" fill="#102048"/>
                </g>
                <path id="Trazado_244132" data-name="Trazado 244132" d="M4107.154-4597.252c-.287.8-.836,1.343-1.228,1.2s-.476-.9-.189-1.708.837-1.343,1.229-1.2S4107.442-4598.055,4107.154-4597.252Z" transform="translate(-4103.098 4605.776)" fill="#fff" opacity="0.8"/>
                <g id="Grupo_145534" data-name="Grupo 145534" transform="translate(0)">
                  <rect id="Rectángulo_43394" data-name="Rectángulo 43394" width="0.899" height="3.278" rx="0.449" transform="translate(4.996)" fill="#fbc343"/>
                  <path id="Rectángulo_43395" data-name="Rectángulo 43395" d="M.449,0h0A.449.449,0,0,1,.9.449V2.5a.449.449,0,0,1-.449.449h0A.449.449,0,0,1,0,2.5V.449A.449.449,0,0,1,.449,0Z" transform="matrix(0.828, -0.56, 0.56, 0.828, 0, 1.855)" fill="#fbc343"/>
                  <rect id="Rectángulo_43396" data-name="Rectángulo 43396" width="0.899" height="2.868" rx="0.449" transform="translate(9.114 4.23) rotate(-145.91)" fill="#fbc343"/>
                </g>
              </g>
            </g>
            <line id="Línea_207" data-name="Línea 207" x2="97.133" transform="translate(3.78 164.169)" fill="none" stroke="#102048" stroke-miterlimit="10" stroke-width="6.249"/>
          </g>
          <g id="Grupo_145544" data-name="Grupo 145544" transform="translate(104.444 80.911)">
            <g id="Grupo_145538" data-name="Grupo 145538">
              <path id="Trazado_244133" data-name="Trazado 244133" d="M4809.933-4060.17l-22.575-13.339c-3.381-.054-6.118-.857-7.908-2.761-4.668,1.445-8.247-1.853-5.85-4.146a2.871,2.871,0,0,1,.367-3.339,2.307,2.307,0,0,1-.026-2.99c.112-3.694,3.286-5.869,9.055-4.264-1.03-4.468-1.729-8.72,2.028-10.08,1.058,4.891,2.1,9.96,3.37,11.661a32.818,32.818,0,0,1,5.156,4.377l24.5,10.751Z" transform="translate(-4772.833 4101.09)" fill="#f9b384"/>
            </g>
            <g id="Grupo_145539" data-name="Grupo 145539" transform="translate(1.051 11.513)">
              <path id="Trazado_244134" data-name="Trazado 244134" d="M4789.457-3983.585a5.522,5.522,0,0,1-2.266-.484l-4.112-1.855.112-.25,4.112,1.855a5.265,5.265,0,0,0,3.37.317,2.527,2.527,0,0,0,1.62-.941,1.6,1.6,0,0,0-.1-1.428,1.015,1.015,0,0,0-1-.528l-1.79.154-2.233-1.927.18-.208,2.146,1.852,1.677-.145a1.294,1.294,0,0,1,1.252.663,1.842,1.842,0,0,1,.1,1.715,2.793,2.793,0,0,1-1.786,1.06A5.484,5.484,0,0,1,4789.457-3983.585Z" transform="translate(-4783.08 3988.881)" fill="#e28b6d"/>
            </g>
            <g id="Grupo_145540" data-name="Grupo 145540" transform="translate(1.063 16.005)">
              <path id="Trazado_244135" data-name="Trazado 244135" d="M4789.138-3941.385c-2.091,0-5.771-2.174-5.94-2.274l.14-.235c.044.025,4.4,2.6,6.232,2.194a4.309,4.309,0,0,0,2.984-1.987c.094-.285-.26-.922-.5-1.258l.222-.162c.073.1.71.995.542,1.5a4.537,4.537,0,0,1-3.187,2.169A2.281,2.281,0,0,1,4789.138-3941.385Z" transform="translate(-4783.197 3945.106)" fill="#e28b6d"/>
            </g>
            <g id="Grupo_145541" data-name="Grupo 145541" transform="translate(0.701 18.87)">
              <path id="Trazado_244136" data-name="Trazado 244136" d="M4785.136-3913.737a13.244,13.244,0,0,1-5.475-1.515l.131-.241c.033.018,3.318,1.78,6.111,1.436,2.857-.352,3.612-.744,3.865-1.225a1.206,1.206,0,0,0-.211-1.153,1.488,1.488,0,0,0-1.672-.387l-.066-.266a1.751,1.751,0,0,1,1.955.485,1.485,1.485,0,0,1,.237,1.45c-.309.587-1.075,1-4.074,1.369A6.579,6.579,0,0,1,4785.136-3913.737Z" transform="translate(-4779.661 3917.177)" fill="#e28b6d"/>
            </g>
            <g id="Grupo_145542" data-name="Grupo 145542" transform="translate(6.568 21.756)">
              <path id="Trazado_244137" data-name="Trazado 244137" d="M4836.943-3885.861l-.1-.257c1.193-.455,2.638-1.545,2.642-2.217,0-.073,0-.3-.425-.465l.1-.255c.5.2.6.5.6.722C4839.757-3887.466,4838.117-3886.309,4836.943-3885.861Z" transform="translate(-4836.846 3889.055)" fill="#e28b6d"/>
            </g>
            <g id="Grupo_145543" data-name="Grupo 145543" transform="translate(10.243 15.515)">
              <path id="Trazado_244138" data-name="Trazado 244138" d="M4874.64-3944.174c-1.607-.517-1.814-3.444-1.953-5.382l-.021-.3.273-.02.023.3c.124,1.75.331,4.679,1.761,5.14Z" transform="translate(-4872.666 3949.879)" fill="#e28b6d"/>
            </g>
          </g>
          <g id="Grupo_145553" data-name="Grupo 145553" transform="translate(-9.929 46.833)">
            <g id="Grupo_145551" data-name="Grupo 145551" transform="translate(0.076)">
              <g id="Grupo_145545" data-name="Grupo 145545">
                <path id="Trazado_244139" data-name="Trazado 244139" d="M3706.093-4416.709a2.4,2.4,0,0,1-.519,3.06,2.977,2.977,0,0,1-.173,3.48c2.079,2.744-2.13,5.533-6.673,3.285-2.147,1.659-5.082,2.029-8.555,1.528l-7.992,3.143-17.322,6.809-5.99-15.808,22.5-5.85,4.357-1.132a33.954,33.954,0,0,1,6-3.636c1.578-1.535,3.482-6.555,5.369-11.392,3.624,2.012,2.207,6.253.419,10.659C3703.692-4423.258,3706.586-4420.51,3706.093-4416.709Z" transform="translate(-3658.87 4433.223)" fill="#f9b384"/>
              </g>
              <g id="Grupo_145546" data-name="Grupo 145546" transform="translate(37.301 12.904)">
                <path id="Trazado_244140" data-name="Trazado 244140" d="M4026.377-4302.265a5.778,5.778,0,0,1-2.21-.438,2.923,2.923,0,0,1-1.666-1.391,1.936,1.936,0,0,1,.383-1.762,1.361,1.361,0,0,1,1.409-.48l1.689.422,2.5-1.539.17.276-2.612,1.612-1.818-.454a1.036,1.036,0,0,0-1.084.371,1.631,1.631,0,0,0-.335,1.423,2.6,2.6,0,0,0,1.493,1.222,5.43,5.43,0,0,0,3.49.228L4032.3-4304l.086.315-4.517,1.224A5.745,5.745,0,0,1,4026.377-4302.265Z" transform="translate(-4022.42 4307.454)" fill="#e28b6d"/>
              </g>
              <g id="Grupo_145547" data-name="Grupo 145547" transform="translate(36.872 16.716)">
                <path id="Trazado_244141" data-name="Trazado 244141" d="M4022.324-4265.9a3.253,3.253,0,0,1-1.163-.179,4.725,4.725,0,0,1-2.92-2.762c-.089-.559.717-1.376.809-1.468l.229.23c-.3.3-.764.89-.716,1.188a4.446,4.446,0,0,0,2.718,2.51c1.8.712,6.678-1.2,6.727-1.222l.12.3A20.294,20.294,0,0,1,4022.324-4265.9Z" transform="translate(-4018.235 4270.308)" fill="#e28b6d"/>
              </g>
              <g id="Grupo_145548" data-name="Grupo 145548" transform="translate(35.9 19.717)">
                <path id="Trazado_244142" data-name="Trazado 244142" d="M4015-4236.8a8.062,8.062,0,0,1-2.236-.288c-3.019-.875-3.739-1.427-3.961-2.085a1.534,1.534,0,0,1,.487-1.467,1.834,1.834,0,0,1,2.1-.179l-.128.3a1.522,1.522,0,0,0-1.754.12,1.225,1.225,0,0,0-.4,1.124c.178.528.882,1.048,3.743,1.877,2.8.809,6.446-.455,6.483-.466l.107.306A14.954,14.954,0,0,1,4015-4236.8Z" transform="translate(-4008.757 4241.053)" fill="#e28b6d"/>
              </g>
              <g id="Grupo_145549" data-name="Grupo 145549" transform="translate(37.278 22.806)">
                <path id="Trazado_244143" data-name="Trazado 244143" d="M4024.688-4207.272c-1.133-.655-2.628-2.118-2.49-3.015.036-.233.195-.536.748-.658l.07.317c-.451.1-.485.318-.5.391-.1.661,1.2,2.028,2.331,2.684Z" transform="translate(-4022.189 4210.945)" fill="#e28b6d"/>
              </g>
              <g id="Grupo_145550" data-name="Grupo 145550" transform="translate(34.668 16.161)">
                <path id="Trazado_244144" data-name="Trazado 244144" d="M3996.808-4270.121l-.049-.321c1.527-.235,2.219-3.193,2.633-4.959l.072-.309.317.075-.072.307C3999.248-4273.36,3998.553-4270.389,3996.808-4270.121Z" transform="translate(-3996.759 4275.71)" fill="#e28b6d"/>
              </g>
            </g>
            <g id="Grupo_145552" data-name="Grupo 145552" transform="translate(0 16.139)">
              <path id="Trazado_244145" data-name="Trazado 244145" d="M3680.949-4275.923a32.731,32.731,0,0,0,.565,14.869l-23.388,9.621.076-18.62,22.5-5.849Z" transform="translate(-3658.126 4275.923)" fill="#d84318"/>
            </g>
          </g>
          <g id="Grupo_145563" data-name="Grupo 145563" transform="translate(-12.149 85.02)">
            <g id="Grupo_145554" data-name="Grupo 145554" transform="translate(32.621 19.113)">
              <path id="Trazado_244146" data-name="Trazado 244146" d="M3962.77-3859.808s3.359-5.093-8.344-14.955l1.408,12.788Z" transform="translate(-3954.426 3874.762)" fill="#102048"/>
            </g>
            <g id="Grupo_145561" data-name="Grupo 145561" transform="translate(12.087)">
              <g id="Grupo_145555" data-name="Grupo 145555">
                <path id="Trazado_244147" data-name="Trazado 244147" d="M3762.817-4018.091l23.693-14c3.549-.057,6.422-.9,8.3-2.9,4.9,1.517,8.656-1.944,6.141-4.352a3.018,3.018,0,0,0-.385-3.5,2.422,2.422,0,0,0,.027-3.138c-.117-3.877-3.449-6.16-9.5-4.476,1.08-4.689,1.814-9.153-2.129-10.581-1.109,5.134-2.206,10.455-3.535,12.241a34.364,34.364,0,0,0-5.412,4.594l-25.717,11.283Z" transform="translate(-3754.296 4061.041)" fill="#f9b384"/>
              </g>
              <g id="Grupo_145556" data-name="Grupo 145556" transform="translate(36.268 12.084)">
                <path id="Trazado_244148" data-name="Trazado 244148" d="M4111.165-3937.707a5.78,5.78,0,0,1-1.345-.157,2.934,2.934,0,0,1-1.874-1.112,1.939,1.939,0,0,1,.1-1.8,1.356,1.356,0,0,1,1.312-.7l1.765.151,2.25-1.943.189.218-2.345,2.024-1.88-.162a1.067,1.067,0,0,0-1.042.554,1.673,1.673,0,0,0-.106,1.5,2.634,2.634,0,0,0,1.7.988,5.52,5.52,0,0,0,3.536-.333l4.315-1.947.119.263-4.315,1.947A5.8,5.8,0,0,1,4111.165-3937.707Z" transform="translate(-4107.77 3943.266)" fill="#e28b6d"/>
              </g>
              <g id="Grupo_145557" data-name="Grupo 145557" transform="translate(36.221 16.798)">
                <path id="Trazado_244149" data-name="Trazado 244149" d="M4111.2-3893.417a2.376,2.376,0,0,1-.511-.05,4.76,4.76,0,0,1-3.345-2.277c-.175-.535.493-1.474.57-1.58l.232.17c-.256.352-.626,1.021-.527,1.32a4.521,4.521,0,0,0,3.133,2.085c1.924.422,6.493-2.275,6.539-2.3l.147.248C4117.26-3895.7,4113.4-3893.417,4111.2-3893.417Z" transform="translate(-4107.314 3897.323)" fill="#e28b6d"/>
              </g>
              <g id="Grupo_145558" data-name="Grupo 145558" transform="translate(35.758 19.806)">
                <path id="Trazado_244150" data-name="Trazado 244150" d="M4108.021-3864.395a6.87,6.87,0,0,1-.842-.05c-3.146-.387-3.95-.82-4.275-1.437a1.556,1.556,0,0,1,.249-1.522,1.84,1.84,0,0,1,2.051-.509l-.069.28a1.563,1.563,0,0,0-1.755.407,1.265,1.265,0,0,0-.22,1.21c.266.5,1.057.917,4.056,1.286,2.934.361,6.378-1.49,6.414-1.508l.138.253A13.892,13.892,0,0,1,4108.021-3864.395Z" transform="translate(-4102.801 3868.005)" fill="#e28b6d"/>
              </g>
              <g id="Grupo_145559" data-name="Grupo 145559" transform="translate(37.505 22.834)">
                <path id="Trazado_244151" data-name="Trazado 244151" d="M4122.791-3835.141c-1.232-.469-2.954-1.685-2.958-2.594,0-.233.106-.552.629-.759l.106.268c-.449.177-.448.411-.448.489,0,.7,1.522,1.848,2.773,2.327Z" transform="translate(-4119.832 3838.493)" fill="#e28b6d"/>
              </g>
              <g id="Grupo_145560" data-name="Grupo 145560" transform="translate(34.549 16.284)">
                <path id="Trazado_244152" data-name="Trazado 244152" d="M4091.107-3896.344l-.088-.274c1.5-.483,1.72-3.557,1.849-5.394l.023-.32.288.021-.025.319C4093.011-3899.959,4092.794-3896.886,4091.107-3896.344Z" transform="translate(-4091.019 3902.333)" fill="#e28b6d"/>
              </g>
            </g>
            <g id="Grupo_145562" data-name="Grupo 145562" transform="translate(0 19.113)">
              <path id="Trazado_244153" data-name="Trazado 244153" d="M3669.113-3874.762a29.46,29.46,0,0,0,8.345,14.955L3650.8-3844.2l-14.306-19.508Z" transform="translate(-3636.492 3874.762)" fill="#fff59d"/>
            </g>
          </g>
          <g id="Grupo_145572" data-name="Grupo 145572" transform="translate(103.669 36.847)">
            <g id="Grupo_145570" data-name="Grupo 145570">
              <g id="Grupo_145564" data-name="Grupo 145564">
                <path id="Trazado_244154" data-name="Trazado 244154" d="M4810.267-4504.87l-7.668,14.241-16.759-9.29-6-3.328c-3.354.037-6.093-.684-7.92-2.525-4.59,1.561-8.231-1.611-5.918-3.953a2.853,2.853,0,0,1,.275-3.323,2.29,2.29,0,0,1-.108-2.965c.011-3.668,3.1-5.911,8.867-4.477-1.143-4.4-1.953-8.6,1.737-10.057,1.182,4.823,2.358,9.824,3.661,11.477a32.67,32.67,0,0,1,5.234,4.2l3.562,1.448Z" transform="translate(-4765.285 4530.546)" fill="#f9b384"/>
              </g>
              <g id="Grupo_145565" data-name="Grupo 145565" transform="translate(0.825 11.598)">
                <path id="Trazado_244155" data-name="Trazado 244155" d="M4779.565-4412.287a5.473,5.473,0,0,1-2.115-.422l-4.13-1.728.116-.278,4.131,1.728a5.2,5.2,0,0,0,3.341.221,2.491,2.491,0,0,0,1.572-.971,1.568,1.568,0,0,0-.141-1.4,1,1,0,0,0-.988-.489l-1.776.2-2.272-1.855.191-.234,2.173,1.774,1.654-.188a1.3,1.3,0,0,1,1.276.632,1.844,1.844,0,0,1,.142,1.715,2.791,2.791,0,0,1-1.752,1.106A5.492,5.492,0,0,1,4779.565-4412.287Z" transform="translate(-4773.321 4417.512)" fill="#e28b6d"/>
              </g>
              <g id="Grupo_145566" data-name="Grupo 145566" transform="translate(0.916 15.924)">
                <path id="Trazado_244156" data-name="Trazado 244156" d="M4780.092-4371.539c-2.1,0-5.711-2-5.878-2.1l.147-.265c.044.024,4.424,2.454,6.23,2a4.265,4.265,0,0,0,2.9-2.042c.083-.28-.281-.9-.53-1.22l.24-.185c.076.1.735.974.581,1.491a4.513,4.513,0,0,1-3.113,2.25A2.323,2.323,0,0,1,4780.092-4371.539Z" transform="translate(-4774.214 4375.342)" fill="#e28b6d"/>
              </g>
              <g id="Grupo_145567" data-name="Grupo 145567" transform="translate(0.648 18.777)">
                <path id="Trazado_244157" data-name="Trazado 244157" d="M4776.877-4344a13.365,13.365,0,0,1-5.276-1.358l.138-.27c.032.016,3.335,1.672,6.093,1.257,2.818-.426,3.553-.833,3.789-1.312a1.177,1.177,0,0,0-.239-1.121,1.46,1.46,0,0,0-1.653-.334l-.081-.292a1.753,1.753,0,0,1,1.967.433,1.463,1.463,0,0,1,.277,1.449c-.292.6-1.042,1.029-4.014,1.477A6.569,6.569,0,0,1,4776.877-4344Z" transform="translate(-4771.602 4347.539)" fill="#e28b6d"/>
              </g>
              <g id="Grupo_145568" data-name="Grupo 145568" transform="translate(6.576 21.659)">
                <path id="Trazado_244158" data-name="Trazado 244158" d="M4829.492-4316.2l-.116-.28c1.16-.479,2.564-1.616,2.551-2.256,0-.07-.006-.284-.425-.436l.1-.285c.506.184.619.489.624.714C4832.248-4317.876,4830.648-4316.677,4829.492-4316.2Z" transform="translate(-4829.376 4319.456)" fill="#e28b6d"/>
              </g>
              <g id="Grupo_145569" data-name="Grupo 145569" transform="translate(9.963 15.436)">
                <path id="Trazado_244159" data-name="Trazado 244159" d="M4864.508-4374.475c-1.619-.472-1.9-3.376-2.094-5.3l-.029-.3.3-.031.031.3c.169,1.729.455,4.624,1.876,5.038Z" transform="translate(-4862.385 4380.104)" fill="#e28b6d"/>
              </g>
            </g>
            <g id="Grupo_145571" data-name="Grupo 145571" transform="translate(20.555 17.126)">
              <path id="Trazado_244160" data-name="Trazado 244160" d="M4990.043-4355.08l-2.46,17.541-21.967-12.588c1.895-3.155,3.435-6.935,3.387-13.5Z" transform="translate(-4965.617 4363.629)" fill="#fff59d"/>
            </g>
          </g>
        </g>
      </g>
    </g>
  </g>
</svg>
