<svg xmlns="http://www.w3.org/2000/svg" width="573.867" height="459.118" viewBox="0 0 573.867 459.118">
  <g id="Grupo_163238" data-name="Grupo 163238" transform="translate(9142 6356.287)">
    <g id="Grupo_145299" data-name="Grupo 145299" transform="translate(2562.207 -3395)">
      <rect id="Rectángulo_43171" data-name="Rectángulo 43171" width="277.202" height="428.556" rx="6" transform="translate(-11703.207 -2946.006)" fill="#f0f8ff" stroke="#1b3f5e" stroke-width="2"/>
      <rect id="Rectángulo_43176" data-name="Rectángulo 43176" width="277.202" height="428.556" rx="6" transform="translate(-11408.542 -2946.006)" fill="#f0f8ff" stroke="#1b3f5e" stroke-width="2"/>
      <rect id="Rectángulo_43158" data-name="Rectángulo 43158" width="219.961" height="60.765" rx="6" transform="translate(-11674.586 -2818.716)" fill="#1b3f5e"/>
      <rect id="Rectángulo_43174" data-name="Rectángulo 43174" width="219.961" height="78.765" rx="6" transform="translate(-11379.921 -2818.716)" fill="#1b3f5e"/>
      <rect id="Rectángulo_43173" data-name="Rectángulo 43173" width="219.961" height="96.316" rx="6" transform="translate(-11379.921 -2731.728)" fill="#1b3f5e"/>
      <rect id="Rectángulo_43172" data-name="Rectángulo 43172" width="219.961" height="77.21" rx="6" transform="translate(-11379.921 -2627.19)" fill="#1b3f5e"/>
      <rect id="Rectángulo_43159" data-name="Rectángulo 43159" width="219.961" height="60.765" rx="6" transform="translate(-11674.898 -2749.034)" fill="#1b3f5e"/>
      <rect id="Rectángulo_43160" data-name="Rectángulo 43160" width="219.961" height="60.765" rx="6" transform="translate(-11674.586 -2680.046)" fill="#1b3f5e"/>
      <rect id="Rectángulo_43161" data-name="Rectángulo 43161" width="219.961" height="60.765" rx="6" transform="translate(-11674.586 -2610.746)" fill="#1b3f5e"/>
      <text id="Chats" transform="translate(-11674.586 -2799.491)" fill="#fff" font-size="16" font-family="Roboto-Regular, Roboto"><tspan x="-20.703" y="17">Chats</tspan></text>
      <text id="Correo_electrónico" data-name="Correo electrónico" transform="translate(-11379.921 -2790.491)" fill="#fff" font-size="16" font-family="Roboto-Regular, Roboto"><tspan x="-65.559" y="17">Correo electrónico</tspan></text>
      <text id="Redes_sociales" data-name="Redes sociales" transform="translate(-11379.921 -2694.729)" fill="#fff" font-size="16" font-family="Roboto-Regular, Roboto"><tspan x="-53.492" y="17">Redes sociales</tspan></text>
      <text id="Blogs" transform="translate(-11379.921 -2599.744)" fill="#fff" font-size="16" font-family="Roboto-Regular, Roboto"><tspan x="-20.098" y="17">Blogs</tspan></text>
      <text id="Mensajería_Instantánea" data-name="Mensajería
Instantánea" transform="translate(-11674.898 -2742.143)" fill="#fff" font-size="16" font-family="Roboto-Regular, Roboto"><tspan x="-39.297" y="17">Mensajería</tspan><tspan x="-42.063" y="38">Instantánea</tspan></text>
      <text id="Foros" transform="translate(-11674.586 -2660.822)" fill="#fff" font-size="16" font-family="Roboto-Regular, Roboto"><tspan x="-20.219" y="17">Foros</tspan></text>
      <text id="Videoconferencias" transform="translate(-11674.586 -2591.521)" fill="#fff" font-size="16" font-family="Roboto-Regular, Roboto"><tspan x="-66.488" y="17">Videoconferencias</tspan></text>
      <rect id="Rectángulo_43165" data-name="Rectángulo 43165" width="219.961" height="90.089" rx="6" transform="translate(-11674.586 -2918.045)" fill="#fff59d" stroke="#fff" stroke-miterlimit="10" stroke-width="3"/>
      <rect id="Rectángulo_43175" data-name="Rectángulo 43175" width="219.961" height="90.089" rx="6" transform="translate(-11379.921 -2918.045)" fill="#fff59d" stroke="#fff" stroke-miterlimit="10" stroke-width="3"/>
      <text id="Sincrónica" transform="translate(-11567.288 -2866.334)" fill="#1b3f5e" font-size="20" font-family="Roboto-Bold, Roboto" font-weight="700" letter-spacing="0.018em"><tspan x="-49.364" y="0">Sincrónica</tspan></text>
      <text id="Asincrónica" transform="translate(-11270.67 -2866.334)" fill="#1b3f5e" font-size="21" font-family="Roboto-Bold, Roboto" font-weight="700" letter-spacing="0.018em"><tspan x="-58.03" y="0">Asincrónica</tspan></text>
    </g>
    <g id="Grupo_145302" data-name="Grupo 145302" transform="translate(-8578 -6325.725) rotate(180)">
      <path id="Trazado_114972" data-name="Trazado 114972" d="M9.487,0H0L7.19,15.281,0,30.562H9.487l7.19-15.281Z" fill="#d84318"/>
      <path id="Trazado_114973" data-name="Trazado 114973" d="M9.487,0H0L7.19,15.281,0,30.562H9.487l7.19-15.281Z" transform="translate(16.677 0)" fill="#d84318"/>
      <path id="Trazado_114974" data-name="Trazado 114974" d="M9.487,0H0L7.19,15.281,0,30.562H9.487l7.19-15.281Z" transform="translate(33.354 0)" fill="#d84318"/>
      <path id="Trazado_114975" data-name="Trazado 114975" d="M9.487,0H0L7.19,15.281,0,30.562H9.487l7.19-15.281Z" transform="translate(50.031 0)" fill="#d84318"/>
      <path id="Trazado_114976" data-name="Trazado 114976" d="M9.487,0H0L7.19,15.281,0,30.562H9.487l7.19-15.281Z" transform="translate(66.708 0)" fill="#d84318"/>
      <path id="Trazado_114977" data-name="Trazado 114977" d="M9.487,0H0L7.19,15.281,0,30.562H9.487l7.19-15.281Z" transform="translate(83.385 0)" fill="#d84318"/>
      <path id="Trazado_114978" data-name="Trazado 114978" d="M9.487,0H0L7.19,15.281,0,30.562H9.487l7.19-15.281Z" transform="translate(100.062 0)" fill="#d84318"/>
      <path id="Trazado_114979" data-name="Trazado 114979" d="M9.487,0H0L7.19,15.281,0,30.562H9.487l7.19-15.281Z" transform="translate(116.739 0)" fill="#d84318"/>
    </g>
    <g id="Grupo_145303" data-name="Grupo 145303" transform="translate(-9131 -5927.731)">
      <path id="Trazado_114972-2" data-name="Trazado 114972" d="M729.852,386.057h-9.487l7.19,15.281-7.19,15.281h9.487l7.19-15.281Z" transform="translate(-720.365 -386.057)" fill="#d84318"/>
      <path id="Trazado_114973-2" data-name="Trazado 114973" d="M746.138,386.057H736.65l7.19,15.281-7.19,15.281h9.487l7.19-15.281Z" transform="translate(-719.973 -386.057)" fill="#d84318"/>
      <path id="Trazado_114974-2" data-name="Trazado 114974" d="M762.422,386.057h-9.487l7.19,15.281-7.19,15.281h9.487l7.19-15.281Z" transform="translate(-719.581 -386.057)" fill="#d84318"/>
      <path id="Trazado_114975-2" data-name="Trazado 114975" d="M778.708,386.057h-9.487l7.19,15.281-7.19,15.281h9.487l7.19-15.281Z" transform="translate(-719.19 -386.057)" fill="#d84318"/>
      <path id="Trazado_114976-2" data-name="Trazado 114976" d="M794.993,386.057h-9.487l7.19,15.281-7.19,15.281h9.487l7.19-15.281Z" transform="translate(-718.798 -386.057)" fill="#d84318"/>
      <path id="Trazado_114977-2" data-name="Trazado 114977" d="M811.278,386.057h-9.487l7.19,15.281-7.19,15.281h9.487l7.19-15.281Z" transform="translate(-718.406 -386.057)" fill="#d84318"/>
      <path id="Trazado_114978-2" data-name="Trazado 114978" d="M827.563,386.057h-9.487l7.19,15.281-7.19,15.281h9.487l7.19-15.281Z" transform="translate(-718.014 -386.057)" fill="#d84318"/>
      <path id="Trazado_114979-2" data-name="Trazado 114979" d="M843.849,386.057h-9.487l7.19,15.281-7.19,15.281h9.487l7.19-15.281Z" transform="translate(-717.622 -386.057)" fill="#d84318"/>
    </g>
  </g>
</svg>
