<svg xmlns="http://www.w3.org/2000/svg" width="207.965" height="123.29" viewBox="0 0 207.965 123.29">
  <g id="Grupo_163300" data-name="Grupo 163300" transform="translate(-1211.405 -867.3)">
    <g id="Grupo_163299" data-name="Grupo 163299">
      <g id="Grupo_163285" data-name="Grupo 163285">
        <g id="Grupo_163215" data-name="Grupo 163215">
          <g id="Grupo_163169" data-name="Grupo 163169" transform="translate(1135.63 867.3)" opacity="0.2">
            <g id="Grupo_129451" data-name="Grupo 129451" transform="translate(283.74 60.228) rotate(180)">
              <path id="Trazado_114977" data-name="Trazado 114977" d="M18.7,0H0L14.169,30.114,0,60.228H18.7L32.865,30.114Z" fill="#d84318"/>
              <path id="Trazado_114978" data-name="Trazado 114978" d="M18.7,0H0L14.169,30.114,0,60.228H18.7L32.865,30.114Z" transform="translate(32.865 0)" fill="#d84318"/>
              <path id="Trazado_114979" data-name="Trazado 114979" d="M18.7,0H0L14.169,30.114,0,60.228H18.7L32.865,30.114Z" transform="translate(65.73 0)" fill="#d84318"/>
            </g>
            <g id="Grupo_129486" data-name="Grupo 129486" transform="translate(75.775 63.062)">
              <path id="Trazado_114977-2" data-name="Trazado 114977" d="M18.7,0H0L14.169,30.114,0,60.228H18.7L32.865,30.114Z" transform="translate(0 0)" fill="#1b3f5e"/>
              <path id="Trazado_114978-2" data-name="Trazado 114978" d="M18.7,0H0L14.169,30.114,0,60.228H18.7L32.865,30.114Z" transform="translate(32.865 0)" fill="#1b3f5e"/>
              <path id="Trazado_114979-2" data-name="Trazado 114979" d="M18.7,0H0L14.169,30.114,0,60.228H18.7L32.865,30.114Z" transform="translate(65.73 0)" fill="#1b3f5e"/>
            </g>
          </g>
          <g id="Grupo_163170" data-name="Grupo 163170" transform="translate(-2291.903 5352.727)">
            <path id="Trazado_245822" data-name="Trazado 245822" d="M3650.919-4389.971a3.226,3.226,0,0,1-3.454,2.154c-5.577-.058-11.155-.014-16.732-.033-.588,0-.9.112-1.111.741a5.946,5.946,0,0,1-5.737,3.9c-10.225.019-20.451.043-30.675-.042a43.172,43.172,0,0,1-16.186-3.664c-.666-.275-.921-.256-1.194.5a3.182,3.182,0,0,1-3.13,2.209c-2.526.04-5.055.047-7.582,0a3.465,3.465,0,0,1-3.435-3.456c-.042-1.422-.012-2.847-.012-4.271q0-12.9,0-25.8c0-2.851,1.351-4.2,4.213-4.2,2.091,0,4.183.008,6.274,0a3.62,3.62,0,0,1,3.353,1.627c.332.524.488.117.676-.1q2.995-3.458,5.978-6.925a4.463,4.463,0,0,1,1.426-1.111c3.287-1.649,6.563-3.32,9.858-4.953a1.239,1.239,0,0,0,.818-1.3c-.032-8.86-.021-17.721-.021-26.582,0-2.484.982-3.452,3.5-3.452q18.955,0,37.909-.016a2.774,2.774,0,0,1,2.145.9c4.026,4.068,8.083,8.1,12.127,12.153.342.343.662.708.993,1.063Z" transform="translate(0 0)"/>
            <path id="Trazado_245823" data-name="Trazado 245823" d="M3673.379-4266.035a3.314,3.314,0,0,1-3.355,2c-3.8.018-7.6.006-11.4.006-5.281,0-10.565-.087-15.844.021a48.818,48.818,0,0,1-19.859-4.044c-.464-.191-.485-.475-.471-.867a1.383,1.383,0,0,0-1.257-1.59,5.6,5.6,0,0,1-.008-3.444c1-.228,1.284-.9,1.28-1.867-.023-6.007-.007-12.013-.021-18.021a1.728,1.728,0,0,1,.448-1.244q3.633-4.165,7.217-8.372a4.408,4.408,0,0,1,1.42-1.107q4.157-2.073,8.29-4.192c.566-.292.766-.3.756.441-.036,2.728-.017,5.456-.013,8.183,0,1.291.3,1.627,1.586,1.807a1.905,1.905,0,0,1,.423.547,4.609,4.609,0,0,0,4.382,2.47q7.536,0,15.071,0,5.837,0,11.673,0a5.825,5.825,0,0,1,2.536.525,1.858,1.858,0,0,1,.994.8,3.192,3.192,0,0,1-3.331,2.246c-3.8.01-7.6,0-11.406,0-.2,0-.407-.008-.609,0a1.31,1.31,0,0,0-1.411,1.24,1.292,1.292,0,0,0,1.206,1.356c.114.021.229.031.344.046a2.355,2.355,0,0,1,.54.674,4.587,4.587,0,0,0,4.345,2.354c5.214,0,10.428,0,15.641-.007a6.251,6.251,0,0,1,2.708.5,1.881,1.881,0,0,1,.987.808,3.228,3.228,0,0,1-3.4,2.254q-10.133.01-20.266,0c-.232,0-.464,0-.7,0a1.264,1.264,0,0,0-1.394,1.154,1.244,1.244,0,0,0,1.109,1.421c.14.034.285.046.428.067a1.769,1.769,0,0,1,.5.593,4.524,4.524,0,0,0,4.379,2.445q4.96,0,9.922,0a5.234,5.234,0,0,1,2.9.782.893.893,0,0,1,.438.519,3.341,3.341,0,0,1-3.514,2.245q-6.821.011-13.643,0c-.261,0-.521,0-.782,0-1.079.008-1.659.391-1.749,1.156-.093.784.432,1.289,1.55,1.493a1.618,1.618,0,0,1,.448.521,4.6,4.6,0,0,0,4.487,2.529c1.126.007,2.253,0,3.379,0a5.262,5.262,0,0,1,2.336.571C3673.059-4266.8,3673.44-4266.576,3673.379-4266.035Z" transform="translate(-46.311 -121.778)" fill="#fed89f"/>
            <path id="Trazado_245824" data-name="Trazado 245824" d="M3755.012-4383.062c5.9.646,9.266-4.612,6.705-9.234.555-.035,1.1-.039,1.633-.111a5.85,5.85,0,0,0,5.291-6.225,6.022,6.022,0,0,0-5.972-5.547c-1.3-.027-2.59,0-4.008,0a5.815,5.815,0,0,0,.769-4.833,5.975,5.975,0,0,0-5.729-4.392c-1.073-.037-2.149-.01-3.224-.01-8.946,0-17.892-.01-26.838.018-.72,0-.9-.164-.9-.892q.037-18.779,0-37.559c0-.75.156-.968.944-.966q18.212.042,36.423.005c.662,0,.875.135.865.841-.042,3.107-.022,6.216-.017,9.324,0,2.05,1.053,3.093,3.115,3.1,3.137.006,6.274.014,9.411-.011.546,0,.735.109.734.7q-.024,28.5,0,56.993c0,.636-.207.755-.789.752q-8.5-.03-16.992,0c-.471,0-.744-.093-.873-.589A11.031,11.031,0,0,0,3755.012-4383.062Z" transform="translate(-125.9 -9.327)" fill="#e0eefa"/>
            <path id="Trazado_245825" data-name="Trazado 245825" d="M3584.248-4233.146q0,1.722.009,3.443c-1.017.222-1.333.582-1.35,1.593-.015.9-.009,1.8,0,2.7.007.779-.345,1.2-1.146,1.2-2.293,0-4.586.009-6.879,0-.915-.005-1.215-.333-1.217-1.292-.008-2.583,0-5.167,0-7.75q0-10.972,0-21.944c0-1.3.219-1.521,1.513-1.523q3.179-.006,6.356,0c1.113,0,1.372.271,1.373,1.4q0,10.144,0,20.29C3582.905-4233.771,3583.094-4233.511,3584.248-4233.146Z" transform="translate(-9.377 -162.584)" fill="#d84318"/>
            <path id="Trazado_245826" data-name="Trazado 245826" d="M3753.2-4256.106c-1.727-1.213-3.7-1.069-5.662-1.065q-12.53.025-25.06.006a4.5,4.5,0,0,1-4.356-3.283c2.2-.01,4.408-.028,6.611-.028q12.487-.006,24.974,0a3.405,3.405,0,0,1,3.694,2.943A2.342,2.342,0,0,1,3753.2-4256.106Z" transform="translate(-122.287 -159.653)" fill="#f3cd9d"/>
            <path id="Trazado_245827" data-name="Trazado 245827" d="M3833.326-4213.84c-1.532-1.081-3.275-1.073-5.051-1.06q-7.349.056-14.7,0a4.5,4.5,0,0,1-4.473-3.278q8.572-.015,17.144-.029c1.363,0,2.727-.021,4.09.014A3.259,3.259,0,0,1,3833.326-4213.84Z" transform="translate(-193.397 -192.69)" fill="#f3cd9d"/>
            <path id="Trazado_245828" data-name="Trazado 245828" d="M3827.243-4171.518a6.856,6.856,0,0,0-4.279-1.063c-3.1.05-6.194.019-9.292.014a4.574,4.574,0,0,1-4.567-3.29c5.105-.007,10.212-.057,15.317,0A3.158,3.158,0,0,1,3827.243-4171.518Z" transform="translate(-193.399 -225.772)" fill="#f3cd9d"/>
            <path id="Trazado_245829" data-name="Trazado 245829" d="M3918.044-4434.028c-2.531,0-5.243-.005-7.955,0-.441,0-.43-.262-.43-.568,0-2.665,0-5.329,0-7.821Z" transform="translate(-271.99 -17.457)" fill="#fff59d"/>
            <path id="Trazado_245830" data-name="Trazado 245830" d="M3820.466-4129.036a3.309,3.309,0,0,0-2.875-1.274,47.566,47.566,0,0,1-4.932-.164,4.329,4.329,0,0,1-3.555-3.141c2.875-.007,5.751-.088,8.622,0A3.17,3.17,0,0,1,3820.466-4129.036Z" transform="translate(-193.399 -258.777)" fill="#f3cd9d"/>
            <path id="Trazado_245831" data-name="Trazado 245831" d="M3759.415-4418.164q-5.84,0-11.679,0a2.4,2.4,0,0,1-2.723-2.713q-.011-5.4,0-10.808a2.385,2.385,0,0,1,2.693-2.665q11.722-.007,23.444,0a2.4,2.4,0,0,1,2.724,2.723q.011,5.4,0,10.808a2.38,2.38,0,0,1-2.693,2.655Q3765.3-4418.159,3759.415-4418.164Z" transform="translate(-143.299 -23.756)"/>
            <path id="Trazado_245832" data-name="Trazado 245832" d="M3767.117-4298.2q-9.192,0-18.385,0a4.869,4.869,0,0,1-1.124-.089,1.148,1.148,0,0,1-.921-1.21,1.149,1.149,0,0,1,.9-1.226,4.141,4.141,0,0,1,1.035-.1q18.561-.007,37.121,0c.2,0,.407-.008.609.012.868.087,1.348.55,1.354,1.292a1.28,1.28,0,0,1-1.332,1.311c-.288.027-.58.014-.871.014Z" transform="translate(-144.613 -128.117)" fill="#010101"/>
            <path id="Trazado_245833" data-name="Trazado 245833" d="M3810.67-4332.4q6.615,0,13.23,0a4.267,4.267,0,0,1,.953.046,1.181,1.181,0,0,1,.976,1.08,1.2,1.2,0,0,1-.75,1.335,2.79,2.79,0,0,1-1.2.15q-13.229,0-26.459,0a4.175,4.175,0,0,1-.947-.083,1.167,1.167,0,0,1-.984-1.331,1.191,1.191,0,0,1,1.167-1.175,6.965,6.965,0,0,1,.783-.019Z" transform="translate(-182.753 -103.441)"/>
            <path id="Trazado_245834" data-name="Trazado 245834" d="M3750.253-4332.392c.754,0,1.509-.023,2.262.007a1.244,1.244,0,0,1,1.305,1.238,1.192,1.192,0,0,1-1.14,1.3c-1.619.063-3.245.07-4.863,0a1.166,1.166,0,0,1-1.107-1.394,1.218,1.218,0,0,1,1.283-1.153c.058,0,.116,0,.174,0h2.087Z" transform="translate(-144.623 -103.441)" fill="#010101"/>
            <path id="Trazado_245835" data-name="Trazado 245835" d="M3768.761-4422.456c3.688,0,7.376.014,11.064-.015.616,0,.774.173.769.776q-.043,4.748,0,9.5c0,.572-.155.718-.721.716q-11.108-.028-22.215,0c-.559,0-.731-.132-.725-.712q.044-4.7,0-9.409c-.008-.671.152-.879.854-.871C3761.443-4422.437,3765.1-4422.456,3768.761-4422.456Z" transform="translate(-152.62 -33.041)" fill="#fff59d"/>
            <path id="Trazado_245836" data-name="Trazado 245836" d="M3763.6-4409.7c0-.756-.014-1.511,0-2.266.021-.942.55-1.535,1.325-1.521a1.34,1.34,0,0,1,1.282,1.473c.02,1.51.022,3.021,0,4.531a1.324,1.324,0,0,1-1.32,1.432,1.342,1.342,0,0,1-1.284-1.471C3763.584-4408.25,3763.6-4408.977,3763.6-4409.7Z" transform="translate(-157.828 -40.063)"/>
            <path id="Trazado_245837" data-name="Trazado 245837" d="M3786.85-4409.788c0,.755.022,1.511-.006,2.265-.036.929-.6,1.517-1.368,1.479a1.338,1.338,0,0,1-1.24-1.5q-.023-2.223,0-4.444a1.322,1.322,0,0,1,1.26-1.481,1.365,1.365,0,0,1,1.35,1.417c.005.058,0,.116,0,.174Q3786.851-4410.834,3786.85-4409.788Z" transform="translate(-173.951 -40.078)" fill="#000101"/>
            <path id="Trazado_245838" data-name="Trazado 245838" d="M3848.473-4409.755c0,.785.022,1.569-.006,2.353a1.3,1.3,0,0,1-1.211,1.35,1.3,1.3,0,0,1-1.372-1.282q-.073-2.437,0-4.877a1.305,1.305,0,0,1,1.3-1.27,1.328,1.328,0,0,1,1.285,1.374c0,.058,0,.116,0,.174v2.177Z" transform="translate(-222.117 -40.07)" fill="#000001"/>
            <path id="Trazado_245839" data-name="Trazado 245839" d="M3807.4-4409.7c0,.726.027,1.453-.007,2.178-.044.931-.607,1.517-1.361,1.485a1.345,1.345,0,0,1-1.246-1.5q-.035-2.221,0-4.443a1.332,1.332,0,0,1,1.259-1.485c.758-.025,1.288.561,1.355,1.5,0,.059,0,.117,0,.174q0,1.047,0,2.091Z" transform="translate(-190.004 -40.081)" fill="#010101"/>
            <path id="Trazado_245840" data-name="Trazado 245840" d="M3827.911-4409.711c0,.784.014,1.569,0,2.352a1.26,1.26,0,0,1-1.216,1.338,1.262,1.262,0,0,1-1.361-1.28c-.053-1.624-.045-3.251,0-4.876a1.233,1.233,0,0,1,1.3-1.254,1.271,1.271,0,0,1,1.272,1.367C3827.938-4411.28,3827.912-4410.5,3827.911-4409.711Z" transform="translate(-206.051 -40.108)" fill="#010101"/>
          </g>
        </g>
      </g>
    </g>
  </g>
</svg>
