<?xml version="1.0" encoding="utf-8"?>
<!-- Generator: Adobe Illustrator 25.4.1, SVG Export Plug-In . SVG Version: 6.00 Build 0)  -->
<svg version="1.1" id="Capa_1" xmlns="http://www.w3.org/2000/svg" xmlns:xlink="http://www.w3.org/1999/xlink" x="0px" y="0px"
	 viewBox="0 0 822.5 423.7" style="enable-background:new 0 0 822.5 423.7;" xml:space="preserve">
<style type="text/css">
	.st0{fill:#F0F8FF;stroke:#1B3F5E;stroke-width:2;}
	.st1{fill:#1B3F5E;}
	.st2{font-family:'Roboto-Regular';}
	.st3{font-size:16px;}
	.st4{fill:#1B3F5E;stroke:#FFFCDD;stroke-width:3;stroke-miterlimit:10;}
	.st5{fill:#FFFFFF;}
	.st6{font-family:'Roboto-Bold';}
	.st7{font-size:18px;}
</style>
<g id="Grupo_163264" transform="translate(-388.5 -3554.9)">
	<g id="Grupo_163263">
		<g id="Grupo_145377" transform="translate(14180.968 4223.916)">
			<path id="Rectángulo_43261" class="st0" d="M-13650.3-661.5h673.3c3.3,0,6,2.7,6,6v106.7c0,3.3-2.7,6-6,6h-673.3
				c-3.3,0-6-2.7-6-6v-106.7C-13656.3-658.8-13653.6-661.5-13650.3-661.5z"/>
			<text transform="matrix(1 0 0 1 -13625.9365 -605.165)" class="st1 st2 st3">Hace control mediante la identificación y registro de todo producto o mercancía que sale </text>
			<text transform="matrix(1 0 0 1 -13625.9365 -584.165)" class="st1 st2 st3">de las bodegas de la empresa, hasta que sea llevada donde es requerida por el cliente.</text>
			<path id="Rectángulo_43258" class="st4" d="M-13784-667.5h134.5c3.9,0,7,3.1,7,7v116.7c0,3.9-3.1,7-7,7h-134.5c-3.9,0-7-3.1-7-7
				v-116.7C-13791-664.4-13787.8-667.5-13784-667.5z"/>
			<text transform="matrix(1 0 0 1 -13769.1055 -607.016)" class="st5 st6 st7">Trazabilidad</text>
			<text transform="matrix(1 0 0 1 -13765.8594 -585.016)" class="st5 st6 st7">ascendente</text>
			<path id="Rectángulo_43262" class="st0" d="M-13650.3-516.5h673.3c3.3,0,6,2.7,6,6v106.7c0,3.3-2.7,6-6,6h-673.3
				c-3.3,0-6-2.7-6-6v-106.7C-13656.3-513.8-13653.6-516.5-13650.3-516.5z"/>
			<text transform="matrix(1 0 0 1 -13625.9365 -475.516)" class="st1 st2 st3">Identificar la procedencia de todas las materias primas, insumos y productos que llegan </text>
			<text transform="matrix(1 0 0 1 -13625.9365 -454.516)" class="st1 st2 st3">a la organización, además de los datos de sus proveedores, qué tipo de mercancía se </text>
			<text transform="matrix(1 0 0 1 -13625.9365 -433.516)" class="st1 st2 st3">envió, qué referencias, cantidades, método de transporte se utilizó, entre otra </text>
			<text transform="matrix(1 0 0 1 -13625.9365 -412.516)" class="st1 st2 st3">información útil.</text>
			<path id="Rectángulo_43259" class="st4" d="M-13784-522.5h134.5c3.9,0,7,3.1,7,7v116.7c0,3.9-3.1,7-7,7h-134.5c-3.9,0-7-3.1-7-7
				v-116.7C-13791-519.4-13787.8-522.5-13784-522.5z"/>
			<text transform="matrix(1 0 0 1 -13781.2676 -456.016)" class="st5 st6 st7">La trazabilidad</text>
			<text transform="matrix(1 0 0 1 -13771.1318 -434.016)" class="st5 st6 st7">descendente</text>
			<path id="Rectángulo_43263" class="st0" d="M-13650.3-371.5h673.3c3.3,0,6,2.7,6,6v106.7c0,3.3-2.7,6-6,6h-673.3
				c-3.3,0-6-2.7-6-6v-106.7C-13656.3-368.8-13653.6-371.5-13650.3-371.5z"/>
			<text transform="matrix(1 0 0 1 -13625.9365 -336.165)" class="st1 st2 st3">Permite hacerle seguimiento a la mercancía dentro de la empresa. Su función es </text>
			<text transform="matrix(1 0 0 1 -13625.9365 -315.165)" class="st1 st2 st3">registrar información sobre todos los procesos internos por los que pasa el producto, </text>
			<text transform="matrix(1 0 0 1 -13625.9365 -294.165)" class="st1 st2 st3">desde su manipulación, maquinaria implementada, temperatura, lote, entre otros datos </text>
			<text transform="matrix(1 0 0 1 -13625.9365 -273.165)" class="st1 st2 st3">relevantes.</text>
			<path id="Rectángulo_43260" class="st4" d="M-13784-377.5h134.5c3.9,0,7,3.1,7,7v116.7c0,3.9-3.1,7-7,7h-134.5c-3.9,0-7-3.1-7-7
				v-116.7C-13791-374.4-13787.8-377.5-13784-377.5z"/>
			<text transform="matrix(1 0 0 1 -13779.291 -317.016)" class="st5 st6 st7">La trazabilidad</text>
			<text transform="matrix(1 0 0 1 -13746.9209 -295.016)" class="st5 st6 st7">interna</text>
		</g>
	</g>
</g>
</svg>
