<svg xmlns="http://www.w3.org/2000/svg" width="276.081" height="96.493" viewBox="0 0 276.081 96.493">
  <g id="Grupo_163270" data-name="Grupo 163270" transform="translate(577.081 7640.494)">
    <g id="Grupo_163269" data-name="Grupo 163269" transform="translate(-72.137 -7544) rotate(180)" opacity="0.5">
      <path id="Trazado_114975" data-name="Trazado 114975" d="M799.174,386.058H769.221l22.7,48.247-22.7,48.247h29.953l22.7-48.247Z" transform="translate(-540.358 -386.057)" fill="#fff59d"/>
      <path id="Trazado_114976" data-name="Trazado 114976" d="M815.459,386.058H785.506l22.7,48.247-22.7,48.247h29.953l22.7-48.247Z" transform="translate(-500.786 -386.057)" fill="#fff59d"/>
      <path id="Trazado_114977" data-name="Trazado 114977" d="M831.744,386.058H801.791l22.7,48.247-22.7,48.247h29.953l22.7-48.247Z" transform="translate(-461.215 -386.057)" fill="#fff59d"/>
      <path id="Trazado_114978" data-name="Trazado 114978" d="M848.03,386.058H818.077l22.7,48.247-22.7,48.247H848.03l22.7-48.247Z" transform="translate(-421.643 -386.057)" fill="#fff59d"/>
      <path id="Trazado_114979" data-name="Trazado 114979" d="M864.315,386.058H834.362l22.7,48.247-22.7,48.247h29.953l22.7-48.246Z" transform="translate(-382.072 -386.057)" fill="#fff59d"/>
    </g>
  </g>
</svg>
