<svg xmlns="http://www.w3.org/2000/svg" width="626.089" height="315.5" viewBox="0 0 626.089 315.5">
  <g id="Grupo_163294" data-name="Grupo 163294" transform="translate(-4734 7435.637)">
    <text id="Calidad_de_pedidos_generados_" data-name="Calidad de pedidos generados =" transform="translate(4749 -7408.637)" fill="#fff" font-size="16" font-family="Roboto-Italic, Roboto" font-style="italic"><tspan x="0" y="0">Calidad de pedidos generados =</tspan></text>
    <text id="Calidad_de_proveedores_" data-name="Calidad de proveedores =" transform="translate(4749 -7338.274)" fill="#fff" font-size="16" font-family="Roboto-Italic, Roboto" font-style="italic"><tspan x="0" y="0">Calidad de proveedores =</tspan></text>
    <text id="Calidad_de_pedidos_" data-name="Calidad de pedidos =" transform="translate(4749 -7267.911)" fill="#fff" font-size="16" font-family="Roboto-Italic, Roboto" font-style="italic"><tspan x="0" y="0">Calidad de pedidos =</tspan></text>
    <text id="Volumen_de_compra_" data-name="Volumen de compra =" transform="translate(4875.5 -7202.137)" fill="#fff" font-size="16" font-family="Roboto-Italic, Roboto" font-style="italic"><tspan x="0" y="0">Volumen de compra =</tspan></text>
    <text id="Entregas_perfectamente_recibidas_" data-name="Entregas perfectamente recibidas=" transform="translate(4875.5 -7136.137)" fill="#fff" font-size="16" font-family="Roboto-Italic, Roboto" font-style="italic"><tspan x="0" y="0">Entregas perfectamente recibidas=</tspan></text>
    <text id="x100" transform="translate(5117 -7268.411)" fill="#fff" font-size="16" font-family="Roboto-Regular, Roboto"><tspan x="0" y="0">x100</tspan></text>
    <text id="x100-2" data-name="x100" transform="translate(5194.562 -7408.137)" fill="#fff" font-size="16" font-family="Roboto-Regular, Roboto"><tspan x="0" y="0">x100</tspan></text>
    <text id="Pedidos_generados_sin_problema" data-name="Pedidos generados sin problema" transform="translate(4905.964 -7280.911)" fill="#fff" font-size="14" font-family="Roboto-Italic, Roboto" font-style="italic"><tspan x="0" y="0">Pedidos generados sin problema</tspan></text>
    <text id="Pedidos_generados_sin_problema-2" data-name="Pedidos generados sin problema" transform="translate(4983.525 -7420.637)" fill="#fff" font-size="14" font-family="Roboto-Italic, Roboto" font-style="italic"><tspan x="0" y="0">Pedidos generados sin problema</tspan></text>
    <text id="Pedidos_rechazados" data-name="Pedidos rechazados" transform="translate(5180.996 -7149.137)" fill="#fff" font-size="14" font-family="Roboto-Italic, Roboto" font-style="italic"><tspan x="0" y="0">Pedidos rechazados</tspan></text>
    <text id="Valor_de_compra" data-name="Valor de compra" transform="translate(5037.464 -7215.137)" fill="#fff" font-size="14" font-family="Roboto-Italic, Roboto" font-style="italic"><tspan x="0" y="0">Valor de compra</tspan></text>
    <text id="Proveedores_certificados" data-name="Proveedores certificados" transform="translate(4939.297 -7350.774)" fill="#fff" font-size="14" font-family="Roboto-Italic, Roboto" font-style="italic"><tspan x="0" y="0">Proveedores certificados</tspan></text>
    <text id="Total_pedidos_generados" data-name="Total pedidos generados" transform="translate(4926.071 -7255.911)" fill="#fff" font-size="14" font-family="Roboto-Italic, Roboto" font-style="italic"><tspan x="0" y="0">Total pedidos generados</tspan></text>
    <text id="Total_pedidos_generados-2" data-name="Total pedidos generados" transform="translate(5003.633 -7395.637)" fill="#fff" font-size="14" font-family="Roboto-Italic, Roboto" font-style="italic"><tspan x="0" y="0">Total pedidos generados</tspan></text>
    <text id="Total_órdenes_de_compras_recibidas" data-name="Total órdenes de compras recibidas" transform="translate(5131.43 -7124.137)" fill="#fff" font-size="14" font-family="Roboto-Italic, Roboto" font-style="italic"><tspan x="0" y="0">Total órdenes de compras recibidas</tspan></text>
    <text id="Valor_de_ventas" data-name="Valor de ventas" transform="translate(5037.464 -7190.137)" fill="#fff" font-size="14" font-family="Roboto-Italic, Roboto" font-style="italic"><tspan x="0" y="0">Valor de ventas</tspan></text>
    <text id="Total_proveedores" data-name="Total proveedores" transform="translate(4959.404 -7325.774)" fill="#fff" font-size="14" font-family="Roboto-Italic, Roboto" font-style="italic"><tspan x="0" y="0">Total proveedores</tspan></text>
    <path id="Trazado_230810" data-name="Trazado 230810" d="M-8557.667-7311.5h213.326" transform="translate(13458.105 37.589)" fill="none" stroke="#fff" stroke-width="1"/>
    <path id="Trazado_230814" data-name="Trazado 230814" d="M-8557.667-7311.5h213.326" transform="translate(13535.667 -102.137)" fill="none" stroke="#fff" stroke-width="1"/>
    <path id="Trazado_230813" data-name="Trazado 230813" d="M-8557.668-7311.5h234.186" transform="translate(13683.571 169.363)" fill="none" stroke="#fff" stroke-width="1"/>
    <path id="Trazado_230812" data-name="Trazado 230812" d="M-8557.667-7311.5h113.4" transform="translate(13589.605 103.363)" fill="none" stroke="#fff" stroke-width="1"/>
    <path id="Trazado_230811" data-name="Trazado 230811" d="M-8557.667-7311.5h165.213" transform="translate(13491.438 -32.273)" fill="none" stroke="#fff" stroke-width="1"/>
    <g id="Grupo_423" data-name="Grupo 423" transform="translate(4734 -7421.133)">
      <path id="Trazado_635" data-name="Trazado 635" d="M8.36,6.448,1.851.223a.824.824,0,0,0-1.128,0l0,0L.239.682a.74.74,0,0,0,0,1.078l0,0L5.705,6.991.233,12.224a.74.74,0,0,0,0,1.078l0,0,.48.459a.824.824,0,0,0,1.128,0l0,0L8.36,7.532a.749.749,0,0,0,0-1.086Z" transform="translate(0.002 0.002)" fill="#d84318"/>
    </g>
    <g id="Grupo_423-2" data-name="Grupo 423" transform="translate(4734 -7350.77)">
      <path id="Trazado_635-2" data-name="Trazado 635" d="M8.36,6.448,1.851.223a.824.824,0,0,0-1.128,0l0,0L.239.682a.74.74,0,0,0,0,1.078l0,0L5.705,6.991.233,12.224a.74.74,0,0,0,0,1.078l0,0,.48.459a.824.824,0,0,0,1.128,0l0,0L8.36,7.532a.749.749,0,0,0,0-1.086Z" transform="translate(0.002 0.002)" fill="#d84318"/>
    </g>
    <g id="Grupo_423-3" data-name="Grupo 423" transform="translate(4734 -7280.407)">
      <path id="Trazado_635-3" data-name="Trazado 635" d="M8.36,6.448,1.851.223a.824.824,0,0,0-1.128,0l0,0L.239.682a.74.74,0,0,0,0,1.078l0,0L5.705,6.991.233,12.224a.74.74,0,0,0,0,1.078l0,0,.48.459a.824.824,0,0,0,1.128,0l0,0L8.36,7.532a.749.749,0,0,0,0-1.086Z" transform="translate(0.002 0.002)" fill="#d84318"/>
    </g>
    <g id="Grupo_423-4" data-name="Grupo 423" transform="translate(4860.5 -7214.633)">
      <path id="Trazado_635-4" data-name="Trazado 635" d="M8.36,6.448,1.851.223a.824.824,0,0,0-1.128,0l0,0L.239.682a.74.74,0,0,0,0,1.078l0,0L5.705,6.991.233,12.224a.74.74,0,0,0,0,1.078l0,0,.48.459a.824.824,0,0,0,1.128,0l0,0L8.36,7.532a.749.749,0,0,0,0-1.086Z" transform="translate(0.002 0.002)" fill="#d84318"/>
    </g>
    <g id="Grupo_423-5" data-name="Grupo 423" transform="translate(4860.5 -7148.633)">
      <path id="Trazado_635-5" data-name="Trazado 635" d="M8.36,6.448,1.851.223a.824.824,0,0,0-1.128,0l0,0L.239.682a.74.74,0,0,0,0,1.078l0,0L5.705,6.991.233,12.224a.74.74,0,0,0,0,1.078l0,0,.48.459a.824.824,0,0,0,1.128,0l0,0L8.36,7.532a.749.749,0,0,0,0-1.086Z" transform="translate(0.002 0.002)" fill="#d84318"/>
    </g>
  </g>
</svg>
