<svg xmlns="http://www.w3.org/2000/svg" width="32.775" height="39.573" viewBox="0 0 32.775 39.573">
  <g id="Grupo_163382" data-name="Grupo 163382" transform="translate(11628.236 12280.953)">
    <g id="Grupo_163374" data-name="Grupo 163374" transform="translate(-11628.235 -12280.953)">
      <g id="Grupo_149933" data-name="Grupo 149933">
        <g id="Grupo_149928" data-name="Grupo 149928" transform="translate(3.483 35.987)">
          <path id="Trazado_248311" data-name="Trazado 248311" d="M6004.241-5069.426c.04.031.095.065.145.1-.146-.1-.29-.211-.428-.325C6004.056-5069.571,6004.152-5069.493,6004.241-5069.426Z" transform="translate(-6003.958 5069.652)" fill="#00b8ac"/>
        </g>
        <g id="Grupo_149929" data-name="Grupo 149929" transform="translate(3.911 36.311)">
          <path id="Trazado_248312" data-name="Trazado 248312" d="M6004.884-5069c-.153-.09-.3-.185-.449-.289C6004.585-5069.189,6004.751-5069.088,6004.884-5069Z" transform="translate(-6004.435 5069.29)" fill="#00b8ac"/>
        </g>
        <g id="Grupo_149930" data-name="Grupo 149930" transform="translate(4.323 2.842)">
          <path id="Trazado_248313" data-name="Trazado 248313" d="M6018.936-5104.688c-7.779,4.49-14.068,15.382-14.042,24.323s6.354,12.546,14.135,8.055,14.069-15.383,14.043-24.324S6026.717-5109.183,6018.936-5104.688Z" transform="translate(-6004.895 5106.622)" fill="#ffb300"/>
        </g>
        <g id="Grupo_149931" data-name="Grupo 149931">
          <path id="Trazado_248314" data-name="Trazado 248314" d="M6003.548-5080.595c-.027-9.265,6.489-20.549,14.552-25.2,4.057-2.343,7.733-2.561,10.386-1.018l-3.372-1.961a7.506,7.506,0,0,0-.75-.369c-.131-.059-.259-.114-.373-.159a7.564,7.564,0,0,0-1.13-.321,8.976,8.976,0,0,0-2.795-.1,9,9,0,0,0-1.239.211c-.58.149-1.343.392-1.907.592-.41.144-.933.4-1.325.585-.324.157-.74.4-1.058.569a22.251,22.251,0,0,0-3.553,2.552,26.021,26.021,0,0,0-2.131,2.055c-1.134,1.208-1.968,2.312-1.976,2.322-.987,1.325-1.139,1.529-1.784,2.539-.212.331-.853,1.339-1.564,2.71a32.619,32.619,0,0,0-2.343,5.735,26.936,26.936,0,0,0-.715,2.937,21.706,21.706,0,0,0-.362,2.917,18.4,18.4,0,0,0,.218,4.25,11.666,11.666,0,0,0,1.388,3.838,8.248,8.248,0,0,0,1.215,1.563c.146.149.333.31.519.464.035.027.069.057.1.083.138.114.281.222.428.324h0c.146.1.3.2.449.289h0l3.373,1.961C6005.186-5072.755,6003.561-5075.993,6003.548-5080.595Z" transform="translate(-6000.073 5109.791)" fill="#f08913"/>
        </g>
        <g id="Grupo_149932" data-name="Grupo 149932" transform="translate(3.476 1.99)">
          <path id="Trazado_248315" data-name="Trazado 248315" d="M6032.5-5101.916a12.509,12.509,0,0,0-.5-1.219c-.1-.226-.278-.51-.4-.727a8.874,8.874,0,0,0-.714-1.013,6.68,6.68,0,0,0-.848-.879,9.9,9.9,0,0,0-1.154-.833c-2.654-1.543-6.33-1.325-10.386,1.018-8.063,4.655-14.579,15.938-14.552,25.2.013,4.6,1.638,7.84,4.259,9.365a7.446,7.446,0,0,0,1.809.744,8.422,8.422,0,0,0,1.967.268,10.384,10.384,0,0,0,2.14-.2,13.15,13.15,0,0,0,2.559-.784,17.92,17.92,0,0,0,2.29-1.15,23.146,23.146,0,0,0,2.279-1.554,26.325,26.325,0,0,0,2.178-1.889c.626-.637,1.441-1.506,2.034-2.169.311-.349.69-.841.978-1.208s.66-.857.918-1.244c.521-.778,1.192-1.831,1.677-2.633.427-.7.744-1.349,1.441-2.77.005-.013.612-1.283,1.17-2.86a29.943,29.943,0,0,0,.873-2.9,25.315,25.315,0,0,0,.545-2.89,21.837,21.837,0,0,0,.183-2.833A15.114,15.114,0,0,0,6032.5-5101.916Zm-13.572,29.507c-7.781,4.492-14.111.887-14.134-8.055s6.262-19.833,14.042-24.323,14.112-.887,14.136,8.054S6026.713-5076.9,6018.932-5072.409Z" transform="translate(-6003.95 5107.572)" fill="#f2dc80"/>
        </g>
      </g>
      <g id="Grupo_149937" data-name="Grupo 149937" transform="translate(6.182 6.845)">
        <g id="Grupo_149934" data-name="Grupo 149934" transform="translate(3.449 1.985)">
          <path id="Trazado_248316" data-name="Trazado 248316" d="M6033.648-5097.895l-3.6-2.048a.394.394,0,0,1,.132.141.394.394,0,0,0-.132-.141h0l-9.472,16.4-6.194-3.532a.718.718,0,0,1,.24.385.7.7,0,0,0-.24-.382l-3.572,6.187,9.809,5.548c.09.054.173.009.233-.1l0,.008,11.556-20.013,1.276-2.211-.006.008C6033.744-5097.749,6033.739-5097.843,6033.648-5097.895Zm-2.723,4.666q-.791,1.365-1.586,2.748c-1.932,3.347-3.889,6.734-5.8,10.052-.87,1.506-1.734,3-2.579,4.465l-5.505-3.115q-.267-.15-.532-.3c-1.3-.731-2.562-1.446-2.934-1.657l-.049-.028c-.039-.022-.064-.035-.064-.035l.614-1.062c.192-.336.294-.512.572-.993.1-.173.163-.278.218-.377.093-.163.165-.288.328-.569.091-.159.108-.187.193-.336.107-.181.219-.376.329-.568l.481-.832c.027-.047.052-.088.071-.12l.048-.088,2.827,1.613,1.127.642c.275.156.535.305.778.444s.462.262.654.372c.318.182.564.319.694.394l.114.067s.042-.078.12-.207c.3-.515.588-1.02.879-1.524.344-.6.756-1.312,1.222-2.115q.629-1.092,1.244-2.156c.156-.269.311-.54.471-.816l1.742-3.016q1.991-3.452,3.793-6.569l2.873,1.636Z" transform="translate(-6010.815 5099.943)" fill="#fff"/>
        </g>
        <g id="Grupo_149935" data-name="Grupo 149935" transform="translate(4.507 3.009)">
          <path id="Trazado_248317" data-name="Trazado 248317" d="M6026.722-5092.231c-.569.984-1.152,1.993-1.742,3.016-.156.27-.313.543-.471.816q-.615,1.063-1.245,2.157-.6,1.046-1.222,2.115c-.292.5-.583,1.01-.879,1.524-.042.069-.08.136-.12.207l-.114-.067c-.129-.075-.376-.212-.693-.394l-.654-.372c-.262-.15-.523-.3-.779-.444-.365-.207-.745-.424-1.126-.642l-2.827-1.613c-.017.028-.034.059-.049.087s-.044.072-.071.12l-.481.832c-.11.192-.223.387-.33.568l-.193.336c-.163.281-.235.406-.328.569-.071.125-.145.252-.218.377-.278.48-.38.656-.572.993l-.614,1.063.063.034.049.028c.372.211,1.636.926,2.934,1.658l.532.3,5.5,3.114c.845-1.463,1.709-2.958,2.579-4.465,1.914-3.318,3.871-6.705,5.8-10.052q.8-1.381,1.586-2.748c.79-1.367,1.572-2.725,2.34-4.054l-2.873-1.636Q6028.718-5095.689,6026.722-5092.231Z" transform="translate(-6011.995 5098.8)" fill="#d0f1ff"/>
        </g>
        <g id="Grupo_149936" data-name="Grupo 149936">
          <path id="Trazado_248318" data-name="Trazado 248318" d="M6013.989-5087.3l6.194,3.532,9.472-16.4h0l3.6,2.048-3.371-1.96-3.6-2.048c-.089-.053-.171-.015-.231.088q-4.687,8.121-9.375,16.238l-6.061-3.453c-.089-.051-.17-.014-.229.089q-1.69,2.926-3.379,5.852c-.062.1-.054.2.035.247h0l3.374,1.96,3.572-6.187Z" transform="translate(-6006.968 5102.156)" fill="#8addff"/>
        </g>
      </g>
    </g>
  </g>
</svg>
