<svg xmlns="http://www.w3.org/2000/svg" width="42.021" height="37.254" viewBox="0 0 42.021 37.254">
  <g id="Grupo_163380" data-name="Grupo 163380" transform="translate(11254.275 11826.809)">
    <g id="Grupo_163379" data-name="Grupo 163379" transform="translate(-11254.275 -11826.809)">
      <g id="Grupo_150160" data-name="Grupo 150160" transform="translate(4.176 2.39)">
        <path id="Trazado_248502" data-name="Trazado 248502" d="M6375.605-4851.551a10.033,10.033,0,0,1-2.191-6.836c-.023-7.941,5.588-17.655,12.5-21.644a12,12,0,0,1,4.892-1.683c4.617-.441,8,2.832,8.017,8.805a16.428,16.428,0,0,0-.166-2.653,10.48,10.48,0,0,0-1.322-3.843,7.477,7.477,0,0,0-1.1-1.421,6.711,6.711,0,0,0-1.367-1.055h0a6.712,6.712,0,0,0-3.05-.879,11.6,11.6,0,0,0-6.307,1.789c-7.251,4.187-13.134,14.37-13.11,22.7.011,4.143,1.478,7.058,3.84,8.428a6.859,6.859,0,0,0,1.023.483,6.752,6.752,0,0,0,1.707.4,9.285,9.285,0,0,0,2.979-.2,14.14,14.14,0,0,0,4.26-1.8C6381.858-4848.455,6377.929-4848.9,6375.605-4851.551Z" transform="translate(-6372.398 4882.77)" fill="#7d9599"/>
      </g>
      <g id="Grupo_150161" data-name="Grupo 150161" transform="translate(29.293 16.871)">
        <path id="Trazado_248503" data-name="Trazado 248503" d="M6400.416-4864.233c.242-.706.48-1.5.692-2.385-.2.8-.432,1.6-.694,2.382Z" transform="translate(-6400.414 4866.618)" fill="#7d9599"/>
      </g>
      <g id="Grupo_150162" data-name="Grupo 150162" transform="translate(33.33 21.553)">
        <path id="Trazado_248504" data-name="Trazado 248504" d="M6404.957-4861.373l-.039-.023v0l.161.091Z" transform="translate(-6404.917 4861.396)" fill="#34595f"/>
      </g>
      <g id="Grupo_150163" data-name="Grupo 150163" transform="translate(33.331 19.048)">
        <path id="Trazado_248505" data-name="Trazado 248505" d="M6409.13-4859.236l.258-.447a4.892,4.892,0,0,1,1.692-1.785,1.714,1.714,0,0,1,1.7-.173l-4.052-2.354a1.9,1.9,0,0,0-1.922.159,4.659,4.659,0,0,0-1.629,1.7c-.087.148-.171.3-.258.447l.039.023c.028.016.067.04.121.069Z" transform="translate(-6404.918 4864.189)" fill="#ad2f12"/>
      </g>
      <g id="Grupo_150164" data-name="Grupo 150164" transform="translate(27.382 23.603)">
        <path id="Trazado_248506" data-name="Trazado 248506" d="M6403.153-4849.541l.26-.452,5.03-8.718-.686-.4-.436.752-4.174,7.206-.438.757-3.529-2.01c-.081.137-.16.276-.239.415a4.452,4.452,0,0,0-.658,2.3,1.829,1.829,0,0,0,.829,1.681l4.052,2.355C6402.226-4846.186,6402.22-4847.931,6403.153-4849.541Z" transform="translate(-6398.282 4859.108)" fill="#ad2f12"/>
      </g>
      <g id="Grupo_150165" data-name="Grupo 150165" transform="translate(31.556 21.44)">
        <path id="Trazado_248507" data-name="Trazado 248507" d="M6405.848-4846.435a1.431,1.431,0,0,1-1.367.022c-.7-.4-.7-1.7-.009-2.894l.263-.455.042-.075.254-.437q.613-1.064,1.227-2.129l.115-.2.6-1.038c.092-.162.185-.321.276-.481.107-.183.212-.365.317-.548l.559-.971c.131-.229.264-.455.394-.684.192-.332.372-.642.529-.916.068-.12.136-.235.205-.355l.067-.115c.147-.257.3-.513.445-.771l.256-.446a3.642,3.642,0,0,1,1.261-1.331,1.275,1.275,0,0,1,1.264-.127c.7.4.888,1.8.2,3a4.492,4.492,0,0,0,.655-2.3,1.836,1.836,0,0,0-.826-1.682,1.711,1.711,0,0,0-1.7.172,4.894,4.894,0,0,0-1.692,1.786l-.258.447-5.03,8.718-.259.452c-.934,1.609-.928,3.354.011,3.891,1.043.587,2.568-.215,3.545-1.861h0A3.791,3.791,0,0,1,6405.848-4846.435Z" transform="translate(-6402.938 4861.522)" fill="#5d7a7f"/>
      </g>
      <g id="Grupo_150166" data-name="Grupo 150166" transform="translate(25.04 20.164)">
        <path id="Trazado_248508" data-name="Trazado 248508" d="M6395.669-4855.673l7.208,4.125,4.174-7.206-7.453-4.191A31.083,31.083,0,0,1,6395.669-4855.673Z" transform="translate(-6395.669 4862.944)" fill="#ad2f12"/>
      </g>
      <g id="Grupo_150167" data-name="Grupo 150167" transform="translate(24.505 27.436)">
        <path id="Trazado_248509" data-name="Trazado 248509" d="M6402.816-4850.708l-7.208-4.125c-.154.211-.306.426-.464.631l-.069.088,3.775,2.152,3.529,2.011Z" transform="translate(-6395.074 4854.833)" fill="#d84318"/>
      </g>
      <g id="Grupo_150168" data-name="Grupo 150168" transform="translate(28.969 19.253)">
        <path id="Trazado_248510" data-name="Trazado 248510" d="M6400.285-4863.678c-.072.208-.154.419-.232.628l7.453,4.191.435-.752.686.4-4.052-2.355-.161-.091-4.035-2.3,0,0C6400.345-4863.866,6400.316-4863.772,6400.285-4863.678Z" transform="translate(-6400.053 4863.961)" fill="#d84318"/>
      </g>
      <g id="Grupo_150169" data-name="Grupo 150169" transform="translate(8.11 5.783)">
        <path id="Trazado_248511" data-name="Trazado 248511" d="M6392.6-4877.388a7.08,7.08,0,0,1,.632,1.364,8.852,8.852,0,0,1,.389,1.6,11.1,11.1,0,0,1,.132,1.767,14.359,14.359,0,0,1-.128,1.957,16.142,16.142,0,0,1-.376,1.992,18.433,18.433,0,0,1-.6,1.995c-.238.667-.238.667-.805,1.966-.3.646-.3.646-.99,1.9-.358.622-.358.622-1.154,1.81-.415.592-.415.592-1.3,1.683a19.629,19.629,0,0,1-1.429,1.523,17.6,17.6,0,0,1-1.541,1.328,14.517,14.517,0,0,1-1.636,1.1l-.2.113a12.007,12.007,0,0,1-1.451.687,9.111,9.111,0,0,1-1.587.465l-.463.076h0c-.146.013-.3.025-.445.034-.088,0-.176.012-.259.012-.115,0-.232.011-.333.012a5.758,5.758,0,0,1-1.385-.19,4.614,4.614,0,0,1-.888-.327,5.019,5.019,0,0,0,1.725,1.626c1.837,1.068,4.727.638,7.527-.978,5.567-3.213,10.076-11.033,10.059-17.43-.008-3.175-1.341-6.072-3.154-7.125a5.408,5.408,0,0,0-1.705-.562h-.065c.151.113.291.239.574.495A5.826,5.826,0,0,1,6392.6-4877.388Z" transform="translate(-6376.786 4878.986)" fill="#ad2f12"/>
      </g>
      <g id="Grupo_150170" data-name="Grupo 150170" transform="translate(7.985 5.783)">
        <path id="Trazado_248512" data-name="Trazado 248512" d="M6391.223-4878.986a5.406,5.406,0,0,1,1.706.563c1.812,1.053,3.146,3.95,3.153,7.125.018,6.4-4.491,14.216-10.058,17.43-2.8,1.616-5.69,2.046-7.527.978a5.01,5.01,0,0,1-1.726-1.626l-.125-.064c1.686,3.322,5.436,4.161,9.786,1.651,5.905-3.411,10.688-11.7,10.668-18.487C6397.084-4876.185,6394.693-4878.947,6391.223-4878.986Z" transform="translate(-6376.646 4878.986)" fill="#7d9599"/>
      </g>
      <g id="Grupo_150171" data-name="Grupo 150171" transform="translate(7.031 5.784)">
        <path id="Trazado_248513" data-name="Trazado 248513" d="M6377.549-4854.189a5.762,5.762,0,0,0,1.386.19c.1,0,.217-.008.332-.012.083,0,.171-.008.259-.012.15-.009.3-.021.445-.034h0l.463-.076a9.131,9.131,0,0,0,1.588-.465,12.082,12.082,0,0,0,1.451-.687l.2-.113a14.534,14.534,0,0,0,1.636-1.1,17.649,17.649,0,0,0,1.54-1.328,19.767,19.767,0,0,0,1.43-1.523c.884-1.091.884-1.091,1.3-1.683.8-1.188.8-1.188,1.154-1.81.689-1.258.689-1.258.99-1.9a21.172,21.172,0,0,0,.805-1.966,18.592,18.592,0,0,0,.6-1.995,16.336,16.336,0,0,0,.376-1.992,14.258,14.258,0,0,0,.128-1.957,11.1,11.1,0,0,0-.132-1.767,8.77,8.77,0,0,0-.389-1.6,7.082,7.082,0,0,0-.631-1.364,5.827,5.827,0,0,0-.857-1.1c-.283-.256-.423-.381-.574-.495a9.674,9.674,0,0,0-4.8,1.45c-5.9,3.411-10.687,11.7-10.668,18.48a9.888,9.888,0,0,0,.954,4.475l.125.064A4.626,4.626,0,0,0,6377.549-4854.189Zm11.5-7.993-8.127,4.691c-.656.379-1.187.078-1.188-.672a2.594,2.594,0,0,1,1.18-2.04l8.128-4.692c.649-.376,1.181-.074,1.183.675h0A2.6,2.6,0,0,1,6389.051-4862.183Zm-9.315-5.972a2.6,2.6,0,0,1,1.18-2.045l8.128-4.692c.649-.376,1.181-.074,1.183.68h0a2.6,2.6,0,0,1-1.176,2.039l-1.148.662-6.979,4.029c-.656.379-1.187.077-1.188-.672Zm.032,3.615,5.21-3.007,5.208-3.008c.652-.376,1.182-.075,1.185.675h0a2.6,2.6,0,0,1-1.177,2.044l-5.209,3.007-5.209,3.008c-.651.375-1.182.073-1.183-.68A2.6,2.6,0,0,1,6379.768-4864.539Z" transform="translate(-6375.583 4878.985)" fill="#a1e4ff"/>
      </g>
      <g id="Grupo_150172" data-name="Grupo 150172" transform="translate(5.192 3.407)">
        <path id="Trazado_248514" data-name="Trazado 248514" d="M6393.379-4857.607a31.083,31.083,0,0,0,3.93-7.271c.078-.209.16-.42.232-.628.031-.094.06-.187.091-.283.263-.784.5-1.582.694-2.382.011-.048.023-.1.035-.145.021-.092.04-.186.061-.277a19.136,19.136,0,0,0,.518-4.2c-.015-5.974-3.4-9.247-8.017-8.806a12.169,12.169,0,0,0-4.892,1.683c-6.913,3.989-12.524,13.7-12.5,21.644a10.235,10.235,0,0,0,2.191,6.836c2.324,2.652,6.253,3.1,10.6.584a21.374,21.374,0,0,0,5.244-4.484c.074-.085.148-.174.223-.26q.3-.349.59-.708c.112-.14.224-.281.334-.421.043-.055.087-.108.13-.164l.069-.088C6393.073-4857.181,6393.225-4857.4,6393.379-4857.607Zm-7.27,4.4c-4.349,2.509-8.1,1.67-9.785-1.651a9.888,9.888,0,0,1-.954-4.475c-.019-6.78,4.764-15.069,10.668-18.48a9.673,9.673,0,0,1,4.8-1.45h.065c3.471.039,5.861,2.8,5.877,7.57C6396.8-4864.9,6392.015-4856.614,6386.109-4853.2Z" transform="translate(-6373.531 4881.636)" fill="#d84318"/>
      </g>
      <g id="Grupo_150173" data-name="Grupo 150173">
        <path id="Trazado_248515" data-name="Trazado 248515" d="M6371.917-4858.544c-.024-8.332,5.859-18.515,13.11-22.7a11.59,11.59,0,0,1,6.307-1.789,6.716,6.716,0,0,1,3.05.879h0l-4.051-2.355a9.128,9.128,0,0,0-.92-.437l-.05-.017a5.806,5.806,0,0,0-1.081-.318,8.147,8.147,0,0,0-2.539-.095,8.009,8.009,0,0,0-1.121.191c-.525.134-1.213.354-1.723.533a15.355,15.355,0,0,0-2.149,1.041,19.908,19.908,0,0,0-3.194,2.3,22.84,22.84,0,0,0-1.917,1.848c-1.019,1.084-1.767,2.078-1.775,2.086-.885,1.189-1.022,1.373-1.6,2.283-.19.3-.767,1.2-1.405,2.436a29.515,29.515,0,0,0-2.109,5.153,23.356,23.356,0,0,0-.971,5.262,16.467,16.467,0,0,0,.2,3.829,10.605,10.605,0,0,0,1.259,3.474,7.608,7.608,0,0,0,1.106,1.422,5.471,5.471,0,0,0,.7.6c.046.037.1.068.144.1.15.1.313.212.525.349h0l4.053,2.354C6373.394-4851.487,6371.927-4854.4,6371.917-4858.544Z" transform="translate(-6367.741 4885.436)" fill="#ad2f12"/>
      </g>
      <g id="Grupo_150174" data-name="Grupo 150174" transform="translate(11.183 9.715)">
        <path id="Trazado_248516" data-name="Trazado 248516" d="M6381.4-4867.029l6.979-4.029,1.148-.662a2.6,2.6,0,0,0,1.176-2.039h0c0-.754-.534-1.056-1.183-.68l-8.128,4.692a2.6,2.6,0,0,0-1.18,2.045h0C6380.216-4866.952,6380.747-4866.649,6381.4-4867.029Z" transform="translate(-6380.214 4874.6)" fill="#24bfff"/>
      </g>
      <g id="Grupo_150175" data-name="Grupo 150175" transform="translate(11.183 19.711)">
        <path id="Trazado_248517" data-name="Trazado 248517" d="M6389.523-4863.289l-8.128,4.693a2.6,2.6,0,0,0-1.18,2.04c0,.75.532,1.05,1.188.671l8.127-4.691a2.6,2.6,0,0,0,1.176-2.038h0C6390.7-4863.363,6390.172-4863.665,6389.523-4863.289Z" transform="translate(-6380.214 4863.451)" fill="#24bfff"/>
      </g>
      <g id="Grupo_150176" data-name="Grupo 150176" transform="translate(10.04 14.053)">
        <path id="Trazado_248518" data-name="Trazado 248518" d="M6380.122-4860.865l5.209-3.009,5.209-3.007a2.6,2.6,0,0,0,1.177-2.044h0c0-.749-.533-1.051-1.185-.674l-5.208,3.007-5.209,3.007a2.6,2.6,0,0,0-1.176,2.039C6378.94-4860.793,6379.471-4860.491,6380.122-4860.865Z" transform="translate(-6378.939 4869.761)" fill="#24bfff"/>
      </g>
      <g id="Grupo_150177" data-name="Grupo 150177" transform="translate(32.573 22.462)">
        <path id="Trazado_248519" data-name="Trazado 248519" d="M6412.665-4860.265a1.275,1.275,0,0,0-1.264.128,3.634,3.634,0,0,0-1.261,1.331l-.256.446c-.15.258-.3.515-.446.771-.022.037-.044.076-.066.115-.069.12-.138.236-.206.355-.175.305-.354.61-.528.916-.131.229-.263.455-.394.684l-.56.971c-.106.183-.21.365-.316.548l-.277.48q-.3.519-.6,1.038c-.039.067-.077.133-.115.2l-1.228,2.128c-.085.146-.169.292-.253.438l-.043.075-.262.455c-.692,1.194-.689,2.5.009,2.894a1.43,1.43,0,0,0,1.367-.023,3.792,3.792,0,0,0,1.343-1.325l5.553-9.62C6413.554-4858.462,6413.36-4859.865,6412.665-4860.265Z" transform="translate(-6404.073 4860.381)" fill="#ad2f12"/>
      </g>
    </g>
  </g>
</svg>
