<svg xmlns="http://www.w3.org/2000/svg" width="41.367" height="53.279" viewBox="0 0 41.367 53.279">
  <g id="Grupo_163383" data-name="Grupo 163383" transform="translate(11618.573 12099.555)">
    <g id="Grupo_163375" data-name="Grupo 163375" transform="translate(-11618.574 -12099.555)">
      <g id="Grupo_150403" data-name="Grupo 150403" transform="translate(35.989 7.607)">
        <path id="Trazado_248704" data-name="Trazado 248704" d="M6056.179-4895.959l-5.188-3.015q.143.708.287,1.414Z" transform="translate(-6050.991 4898.975)" fill="#006861"/>
      </g>
      <g id="Grupo_150404" data-name="Grupo 150404" transform="translate(18.549)">
        <path id="Trazado_248705" data-name="Trazado 248705" d="M6047.775-4905.106l-4.206-2.354-12.03,1,4.2,2.354Z" transform="translate(-6031.539 4907.46)" fill="#006861"/>
      </g>
      <g id="Grupo_150405" data-name="Grupo 150405" transform="translate(6.324 0.999)">
        <path id="Trazado_248706" data-name="Trazado 248706" d="M6034.331-4903.992l-4.2-2.354L6017.9-4893.34l4.2,2.354Z" transform="translate(-6017.903 4906.346)" fill="#008a81"/>
      </g>
      <g id="Grupo_150406" data-name="Grupo 150406" transform="translate(0 29.613)">
        <path id="Trazado_248707" data-name="Trazado 248707" d="M6026.731-4854.127a49.963,49.963,0,0,1-6.542-6.623,22.467,22.467,0,0,1-5.089-10.944c-.037-.239-.045-.372-.047-.378l-4.2-2.357c0,.008.011.143.048.382a22.484,22.484,0,0,0,5.089,10.943c4.1,4.867,7.209,7.358,9.392,8.627l4.2,2.353h0A22.311,22.311,0,0,1,6026.731-4854.127Z" transform="translate(-6010.849 4874.43)" fill="#006861"/>
      </g>
      <g id="Grupo_150407" data-name="Grupo 150407" transform="translate(0 22.148)">
        <path id="Trazado_248708" data-name="Trazado 248708" d="M6020.072-4880.4l-4.205-2.355-5.019,7.465,4.2,2.357Z" transform="translate(-6010.849 4882.756)" fill="#008a81"/>
      </g>
      <g id="Grupo_150408" data-name="Grupo 150408" transform="translate(5.018 14.005)">
        <path id="Trazado_248709" data-name="Trazado 248709" d="M6021.955-4889.485l-4.2-2.354-1.306,8.144,4.205,2.355Z" transform="translate(-6016.446 4891.839)" fill="#006861"/>
      </g>
      <g id="Grupo_150409" data-name="Grupo 150409" transform="translate(22.753 4.077)">
        <path id="Trazado_248710" data-name="Trazado 248710" d="M6050.4-4896.111c-.29-.1-.583-.191-.885-.288l-.159-.054-.394-1.934-.3-1.457c-.231-1.152-.441-2.187-.618-3.069l-11.82,1.388,7.11,31.917,10.9-25.248-1.844-.6Z" transform="translate(-6036.228 4902.913)" fill="#33c6bd"/>
      </g>
      <g id="Grupo_150410" data-name="Grupo 150410" transform="translate(22.753 11.64)">
        <path id="Trazado_248711" data-name="Trazado 248711" d="M6050.078-4879.662c.07-.168.129-.328.194-.492.141-.357.286-.715.416-1.06.071-.186.135-.361.2-.544.117-.312.237-.627.346-.929.066-.181.125-.354.187-.531.105-.292.209-.584.3-.866.06-.174.113-.338.169-.509.091-.27.182-.542.267-.8.053-.168.1-.328.153-.491.08-.249.158-.5.232-.739.045-.154.09-.3.135-.455.07-.237.138-.473.2-.7.04-.141.077-.277.115-.412.061-.222.12-.439.173-.647.036-.132.07-.261.1-.391.051-.2.1-.395.146-.583.03-.124.061-.245.087-.364.042-.179.084-.353.123-.521.025-.115.052-.228.074-.337.035-.159.068-.313.1-.463.024-.1.045-.207.065-.306.027-.134.052-.265.075-.39.019-.1.04-.2.056-.3s.037-.2.054-.3.035-.2.05-.295c.011-.071.022-.136.033-.2.015-.106.032-.209.045-.3.005-.034.01-.063.013-.1.016-.109.031-.215.042-.3s.021-.174.029-.242c.026-.288.041-.443-.033.249l-10.9,25.248h0s-5.062,11-6.644,14.7c-.118.275-.215.509-.292.7s-.129.325-.155.41a.341.341,0,0,0-.02.082s4.516-4.806,13.18-25.19Q6049.759-4878.867,6050.078-4879.662Z" transform="translate(-6036.228 4894.477)" fill="#30b2a5"/>
      </g>
      <g id="Grupo_150411" data-name="Grupo 150411" transform="translate(5.955 5.465)">
        <path id="Trazado_248712" data-name="Trazado 248712" d="M6023.617-4889.764s-.014.085-.033.21c-.016.095-.036.218-.06.375s-.049.3-.073.447c-.135.837-.331,2.06-.521,3.257-.056.335-.106.662-.158.979-.04.252-.081.507-.124.767-.047.3-.093.587-.132.835-.031.193-.059.362-.083.51-.02.125-.037.242-.058.367s-.032.2-.032.2c-.111.163-.21.313-.319.475q-.859,1.28-1.634,2.428c-.016.026-.033.051-.05.077q-.672,1-1.275,1.895c-.572.853-1.108,1.652-1.574,2.343l23.907,5.153s-7.109-31.631-7.109-31.918C6034.289-4901.365,6025.646-4891.941,6023.617-4889.764Z" transform="translate(-6017.491 4901.365)" fill="#a0f1e2"/>
      </g>
      <g id="Grupo_150412" data-name="Grupo 150412" transform="translate(5.955 32.229)">
        <path id="Trazado_248713" data-name="Trazado 248713" d="M6034.464-4850.96c.076-.187.173-.421.292-.7,1.582-3.7,6.643-14.7,6.643-14.7l-23.907-5.153a21.792,21.792,0,0,0,4.9,10.333c7.872,9.291,11.2,10.53,11.792,10.686a1,1,0,0,0,.108.023.341.341,0,0,1,.02-.082C6034.334-4850.636,6034.388-4850.775,6034.464-4850.96Z" transform="translate(-6017.491 4871.512)" fill="#51e0d7"/>
      </g>
      <g id="Grupo_150413" data-name="Grupo 150413" transform="translate(4.204 31.97)">
        <path id="Trazado_248714" data-name="Trazado 248714" d="M6022.187-4861.209a21.8,21.8,0,0,1-4.9-10.333l-1.751-.259c.045.024.111.044.166.069-.018-.007-.034,0-.051-.012-.042-.019-.08-.039-.115-.057,0,.006.011.139.047.378a22.457,22.457,0,0,0,5.089,10.944,50.055,50.055,0,0,0,6.542,6.623,22.244,22.244,0,0,0,2.852,2h0a8.184,8.184,0,0,0,3.906,1.36c.006,0,0-.024.007-.031C6033.389-4850.679,6030.059-4851.918,6022.187-4861.209Z" transform="translate(-6015.538 4871.801)" fill="#a0f1e2"/>
      </g>
      <g id="Grupo_150414" data-name="Grupo 150414" transform="translate(4.204 3.353)">
        <path id="Trazado_248715" data-name="Trazado 248715" d="M6020.139-4879.082c.016-.025.033-.051.049-.077.67-.994,1.279-1.9,1.633-2.428.11-.162.208-.312.319-.475,0,0,.014-.083.032-.2s.039-.242.058-.367c.025-.148.052-.317.083-.51.04-.248.085-.533.132-.835.042-.26.083-.515.124-.767.052-.318.1-.645.158-.979.19-1.2.386-2.42.521-3.257.024-.151.047-.3.073-.448s.043-.279.06-.374c.019-.125.033-.21.033-.21l10.672-11.6v-2.111l-12.225,13.005-1.3,8.144-5.02,7.467,1.751.259c.466-.691,1-1.49,1.574-2.343C6019.264-4877.783,6019.691-4878.415,6020.139-4879.082Z" transform="translate(-6015.538 4903.72)" fill="#d1f9f1"/>
      </g>
      <g id="Grupo_150415" data-name="Grupo 150415" transform="translate(22.753 2.354)">
        <path id="Trazado_248716" data-name="Trazado 248716" d="M6036.228-4901.724h0l11.82-1.388c.177.882.387,1.917.618,3.069l.3,1.457.394,1.934.159.054c.177.057.485.157.885.289l2,.652,1.844.6c.074-.692.059-.537.033-.249-.009.068-.019.154-.029.242l.588-1.16a.375.375,0,0,0-.093-.272c.016.019.007.054.019.076-.032-.053-.051-.114-.107-.147l-4.9-1.6q-.144-.7-.287-1.414-.5-2.462-1-4.93a1.092,1.092,0,0,1,.007.325.636.636,0,0,0-.213-.648l-12.034,1Z" transform="translate(-6036.228 4904.835)" fill="#85ddd7"/>
      </g>
      <g id="Grupo_150416" data-name="Grupo 150416" transform="translate(22.753 10.966)">
        <path id="Trazado_248717" data-name="Trazado 248717" d="M6054.837-4895.137v0a.767.767,0,0,0,0-.1l-.588,1.16c-.012.088-.027.194-.042.3,0,.033-.008.063-.013.1-.013.095-.03.2-.045.3-.011.064-.022.129-.033.2-.015.092-.033.193-.05.3s-.033.195-.054.3-.038.2-.056.3c-.023.125-.05.255-.075.39-.02.1-.041.2-.065.306-.03.149-.063.3-.1.463-.022.109-.049.223-.074.337-.039.169-.08.342-.123.521-.027.119-.057.24-.087.364-.046.188-.1.384-.146.583-.034.13-.068.259-.1.392-.053.208-.112.426-.173.647-.038.135-.075.271-.115.412-.065.226-.133.462-.2.7-.045.15-.09.3-.135.455-.074.239-.152.491-.232.739-.05.163-.1.323-.153.491-.085.261-.176.531-.267.8-.057.17-.11.334-.169.508-.1.282-.2.574-.3.866-.062.177-.121.35-.187.531-.109.3-.229.617-.346.929-.068.183-.133.359-.2.544-.13.346-.274.7-.416,1.06-.065.165-.125.324-.194.493q-.319.794-.671,1.626c-8.664,20.384-13.18,25.19-13.18,25.19s.85-.915.735-.774a56.175,56.175,0,0,0,6.219-9.99c.177-.34,1.652-3.283,3.011-6.24,1.15-2.5,1.839-4.038,3.623-8.21a67.069,67.069,0,0,0,4.991-16.683.422.422,0,0,1-.1.171.473.473,0,0,0,.1-.176c.012-.129.021-.229.026-.305v.007c0-.014,0-.028.006-.043A.225.225,0,0,0,6054.837-4895.137Zm-.241.622v0c.017-.013.047-.025.061-.037C6054.643-4894.542,6054.613-4894.53,6054.6-4894.515Zm.217-.563a.647.647,0,0,0,.007-.114c0,.025.018.037.016.062A.3.3,0,0,1,6054.813-4895.079Z" transform="translate(-6036.228 4895.229)" fill="#33c6bd"/>
      </g>
    </g>
  </g>
</svg>
