<svg xmlns="http://www.w3.org/2000/svg" width="49.955" height="60.318" viewBox="0 0 49.955 60.318">
  <g id="Grupo_163381" data-name="Grupo 163381" transform="translate(11332.232 12281.875)">
    <g id="Grupo_163378" data-name="Grupo 163378">
      <g id="Grupo_163373" data-name="Grupo 163373" transform="translate(-11332.232 -12281.875)">
        <g id="Grupo_149691" data-name="Grupo 149691">
          <g id="Grupo_149686" data-name="Grupo 149686" transform="translate(5.306 54.853)">
            <path id="Trazado_248119" data-name="Trazado 248119" d="M6336.587-5049.293c.063.048.146.1.219.147-.222-.155-.438-.32-.652-.492C6336.305-5049.515,6336.453-5049.4,6336.587-5049.293Z" transform="translate(-6336.154 5049.637)" fill="#18979e"/>
          </g>
          <g id="Grupo_149687" data-name="Grupo 149687" transform="translate(5.962 55.348)">
            <path id="Trazado_248120" data-name="Trazado 248120" d="M6337.571-5048.647q-.352-.205-.686-.439C6337.114-5048.934,6337.365-5048.781,6337.571-5048.647Z" transform="translate(-6336.886 5049.087)" fill="#18979e"/>
          </g>
          <g id="Grupo_149688" data-name="Grupo 149688" transform="translate(6.587 4.332)">
            <path id="Trazado_248121" data-name="Trazado 248121" d="M6358.99-5103.044c-11.859,6.847-21.445,23.449-21.407,37.077s9.687,19.125,21.547,12.278,21.443-23.449,21.4-37.076S6370.85-5109.892,6358.99-5103.044Z" transform="translate(-6337.583 5105.99)" fill="#ffb300"/>
          </g>
          <g id="Grupo_149689" data-name="Grupo 149689">
            <path id="Trazado_248122" data-name="Trazado 248122" d="M6335.535-5066.32c-.041-14.121,9.889-31.32,22.178-38.416,6.183-3.571,11.787-3.9,15.834-1.55l-5.141-2.988a10.569,10.569,0,0,0-1.143-.564c-.2-.09-.391-.174-.568-.241a11.571,11.571,0,0,0-1.721-.488,13.6,13.6,0,0,0-4.26-.156,13.794,13.794,0,0,0-1.888.323c-.884.225-2.047.6-2.908.9-.623.221-1.422.6-2.018.893-.494.241-1.129.607-1.613.866a34.013,34.013,0,0,0-5.415,3.89,39.527,39.527,0,0,0-3.25,3.133c-1.729,1.843-3,3.523-3.008,3.539-1.507,2.021-1.738,2.332-2.72,3.871-.323.5-1.3,2.04-2.384,4.13a49.975,49.975,0,0,0-3.573,8.743,41.636,41.636,0,0,0-1.09,4.474,33.16,33.16,0,0,0-.552,4.446,28,28,0,0,0,.333,6.477,17.757,17.757,0,0,0,2.117,5.851,12.513,12.513,0,0,0,1.853,2.384c.223.225.506.471.791.706.05.043.1.086.155.128.214.172.43.337.652.492l0,0q.335.234.687.439h0l5.142,2.988C6338.031-5054.368,6335.553-5059.3,6335.535-5066.32Z" transform="translate(-6330.236 5110.822)" fill="#f08913"/>
          </g>
          <g id="Grupo_149690" data-name="Grupo 149690" transform="translate(5.298 3.034)">
            <path id="Trazado_248123" data-name="Trazado 248123" d="M6379.669-5098.818a19.943,19.943,0,0,0-.768-1.857c-.16-.343-.423-.776-.6-1.108a13.049,13.049,0,0,0-1.09-1.544,10,10,0,0,0-1.292-1.339,15.546,15.546,0,0,0-1.757-1.269c-4.047-2.352-9.651-2.021-15.834,1.55-12.289,7.1-22.219,24.294-22.178,38.416.019,7.016,2.5,11.952,6.491,14.273a11.218,11.218,0,0,0,2.757,1.137,12.863,12.863,0,0,0,3,.406,15.821,15.821,0,0,0,3.261-.3,20.032,20.032,0,0,0,3.9-1.193,27.638,27.638,0,0,0,3.489-1.754,33.68,33.68,0,0,0,3.473-2.368,39.413,39.413,0,0,0,3.323-2.882c.955-.968,2.194-2.292,3.1-3.307.473-.529,1.051-1.278,1.49-1.837s1-1.309,1.4-1.9c.794-1.186,1.819-2.792,2.56-4.012.649-1.068,1.134-2.058,2.2-4.224.008-.017.932-1.955,1.785-4.358.641-1.8.885-2.732,1.33-4.418a39.468,39.468,0,0,0,.829-4.4,33.326,33.326,0,0,0,.279-4.319A23.061,23.061,0,0,0,6379.669-5098.818Zm-20.688,44.978c-11.86,6.847-21.508,1.349-21.546-12.278s9.547-30.229,21.407-37.077,21.506-1.349,21.543,12.278S6370.841-5060.687,6358.981-5053.84Z" transform="translate(-6336.146 5107.438)" fill="#f2dc80"/>
          </g>
        </g>
        <g id="Grupo_149702" data-name="Grupo 149702" transform="translate(13.636 14.08)">
          <g id="Grupo_149692" data-name="Grupo 149692" transform="translate(6.591 3.746)">
            <path id="Trazado_248124" data-name="Trazado 248124" d="M6377.71-5066.889a.431.431,0,0,0,.107-.257l-.009-2.354,0-2.354-.007-2.354-.007-2.354,0-2.354-.007-2.353-.008-2.354-.005-2.354-.008-2.353-.006-2.609c0,.021-.022.045-.027.067a.436.436,0,0,1-.08.19,3.525,3.525,0,0,1-.556.352c-.009,0-.013,0-.021,0-.676.439-1.338.871-2.046,1.264-5.977,3.451-11.59,4.9-16.469,4.578a.23.23,0,0,0-.134.035.571.571,0,0,0-.26.45s.006,1.882.007,2.384c0,.44,0,.885,0,1.327.007,2.508.017,6.147.028,10.22,0,.4,0,.6,0,.961,0,.224,0,.469,0,.721,0,.224,0,.449,0,.673,0,1.231.007,2.535.009,3.194,0,.147,0,.287,0,.436a5.849,5.849,0,0,0-2.17.592c-.274.158-.619.483-.849.623a7.531,7.531,0,0,0-2.379,4.552,4.622,4.622,0,0,0,0,.839c.182,1.874,1.6,2.891,3.275,1.925l.005,0c.057-.032.012-.018.057-.032a8.324,8.324,0,0,0,3.542-6.114c.008-.1.021-.2.024-.3,0-.064.013-.125.013-.19,0-.021,0-.039,0-.061s0-.034,0-.053.005-.008.005-.014q-.017-6.81-.039-13.619a26.634,26.634,0,0,0,10-2.044h0c.051-.021.1-.043.154-.065h0c.328-.131.653-.261.981-.4a42.081,42.081,0,0,0,4.011-2.04l.022-.012.11-.068h0c.03-.017.058-.035.084-.051a.49.49,0,0,0,.12-.076l.226-.141a1.6,1.6,0,0,0,.126-.1c.018-.014.034-.024.051-.04a2.463,2.463,0,0,0,.309-.325c.021-.027.043-.055.064-.083a4.034,4.034,0,0,0,.307-.462c0,.842,0,1.645.006,2.435q0,.621,0,1.229c0,.42,0,.837,0,1.253,0,.24,0,.479,0,.717,0,.736,0,1.472.006,2.222,0,.076,0,.154,0,.23q0,.7,0,1.434c0,1.091.006,2.222.009,3.437a5.589,5.589,0,0,0-2.163.57,5.593,5.593,0,0,0-1.133.89,7.47,7.47,0,0,0-2.05,3.906c-.413,2.636,1.069,4.338,3.061,3.249.022-.014.047-.022.071-.036a.106.106,0,0,0,.032-.022h0s0,0,.021-.008l.011-.011a10.1,10.1,0,0,0,2.475-2.719l.065-.111a6.274,6.274,0,0,0,.438-.874h0l0-.007a7.814,7.814,0,0,0,.688-3.081A.431.431,0,0,1,6377.71-5066.889Zm-18.435-9.8a4.705,4.705,0,0,1,.278.4,4.778,4.778,0,0,0-.278-.4Zm18.122,10.081v-.135l0,.106C6377.4-5066.627,6377.4-5066.617,6377.4-5066.608Z" transform="translate(-6352.796 5090.938)" fill="#d0f1ff"/>
          </g>
          <g id="Grupo_149693" data-name="Grupo 149693" transform="translate(23.386 12.836)">
            <path id="Trazado_248125" data-name="Trazado 248125" d="M6372.888-5062.475a7.471,7.471,0,0,1,2.051-3.906,5.561,5.561,0,0,1,1.133-.89,5.6,5.6,0,0,1,2.163-.57s0-1.5-.009-3.437q0-.73,0-1.435c0-.076,0-.153,0-.229,0-.75,0-1.487-.007-2.222,0-.243,0-.481,0-.717,0-.417,0-.833,0-1.253,0-.448,0-.869,0-1.23,0-.79,0-1.593-.006-2.435a3.991,3.991,0,0,1-.307.462c-.021.029-.043.056-.064.084a2.462,2.462,0,0,1-.309.325c-.017.015-.034.026-.051.04a1.431,1.431,0,0,1-.126.1l-.226.141a.51.51,0,0,1-.121.076c-.026.016-.055.034-.084.05l.032,10.549a3.987,3.987,0,0,0-1.388.511,6.864,6.864,0,0,0-1.394,1.1,9.284,9.284,0,0,0-2.548,4.856c-.284,1.816.19,3.083,1.095,3.608a3.16,3.16,0,0,0,3.242-.323C6373.957-5058.137,6372.475-5059.839,6372.888-5062.475Z" transform="translate(-6371.53 5080.798)" fill="#fff"/>
          </g>
          <g id="Grupo_149694" data-name="Grupo 149694" transform="translate(27.942 31.612)">
            <path id="Trazado_248126" data-name="Trazado 248126" d="M6376.612-5057.138a7.072,7.072,0,0,0,1.2-.991,8.731,8.731,0,0,0,1.277-1.728A10.086,10.086,0,0,1,6376.612-5057.138Z" transform="translate(-6376.612 5059.857)" fill="#fff"/>
          </g>
          <g id="Grupo_149695" data-name="Grupo 149695" transform="translate(27.907 34.349)">
            <path id="Trazado_248127" data-name="Trazado 248127" d="M6376.575-5056.8h0Z" transform="translate(-6376.573 5056.803)" fill="#fff"/>
          </g>
          <g id="Grupo_149696" data-name="Grupo 149696" transform="translate(30.482 30.626)">
            <path id="Trazado_248128" data-name="Trazado 248128" d="M6379.445-5060.082a9.305,9.305,0,0,0,.438-.874h0A6.247,6.247,0,0,1,6379.445-5060.082Z" transform="translate(-6379.445 5060.956)" fill="#fff"/>
          </g>
          <g id="Grupo_149697" data-name="Grupo 149697" transform="translate(18.095 14.114)">
            <path id="Trazado_248129" data-name="Trazado 248129" d="M6376.167-5079.293a42.043,42.043,0,0,1-4.011,2.04c-.329.144-.654.272-.982.4h0c-.051.022-.1.045-.154.065h0q.01,2.462.014,4.924c-.069.011-.139.023-.208.038a5.13,5.13,0,0,0-2.691,1.589,9.078,9.078,0,0,0-2.021,3.136,6.689,6.689,0,0,0-.418,3.369,3.322,3.322,0,0,0,.434,1.169,2.373,2.373,0,0,0,.825.817l5.141,2.988c-.9-.526-1.378-1.792-1.095-3.609a9.28,9.28,0,0,1,2.548-4.855,6.83,6.83,0,0,1,1.394-1.1,3.986,3.986,0,0,1,1.388-.51l-.032-10.549-.11.068Z" transform="translate(-6365.629 5079.374)" fill="#8addff"/>
          </g>
          <g id="Grupo_149698" data-name="Grupo 149698" transform="translate(13.522 32.366)">
            <path id="Trazado_248130" data-name="Trazado 248130" d="M6360.53-5058.948c0-.019,0-.048,0-.066,0,0-.005.009-.005.013S6360.53-5058.966,6360.53-5058.948Z" transform="translate(-6360.527 5059.015)" fill="#fff"/>
          </g>
          <g id="Grupo_149699" data-name="Grupo 149699" transform="translate(13.49 32.683)">
            <path id="Trazado_248131" data-name="Trazado 248131" d="M6360.517-5058.662c0,.1-.017.2-.025.3C6360.5-5058.473,6360.512-5058.568,6360.517-5058.662Z" transform="translate(-6360.492 5058.662)" fill="#fff"/>
          </g>
          <g id="Grupo_149700" data-name="Grupo 149700" transform="translate(5.299 3.033)">
            <path id="Trazado_248132" data-name="Trazado 248132" d="M6352.667-5057.56a4.327,4.327,0,0,1,0-.839,7.531,7.531,0,0,1,2.379-4.552c.23-.14.574-.465.849-.623a5.853,5.853,0,0,1,2.17-.592s0-.167,0-.437c0-.659-.006-1.963-.009-3.194,0-.228,0-.454,0-.673,0-.252,0-.5,0-.721,0-.363,0-.557,0-.961-.011-4.073-.021-7.712-.029-10.22,0-.482,0-.936,0-1.327,0-.5-.006-2.384-.006-2.384a.569.569,0,0,1,.26-.45.226.226,0,0,1,.134-.035c4.879.319,10.493-1.127,16.47-4.578.708-.393,1.37-.825,2.046-1.264.008,0,.012,0,.021,0a3.6,3.6,0,0,0,.556-.352.445.445,0,0,0,.08-.19.98.98,0,0,0-.426-.709h0a.519.519,0,0,0-.162-.06.944.944,0,0,0-.633.153c-.663.432-1.327.847-2,1.234a30.449,30.449,0,0,1-14.269,4.507c-.619.016-1.225,0-1.821-.035a.924.924,0,0,0-.516.14,2.264,2.264,0,0,0-1.032,1.791l.053,18.648a4.178,4.178,0,0,0-1.393.52,6.393,6.393,0,0,0-1.053.771,9.3,9.3,0,0,0-2.945,5.64c-.138,1.567.331,2.664,1.157,3.143a2.649,2.649,0,0,0,2.136.179,5.01,5.01,0,0,0,1.27-.6C6354.266-5054.669,6352.849-5055.686,6352.667-5057.56Z" transform="translate(-6351.355 5091.733)" fill="#fff"/>
          </g>
          <g id="Grupo_149701" data-name="Grupo 149701">
            <path id="Trazado_248133" data-name="Trazado 248133" d="M6359.475-5086.179a30.444,30.444,0,0,0,14.268-4.508c.672-.387,1.335-.8,2-1.233a.938.938,0,0,1,.633-.153h0a.507.507,0,0,1,.162.06h0l-5.142-2.987a1.056,1.056,0,0,0-1.073.071.244.244,0,0,1,.082-.018.213.213,0,0,0-.091.024c-.232.15-.463.3-.7.447s-.462.29-.7.43a36.761,36.761,0,0,1-9.006,3.955,23.219,23.219,0,0,1-7.546.846,1.188,1.188,0,0,0-.655.167h0a1.886,1.886,0,0,0-.9,1.569q.014,4.675.026,9.351.009,2.837.016,5.675.005,1.906.011,3.812c-.071.013-.142.026-.213.042-2.163.473-3.932,2.731-4.659,4.628a6.771,6.771,0,0,0-.5,3.289,2.777,2.777,0,0,0,1.29,2.166l5.141,2.988c-.827-.479-1.295-1.576-1.157-3.143a9.3,9.3,0,0,1,2.945-5.64,6.393,6.393,0,0,1,1.053-.771,4.169,4.169,0,0,1,1.393-.52l-.054-18.649a2.269,2.269,0,0,1,1.033-1.791.924.924,0,0,1,.516-.14h0C6358.25-5086.176,6358.856-5086.163,6359.475-5086.179Z" transform="translate(-6345.445 5095.116)" fill="#8addff"/>
          </g>
        </g>
      </g>
    </g>
  </g>
</svg>
