<svg xmlns="http://www.w3.org/2000/svg" width="273" height="110.29" viewBox="0 0 273 110.29">
  <g id="Grupo_163227" data-name="Grupo 163227" transform="translate(-194 -417)">
    <g id="Grupo_163191" data-name="Grupo 163191">
      <g id="Grupo_151574" data-name="Grupo 151574" transform="translate(14 -4)">
        <g id="Grupo_141764" data-name="Grupo 141764" transform="translate(180 407)">
          <g id="Grupo_129487" data-name="Grupo 129487" transform="translate(0 0)" opacity="0.2">
            <g id="Grupo_129451" data-name="Grupo 129451" transform="translate(273 74.228) rotate(180)">
              <path id="Trazado_114977" data-name="Trazado 114977" d="M18.7,0H0L14.169,30.114,0,60.228H18.7L32.865,30.114Z" transform="translate(0 0)" fill="#d84318"/>
              <path id="Trazado_114978" data-name="Trazado 114978" d="M18.7,0H0L14.169,30.114,0,60.228H18.7L32.865,30.114Z" transform="translate(32.865 0)" fill="#d84318"/>
              <path id="Trazado_114979" data-name="Trazado 114979" d="M18.7,0H0L14.169,30.114,0,60.228H18.7L32.865,30.114Z" transform="translate(65.73 0)" fill="#d84318"/>
            </g>
            <g id="Grupo_129486" data-name="Grupo 129486" transform="translate(0 64.062)">
              <path id="Trazado_114977-2" data-name="Trazado 114977" d="M18.7,0H0L14.169,30.114,0,60.228H18.7L32.865,30.114Z" transform="translate(0 0)" fill="#1b3f5e"/>
              <path id="Trazado_114978-2" data-name="Trazado 114978" d="M18.7,0H0L14.169,30.114,0,60.228H18.7L32.865,30.114Z" transform="translate(32.865 0)" fill="#1b3f5e"/>
              <path id="Trazado_114979-2" data-name="Trazado 114979" d="M18.7,0H0L14.169,30.114,0,60.228H18.7L32.865,30.114Z" transform="translate(65.73 0)" fill="#1b3f5e"/>
            </g>
          </g>
        </g>
      </g>
      <g id="tS2IgQ.tif" transform="translate(-897.327 1983.87)">
        <g id="Grupo_145518" data-name="Grupo 145518" transform="translate(1182.327 -1562.613)">
          <path id="Trazado_244026" data-name="Trazado 244026" d="M1182.906-1498.782a18.133,18.133,0,0,1,11.52-21.593c4.724-1.764,9.435-3.538,14.022-5.65a63.62,63.62,0,0,0,18.3-13.3c5.019-5.019,9.815-10.263,15.082-15.033,1.151-1.043,2.379-2,3.576-2.991a6.1,6.1,0,0,1,6.1-1.009,16.633,16.633,0,0,1,6.773,4.593,55.984,55.984,0,0,1,9.441,13.762,95.281,95.281,0,0,1,7.06,17.809c2.227,7.827,3.829,15.75,3.145,23.962a18.506,18.506,0,0,1-1.615,6.476c-1.347,2.837-3.444,4.464-6.744,4.469a143.839,143.839,0,0,1-16.445-1.305c-6.695-.758-13.372-1.772-20.142-1.508-1.673.065-3.339.284-5.009.421-.6.049-.745.188-.4.791,3.812,6.6,7.588,13.226,11.387,19.836.905,1.575.923,2.011-.038,3.176l-.679.241c-.54-.086-.963.276-1.453.383-2.692.89-5.4,1.724-8.153,2.4a2.808,2.808,0,0,1-3.355-1.357q-6.489-9.65-13.029-19.265c-1.036-1.518-1.026-1.536-2.805-.9-4.1,1.469-8.283,2.307-12.585,1.148-5.72-1.542-10-4.858-12.254-10.49q-.192-.545-.385-1.09c-.2-.383-.17-.87-.545-1.169l-.08-.226c.085-.544-.279-.969-.386-1.462A3.272,3.272,0,0,1,1182.906-1498.782Z" transform="translate(-1182.327 1560.661)" fill="#010101"/>
          <path id="Trazado_244027" data-name="Trazado 244027" d="M1184.121-1435.473c.127.478.531.9.274,1.454l-.481-1.358C1183.943-1435.495,1184.012-1435.527,1184.121-1435.473Z" transform="translate(-1183.128 1498.483)" fill="#151515"/>
          <path id="Trazado_244028" data-name="Trazado 244028" d="M1292.315-1370.428a.662.662,0,0,0-.111-.177,1.684,1.684,0,0,1,1.47-.3Z" transform="translate(-1237.76 1465.935)" fill="#4c4c4c"/>
          <path id="Trazado_244029" data-name="Trazado 244029" d="M1183.714-1436.6l-.1.061-.109.036-.4-1.131a.4.4,0,0,0,.193-.1Z" transform="translate(-1182.72 1499.609)" fill="#656565"/>
          <path id="Trazado_244030" data-name="Trazado 244030" d="M1185.045-1432.055c.493.205.466.7.615,1.1a.129.129,0,0,1-.215.032Z" transform="translate(-1183.698 1496.746)" fill="#151515"/>
          <path id="Trazado_244031" data-name="Trazado 244031" d="M1185.853-1429.805a1.321,1.321,0,0,1,.215-.033l.387,1.139-.094.066-.108-.042Z" transform="translate(-1184.106 1495.627)" fill="#5f5f5f"/>
          <path id="Trazado_244032" data-name="Trazado 244032" d="M1388.484-1511.937l-7.69,2.722c-.264.093-.524.2-.795.27a1.717,1.717,0,0,1-2.232-1.064,1.683,1.683,0,0,1,1.106-2.2c1.151-.459,2.332-.84,3.5-1.254l12.439-4.4c.264-.094.524-.2.793-.276a1.771,1.771,0,0,1,2.365,1.016,1.746,1.746,0,0,1-1.236,2.26C1393.995-1513.864,1391.235-1512.912,1388.484-1511.937Z" transform="translate(-1280.874 1540.234)" fill="#020202"/>
          <path id="Trazado_244033" data-name="Trazado 244033" d="M1377.12-1561.433a1.738,1.738,0,0,1-.728,1.955q-6.9,4.759-13.817,9.49a1.7,1.7,0,0,1-2.423-.467,1.7,1.7,0,0,1,.657-2.467q5.953-4.127,11.933-8.213a21.567,21.567,0,0,1,1.9-1.25A1.7,1.7,0,0,1,1377.12-1561.433Z" transform="translate(-1271.892 1562.613)" fill="#010101"/>
          <path id="Trazado_244034" data-name="Trazado 244034" d="M1392.454-1462.575c.5-.043,1.219-.106,1.932-.162q6.856-.536,13.713-1.068c1.413-.107,2.155.4,2.275,1.5s-.587,1.8-1.959,1.912c-5.047.4-10.1.774-15.143,1.178a2.048,2.048,0,0,1-1.769-.5A1.727,1.727,0,0,1,1392.454-1462.575Z" transform="translate(-1287.621 1512.771)" fill="#010101"/>
          <path id="Trazado_244035" data-name="Trazado 244035" d="M1238.223-1532.16c-.474,6.89.792,13.256,2.53,19.556.414,1.5.9,2.985,1.394,4.466.684,2.072,1.389,2.68,2.582,2.292s1.412-1.363.711-3.362a72.014,72.014,0,0,1-3.489-14.3,32.608,32.608,0,0,1-.156-9.306c.356-2.328,1.039-4.512,2.992-5.734q-.073,32.146,20.28,57.371c-1.713-.277-3.693.255-5.385-1.058a28,28,0,0,1-6.93-8.62,48.356,48.356,0,0,1-3.7-8.18c-.052-.152-.1-.3-.167-.45a1.764,1.764,0,0,0-2.286-1.181,1.7,1.7,0,0,0-.949,2.379,58.827,58.827,0,0,0,3.842,8.648,42.065,42.065,0,0,0,5.166,7.447c-.6-.044-1.008-.066-1.413-.107-6.2-.627-12.377-1.453-18.634-.987a75.557,75.557,0,0,0-11.8,2.046,9.9,9.9,0,0,1-10.776-3.688,4.269,4.269,0,0,0-.547-.632,1.613,1.613,0,0,0-2.288,0,1.542,1.542,0,0,0-.284,2.164,14.063,14.063,0,0,0,4.212,4.028l1.1.684c-5.845,2.418-11.544,3.761-17.264.075-7.4-4.765-9.806-15.56-5.055-22.642a14.886,14.886,0,0,1,7.031-5.582c2.258-.9,4.58-1.641,6.882-2.456.005.013.066.1.045.139-2.988,5.8-2.581,11.724-.687,17.706.157.5.317.993.521,1.47a1.747,1.747,0,0,0,2.224,1.11,1.706,1.706,0,0,0,.983-2.267,31.927,31.927,0,0,1-1.719-7.456,15.785,15.785,0,0,1,5.192-13.354,13.343,13.343,0,0,1,3.449-1.9c6.675-3.325,12.228-8.095,17.415-13.351C1234.832-1528.8,1236.444-1530.388,1238.223-1532.16Z" transform="translate(-1185.925 1550.473)" fill="#d84318"/>
          <path id="Trazado_244036" data-name="Trazado 244036" d="M1333.219-1523.109c2.719,7.808,4.719,15.766,4.918,24.089a27.613,27.613,0,0,1-.628,7.138,9.372,9.372,0,0,1-1.029,2.678,3.449,3.449,0,0,1-4.71,1.579,12.743,12.743,0,0,1-3.915-2.723,45.978,45.978,0,0,1-8.069-10.8c-.755-1.317-1.418-2.685-2.166-4.006-.434-.766-.351-1.137.569-1.442,2.964-.981,5.872-2.134,8.847-3.079a5.294,5.294,0,0,0,3.854-4.578,16.26,16.26,0,0,0-1.775-9.864,12.732,12.732,0,0,0-3.727-4.771,5.2,5.2,0,0,0-5.3-.837c-3,1.125-6.041,2.13-9.047,3.236-.739.272-1.044.173-1.211-.629-1.183-5.687-2.065-11.4-1.49-17.232a15.2,15.2,0,0,1,1.118-4.765c1.228-2.751,3.156-3.422,5.832-2a18.655,18.655,0,0,1,5.222,4.526,65.428,65.428,0,0,1,9.737,16.013C1331.366-1528.139,1332.323-1525.637,1333.219-1523.109Z" transform="translate(-1245.812 1557.179)" fill="#fff59d"/>
          <path id="Trazado_244037" data-name="Trazado 244037" d="M1248.676-1413.894a8.556,8.556,0,0,0,1.064-.3c.627-.266.973-.11,1.34.5,1.5,2.5,3.118,4.925,4.6,7.434a3.29,3.29,0,0,0,2.641,1.77c1.466.177,2.909.545,4.375.71a2.247,2.247,0,0,1,1.935,1.3c1.076,2,2.228,3.969,3.387,5.928.431.729.414,1.042-.539,1.238-1.8.369-3.575.874-5.347,1.367a.927.927,0,0,1-1.184-.456q-6.244-9.289-12.526-18.553C1248.066-1413.478,1247.913-1413.792,1248.676-1413.894Z" transform="translate(-1215.524 1487.798)" fill="#d84318"/>
          <path id="Trazado_244038" data-name="Trazado 244038" d="M1325.1-1484.258c-2.006.71-3.991,1.406-5.969,2.118-.477.172-.628-.09-.782-.458a111.928,111.928,0,0,1-4.309-12.176c-.121-.416-.071-.678.373-.833,1.81-.63,3.615-1.276,5.422-1.914.328-.115.56-.2.626.337C1321.375-1489.916,1321.382-1489.917,1325.1-1484.258Z" transform="translate(-1248.748 1529.817)" fill="#fff59d"/>
          <path id="Trazado_244039" data-name="Trazado 244039" d="M1339.85-1495.01a11.89,11.89,0,0,1,.582,6.041c-.336,1.546-1,1.782-2.252.848-2.8-2.093-4.96-8.2-4.108-11.608.375-1.5,1.057-1.724,2.3-.756A12.668,12.668,0,0,1,1339.85-1495.01Z" transform="translate(-1258.788 1531.564)" fill="#fff59d"/>
          <path id="Trazado_244040" data-name="Trazado 244040" d="M1267.767-1409.274a3.956,3.956,0,0,1-4.31-2.432c-.919-1.841-2.155-3.524-3.269-5.3a12.169,12.169,0,0,1,2.311-.652c.345-.136.5.1.648.353C1264.669-1414.656,1266.2-1412.006,1267.767-1409.274Z" transform="translate(-1221.608 1489.503)" fill="#d84318"/>
        </g>
      </g>
    </g>
  </g>
</svg>
