<svg xmlns="http://www.w3.org/2000/svg" xmlns:xlink="http://www.w3.org/1999/xlink" width="159" height="159" viewBox="0 0 159 159">
  <defs>
    <linearGradient id="linear-gradient" x1="1.13" y1="1.295" x2="0.236" y2="0.19" gradientUnits="objectBoundingBox">
      <stop offset="0" stop-color="#dae3fe"/>
      <stop offset="1" stop-color="#e9effd"/>
    </linearGradient>
    <linearGradient id="linear-gradient-2" x1="0" y1="0.5" x2="1" y2="0.5" xlink:href="#linear-gradient"/>
    <linearGradient id="linear-gradient-3" x1="0" y1="0.5" x2="1" y2="0.5" xlink:href="#linear-gradient"/>
    <linearGradient id="linear-gradient-6" x1="0" y1="0.5" x2="1" y2="0.5" xlink:href="#linear-gradient"/>
    <linearGradient id="linear-gradient-8" x1="0" y1="0.5" x2="1" y2="0.5" xlink:href="#linear-gradient"/>
    <linearGradient id="linear-gradient-10" x1="292.896" y1="469.35" x2="294.223" y2="469.35" gradientUnits="objectBoundingBox">
      <stop offset="0" stop-color="#febbba"/>
      <stop offset="1" stop-color="#ff928e"/>
    </linearGradient>
    <linearGradient id="linear-gradient-11" x1="407.313" y1="1327.889" x2="-43.511" y2="-143.209" gradientUnits="objectBoundingBox">
      <stop offset="0" stop-color="#b37cff"/>
      <stop offset="1" stop-color="#f895e7"/>
    </linearGradient>
    <linearGradient id="linear-gradient-12" x1="-60.898" y1="23.213" x2="174.724" y2="-63.835" gradientUnits="objectBoundingBox">
      <stop offset="0" stop-color="#53d8ff"/>
      <stop offset="1" stop-color="#3840f7"/>
    </linearGradient>
    <linearGradient id="linear-gradient-13" x1="-222.351" y1="-155.681" x2="-218.559" y2="-159.773" xlink:href="#linear-gradient-10"/>
    <linearGradient id="linear-gradient-14" x1="222.859" y1="407.175" x2="222.002" y2="406.379" xlink:href="#linear-gradient-10"/>
    <linearGradient id="linear-gradient-15" x1="747.104" y1="1873.25" x2="744.229" y2="1869.584" xlink:href="#linear-gradient-10"/>
  </defs>
  <g id="Grupo_163248" data-name="Grupo 163248" transform="translate(-1133 -5847)">
    <g id="Grupo_163205" data-name="Grupo 163205">
      <g id="Elipse_5722" data-name="Elipse 5722" transform="translate(1133 5847)" fill="none" stroke="#ccc47d" stroke-width="10">
        <circle cx="79.5" cy="79.5" r="79.5" stroke="none"/>
        <circle cx="79.5" cy="79.5" r="74.5" fill="none"/>
      </g>
      <g id="Grupo_163185" data-name="Grupo 163185" transform="translate(-3507.595 10019.532)">
        <ellipse id="Elipse_5633-2" data-name="Elipse 5633-2" cx="69.527" cy="70.042" rx="69.527" ry="70.042" transform="translate(4650.567 -4163.616)" fill="#1b3f5e"/>
        <g id="Grupo_145682" data-name="Grupo 145682">
          <path id="Trazado_244324" data-name="Trazado 244324" d="M4756.662-4059.179a34.361,34.361,0,0,1-5.259,4.428c-17.155,12.309-37.454,8.721-41.768,7.845-6.371-1.294-18.685-3.795-27.588-14.265-13.47-15.84-11.372-40.795-.924-57.268,1.911-3.014,12.006-19.738,32.523-22.42,12.417-1.623,26.892,1.651,37.374,10.432C4773.022-4111.993,4771.456-4074.753,4756.662-4059.179Z" opacity="0.2" fill="url(#linear-gradient)"/>
          <g id="Grupo_145655" data-name="Grupo 145655">
            <g id="Grupo_145650" data-name="Grupo 145650">
              <g id="Grupo_145647" data-name="Grupo 145647" opacity="0.3">
                <path id="Trazado_244325" data-name="Trazado 244325" d="M4726.907-4126.09a.291.291,0,0,1,.375.174c.108.295.231.589.364.875a.294.294,0,0,1-.137.387l0,0a.293.293,0,0,1-.389-.142c-.14-.3-.269-.611-.382-.921a.293.293,0,0,1,.146-.363Zm1.483,2.4c.171.266.355.526.547.774a.294.294,0,0,1-.053.411.292.292,0,0,1-.41-.053c-.2-.261-.4-.535-.576-.814a.294.294,0,0,1,.088-.4.23.23,0,0,1,.03-.017A.293.293,0,0,1,4728.39-4123.693Zm1.57,1.924c.225.22.462.432.705.632a.293.293,0,0,1,.041.412.293.293,0,0,1-.412.04c-.256-.21-.506-.434-.743-.666a.292.292,0,0,1,0-.413.3.3,0,0,1,.081-.059A.293.293,0,0,1,4729.96-4121.769Zm1.96,1.524c.269.164.548.318.83.459a.293.293,0,0,1,.131.392.292.292,0,0,1-.392.131c-.3-.147-.591-.31-.873-.483a.292.292,0,0,1-.1-.4.294.294,0,0,1,.121-.11A.291.291,0,0,1,4731.92-4120.245Zm2.252,1.049c.3.1.6.189.91.264a.293.293,0,0,1,.215.354.292.292,0,0,1-.354.214c-.322-.079-.644-.172-.958-.277a.294.294,0,0,1-.184-.371.293.293,0,0,1,.149-.169A.292.292,0,0,1,4734.172-4119.2Zm2.427.525c.313.032.631.051.946.056a.293.293,0,0,1,.288.3.293.293,0,0,1-.3.288c-.331-.005-.666-.025-1-.059a.294.294,0,0,1-.262-.321.294.294,0,0,1,.163-.233A.292.292,0,0,1,4736.6-4118.671Zm10.093-4.02a.292.292,0,0,1,.04.412c-.21.255-.435.5-.667.742a.293.293,0,0,1-.414,0,.293.293,0,0,1,0-.414c.22-.225.434-.462.634-.7a.278.278,0,0,1,.1-.077A.292.292,0,0,1,4746.692-4122.691Zm-7.611,3.994c.312-.039.626-.091.934-.156a.292.292,0,0,1,.347.225.294.294,0,0,1-.226.347c-.324.069-.655.124-.984.165a.294.294,0,0,1-.326-.255.294.294,0,0,1,.162-.3A.282.282,0,0,1,4739.081-4118.7Zm5.824-2.175a.292.292,0,0,1-.053.41c-.263.2-.537.4-.816.574a.291.291,0,0,1-.4-.088.291.291,0,0,1,.088-.4c.265-.17.526-.354.775-.546a.338.338,0,0,1,.05-.031A.292.292,0,0,1,4744.9-4120.872Zm-3.411,1.6c.295-.107.59-.229.876-.361a.291.291,0,0,1,.388.142.293.293,0,0,1-.136.386l-.006,0c-.3.14-.611.268-.922.381a.293.293,0,0,1-.375-.175.293.293,0,0,1,.146-.363Z" fill="#bdd0fb"/>
                <path id="Trazado_244326" data-name="Trazado 244326" d="M4747.535-4124.425a.289.289,0,0,0-.126.12c-.074.132-.151.264-.23.394a.292.292,0,0,0,.1.4.293.293,0,0,0,.4-.1c.083-.136.165-.276.242-.414a.292.292,0,0,0-.113-.4A.292.292,0,0,0,4747.535-4124.425Z" fill="#bdd0fb"/>
              </g>
              <g id="Grupo_145648" data-name="Grupo 145648" opacity="0.3">
                <path id="Trazado_244327" data-name="Trazado 244327" d="M4748.488-4133.294a.293.293,0,0,0-.151.348c.044.144.086.292.124.439a.293.293,0,0,0,.357.209.292.292,0,0,0,.209-.357c-.04-.155-.084-.31-.13-.462a.292.292,0,0,0-.365-.194A.245.245,0,0,0,4748.488-4133.294Z" fill="#bdd0fb"/>
                <path id="Trazado_244328" data-name="Trazado 244328" d="M4733.113-4140.459a.292.292,0,0,1,.384.153.293.293,0,0,1-.153.385c-.282.121-.564.256-.841.4a.293.293,0,0,1-.4-.121.294.294,0,0,1,.121-.4c.12-.064.241-.125.362-.185C4732.762-4140.3,4732.938-4140.384,4733.113-4140.459Zm-1.83,1.333a.294.294,0,0,1-.066.409c-.252.181-.5.375-.734.576a.292.292,0,0,1-.412-.032.292.292,0,0,1,.032-.412c.247-.212.507-.416.772-.607a.238.238,0,0,1,.042-.026A.294.294,0,0,1,4731.283-4139.126Zm3.335-1.861c.313-.086.635-.161.956-.22a.292.292,0,0,1,.341.234.293.293,0,0,1-.234.341c-.3.057-.61.127-.908.209a.293.293,0,0,1-.36-.2.291.291,0,0,1,.153-.34A.269.269,0,0,1,4734.618-4140.987Zm-5.24,3.495a.293.293,0,0,1,.025.413c-.2.232-.4.475-.588.723a.294.294,0,0,1-.41.06.293.293,0,0,1-.059-.41c.195-.261.4-.517.619-.761a.284.284,0,0,1,.09-.069A.292.292,0,0,1,4729.378-4137.492Zm7.779-3.9c.325-.015.655-.017.981,0a.293.293,0,0,1,.281.3.291.291,0,0,1-.3.281c-.31-.011-.623-.01-.932,0a.293.293,0,0,1-.306-.279.292.292,0,0,1,.164-.277A.3.3,0,0,1,4737.157-4141.391Zm2.566.163c.321.056.644.126.959.209a.292.292,0,0,1,.208.357.292.292,0,0,1-.357.209c-.3-.078-.606-.145-.911-.2a.293.293,0,0,1-.238-.339.294.294,0,0,1,.16-.212A.3.3,0,0,1,4739.723-4141.228Zm2.47.718c.3.125.6.264.89.413a.292.292,0,0,1,.126.394.292.292,0,0,1-.394.126c-.275-.142-.56-.274-.846-.393a.292.292,0,0,1-.159-.382.29.29,0,0,1,.142-.151A.291.291,0,0,1,4742.193-4140.51Zm2.254,1.239c.267.188.529.39.779.6a.293.293,0,0,1,.036.412.293.293,0,0,1-.412.036c-.237-.2-.486-.39-.74-.568a.293.293,0,0,1-.071-.408.3.3,0,0,1,.111-.094A.294.294,0,0,1,4744.447-4139.271Zm1.928,1.706c.218.241.429.5.627.755a.293.293,0,0,1-.055.41.292.292,0,0,1-.41-.055c-.188-.247-.389-.488-.6-.717a.294.294,0,0,1,.021-.414.273.273,0,0,1,.068-.046A.292.292,0,0,1,4746.375-4137.565Zm1.5,2.085c.118.209.232.424.337.639q.057.116.111.234a.288.288,0,0,1-.143.388.292.292,0,0,1-.388-.142c-.034-.075-.07-.149-.106-.223-.1-.205-.208-.409-.32-.607a.292.292,0,0,1,.11-.4l.016-.008A.292.292,0,0,1,4747.88-4135.48Z" fill="#bdd0fb"/>
                <path id="Trazado_244329" data-name="Trazado 244329" d="M4727.606-4135.48a.291.291,0,0,0-.127.122c-.076.139-.151.282-.223.425a.292.292,0,0,0,.132.392.292.292,0,0,0,.392-.131c.068-.136.139-.272.212-.4a.293.293,0,0,0-.116-.4A.293.293,0,0,0,4727.606-4135.48Z" fill="#bdd0fb"/>
              </g>
              <g id="Grupo_145649" data-name="Grupo 145649">
                <path id="Trazado_244330" data-name="Trazado 244330" d="M4728.756-4130.933a.148.148,0,0,0,.064.156l1.5.947a7.739,7.739,0,0,0,.407,2.474l-1.121,1.377a.146.146,0,0,0-.01.169l1.124,1.811a.145.145,0,0,0,.157.065l1.731-.394a7.731,7.731,0,0,0,2.038,1.461l.182,1.767a.144.144,0,0,0,.112.127l2.075.485a.147.147,0,0,0,.157-.064l.946-1.5a7.761,7.761,0,0,0,2.474-.407l1.378,1.12a.145.145,0,0,0,.169.011l1.81-1.124a.148.148,0,0,0,.066-.157l-.4-1.731a7.741,7.741,0,0,0,1.461-2.038l1.767-.182a.147.147,0,0,0,.128-.112l.484-2.075a.144.144,0,0,0-.064-.157l-1.5-.946a7.739,7.739,0,0,0-.406-2.475l1.12-1.377a.146.146,0,0,0,.011-.169l-1.125-1.81a.147.147,0,0,0-.156-.066l-1.732.394a7.727,7.727,0,0,0-2.038-1.46l-.182-1.768a.145.145,0,0,0-.112-.127l-2.075-.485a.146.146,0,0,0-.157.065l-.946,1.5a7.733,7.733,0,0,0-2.474.406l-1.378-1.12a.146.146,0,0,0-.169-.011l-1.81,1.125a.145.145,0,0,0-.065.156l.394,1.731a7.742,7.742,0,0,0-1.461,2.039l-1.767.181a.147.147,0,0,0-.127.112Z" fill="#f0f8ff" opacity="0.3"/>
                <path id="Trazado_244331" data-name="Trazado 244331" d="M4737.459-4131.883a2.143,2.143,0,0,1,2.692,1.39,2.127,2.127,0,0,1-.138,1.634,2.131,2.131,0,0,1-1.252,1.058,2.146,2.146,0,0,1-2.692-1.391,2.146,2.146,0,0,1,1.1-2.574A2.034,2.034,0,0,1,4737.459-4131.883Zm2.11,2.794a1.626,1.626,0,0,0,.106-1.252,1.644,1.644,0,0,0-2.064-1.066,1.645,1.645,0,0,0-1.066,2.064,1.645,1.645,0,0,0,2.064,1.066,1.669,1.669,0,0,0,.226-.091A1.625,1.625,0,0,0,4739.569-4129.089Z" fill="url(#linear-gradient-2)"/>
                <path id="Trazado_244332" data-name="Trazado 244332" d="M4735.847-4134.565a5.4,5.4,0,0,0-.473.262h0l-.145.093a5.319,5.319,0,0,0-.662.523l-.009.007-.023.023-.046.043a.126.126,0,0,0-.026.145.125.125,0,0,0,.023.032.124.124,0,0,0,.176,0,5.015,5.015,0,0,1,.843-.656,5.016,5.016,0,0,1,4.825-.257,4.987,4.987,0,0,1,2.085,1.871,4.927,4.927,0,0,1,.25.452,4.973,4.973,0,0,1,.374,3.337,4.985,4.985,0,0,1-2.238,3.12,5.022,5.022,0,0,1-6.91-1.614,4.837,4.837,0,0,1-.246-.446,4.974,4.974,0,0,1-.509-2.117.145.145,0,0,0-.013-.053.125.125,0,0,0-.114-.07.125.125,0,0,0-.123.127,5.243,5.243,0,0,0,.534,2.223,5.344,5.344,0,0,0,.259.468,5.274,5.274,0,0,0,7.254,1.695,5.236,5.236,0,0,0,2.349-3.276,5.228,5.228,0,0,0-.392-3.5c-.079-.161-.166-.319-.262-.474a5.233,5.233,0,0,0-3.277-2.35A5.232,5.232,0,0,0,4735.847-4134.565Z" fill="url(#linear-gradient-3)"/>
              </g>
            </g>
            <g id="Grupo_145654" data-name="Grupo 145654">
              <g id="Grupo_145651" data-name="Grupo 145651" opacity="0.3">
                <path id="Trazado_244333" data-name="Trazado 244333" d="M4714.522-4128.617a.182.182,0,0,0-.1.193c.025.151.056.3.091.453a.181.181,0,0,0,.217.135.18.18,0,0,0,.135-.217c-.033-.142-.063-.288-.087-.432a.181.181,0,0,0-.209-.148A.211.211,0,0,0,4714.522-4128.617Z" fill="#bdd0fb"/>
                <path id="Trazado_244334" data-name="Trazado 244334" d="M4714.9-4127.281a.179.179,0,0,1,.232.107,7.555,7.555,0,0,0,.3.7c.023.048.047.1.072.143a.182.182,0,0,1-.078.243.187.187,0,0,1-.244-.078c-.025-.05-.051-.1-.075-.149a7.907,7.907,0,0,1-.313-.731.181.181,0,0,1,.09-.225Zm1.072,1.735a7.439,7.439,0,0,0,.562.726.181.181,0,0,1-.017.255.182.182,0,0,1-.255-.017,7.946,7.946,0,0,1-.589-.76.181.181,0,0,1,.048-.251l.022-.013A.181.181,0,0,1,4715.97-4125.546Zm1.209,1.376a7.556,7.556,0,0,0,.724.565.18.18,0,0,1,.046.251.179.179,0,0,1-.251.047,7.736,7.736,0,0,1-.758-.593.181.181,0,0,1-.016-.255.173.173,0,0,1,.056-.042A.18.18,0,0,1,4717.179-4124.17Zm1.511,1.036a7.36,7.36,0,0,0,.839.371.181.181,0,0,1,.107.232.181.181,0,0,1-.232.107,7.758,7.758,0,0,1-.88-.389.181.181,0,0,1-.078-.243.182.182,0,0,1,.081-.079A.178.178,0,0,1,4718.69-4123.134Zm1.718.637a7.453,7.453,0,0,0,.9.155.181.181,0,0,1,.16.2.182.182,0,0,1-.2.16,7.8,7.8,0,0,1-.947-.164.181.181,0,0,1-.135-.217.182.182,0,0,1,.1-.121A.179.179,0,0,1,4720.408-4122.5Zm1.82.2a7.34,7.34,0,0,0,.914-.069.181.181,0,0,1,.2.154.182.182,0,0,1-.154.2,7.871,7.871,0,0,1-.959.073.181.181,0,0,1-.183-.178.179.179,0,0,1,.1-.165A.177.177,0,0,1,4722.228-4122.3Zm1.813-.251a7.43,7.43,0,0,0,.87-.292.181.181,0,0,1,.235.1.181.181,0,0,1-.1.235,7.662,7.662,0,0,1-.912.306.18.18,0,0,1-.222-.128.18.18,0,0,1,.095-.208A.194.194,0,0,1,4724.041-4122.549Zm2.723-1.144a.181.181,0,0,1-.04.253,8.007,8.007,0,0,1-.7.456l-.11.062a.179.179,0,0,1-.246-.07.181.181,0,0,1,.07-.246l.1-.059a7.632,7.632,0,0,0,.669-.435.147.147,0,0,1,.028-.017A.181.181,0,0,1,4726.764-4123.693Z" fill="#bdd0fb"/>
              </g>
              <g id="Grupo_145652" data-name="Grupo 145652" opacity="0.3">
                <path id="Trazado_244335" data-name="Trazado 244335" d="M4718.787-4136.8a7.943,7.943,0,0,1,.877-.353.182.182,0,0,1,.229.115.181.181,0,0,1-.115.228,7.813,7.813,0,0,0-.837.336.18.18,0,0,1-.241-.086.18.18,0,0,1,.084-.239Zm-.581.512a.181.181,0,0,1-.057.249,7.5,7.5,0,0,0-.733.526.183.183,0,0,1-.255-.026.181.181,0,0,1,.027-.255,8.071,8.071,0,0,1,.769-.551l.017-.009A.18.18,0,0,1,4718.206-4136.287Zm2.373-1.108a7.817,7.817,0,0,1,.938-.129.18.18,0,0,1,.194.166.181.181,0,0,1-.167.194,7.51,7.51,0,0,0-.894.124.18.18,0,0,1-.212-.142.179.179,0,0,1,.1-.2A.2.2,0,0,1,4720.579-4137.4Zm-3.833,2.238a.182.182,0,0,1,0,.256,7.466,7.466,0,0,0-.585.687.182.182,0,0,1-.253.037.181.181,0,0,1-.036-.253,7.646,7.646,0,0,1,.614-.722.172.172,0,0,1,.051-.037A.181.181,0,0,1,4716.746-4135.157Zm5.716-2.382a7.8,7.8,0,0,1,.941.1.18.18,0,0,1,.149.208.181.181,0,0,1-.209.148,7.559,7.559,0,0,0-.9-.1.18.18,0,0,1-.172-.189.179.179,0,0,1,.1-.154A.18.18,0,0,1,4722.462-4137.539Zm1.863.312a7.916,7.916,0,0,1,.89.321.18.18,0,0,1,.094.238.18.18,0,0,1-.237.094,7.706,7.706,0,0,0-.849-.307.179.179,0,0,1-.122-.224.178.178,0,0,1,.094-.111A.171.171,0,0,1,4724.325-4137.227Zm1.735.748a7.755,7.755,0,0,1,.787.527.18.18,0,0,1,.034.253.181.181,0,0,1-.253.034,7.314,7.314,0,0,0-.75-.5.181.181,0,0,1-.065-.248.172.172,0,0,1,.076-.071A.186.186,0,0,1,4726.06-4136.479Z" fill="#bdd0fb"/>
                <path id="Trazado_244336" data-name="Trazado 244336" d="M4715.429-4133.705a.177.177,0,0,0-.077.072c-.077.134-.151.271-.218.408a.18.18,0,0,0,.081.242.181.181,0,0,0,.242-.081c.065-.13.135-.261.208-.389a.181.181,0,0,0-.067-.247A.182.182,0,0,0,4715.429-4133.705Z" fill="#bdd0fb"/>
              </g>
              <g id="Grupo_145653" data-name="Grupo 145653">
                <path id="Trazado_244337" data-name="Trazado 244337" d="M4716.286-4130.373a.09.09,0,0,0,.04.1l.943.593a4.831,4.831,0,0,0,.255,1.551l-.7.863a.092.092,0,0,0-.006.106l.705,1.135a.092.092,0,0,0,.1.041l1.085-.247a4.871,4.871,0,0,0,1.277.916l.114,1.107a.093.093,0,0,0,.071.08l1.3.3a.092.092,0,0,0,.1-.04l.593-.943a4.855,4.855,0,0,0,1.551-.255l.863.7a.09.09,0,0,0,.106.007l1.135-.705a.093.093,0,0,0,.041-.1l-.247-1.085a4.834,4.834,0,0,0,.915-1.278l1.108-.114a.092.092,0,0,0,.08-.07l.3-1.3a.092.092,0,0,0-.041-.1l-.942-.593a4.883,4.883,0,0,0-.255-1.551l.7-.863a.092.092,0,0,0,.007-.106l-.705-1.135a.092.092,0,0,0-.1-.041l-1.085.247a4.852,4.852,0,0,0-1.278-.915l-.114-1.108a.091.091,0,0,0-.07-.08l-1.3-.3a.092.092,0,0,0-.1.04l-.593.943a4.858,4.858,0,0,0-1.551.255l-.864-.7a.09.09,0,0,0-.106-.007l-1.134.705a.092.092,0,0,0-.041.1l.247,1.085a4.878,4.878,0,0,0-.916,1.278l-1.108.114a.092.092,0,0,0-.079.07Z" fill="#f0f8ff" opacity="0.3"/>
                <path id="Trazado_244338" data-name="Trazado 244338" d="M4721.734-4130.992a1.358,1.358,0,0,1,1.043.088,1.355,1.355,0,0,1,.674.8,1.369,1.369,0,0,1-.887,1.718,1.368,1.368,0,0,1-1.717-.887,1.355,1.355,0,0,1,.088-1.043,1.355,1.355,0,0,1,.611-.6A1.376,1.376,0,0,1,4721.734-4130.992Zm1.373,1a1,1,0,0,0-.5-.588,1,1,0,0,0-.767-.064h0a1,1,0,0,0-.588.5,1,1,0,0,0-.065.767,1.008,1.008,0,0,0,1.264.653,1.289,1.289,0,0,0,.137-.055A1.008,1.008,0,0,0,4723.107-4130Z" fill="url(#linear-gradient-3)"/>
                <path id="Trazado_244339" data-name="Trazado 244339" d="M4720.683-4132.74a3.306,3.306,0,0,0-.3.168,3.345,3.345,0,0,0-.549.423l-.023.022a.181.181,0,0,0-.037.209.155.155,0,0,0,.033.047.18.18,0,0,0,.255,0,3.058,3.058,0,0,1,.511-.4h0l.03-.019a3.025,3.025,0,0,1,1.424-.437,3.069,3.069,0,0,1,.817.071l.006,0,.02,0a3.023,3.023,0,0,1,1.893,1.358,3.056,3.056,0,0,1,.151.274,3.018,3.018,0,0,1,.227,2.023,3.023,3.023,0,0,1-1.357,1.893,3.029,3.029,0,0,1-2.3.378,3.025,3.025,0,0,1-1.892-1.357,2.871,2.871,0,0,1-.15-.271,3.031,3.031,0,0,1-.308-1.284.181.181,0,0,0-.019-.076.18.18,0,0,0-.165-.1.18.18,0,0,0-.178.183,3.4,3.4,0,0,0,.345,1.437q.076.155.168.3a3.381,3.381,0,0,0,2.117,1.518,3.382,3.382,0,0,0,2.571-.423,3.385,3.385,0,0,0,1.518-2.117,3.382,3.382,0,0,0-.254-2.265,3.48,3.48,0,0,0-.169-.306A3.41,3.41,0,0,0,4720.683-4132.74Z" fill="url(#linear-gradient-3)"/>
              </g>
            </g>
          </g>
          <g id="Grupo_145664" data-name="Grupo 145664">
            <g id="Grupo_145659" data-name="Grupo 145659">
              <g id="Grupo_145656" data-name="Grupo 145656" opacity="0.3">
                <path id="Trazado_244340" data-name="Trazado 244340" d="M4707.175-4055.128a.3.3,0,0,1,.375.193c.1.305.209.609.333.906a.3.3,0,0,1-.155.387l0,0a.3.3,0,0,1-.39-.161c-.13-.312-.248-.633-.351-.953a.3.3,0,0,1,.164-.364Zm1.409,2.5c.163.277.34.549.525.81a.3.3,0,0,1-.071.415.3.3,0,0,1-.415-.07c-.195-.275-.381-.562-.552-.853a.3.3,0,0,1,.106-.408l.031-.016A.3.3,0,0,1,4708.584-4052.626Zm1.518,2.022c.22.233.453.459.692.673a.3.3,0,0,1,.024.421.3.3,0,0,1-.421.024c-.252-.225-.5-.463-.728-.709a.3.3,0,0,1,.012-.421.288.288,0,0,1,.084-.056A.3.3,0,0,1,4710.1-4050.6Zm1.932,1.632c.267.179.544.347.825.5a.3.3,0,0,1,.117.405.3.3,0,0,1-.405.117c-.295-.163-.587-.34-.868-.528a.3.3,0,0,1-.082-.413.29.29,0,0,1,.127-.107A.3.3,0,0,1,4712.034-4048.972Zm2.247,1.162c.3.114.607.217.916.306a.3.3,0,0,1,.2.369.3.3,0,0,1-.369.2c-.325-.094-.649-.2-.963-.323a.3.3,0,0,1-.172-.384.294.294,0,0,1,.158-.167A.3.3,0,0,1,4714.281-4047.81Zm2.449.635c.317.045.64.077.96.1a.3.3,0,0,1,.281.314.3.3,0,0,1-.315.281c-.337-.019-.677-.054-1.011-.1a.3.3,0,0,1-.252-.338.3.3,0,0,1,.175-.23A.3.3,0,0,1,4716.73-4047.175Zm10.438-3.672a.3.3,0,0,1,.023.421c-.224.251-.463.5-.71.727a.3.3,0,0,1-.421-.013.3.3,0,0,1,.013-.421c.234-.22.461-.452.674-.691a.308.308,0,0,1,.1-.074A.3.3,0,0,1,4727.168-4050.847Zm-7.912,3.748c.32-.026.642-.067.957-.12a.3.3,0,0,1,.344.244.3.3,0,0,1-.244.343c-.333.057-.672.1-1.008.127a.3.3,0,0,1-.321-.272.3.3,0,0,1,.177-.3A.3.3,0,0,1,4719.256-4047.1Zm6.018-1.971a.3.3,0,0,1-.071.415c-.276.194-.563.38-.855.55a.3.3,0,0,1-.407-.106.3.3,0,0,1,.106-.408c.277-.162.55-.338.812-.523a.26.26,0,0,1,.052-.029A.3.3,0,0,1,4725.274-4049.07Zm-3.538,1.481c.305-.1.61-.208.907-.331a.3.3,0,0,1,.389.161.3.3,0,0,1-.155.387l-.006,0c-.312.13-.633.247-.954.349a.3.3,0,0,1-.374-.194.3.3,0,0,1,.163-.362Z" fill="#bdd0fb"/>
                <path id="Trazado_244341" data-name="Trazado 244341" d="M4728.1-4052.577a.3.3,0,0,0-.134.117c-.08.131-.164.263-.25.391a.3.3,0,0,0,.082.414.3.3,0,0,0,.413-.082c.091-.135.179-.274.263-.412a.3.3,0,0,0-.1-.409A.3.3,0,0,0,4728.1-4052.577Z" fill="#bdd0fb"/>
              </g>
              <g id="Grupo_145657" data-name="Grupo 145657" opacity="0.3">
                <path id="Trazado_244342" data-name="Trazado 244342" d="M4729.436-4061.563a.3.3,0,0,0-.168.348c.039.149.075.3.108.452a.3.3,0,0,0,.354.228.3.3,0,0,0,.228-.355c-.034-.159-.073-.319-.114-.475a.3.3,0,0,0-.363-.213A.277.277,0,0,0,4729.436-4061.563Z" fill="#bdd0fb"/>
                <path id="Trazado_244343" data-name="Trazado 244343" d="M4714.087-4069.492a.3.3,0,0,1,.385.172.3.3,0,0,1-.172.384c-.293.112-.585.238-.873.376a.3.3,0,0,1-.4-.139.3.3,0,0,1,.139-.4q.188-.09.375-.172C4713.724-4069.348,4713.906-4069.423,4714.087-4069.492Zm-1.918,1.28a.3.3,0,0,1-.084.413c-.264.174-.523.361-.77.556a.3.3,0,0,1-.419-.049.3.3,0,0,1,.05-.419c.26-.205.533-.4.811-.585a.23.23,0,0,1,.044-.024A.3.3,0,0,1,4712.169-4068.212Zm3.471-1.755c.323-.075.654-.137.983-.185a.3.3,0,0,1,.337.253.3.3,0,0,1-.252.337c-.313.045-.627.1-.933.176a.3.3,0,0,1-.358-.223.3.3,0,0,1,.17-.34A.263.263,0,0,1,4715.64-4069.967Zm-5.477,3.339a.3.3,0,0,1,.008.421c-.218.227-.43.467-.628.712a.3.3,0,0,1-.419.043.3.3,0,0,1-.044-.419c.209-.258.432-.51.662-.749a.291.291,0,0,1,.095-.066A.294.294,0,0,1,4710.163-4066.628Zm8.078-3.645c.331,0,.667.01,1,.036a.3.3,0,0,1,.273.32.3.3,0,0,1-.32.274c-.315-.024-.634-.036-.949-.034a.3.3,0,0,1-.3-.3.3.3,0,0,1,.178-.275A.294.294,0,0,1,4718.241-4070.273Zm2.6.272c.325.071.65.156.967.253a.3.3,0,0,1,.2.372.3.3,0,0,1-.372.2c-.3-.092-.611-.173-.919-.24a.3.3,0,0,1-.228-.355.3.3,0,0,1,.171-.209A.293.293,0,0,1,4720.845-4070Zm2.484.833c.3.14.6.294.889.458a.3.3,0,0,1,.112.406.3.3,0,0,1-.407.112c-.273-.156-.558-.3-.844-.435a.3.3,0,0,1-.146-.4.3.3,0,0,1,.151-.148A.3.3,0,0,1,4723.329-4069.168Zm2.243,1.356c.264.2.522.418.767.641a.3.3,0,0,1,.02.421.3.3,0,0,1-.421.02c-.233-.212-.478-.417-.729-.609a.3.3,0,0,1-.055-.418.313.313,0,0,1,.116-.092A.3.3,0,0,1,4725.572-4067.812Zm1.891,1.815c.212.255.416.522.607.8a.3.3,0,0,1-.074.415.3.3,0,0,1-.415-.074c-.181-.258-.375-.512-.576-.754a.3.3,0,0,1,.038-.42.309.309,0,0,1,.071-.044A.3.3,0,0,1,4727.463-4066Zm1.445,2.185c.111.217.218.441.316.664.035.081.07.162.1.243a.3.3,0,0,1-.162.389.3.3,0,0,1-.389-.161c-.032-.077-.065-.155-.1-.231-.093-.213-.194-.425-.3-.632a.3.3,0,0,1,.128-.4l.017-.008A.3.3,0,0,1,4728.908-4063.812Z" fill="#bdd0fb"/>
                <path id="Trazado_244344" data-name="Trazado 244344" d="M4708.277-4064.654a.292.292,0,0,0-.135.119c-.084.138-.166.28-.244.423a.3.3,0,0,0,.117.405.3.3,0,0,0,.4-.118c.074-.136.152-.271.232-.4a.3.3,0,0,0-.1-.409A.3.3,0,0,0,4708.277-4064.654Z" fill="#bdd0fb"/>
              </g>
              <g id="Grupo_145658" data-name="Grupo 145658">
                <path id="Trazado_244345" data-name="Trazado 244345" d="M4709.257-4059.98a.151.151,0,0,0,.06.163l1.491,1.025a7.864,7.864,0,0,0,.311,2.535l-1.2,1.355a.15.15,0,0,0-.018.172l1.07,1.888a.146.146,0,0,0,.156.073l1.778-.329a7.872,7.872,0,0,0,2.014,1.571l.111,1.806a.15.15,0,0,0,.109.135l2.092.579a.149.149,0,0,0,.162-.059l1.025-1.491a7.9,7.9,0,0,0,2.535-.311l1.355,1.2a.149.149,0,0,0,.172.018l1.889-1.069a.15.15,0,0,0,.073-.157l-.329-1.778a7.923,7.923,0,0,0,1.571-2.013l1.806-.112a.148.148,0,0,0,.134-.109l.579-2.091a.148.148,0,0,0-.059-.163l-1.491-1.025a7.878,7.878,0,0,0-.311-2.535l1.2-1.355a.15.15,0,0,0,.018-.172l-1.07-1.888a.147.147,0,0,0-.156-.073l-1.778.329a7.881,7.881,0,0,0-2.014-1.571l-.111-1.806a.148.148,0,0,0-.109-.134l-2.092-.58a.149.149,0,0,0-.162.059l-1.025,1.491a7.9,7.9,0,0,0-2.535.311l-1.355-1.2a.149.149,0,0,0-.172-.018l-1.889,1.069a.15.15,0,0,0-.073.157l.329,1.778a7.91,7.91,0,0,0-1.571,2.013l-1.806.112a.15.15,0,0,0-.134.109Z" fill="#f0f8ff" opacity="0.3"/>
                <path id="Trazado_244346" data-name="Trazado 244346" d="M4718.154-4060.585a2.184,2.184,0,0,1,2.681,1.527,2.165,2.165,0,0,1-.207,1.657,2.17,2.17,0,0,1-1.319,1.024,2.185,2.185,0,0,1-2.682-1.527,2.185,2.185,0,0,1,1.225-2.574A2.31,2.31,0,0,1,4718.154-4060.585Zm2.031,2.932a1.668,1.668,0,0,0,.16-1.271,1.675,1.675,0,0,0-2.056-1.17,1.674,1.674,0,0,0-1.171,2.056,1.675,1.675,0,0,0,2.056,1.17,1.676,1.676,0,0,0,.234-.083A1.66,1.66,0,0,0,4720.185-4057.653Z" fill="url(#linear-gradient-6)"/>
                <path id="Trazado_244347" data-name="Trazado 244347" d="M4716.625-4063.381c-.167.074-.332.156-.493.247h0l-.151.089a5.439,5.439,0,0,0-.7.5l-.009.007-.025.022-.048.043a.127.127,0,0,0-.032.146.139.139,0,0,0,.021.034.129.129,0,0,0,.18.01,5.157,5.157,0,0,1,.885-.633,5.11,5.11,0,0,1,4.921-.061,5.074,5.074,0,0,1,2.044,1.991,4.969,4.969,0,0,1,.236.47,5.068,5.068,0,0,1,.241,3.411,5.073,5.073,0,0,1-2.407,3.083,5.113,5.113,0,0,1-6.964-1.93,5.117,5.117,0,0,1-.233-.464,5.093,5.093,0,0,1-.43-2.176.118.118,0,0,0-.01-.054.128.128,0,0,0-.114-.076.126.126,0,0,0-.13.124,5.342,5.342,0,0,0,.451,2.285c.073.165.154.328.244.487a5.373,5.373,0,0,0,7.312,2.026,5.332,5.332,0,0,0,2.527-3.237,5.323,5.323,0,0,0-.254-3.581,5.157,5.157,0,0,0-.248-.494,5.331,5.331,0,0,0-3.236-2.527A5.328,5.328,0,0,0,4716.625-4063.381Z" fill="url(#linear-gradient-3)"/>
              </g>
            </g>
            <g id="Grupo_145663" data-name="Grupo 145663">
              <g id="Grupo_145660" data-name="Grupo 145660" opacity="0.3">
                <path id="Trazado_244348" data-name="Trazado 244348" d="M4694.677-4058.213a.184.184,0,0,0-.109.192c.02.155.045.311.075.465a.183.183,0,0,0,.215.146.183.183,0,0,0,.146-.215c-.028-.147-.052-.3-.071-.444a.184.184,0,0,0-.206-.158A.16.16,0,0,0,4694.677-4058.213Z" fill="#bdd0fb"/>
                <path id="Trazado_244349" data-name="Trazado 244349" d="M4695-4056.839a.185.185,0,0,1,.232.119c.079.244.171.487.274.722.022.049.044.1.067.148a.185.185,0,0,1-.089.245.191.191,0,0,1-.245-.09c-.024-.052-.047-.1-.07-.155-.108-.246-.205-.5-.288-.757a.186.186,0,0,1,.1-.225Zm1.018,1.811a7.852,7.852,0,0,0,.542.762.183.183,0,0,1-.027.258.185.185,0,0,1-.259-.027,7.9,7.9,0,0,1-.568-.8.183.183,0,0,1,.059-.254l.023-.012A.185.185,0,0,1,4696.022-4055.028Zm1.174,1.45a7.507,7.507,0,0,0,.712.6.184.184,0,0,1,.038.258.185.185,0,0,1-.258.037,7.893,7.893,0,0,1-.747-.634.185.185,0,0,1,0-.261.192.192,0,0,1,.058-.041A.184.184,0,0,1,4697.2-4053.578Zm1.494,1.118a7.58,7.58,0,0,0,.839.412.184.184,0,0,1,.1.241.185.185,0,0,1-.241.1,8.022,8.022,0,0,1-.879-.433.184.184,0,0,1-.069-.251.184.184,0,0,1,.086-.077A.182.182,0,0,1,4698.69-4052.46Zm1.722.718a7.746,7.746,0,0,0,.913.2.184.184,0,0,1,.155.209.183.183,0,0,1-.21.154,7.883,7.883,0,0,1-.957-.205.185.185,0,0,1-.128-.227.187.187,0,0,1,.1-.119A.187.187,0,0,1,4700.412-4051.742Zm1.844.279a7.491,7.491,0,0,0,.933-.032.185.185,0,0,1,.2.165.184.184,0,0,1-.166.2,7.786,7.786,0,0,1-.978.034.183.183,0,0,1-.179-.189.184.184,0,0,1,.11-.163A.192.192,0,0,1,4702.256-4051.463Zm1.855-.18a7.435,7.435,0,0,0,.9-.261.186.186,0,0,1,.236.111.186.186,0,0,1-.111.236,8.033,8.033,0,0,1-.941.273.184.184,0,0,1-.22-.139.184.184,0,0,1,.1-.209Zm2.818-1.051a.184.184,0,0,1-.05.255,7.894,7.894,0,0,1-.732.435l-.114.059a.183.183,0,0,1-.248-.082.184.184,0,0,1,.082-.247c.036-.018.072-.036.108-.056a7.343,7.343,0,0,0,.7-.415.165.165,0,0,1,.029-.015A.183.183,0,0,1,4706.929-4052.694Z" fill="#bdd0fb"/>
              </g>
              <g id="Grupo_145661" data-name="Grupo 145661" opacity="0.3">
                <path id="Trazado_244350" data-name="Trazado 244350" d="M4699.356-4066.363a7.979,7.979,0,0,1,.908-.322.184.184,0,0,1,.228.126.186.186,0,0,1-.126.228,7.39,7.39,0,0,0-.866.307.185.185,0,0,1-.242-.1.185.185,0,0,1,.1-.24Zm-.612.5a.184.184,0,0,1-.068.251,7.861,7.861,0,0,0-.769.5.185.185,0,0,1-.257-.037.185.185,0,0,1,.037-.258,8.27,8.27,0,0,1,.806-.529l.017-.009A.186.186,0,0,1,4698.744-4065.866Zm2.461-1.028a7.736,7.736,0,0,1,.959-.093.184.184,0,0,1,.191.177.184.184,0,0,1-.177.19,7.617,7.617,0,0,0-.915.089.185.185,0,0,1-.211-.153.185.185,0,0,1,.108-.2A.165.165,0,0,1,4701.205-4066.894Zm-3.994,2.118a.183.183,0,0,1,0,.26,7.524,7.524,0,0,0-.624.676.185.185,0,0,1-.259.026.184.184,0,0,1-.026-.259,7.986,7.986,0,0,1,.654-.709.168.168,0,0,1,.053-.035A.185.185,0,0,1,4697.211-4064.776Zm5.916-2.187a8.081,8.081,0,0,1,.954.14.184.184,0,0,1,.142.218.184.184,0,0,1-.218.143,7.522,7.522,0,0,0-.909-.134.184.184,0,0,1-.168-.2.182.182,0,0,1,.11-.152A.175.175,0,0,1,4703.127-4066.963Zm1.883.394a8.069,8.069,0,0,1,.892.365.183.183,0,0,1,.086.245.183.183,0,0,1-.245.086,7.641,7.641,0,0,0-.852-.347.185.185,0,0,1-.115-.234.189.189,0,0,1,.1-.109A.184.184,0,0,1,4705.01-4066.569Zm1.734.834a7.963,7.963,0,0,1,.779.568.184.184,0,0,1,.025.26.184.184,0,0,1-.259.024,7.444,7.444,0,0,0-.743-.541.184.184,0,0,1-.056-.255.179.179,0,0,1,.081-.069A.185.185,0,0,1,4706.744-4065.735Z" fill="#bdd0fb"/>
                <path id="Trazado_244351" data-name="Trazado 244351" d="M4695.811-4063.354a.18.18,0,0,0-.082.071c-.084.133-.164.269-.239.405a.184.184,0,0,0,.073.25.185.185,0,0,0,.25-.072c.071-.13.148-.26.228-.387a.185.185,0,0,0-.058-.254A.185.185,0,0,0,4695.811-4063.354Z" fill="#bdd0fb"/>
              </g>
              <g id="Grupo_145662" data-name="Grupo 145662">
                <path id="Trazado_244352" data-name="Trazado 244352" d="M4696.544-4059.928a.094.094,0,0,0,.037.1l.935.643a4.963,4.963,0,0,0,.195,1.589l-.751.849a.094.094,0,0,0-.011.108l.67,1.184a.093.093,0,0,0,.1.045l1.115-.206a4.931,4.931,0,0,0,1.262.985l.07,1.132a.093.093,0,0,0,.068.084l1.311.363a.093.093,0,0,0,.1-.037l.643-.934a4.95,4.95,0,0,0,1.588-.2l.85.75a.092.092,0,0,0,.108.011l1.184-.67a.093.093,0,0,0,.045-.1l-.206-1.114a4.939,4.939,0,0,0,.985-1.263l1.132-.07a.093.093,0,0,0,.084-.068l.363-1.311a.09.09,0,0,0-.037-.1l-.935-.643a4.923,4.923,0,0,0-.194-1.589l.75-.849a.094.094,0,0,0,.011-.108l-.67-1.184a.094.094,0,0,0-.1-.046l-1.115.207a4.911,4.911,0,0,0-1.262-.985l-.07-1.132a.092.092,0,0,0-.068-.084l-1.311-.364a.1.1,0,0,0-.1.037l-.642.935a4.954,4.954,0,0,0-1.589.2l-.85-.751a.093.093,0,0,0-.107-.011l-1.184.67a.1.1,0,0,0-.046.1l.206,1.114a4.947,4.947,0,0,0-.984,1.262l-1.133.07a.1.1,0,0,0-.084.068Z" fill="#f0f8ff" opacity="0.3"/>
                <path id="Trazado_244353" data-name="Trazado 244353" d="M4702.114-4060.331a1.384,1.384,0,0,1,1.057.133,1.38,1.38,0,0,1,.654.841,1.394,1.394,0,0,1-.974,1.711,1.394,1.394,0,0,1-1.711-.974,1.383,1.383,0,0,1,.133-1.057,1.38,1.38,0,0,1,.647-.585A1.531,1.531,0,0,1,4702.114-4060.331Zm1.356,1.072a1.014,1.014,0,0,0-.481-.619,1.018,1.018,0,0,0-.777-.1h0a1.02,1.02,0,0,0-.619.481,1.017,1.017,0,0,0-.1.778,1.025,1.025,0,0,0,1.259.716.919.919,0,0,0,.141-.05A1.026,1.026,0,0,0,4703.47-4059.259Z" fill="url(#linear-gradient-8)"/>
                <path id="Trazado_244354" data-name="Trazado 244354" d="M4701.117-4062.153a3.335,3.335,0,0,0-.315.158,3.493,3.493,0,0,0-.577.408l-.023.021a.184.184,0,0,0-.047.212.189.189,0,0,0,.032.048.183.183,0,0,0,.259.015,3.156,3.156,0,0,1,.537-.384h0l.032-.017a3.057,3.057,0,0,1,1.468-.386,3.106,3.106,0,0,1,.827.106l.007,0,.02,0a3.083,3.083,0,0,1,1.87,1.46c.052.093.1.189.143.285a3.073,3.073,0,0,1,.146,2.069,3.075,3.075,0,0,1-1.46,1.869,3.078,3.078,0,0,1-2.354.29,3.078,3.078,0,0,1-1.869-1.46,3.021,3.021,0,0,1-.141-.281,3.083,3.083,0,0,1-.261-1.32.189.189,0,0,0-.015-.078.184.184,0,0,0-.164-.11.185.185,0,0,0-.189.179,3.468,3.468,0,0,0,.292,1.477,3.514,3.514,0,0,0,.158.315,3.443,3.443,0,0,0,2.091,1.633,3.441,3.441,0,0,0,2.634-.324,3.442,3.442,0,0,0,1.633-2.092,3.443,3.443,0,0,0-.164-2.314c-.048-.108-.1-.215-.16-.319A3.471,3.471,0,0,0,4701.117-4062.153Z" fill="url(#linear-gradient-3)"/>
              </g>
            </g>
          </g>
          <g id="Grupo_145681" data-name="Grupo 145681">
            <circle id="Elipse_5646" data-name="Elipse 5646" cx="13.463" cy="13.463" r="13.463" transform="translate(4674.404 -4076.697)" fill="#fff59d"/>
            <g id="Grupo_145665" data-name="Grupo 145665">
              <path id="Trazado_244355" data-name="Trazado 244355" d="M4694.662-4070.4s6.583,6.277,13.379,4.476l.712.861s-8.416,5.079-15.785-.691Z" fill="#ad2f12"/>
            </g>
            <path id="Trazado_244356" data-name="Trazado 244356" d="M4688.321-4049.914a22.034,22.034,0,0,1-7.435-12.862,7.482,7.482,0,0,1,7.652-8.623,26.115,26.115,0,0,1,6.124,1s-3.248,7.862.917,18.392C4695.579-4052,4691.078-4049.4,4688.321-4049.914Z" fill="#d84318"/>
            <path id="Trazado_244357" data-name="Trazado 244357" d="M4687.006-4076.089l-1.247,4.645a.912.912,0,0,0,.518,1.073,3.106,3.106,0,0,0,2.9-.034,1.236,1.236,0,0,0,.572-.968l.258-3.87Z" fill="url(#linear-gradient-10)"/>
            <circle id="Elipse_5647" data-name="Elipse 5647" cx="13.463" cy="13.463" r="13.463" transform="translate(4672.506 -4136.768)" fill="#d84318"/>
            <circle id="Elipse_5648" data-name="Elipse 5648" cx="13.463" cy="13.463" r="13.463" transform="translate(4740.584 -4136.768)" fill="#fff59d"/>
            <circle id="Elipse_5649" data-name="Elipse 5649" cx="13.463" cy="13.463" r="13.463" transform="translate(4737.738 -4073.428)" fill="#d84318"/>
            <g id="Grupo_145668" data-name="Grupo 145668">
              <g id="Grupo_145666" data-name="Grupo 145666">
                <path id="Trazado_244358" data-name="Trazado 244358" d="M4690.938-4125.989c.688-.155,3.281,8.393,11.01,3.831l.6,1.411s-6.489,6.773-11.988.172Z" fill="#f9b384"/>
                <path id="Trazado_244359" data-name="Trazado 244359" d="M4707.2-4120.17a1.013,1.013,0,0,0-.48-.732l-2.564-1.547s.016-.358.675-.5a.835.835,0,0,0,.627-.857s-.911.25-2.252.662a2.936,2.936,0,0,0-1.552,1.224l.555,1.042a12.706,12.706,0,0,0,5.061,1.234Z" fill="#f9b384"/>
              </g>
              <path id="Trazado_244360" data-name="Trazado 244360" d="M4680.659-4126.246c-.236.1,1.171,9.193-.359,15.163a12.61,12.61,0,0,0,5.67,1.242s5.5-8.458,5.648-9.426a55.155,55.155,0,0,0-.68-6.722A11.593,11.593,0,0,0,4680.659-4126.246Z" fill="#fff59d"/>
              <path id="Trazado_244361" data-name="Trazado 244361" d="M4687.74-4122.419c2.721.092,2.937-2.239,2.782-3.793a11.463,11.463,0,0,0-6.173-1.022C4684.294-4125.907,4684.474-4122.53,4687.74-4122.419Z" fill="#e28b6d"/>
              <path id="Trazado_244362" data-name="Trazado 244362" d="M4688.548-4131.3s-1.351,2.855-2.141,4.059a.826.826,0,0,0,.168,1.093,3.005,3.005,0,0,0,1.927.615.877.877,0,0,0,.851-.648l.89-3.261Z" fill="#e28b6d"/>
              <g id="Grupo_145667" data-name="Grupo 145667">
                <path id="Trazado_244363" data-name="Trazado 244363" d="M4693.168-4133.653a5.425,5.425,0,0,1-.109,3.642c-.735,2.2-1.937,2.389-2.7,1.846a4.336,4.336,0,0,1-1.87-3.5C4688.369-4133.66,4692.306-4135.481,4693.168-4133.653Z" fill="#f9b384"/>
                <path id="Trazado_244364" data-name="Trazado 244364" d="M4689.976-4131.8s1.328-2.974,3.319-1.122l.154.766s1.9-.54,1.273-2.259a3.484,3.484,0,0,0-4.918-1.77c-2.028,1.114-2.718,2.426-2.609,3.99s1.282,1.029,1.282,1.029.226-1.15.776-1.355.539.667.539.667Z"/>
                <path id="Trazado_244365" data-name="Trazado 244365" d="M4689.519-4131.763s.692-1.525-.277-1.58-.574,1.47-.381,2.026Z" fill="#f9b384"/>
                <path id="Trazado_244366" data-name="Trazado 244366" d="M4688.97-4135.082a.68.68,0,0,0,.391-1.14c-1.191-1.3-3.44-2.746-6.643-.529-3.609,2.5-5.561,3.626-6.448,3.389a.683.683,0,0,0-.813.956,2.9,2.9,0,0,0,1.382,1.188C4682.738-4128.307,4685.787-4134.694,4688.97-4135.082Z"/>
              </g>
            </g>
            <path id="Trazado_244367" data-name="Trazado 244367" d="M4751.406-4127.224s-5.16,9.331-12.554,10.007l-.394,1.111s10.188,1.99,15.407-6.4Z" fill="#ad2f12"/>
            <path id="Trazado_244368" data-name="Trazado 244368" d="M4743.393-4066.414s-1.617,4.248,1.336,6.44,7.682-3.25,7.682-3.25l-2.614,6.693s-3.493,2.234-7.134-1.479-1.118-8.759-1.118-8.759a2.43,2.43,0,0,1-1.015-3.62.215.215,0,0,1,.394.069,3.547,3.547,0,0,0,1.48,2.44C4743.764-4067.17,4743.393-4066.414,4743.393-4066.414Z" fill="#e28b6d"/>
            <path id="Trazado_244369" data-name="Trazado 244369" d="M4730.212-4117.25l-.131-.041.091.05A.279.279,0,0,0,4730.212-4117.25Z" fill="url(#linear-gradient-11)"/>
            <path id="Trazado_244370" data-name="Trazado 244370" d="M4743.764-4115.764c.183.312.091-.322-.185-1.475A1.874,1.874,0,0,0,4743.764-4115.764Z" fill="url(#linear-gradient-12)"/>
            <g id="Grupo_145672" data-name="Grupo 145672">
              <g id="Grupo_145669" data-name="Grupo 145669">
                <path id="Trazado_244371" data-name="Trazado 244371" d="M4748.407-4088.468a1.772,1.772,0,0,1-1.746-2.348,15.256,15.256,0,0,0,.829-5.218c-.068-4.729-4.061-8.065-9.227-7-5.12,1.053-6.084,5.665-5.338,7.837a22.58,22.58,0,0,0,2.953,4.66,1.742,1.742,0,0,1-1.221,2.81l-13.681.735-.716-12.1a1.218,1.218,0,0,0-1.94-.966,7.472,7.472,0,0,1-6.347,1.265c-5.6-1.2-5.626-6.535-4.7-9.218.78-2.263,6.028-5.251,10.039-2.6a1.24,1.24,0,0,0,1.9-1.175l-.761-15.266a33.631,33.631,0,0,0-30.378,33.471,33.845,33.845,0,0,0,.483,5.7l13.094.156a.627.627,0,0,1,.5,1.057,4.888,4.888,0,0,0-1.367,3.925c.265,3.72,3.622,5.133,7.331,3.564s4.662-5.726,1.011-8.637l11.756.236.079,9.23a1.391,1.391,0,0,0,2.124,1.084c4.541-2.853,8.855.626,9.079,3.369.261,3.184-1.519,6.35-5.426,5.966a11.848,11.848,0,0,1-4.044-1.126,1.329,1.329,0,0,0-1.961,1.117l.065,7.978c.3.008.6.013.909.013a33.634,33.634,0,0,0,33.291-28.869Z" fill="#fff59d"/>
                <path id="Trazado_244372" data-name="Trazado 244372" d="M4721.7-4059.78c-.292,0-.6,0-.914-.012l-.166-.005-.067-8.145a1.4,1.4,0,0,1,.666-1.2,1.576,1.576,0,0,1,1.543-.074,11.694,11.694,0,0,0,3.986,1.109,4.543,4.543,0,0,0,3.763-1.177,5.81,5.81,0,0,0,1.474-4.6,5.043,5.043,0,0,0-2.873-3.666,5.858,5.858,0,0,0-5.942.429,1.584,1.584,0,0,1-1.6.033,1.451,1.451,0,0,1-.786-1.262l-.077-9.061-11.1-.223a5.2,5.2,0,0,1,1.948,4.594,5.291,5.291,0,0,1-3.374,4.019,6.063,6.063,0,0,1-5.524-.03,4.512,4.512,0,0,1-2.047-3.68,5.08,5.08,0,0,1,1.416-4.059.418.418,0,0,0,.1-.46.5.5,0,0,0-.473-.3l-13.237-.158-.024-.142a34.155,34.155,0,0,1-.485-5.725,33.713,33.713,0,0,1,8.841-22.792,33.713,33.713,0,0,1,21.693-10.851l.179-.017.77,15.446a1.469,1.469,0,0,1-.723,1.374,1.346,1.346,0,0,1-1.44-.046,6.707,6.707,0,0,0-5.894-.588c-1.85.628-3.484,1.933-3.887,3.1a7.92,7.92,0,0,0,.377,6.141,5.981,5.981,0,0,0,4.2,2.851,7.332,7.332,0,0,0,6.206-1.233,1.332,1.332,0,0,1,1.383-.158,1.462,1.462,0,0,1,.835,1.251l.705,11.925,13.51-.726a1.474,1.474,0,0,0,1.271-.876,1.613,1.613,0,0,0-.179-1.658,21.16,21.16,0,0,1-2.978-4.708,6.166,6.166,0,0,1,.632-4.758,6.886,6.886,0,0,1,4.834-3.3,7.984,7.984,0,0,1,6.739,1.419,7.347,7.347,0,0,1,2.7,5.75,15.392,15.392,0,0,1-.839,5.277,1.6,1.6,0,0,0,.238,1.487,1.565,1.565,0,0,0,1.336.632l6.789-.365-.029.208a33.781,33.781,0,0,1-11.211,20.659A33.766,33.766,0,0,1,4721.7-4059.78Zm-.738-.353c.253.005.5.008.738.008a33.59,33.59,0,0,0,33.09-28.512l-6.37.342-.009-.173.009.173a1.916,1.916,0,0,1-1.63-.77,1.944,1.944,0,0,1-.288-1.808,15.07,15.07,0,0,0,.82-5.158,7.007,7.007,0,0,0-2.567-5.486,7.649,7.649,0,0,0-6.454-1.35,6.552,6.552,0,0,0-4.6,3.137,5.8,5.8,0,0,0-.6,4.475,21.263,21.263,0,0,0,2.926,4.611,1.958,1.958,0,0,1,.217,2.012,1.815,1.815,0,0,1-1.566,1.076l-13.616.731.072,8.47a1.112,1.112,0,0,0,.607.962,1.241,1.241,0,0,0,1.254-.022,6.2,6.2,0,0,1,6.28-.446,5.326,5.326,0,0,1,3.062,3.946,6.157,6.157,0,0,1-1.576,4.878,4.877,4.877,0,0,1-4.039,1.275,12.015,12.015,0,0,1-4.1-1.143,1.235,1.235,0,0,0-1.208.056,1.045,1.045,0,0,0-.5.9Zm-32.261-27.922,12.95.155a.847.847,0,0,1,.788.517.765.765,0,0,1-.172.833,4.745,4.745,0,0,0-1.318,3.792,4.13,4.13,0,0,0,1.883,3.411,5.728,5.728,0,0,0,5.209.006,4.952,4.952,0,0,0,3.167-3.748,5.032,5.032,0,0,0-2.2-4.595l-.4-.317,12.149.244-.67-11.322a1.1,1.1,0,0,0-.634-.958.993.993,0,0,0-1.03.118,7.662,7.662,0,0,1-6.487,1.3,6.313,6.313,0,0,1-4.425-3.02,8.273,8.273,0,0,1-.4-6.423c.441-1.282,2.128-2.645,4.1-3.316a7.046,7.046,0,0,1,6.2.627,1.007,1.007,0,0,0,1.077.035,1.128,1.128,0,0,0,.55-1.056l-.751-15.086a33.3,33.3,0,0,0-30.042,33.281A33.91,33.91,0,0,0,4688.7-4088.055Z" fill="#fff"/>
              </g>
              <g id="Grupo_145670" data-name="Grupo 145670">
                <path id="Trazado_244373" data-name="Trazado 244373" d="M4722.683-4069.06a11.848,11.848,0,0,0,4.044,1.126c3.907.384,5.687-2.782,5.426-5.966-.224-2.743-4.538-6.222-9.079-3.369a1.391,1.391,0,0,1-2.124-1.084l-.079-9.23-11.756-.236c3.651,2.911,2.685,7.074-1.011,8.637s-7.066.156-7.331-3.564a4.888,4.888,0,0,1,1.367-3.925.627.627,0,0,0-.5-1.057l-13.094-.156a33.638,33.638,0,0,0,32.236,27.919l-.065-7.978A1.329,1.329,0,0,1,4722.683-4069.06Z" fill="#d84318"/>
                <path id="Trazado_244374" data-name="Trazado 244374" d="M4720.787-4059.792h0a33.848,33.848,0,0,1-32.4-28.063.175.175,0,0,1,.039-.141.166.166,0,0,1,.133-.06l13.094.156a.847.847,0,0,1,.788.517.765.765,0,0,1-.172.833,4.745,4.745,0,0,0-1.318,3.792,4.13,4.13,0,0,0,1.883,3.411,5.728,5.728,0,0,0,5.209.006,4.952,4.952,0,0,0,3.167-3.748,5.032,5.032,0,0,0-2.2-4.595.172.172,0,0,1-.055-.193.172.172,0,0,1,.163-.114h0l11.757.236a.173.173,0,0,1,.169.171l.078,9.229a1.112,1.112,0,0,0,.607.962,1.241,1.241,0,0,0,1.254-.022,6.192,6.192,0,0,1,6.28-.446,5.326,5.326,0,0,1,3.062,3.946,6.157,6.157,0,0,1-1.576,4.878,4.877,4.877,0,0,1-4.039,1.275,12.015,12.015,0,0,1-4.1-1.143h0a1.235,1.235,0,0,0-1.208.056,1.045,1.045,0,0,0-.5.9l.064,7.979a.172.172,0,0,1-.051.124A.173.173,0,0,1,4720.787-4059.792Zm-32.03-27.917a33.5,33.5,0,0,0,31.856,27.566l-.064-7.8a1.4,1.4,0,0,1,.666-1.2,1.576,1.576,0,0,1,1.543-.074h0a11.694,11.694,0,0,0,3.986,1.109,4.543,4.543,0,0,0,3.763-1.177,5.809,5.809,0,0,0,1.474-4.6,5.043,5.043,0,0,0-2.873-3.666,5.858,5.858,0,0,0-5.942.429,1.584,1.584,0,0,1-1.6.033,1.451,1.451,0,0,1-.786-1.262l-.077-9.061-11.1-.223a5.2,5.2,0,0,1,1.948,4.594,5.291,5.291,0,0,1-3.374,4.019,6.063,6.063,0,0,1-5.524-.03,4.512,4.512,0,0,1-2.047-3.68,5.08,5.08,0,0,1,1.416-4.059.418.418,0,0,0,.1-.46.5.5,0,0,0-.473-.3Z" fill="#fff"/>
              </g>
              <g id="Grupo_145671" data-name="Grupo 145671">
                <path id="Trazado_244375" data-name="Trazado 244375" d="M4717.311-4110.61c-4.011-2.65-9.259.338-10.039,2.6-.925,2.683-.9,8.014,4.7,9.218a7.472,7.472,0,0,0,6.347-1.265,1.218,1.218,0,0,1,1.94.966l.716,12.1,13.681-.735a1.742,1.742,0,0,0,1.221-2.81,22.58,22.58,0,0,1-2.953-4.66c-.746-2.172.218-6.784,5.338-7.837,5.166-1.063,9.159,2.273,9.227,7a15.256,15.256,0,0,1-.829,5.218,1.772,1.772,0,0,0,1.746,2.348l6.58-.353a33.916,33.916,0,0,0,.337-4.759,33.641,33.641,0,0,0-23.569-32.1l-.04.009-.092-.05a33.616,33.616,0,0,0-9.927-1.491c-1.1,0-2.18.055-3.25.157l.761,15.266A1.24,1.24,0,0,1,4717.311-4110.61Z" fill="#d84318"/>
                <path id="Trazado_244376" data-name="Trazado 244376" d="M4720.976-4086.821a.172.172,0,0,1-.172-.162l-.716-12.1a1.1,1.1,0,0,0-.634-.958.993.993,0,0,0-1.03.118,7.662,7.662,0,0,1-6.487,1.3,6.313,6.313,0,0,1-4.425-3.02,8.273,8.273,0,0,1-.4-6.423c.441-1.282,2.128-2.645,4.1-3.316a7.046,7.046,0,0,1,6.2.627h0a1.007,1.007,0,0,0,1.077.035,1.128,1.128,0,0,0,.55-1.056l-.76-15.267a.174.174,0,0,1,.156-.181c1.091-.1,2.19-.157,3.266-.157a33.8,33.8,0,0,1,9.978,1.5.184.184,0,0,1,.032.013l.037.02a.168.168,0,0,1,.064.008,33.636,33.636,0,0,1,9.493,4.724,33.925,33.925,0,0,1,7.5,7.339,33.514,33.514,0,0,1,6.7,20.2,34.351,34.351,0,0,1-.338,4.783.173.173,0,0,1-.162.148l-6.58.354a1.916,1.916,0,0,1-1.63-.77,1.944,1.944,0,0,1-.288-1.808,15.07,15.07,0,0,0,.82-5.158,7.007,7.007,0,0,0-2.567-5.486,7.649,7.649,0,0,0-6.454-1.35,6.552,6.552,0,0,0-4.6,3.137,5.8,5.8,0,0,0-.6,4.475,21.263,21.263,0,0,0,2.926,4.611,1.958,1.958,0,0,1,.217,2.012,1.815,1.815,0,0,1-1.566,1.076l-13.681.735Zm-1.942-13.655a1.363,1.363,0,0,1,.564.125,1.462,1.462,0,0,1,.835,1.251l.705,11.925,13.51-.726a1.474,1.474,0,0,0,1.271-.876,1.613,1.613,0,0,0-.179-1.658,21.16,21.16,0,0,1-2.978-4.708,6.166,6.166,0,0,1,.632-4.758,6.886,6.886,0,0,1,4.834-3.3,7.984,7.984,0,0,1,6.739,1.419,7.347,7.347,0,0,1,2.7,5.75,15.392,15.392,0,0,1-.839,5.277,1.6,1.6,0,0,0,.238,1.487,1.565,1.565,0,0,0,1.336.632l6.438-.346a33.9,33.9,0,0,0,.315-4.594,33.31,33.31,0,0,0-23.4-31.918l-.017,0a.161.161,0,0,1-.1-.02l-.077-.041a33.448,33.448,0,0,0-9.86-1.478c-1.011,0-2.043.047-3.069.141l.752,15.1a1.469,1.469,0,0,1-.723,1.374,1.346,1.346,0,0,1-1.44-.046h0a6.707,6.707,0,0,0-5.894-.588c-1.85.628-3.484,1.933-3.887,3.1a7.92,7.92,0,0,0,.377,6.141,5.981,5.981,0,0,0,4.2,2.851,7.333,7.333,0,0,0,6.206-1.233A1.348,1.348,0,0,1,4719.034-4100.476Z" fill="#fff"/>
              </g>
            </g>
            <g id="Grupo_145675" data-name="Grupo 145675">
              <path id="Trazado_244377" data-name="Trazado 244377" d="M4753.584-4109.768s-5.258-15.358-1.492-18.335c0,0,5.644-.911,9.749.646v15.132S4758.035-4108.792,4753.584-4109.768Z" fill="#d84318"/>
              <path id="Trazado_244378" data-name="Trazado 244378" d="M4753.21-4130.874a15.769,15.769,0,0,1,.92,3.181.942.942,0,0,0,.782.8,3.967,3.967,0,0,0,3.213-.58.661.661,0,0,0,.173-.71c-.364-1.019-2.257-5.262-3.288-5.913Z" fill="#e28b6d"/>
              <g id="Grupo_145673" data-name="Grupo 145673">
                <path id="Trazado_244379" data-name="Trazado 244379" d="M4755.65-4116.883c.587-.639-1.578,1.859-1.581,1.866a5.956,5.956,0,0,1-3.219,2.42s-.857-1.425-1.957-1.471c-.8-.034-1.828.907-2.327,1.421a.335.335,0,0,0,.083.529l2.059,1.106s6.225.35,9.415-2.967C4757.559-4116.044,4756.463-4116.808,4755.65-4116.883Z" fill="#f9b384"/>
                <path id="Trazado_244380" data-name="Trazado 244380" d="M4761.841-4127.457c-3.025,1.072-3.154,6.488-3.154,6.488s-2.338,2.855-4.631,5.55a.155.155,0,0,0,.1.255,3.1,3.1,0,0,1,2.733,2.063.172.172,0,0,0,.276.07.349.349,0,0,1,.039-.028C4766.045-4118.273,4761.841-4127.457,4761.841-4127.457Z" fill="#ad2f12"/>
              </g>
              <g id="Grupo_145674" data-name="Grupo 145674">
                <path id="Trazado_244381" data-name="Trazado 244381" d="M4749.9-4135.364c0,.089,1.981,5.607,1.981,5.607l3.126-1.2-1.1-5.508S4749.9-4136.848,4749.9-4135.364Z" fill="#f9b384"/>
                <path id="Trazado_244382" data-name="Trazado 244382" d="M4753.362-4135.122l.806,2.855a.406.406,0,0,1,.015.111c0,.233-.057,1.034-.873.925a3.719,3.719,0,0,0-1.848.025.415.415,0,0,0-.214.515,17.947,17.947,0,0,0,1.126,2.541.413.413,0,0,0,.532.17,13.372,13.372,0,0,0,2.681-1.576.414.414,0,0,0,.146-.4c-.137-.73-.545-2.951-.563-3.588-.017-.6.653-1.053.948-1.224a.409.409,0,0,0,.192-.258,1.073,1.073,0,0,0-.938-1.446.415.415,0,0,1-.337-.494,1.077,1.077,0,0,0-.809-1.386,1.52,1.52,0,0,0-1.731.691.413.413,0,0,1-.513.137.329.329,0,0,0-.368.066.408.408,0,0,1-.6-.091,1.237,1.237,0,0,0-1.525-.5c-1.412.457-1.345,2.086-.827,2.971s2.021.3,2.733-.284a1.769,1.769,0,0,1,1.728-.025A.407.407,0,0,1,4753.362-4135.122Z" fill="#96551a"/>
                <path id="Trazado_244383" data-name="Trazado 244383" d="M4755.295-4132.479s-.678-1.6-.125-2.1,1.324-.326,1.3.91C4756.437-4132.129,4755.295-4132.479,4755.295-4132.479Z" fill="#f9b384"/>
              </g>
            </g>
            <g id="Grupo_145676" data-name="Grupo 145676">
              <path id="Trazado_244384" data-name="Trazado 244384" d="M4749.983-4072.2s-1.014-3.991,3.619-3.063c0,0,2.223-.431,2.4,1.674a1.963,1.963,0,0,1,.467,2.762s4.23-1.779,6.205,1.917.322,5.81-1.459,6.4a1.791,1.791,0,0,1,.837,2.359c-.64,1.67-4.095,2.936-6.216.99,0,0-5.842.948-5.846-3.2,0,0-2.78-1.681-.015-5.189S4749.983-4072.2,4749.983-4072.2Z"/>
              <path id="Trazado_244385" data-name="Trazado 244385" d="M4750-4062.877a6.315,6.315,0,0,1,6.225,1.392,1.588,1.588,0,0,1,.5,1.567c-.613,2.553-2.259,9.283-.573,12.474,0,0-3.135,1.972-6.036.942,0,0-1.307-5.307-3.182-7.881-1.295-1.776,1.779-6.867,2.558-8.1A.953.953,0,0,1,4750-4062.877Z" fill="#fff59d"/>
              <path id="Trazado_244386" data-name="Trazado 244386" d="M4752.409-4067.983a31.485,31.485,0,0,1,1.635,5.531,2.926,2.926,0,0,1-2.95-.386,43.093,43.093,0,0,0-.5-4.545Z" fill="#e28b6d"/>
              <path id="Trazado_244387" data-name="Trazado 244387" d="M4750.355-4073.2s-3.43,5.111-1.249,6.5,4.623-2.241,4.623-2.241.749-2.764-.146-3.668S4750.355-4073.2,4750.355-4073.2Z" fill="#f9b384"/>
              <path id="Trazado_244388" data-name="Trazado 244388" d="M4751.975-4074.447s-1.632.438-1.84,1.188,2.372,1.365,3.091,1.377l.666,2.983s1.626-2.872.9-4.482S4751.975-4074.447,4751.975-4074.447Z"/>
              <path id="Trazado_244389" data-name="Trazado 244389" d="M4753.024-4069.289s1.345-1.653,1.93-.618-1.2,1.877-1.84,1.379Z" fill="#f9b384"/>
              <path id="Trazado_244390" data-name="Trazado 244390" d="M4735.723-4067.977s.607.8.948.787c.884-.037,2.5.045,3.157.682.909.883,1.4,3.606,2.3,5.829s4.682,4.753,7.045,3.8,3.653-5.2,5.9-5.334,2.146,3.859.254,5.213c-1.228.879-7.215,5.618-11.786,2.317s-4.6-9.932-4.6-9.932a18.381,18.381,0,0,1-2.252-1.09C4735.926-4066.2,4735.723-4067.977,4735.723-4067.977Z" fill="#f9b384"/>
            </g>
            <g id="Grupo_145678" data-name="Grupo 145678">
              <path id="Trazado_244391" data-name="Trazado 244391" d="M4679.965-4123.344s-.079,1.7,1.268,7.832c1.423,6.48,12.767,3.311,12.767,3.311l-.248-1.586s-7.795.087-8.836-1.473c-.764-1.145-.8-4.049-.705-5.491.046-.717-1.749-5.877-3.552-5.5A4.305,4.305,0,0,0,4679.965-4123.344Z" fill="#f9b384"/>
              <g id="Grupo_145677" data-name="Grupo 145677">
                <path id="Trazado_244392" data-name="Trazado 244392" d="M4693.689-4111.642a7.191,7.191,0,0,1-.235-2.2c.159-.575.467-1.314,1.494-1.15a14.929,14.929,0,0,1,2.238.6.587.587,0,0,1-.841.507l.484.375s-.07.6-.729.279l.45.5a.524.524,0,0,1-.768.176C4695.3-4112.873,4695.065-4111.447,4693.689-4111.642Z" fill="#f9b384"/>
              </g>
            </g>
            <g id="Grupo_145679" data-name="Grupo 145679">
              <path id="Trazado_244393" data-name="Trazado 244393" d="M4706.017-4062.864s-12.5,1.837-17.58-3.865c-5.22-3.972-8.735,1.038-3.563,4.261,0,0,9.6,8.829,20.923.873Z" fill="#ad2f12"/>
              <path id="Trazado_244394" data-name="Trazado 244394" d="M4705.8-4061.595a1.5,1.5,0,0,0,1.305-1.739c-.29-1.571,1.659-1.923.823-3.173a.233.233,0,0,0-.28-.09,3.8,3.8,0,0,0-2.44,4.148Z" fill="url(#linear-gradient-13)"/>
            </g>
            <g id="Grupo_145680" data-name="Grupo 145680">
              <path id="Trazado_244395" data-name="Trazado 244395" d="M4689.836-4080.642s2.888,4.676,1.076,6.29-5-2.737-5-2.737S4685.053-4082.378,4689.836-4080.642Z" fill="url(#linear-gradient-14)"/>
              <path id="Trazado_244396" data-name="Trazado 244396" d="M4687.006-4076.089a1.31,1.31,0,0,1-1.978.466c-1.14-.827-.869-1.827.1-2.347,0,0-.787-.111-.581-.825a.686.686,0,0,1,.866-.518s-1.41-3.887,2.131-4.346,3.668,1.622,3.635,2.275-1.291,2.042-3.419,1.841a.888.888,0,0,1,.366,1.113c-.272.767-1.53,1.523-1.53,1.523Z" fill="#774d28"/>
              <path id="Trazado_244397" data-name="Trazado 244397" d="M4687.741-4076.3s-.9-1.441-1.507-.618c-.781,1.06,1.272,1.266,1.272,1.266Z" fill="url(#linear-gradient-15)"/>
            </g>
          </g>
        </g>
      </g>
    </g>
  </g>
</svg>
