<svg xmlns="http://www.w3.org/2000/svg" xmlns:xlink="http://www.w3.org/1999/xlink" width="1240" height="413.523" viewBox="0 0 1240 413.523">
  <defs>
    <linearGradient id="linear-gradient" x1="0.5" x2="0.5" y2="1" gradientUnits="objectBoundingBox">
      <stop offset="0" stop-color="#fffcdd"/>
      <stop offset="1" stop-color="#fff"/>
    </linearGradient>
  </defs>
  <g id="Grupo_163259" data-name="Grupo 163259" transform="translate(-180 -1488.612)">
    <g id="Grupo_163168" data-name="Grupo 163168" transform="translate(0 -178.987)">
      <rect id="Rectángulo_43053" data-name="Rectángulo 43053" width="413.523" height="295" transform="translate(180 2081.123) rotate(-90)" opacity="0.49" fill="url(#linear-gradient)"/>
      <g id="Grupo_145116" data-name="Grupo 145116" transform="translate(180 1667.6)" opacity="0.35">
        <path id="Trazado_114975" data-name="Trazado 114975" d="M812.618,386.057h-43.4l32.891,69.9-32.891,69.9h43.4l32.891-69.9Z" transform="translate(-769.221 -386.057)" fill="#fffcdd"/>
        <path id="Trazado_114976" data-name="Trazado 114976" d="M828.9,386.057h-43.4l32.89,69.9-32.89,69.9h43.4l32.89-69.9Z" transform="translate(-704.578 -386.057)" fill="#fffcdd"/>
        <path id="Trazado_114977" data-name="Trazado 114977" d="M845.189,386.057h-43.4l32.89,69.9-32.89,69.9h43.4l32.89-69.9Z" transform="translate(-639.935 -386.057)" fill="#fffcdd"/>
        <path id="Trazado_114978" data-name="Trazado 114978" d="M861.475,386.058h-43.4l32.89,69.9-32.89,69.9h43.4l32.89-69.9Z" transform="translate(-575.292 -386.058)" fill="#fffcdd"/>
        <path id="Trazado_114979" data-name="Trazado 114979" d="M877.76,386.058h-43.4l32.89,69.9-32.89,69.9h43.4l32.89-69.9Z" transform="translate(-510.649 -386.058)" fill="#fffcdd"/>
      </g>
      <rect id="Rectángulo_43054" data-name="Rectángulo 43054" width="413.523" height="295" transform="translate(1420 1667.6) rotate(90)" opacity="0.49" fill="url(#linear-gradient)"/>
      <g id="Grupo_145117" data-name="Grupo 145117" transform="translate(1420 2060.479) rotate(180)">
        <path id="Trazado_114975-2" data-name="Trazado 114975" d="M43.4,0H0L32.891,69.9,0,139.8H43.4L76.288,69.9Z" transform="translate(0 0)" fill="#fffcdd"/>
        <path id="Trazado_114976-2" data-name="Trazado 114976" d="M43.4,0H0L32.89,69.9,0,139.8H43.4l32.89-69.9Z" transform="translate(80.928 0)" fill="#fffcdd"/>
        <path id="Trazado_114977-2" data-name="Trazado 114977" d="M43.4,0H0L32.89,69.9,0,139.8H43.4l32.89-69.9Z" transform="translate(161.856 0)" fill="#fffcdd"/>
        <path id="Trazado_114978-2" data-name="Trazado 114978" d="M43.4,0H0L32.89,69.9,0,139.8H43.4l32.89-69.9Z" transform="translate(242.785 0)" fill="#fffcdd"/>
        <path id="Trazado_114979-2" data-name="Trazado 114979" d="M43.4,0H0L32.89,69.9,0,139.8H43.4l32.89-69.9Z" transform="translate(323.712 0)" fill="#fffcdd"/>
      </g>
    </g>
    <g id="Grupo_163210" data-name="Grupo 163210">
      <rect id="Rectángulo_43235" data-name="Rectángulo 43235" width="988" height="165" transform="translate(306 1515.9)" fill="#fffcdd"/>
      <rect id="Rectángulo_43236" data-name="Rectángulo 43236" width="220" height="165" transform="translate(306 1515.9)" fill="#fff59d"/>
    </g>
    <g id="Grupo_163211" data-name="Grupo 163211">
      <rect id="Rectángulo_43244" data-name="Rectángulo 43244" width="988" height="165" transform="translate(306 1700.9)" fill="#fffcdd"/>
      <rect id="Rectángulo_43245" data-name="Rectángulo 43245" width="220" height="165" transform="translate(306 1700.9)" fill="#fff59d"/>
    </g>
    <text id="Identificación_y_codificación_de_mercancías" data-name="Identificación y codificación de mercancías" transform="translate(358 1564.4)" fill="#12263f" font-size="20" font-family="Roboto-Bold, Roboto" font-weight="700"><tspan x="0" y="21">Identificación </tspan><tspan x="0" y="43">y codificación </tspan><tspan x="0" y="65">de mercancías</tspan></text>
    <text id="Sistemas_de_captura_de_datos" data-name="Sistemas de captura de datos" transform="translate(358 1749.4)" fill="#12263f" font-size="20" font-family="Roboto-Bold, Roboto" font-weight="700"><tspan x="0" y="21">Sistemas de </tspan><tspan x="0" y="43">captura de </tspan><tspan x="0" y="65">datos</tspan></text>
    <g id="Grupo_145371" data-name="Grupo 145371" transform="translate(681.059 1545.233)">
      <text id="En_distintos_puntos_de_la_cadena_de_suministro_el_flujo_de_la_información_es_posible_solo_con_la_incorporación_de_un_lenguaje_estandarizado_entre_compradores_y_vendedores_que_facilite_el_registro_de_datos_de_manera_semiautomatizada_o_automatizada_esto_i" data-name="En distintos puntos de la cadena de suministro, el flujo de la información es posible solo con la incorporación de un lenguaje estandarizado entre compradores y vendedores, que facilite el registro de datos de manera semiautomatizada o automatizada; esto i" transform="translate(23.941 -0.333)" fill="#12263f" font-size="16" font-family="Roboto-Regular, Roboto"><tspan x="0" y="17">En distintos puntos de la cadena de suministro, el flujo de la información </tspan><tspan x="0" y="39">es posible solo con la incorporación de un lenguaje estandarizado entre </tspan><tspan x="0" y="61">compradores y vendedores, que facilite el registro de datos de manera </tspan><tspan x="0" y="83">semiautomatizada o automatizada; esto incluye sistemas EDI, códigos de </tspan><tspan x="0" y="105">barra, códigos QR, sistemas RFID, entre otros.</tspan></text>
    </g>
    <g id="Grupo_145373" data-name="Grupo 145373" transform="translate(681.059 1731.233)">
      <text id="Equipos_de_captura_que_interpretan_los_distintos_lenguajes_ya_sea_de_código_de_barras_códigos_QR_o_sistemas_RFID_para_poder_alimentar_un_software_para_el_procesamiento_de_la_información." data-name="Equipos de captura que interpretan los distintos lenguajes, ya sea de código de barras, códigos QR o sistemas RFID, para poder alimentar un software para el procesamiento de la información." transform="translate(23.941 20.667)" fill="#12263f" font-size="16" font-family="Roboto-Regular, Roboto"><tspan x="0" y="17">Equipos de captura que interpretan los distintos lenguajes, ya sea de </tspan><tspan x="0" y="39">código de barras, códigos QR o sistemas RFID, para poder alimentar un </tspan><tspan x="0" y="61" font-family="Roboto-Italic, Roboto" font-style="italic">software</tspan><tspan y="61" xml:space="preserve"> para el procesamiento de la información.</tspan></text>
    </g>
    <g id="Grupo_147704" data-name="Grupo 147704" transform="translate(-3285.812 5503.313)">
      <path id="Trazado_245696" data-name="Trazado 245696" d="M3911.465-3913.876c.676.185.806.7.8,1.306,0,2.084.022,4.168-.017,6.251-.011.554.167.635.664.633,6.018-.017,12.036,0,18.054-.022a1.511,1.511,0,0,1,1.47.715v6.325c-.466.845-1.273.749-2.03.69-.563-.044-.679.15-.677.687.02,5.568.013,11.137.012,16.706,0,1.311-.289,1.6-1.611,1.6-4.352,0-8.7-.005-13.057.006-.722,0-1.236-.212-1.361-.994a.94.94,0,0,1,.691-1.222,3.312,3.312,0,0,1,1.18-.122q5.37,0,10.74,0c1.066,0,1.1-.005,1.109-1.09.056-4.866.012-9.733.025-14.6a.684.684,0,0,0-.233-.626,2.83,2.83,0,0,0-1.113-.1q-11.722,0-23.444,0a7.616,7.616,0,0,1-.841-.02c-1.361.053-1.361.053-1.362,1.417q0,6.958,0,13.916c0,1.08.021,1.1,1.1,1.1q3.8,0,7.591,0a3.267,3.267,0,0,1,1.045.1.977.977,0,0,1,.72,1.222c-.165.782-.675,1.023-1.437,1.018-3.3-.021-6.606-.009-9.909-.009-1.147,0-1.463-.31-1.464-1.445,0-5.6-.013-11.2.017-16.795,0-.638-.169-.8-.772-.749a15.2,15.2,0,0,1-2.037,0c-.432-.023-.552.1-.546.543.025,2.061.011,4.122.011,6.184q0,5.376,0,10.752c0,1.2-.3,1.507-1.473,1.507h-28.673c-1.166,0-1.483-.324-1.484-1.515,0-5.6-.009-11.2.013-16.795,0-.555-.143-.689-.687-.68-1.914.03-2.022-.1-2.022-2.006,0-1.476,0-2.951,0-4.427,0-.906.374-1.278,1.278-1.282,1.355-.008,2.71,0,4.283,0-.751-.731-1.382-1.334-2-1.951-.724-.724-.718-1.232.013-1.964q3.675-3.679,7.355-7.354c.7-.7,1.01-.737,1.838-.243a1.08,1.08,0,0,1-.036,1.607c-.657.7-1.352,1.364-2.03,2.044q-2.135,2.138-4.27,4.275c-.641.633-.642.634-.017,1.263.429.432.869.854,1.289,1.295.272.285.505.289.76-.008.106-.124.23-.233.346-.349q10.681-10.68,21.362-21.361c.944-.944.955-.79-.028-1.765-.05-.049-.1-.1-.151-.146-.293-.3-.6-.6-.89-.9a.432.432,0,0,0-.718.009c-.129.136-.265.264-.4.4q-5.637,5.638-11.276,11.274a3.52,3.52,0,0,1-.74.643.95.95,0,0,1-1.34-.271c-.422-.815-.387-1.073.266-1.726q6.456-6.46,12.915-12.916c.724-.723,1.189-.731,1.909-.019q1.8,1.779,3.577,3.576c.685.692.677,1.214-.026,1.916-.492.491-1,.962-1.659,1.587,1.765,0,3.319,0,4.873,0,.412,0,.267-.312.268-.5.009-2.131,0-4.262.007-6.393,0-1.236.3-1.536,1.524-1.537q5.2,0,10.4,0c1.093,0,1.43.328,1.433,1.416.006,2.154.01,4.308-.006,6.463,0,.395.046.575.517.571a1.021,1.021,0,0,1,1.17,1.166c.017,2.552.009,5.1.006,7.657a1.056,1.056,0,0,1-.8,1.165c-.833.217-1.229,0-1.464-.816a4.215,4.215,0,0,1-.12-1.184c0-1.616,0-3.233,0-4.849,0-.781-.055-.834-.847-.834q-9.031-.005-18.064-.009a1.873,1.873,0,0,0-1.43.6q-2.47,2.5-4.965,4.975c-1.775,1.88-1.519,1.077-1.532,3.712-.013,2.738,0,5.476,0,8.214,0,1.024.024,1.047,1.073,1.048q12.182,0,24.363,0c1.333,0,1.333,0,1.428-1.3a1.789,1.789,0,0,1,.053-.258,24.53,24.53,0,0,0,.074-3.139c.027-.862-.033-1.724.032-2.586C3910.427-3913.984,3910.632-3914.083,3911.465-3913.876Z"/>
      <path id="Trazado_245697" data-name="Trazado 245697" d="M3987.418-3873.538q2.666-2.69,5.33-5.385a.791.791,0,0,1,.631-.219q9.583,0,19.168-.008c.463,0,.533.178.531.577q-.023,2.984,0,5.967c.007,1.059.323,1.365,1.316,1.361a.509.509,0,0,0-.257.446c.018.671.019,1.343,0,2.013a.52.52,0,0,0,.26.443,1.131,1.131,0,0,0-1.245.591c-.148,1.2-.02,2.413-.065,3.619a17.3,17.3,0,0,1-.057,2.294l0,0a1.37,1.37,0,0,1-.937.218q-11.63,0-23.26,0c-1.316,0-1.626-.323-1.629-1.619-.008-3.068,0-6.136,0-9.205A2.18,2.18,0,0,1,3987.418-3873.538Z" transform="translate(-102.926 -45.533)" fill="#bb7c63"/>
      <path id="Trazado_245698" data-name="Trazado 245698" d="M4099.347-3737.011c.258.168.127.427.127.637.006,5.171-.007,10.343.01,15.513,0,.55-.141.7-.7.7-3.954-.024-7.909-.015-11.864-.012-.932,0-1.243.26-1.375,1.119a22.249,22.249,0,0,0-2.792-.021c-.237-.915-.467-1.1-1.417-1.1-2.877,0-5.754-.015-8.631.011-.527,0-.664-.138-.662-.663q.03-7.719,0-15.437c0-.66.191-.876.816-.785a6.9,6.9,0,0,0,.77.028,1.54,1.54,0,0,1,.22,1.14q.01,6.109,0,12.218c0,.281.007.562.01.843a.773.773,0,0,0,.768.83,6.569,6.569,0,0,0,.911.041q11.236,0,22.471,0c1.108,0,1.111,0,1.111-1.146q0-6.39,0-12.779C4099.128-3736.26,4099.045-3736.676,4099.347-3737.011Z" transform="translate(-171.831 -160.923)" fill="#a96a51"/>
      <path id="Trazado_245699" data-name="Trazado 245699" d="M3894.167-3894.027c2.032-2.047,4.053-4.107,6.1-6.135a1.311,1.311,0,0,0,.336-1.738l1.862-1.993c.809.457,1.089.423,1.775-.262q5.952-5.945,11.891-11.9c.385-.389.616-.435.955,0,.256.329.567.614.853.918-.065.3-.31.461-.5.656q-10.518,10.524-21.041,21.043c-.132.132-.264.265-.4.39a.727.727,0,0,1-1.119,0C3894.6-3893.339,3894.153-3893.523,3894.167-3894.027Z" transform="translate(-27.373 -15.306)" fill="#fdd1a3"/>
      <path id="Trazado_245700" data-name="Trazado 245700" d="M3893.9-3742.4q1.458-.011,2.915-.022c.966-.009,1.286-.315,1.328-1.269a16.823,16.823,0,0,0,2,.081,1.075,1.075,0,0,1,.784.2,1.366,1.366,0,0,0,1.548,1c5.481-.023,10.962,0,16.442-.026.571,0,.746.122.742.721-.027,4.661-.015,9.321-.017,13.982,0,.21-.021.42-.031.63a1.236,1.236,0,0,1-.93.228q-11.665.007-23.33,0c-1.326,0-1.681-.365-1.682-1.667q-.01-6.394,0-12.788A1.4,1.4,0,0,1,3893.9-3742.4Z" transform="translate(-26.964 -155.544)" fill="#bb7c63"/>
      <path id="Trazado_245701" data-name="Trazado 245701" d="M4106.189-3736.908c0,4.849-.008,9.7.013,14.547,0,.573-.142.758-.738.756q-11.807-.029-23.615-.014c-1.178,0-1.382-.21-1.382-1.381q0-6.957,0-13.915c1.757-.008,3.513-.021,5.27-.022q9.8,0,19.608,0C4105.628-3736.936,4105.909-3736.917,4106.189-3736.908Z" transform="translate(-178.673 -161.027)" fill="#bb7c63"/>
      <path id="Trazado_245702" data-name="Trazado 245702" d="M3887.608-3737.041q0,7.091,0,14.182c0,.846.265,1.113,1.141,1.115,2.621.006,5.242,0,7.864,0h16.71c.11,1.549.11,1.549-1.4,1.549q-12.567,0-25.135.015c-.648,0-.868-.115-.863-.824q.052-7.617,0-15.234c0-.683.17-.937.847-.831A6.457,6.457,0,0,0,3887.608-3737.041Z" transform="translate(-20.675 -160.901)" fill="#a96a51"/>
      <path id="Trazado_245703" data-name="Trazado 245703" d="M3980.84-3849.282q.006,5.2.011,10.4c0,1.149.137,1.289,1.291,1.29h23.4c.3,0,.608.007.913.01.133,1.678.133,1.678-1.487,1.678q-12.466,0-24.933,0c-1.015,0-.913.129-.915-.882,0-3.3.018-6.6-.018-9.9a1.794,1.794,0,0,1,.672-1.582C3980.152-3848.579,3980.486-3848.944,3980.84-3849.282Z" transform="translate(-96.349 -69.789)" fill="#a96a51"/>
      <path id="Trazado_245704" data-name="Trazado 245704" d="M3883.024-3762.277c-.71,0-1.421-.021-2.131-.009a.694.694,0,0,1-.653-.276,1.145,1.145,0,0,0-1.282-.844c-2.249.013-4.5-.007-6.747.015-.446,0-.61-.1-.586-.571.041-.818.032-1.64,0-2.458-.015-.4.111-.538.508-.5s.795.023,1.193.031a1.008,1.008,0,0,1,.23.717.831.831,0,0,0,.917.845c.328.012.655.013.983.013q13.834,0,27.668,0a1.9,1.9,0,0,1,1.286.223c.18,1.687.18,1.687-1.437,1.687H3884.58C3883.518-3763.4,3883.328-3763.262,3883.024-3762.277Z" transform="translate(-9.064 -136.671)" fill="#febc85"/>
      <path id="Trazado_245705" data-name="Trazado 245705" d="M4090.359-3765.077c.094,1.691.094,1.691-1.591,1.691q-15.2,0-30.4.018c-.7,0-.874-.186-.82-.847a20.989,20.989,0,0,0,.008-2.245c-.008-.324.076-.471.428-.446.442.032.888.021,1.332.028a1.18,1.18,0,0,1,.235.858.673.673,0,0,0,.716.7c.328.025.656.021.983.021q13.914,0,27.828.005C4089.511-3765.295,4089.975-3765.4,4090.359-3765.077Z" transform="translate(-160.052 -136.687)" fill="#febc85"/>
      <path id="Trazado_245706" data-name="Trazado 245706" d="M3891.556-3888.713c1.472,1.689,1.276,1.3,2.4.171q10.379-10.358,20.743-20.731c.2-.2.418-.368.628-.552,1.223,1.043,1.224,1.043.11,2.157q-10.832,10.831-21.653,21.673c-.416.417-.638.444-1.012-.006-.388-.466-.852-.868-1.283-1.3C3890.761-3888.03,3890.761-3888.03,3891.556-3888.713Z" transform="translate(-24.762 -20.621)" fill="#febc85"/>
      <path id="Trazado_245707" data-name="Trazado 245707" d="M4098.036-3765.1l-29.616,0c-1.43,0-1.43,0-1.429-1.452,0-.117,0-.234,0-.351.233-.008.467-.022.7-.022q14.792,0,29.585-.015c.625,0,.889.134.79.787A8.366,8.366,0,0,0,4098.036-3765.1Z" transform="translate(-167.729 -136.66)" fill="#fdd1a3"/>
      <path id="Trazado_245708" data-name="Trazado 245708" d="M3911.777-3765.115l-29.305,0c-1.781,0-1.786-.005-1.779-1.8.257-.009.514-.024.771-.024q14.755,0,29.509-.019c.706,0,.974.161.858.869A8.7,8.7,0,0,0,3911.777-3765.115Z" transform="translate(-16.43 -136.645)" fill="#fdd1a3"/>
      <path id="Trazado_245709" data-name="Trazado 245709" d="M3927.577-3827.655v5.182c0,1.216-.008,2.433,0,3.649,0,.325-.028.5-.442.492-2.99-.02-5.98-.011-8.879-.011Z" transform="translate(-46.941 -87.353)" fill="#fffcdd"/>
      <path id="Trazado_245710" data-name="Trazado 245710" d="M4069.041-3922.008h-.562c-1.205,0-1.164,0-1.221-1.2-.033-.7.122-1,.891-.921.718.076,1.462-.063,2.174.035,1,.139.283.957.449,1.439.1.3.133.727-.468.66A11.481,11.481,0,0,0,4069.041-3922.008Z" transform="translate(-167.942 -8.989)" fill="#fff59d"/>
      <path id="Trazado_245711" data-name="Trazado 245711" d="M4098.868-3921.917h-.14c-1.684,0-1.675,0-1.6-1.666.015-.317.075-.46.43-.451q1.334.034,2.668,0c.346-.009.422.118.438.443.082,1.674.091,1.673-1.59,1.673Z" transform="translate(-192.186 -9.081)" fill="#fff59d"/>
      <path id="Trazado_245712" data-name="Trazado 245712" d="M4068.816-3901.594h.141c1.683,0,1.674,0,1.6,1.667-.015.318-.077.459-.431.45a25.368,25.368,0,0,1-2.666-.032c-.948-.126-.249-.932-.41-1.4-.092-.268-.185-.74.437-.688C4067.924-3901.564,4068.371-3901.594,4068.816-3901.594Z" transform="translate(-167.693 -27.296)" fill="#fff59d"/>
      <path id="Trazado_245713" data-name="Trazado 245713" d="M4098.763-3899.59h-.211c-1.683,0-1.672,0-1.539-1.724.024-.309.122-.4.417-.391a20.844,20.844,0,0,1,2.736.037c.79.119.269.862.349,1.31.042.239.3.765-.346.768C4099.7-3899.588,4099.231-3899.59,4098.763-3899.59Z" transform="translate(-192.067 -27.191)" fill="#fff59d"/>
      <path id="Trazado_245714" data-name="Trazado 245714" d="M4124.583-3812.569q-.009-2.7-.017-5.394c0-.184-.029-.379.14-.519-.01,1.722-.018,3.444-.035,5.166A1.238,1.238,0,0,1,4124.583-3812.569Z" transform="translate(-214.486 -94.802)" fill="#a96a51"/>
      <path id="Trazado_245715" data-name="Trazado 245715" d="M4017-3856.654q3.372,0,6.743,0c.951,0,1.336.342,1.344,1.3q.033,3.968,0,7.936c-.008.958-.4,1.3-1.344,1.3q-6.743,0-13.486,0c-.951,0-1.335-.343-1.343-1.3q-.033-3.968,0-7.936c.008-.96.392-1.3,1.343-1.3Q4013.632-3856.659,4017-3856.654Z" transform="translate(-120.552 -63.801)"/>
      <path id="Trazado_245716" data-name="Trazado 245716" d="M3924.085-3720q3.3,0,6.6,0c1.132,0,1.431.291,1.432,1.392q0,3.862,0,7.724c0,1.076-.334,1.42-1.436,1.422q-6.6.012-13.2,0c-1.208,0-1.527-.344-1.527-1.567q0-3.757,0-7.514c0-1.133.326-1.457,1.46-1.458Q3920.75-3720,3924.085-3720Z" transform="translate(-45.066 -174.784)"/>
      <path id="Trazado_245717" data-name="Trazado 245717" d="M4110.151-3720q3.337,0,6.672,0c1.041,0,1.385.346,1.387,1.39q.007,3.862,0,7.724c0,1.029-.356,1.417-1.389,1.42q-6.706.021-13.414,0c-1.014,0-1.359-.366-1.361-1.352q-.007-3.933,0-7.865c0-1.008.323-1.317,1.363-1.319Q4106.78-3720,4110.151-3720Z" transform="translate(-196.195 -174.783)"/>
      <path id="Trazado_245718" data-name="Trazado 245718" d="M4026.219-3839.138c-1.778,0-3.557-.013-5.335.009-.453.006-.6-.122-.6-.589.025-1.731.021-3.463,0-5.194-.005-.423.119-.562.553-.56q5.405.023,10.81,0c.425,0,.565.121.56.553q-.031,2.6,0,5.194c.007.458-.127.6-.59.6C4029.823-3839.152,4028.021-3839.138,4026.219-3839.138Z" transform="translate(-129.799 -72.883)" fill="#a96a51"/>
      <path id="Trazado_245719" data-name="Trazado 245719" d="M3933.072-3702.455c-1.757,0-3.514-.015-5.271.009-.5.007-.708-.1-.7-.655.035-1.686.03-3.373,0-5.059-.008-.5.155-.633.639-.63q5.341.026,10.682,0c.468,0,.659.1.65.614-.029,1.709-.026,3.42,0,5.129.007.464-.133.605-.594.6C3936.679-3702.468,3934.875-3702.455,3933.072-3702.455Z" transform="translate(-54.123 -183.886)" fill="#a96951"/>
      <path id="Trazado_245720" data-name="Trazado 245720" d="M4119.251-3708.778c1.78,0,3.561.012,5.341-.009.447,0,.617.112.609.588-.026,1.71-.023,3.42,0,5.13.005.441-.1.626-.581.624q-5.411-.022-10.822,0c-.424,0-.568-.123-.563-.557.021-1.733.023-3.467,0-5.2-.007-.474.161-.59.607-.585C4115.643-3708.765,4117.447-3708.778,4119.251-3708.778Z" transform="translate(-205.282 -183.889)" fill="#a96951"/>
      <path id="Trazado_245721" data-name="Trazado 245721" d="M4035.378-3832.112c-.864,0-1.728.01-2.592,0-.756-.011-1.189-.427-1.17-1.088.018-.624.444-1.01,1.174-1.014q2.663-.015,5.325,0a1.031,1.031,0,0,1,1.171,1.017c.018.66-.418,1.074-1.174,1.085C4037.2-3832.1,4036.289-3832.112,4035.378-3832.112Z" transform="translate(-138.999 -82.018)"/>
      <path id="Trazado_245722" data-name="Trazado 245722" d="M3942.733-3697.511q1.33,0,2.662,0a.958.958,0,0,1,1.095.926.946.946,0,0,1-.962,1.127,51.489,51.489,0,0,1-5.736,0,.944.944,0,0,1-.959-1.129.959.959,0,0,1,1.1-.923Z" transform="translate(-63.642 -193.046)" fill="#010000"/>
      <path id="Trazado_245723" data-name="Trazado 245723" d="M4128.234-3697.511h2.732a.959.959,0,0,1,1.1.925.944.944,0,0,1-.959,1.128,51.544,51.544,0,0,1-5.735,0,.943.943,0,0,1-.961-1.127.958.958,0,0,1,1.1-.926Z" transform="translate(-214.352 -193.046)" fill="#010000"/>
    </g>
    <g id="Grupo_147705" data-name="Grupo 147705" transform="translate(-3544.902 5683.259)">
      <path id="Trazado_245724" data-name="Trazado 245724" d="M4167.984-3888.221c-.9-.885-1.77-1.747-2.643-2.612-.595-.589-1.191-1.175-1.771-1.777-.188-.195-.3-.234-.541-.043a11.4,11.4,0,0,1-6.165,2.551c-.3.03-.367.155-.362.434.015.969.019,1.939,0,2.908-.006.315.072.424.4.413.74-.025,1.482-.012,2.225-.007a2.73,2.73,0,0,1,2.853,2.821q.015,3.564,0,7.128a2.727,2.727,0,0,1-2.851,2.823q-3.536.012-7.072,0a2.726,2.726,0,0,1-2.849-2.824q-.014-3.565,0-7.129a2.726,2.726,0,0,1,2.8-2.819c.76-.009,1.521-.019,2.281.006.331.011.409-.1.4-.412-.02-.969-.017-1.94,0-2.909,0-.279-.059-.4-.362-.434a11.365,11.365,0,0,1-6.162-2.552c-.288-.234-.4-.1-.581.086-1.851,1.859-3.717,3.7-5.555,5.577-.324.331-.487.3-.786-.011-.885-.921-.9-.908.02-1.825q2.5-2.5,5-5c.228-.225.322-.362.072-.67a11.263,11.263,0,0,1-2.507-6.061c-.031-.312-.135-.413-.453-.406-.969.021-1.939.023-2.909,0-.339-.008-.4.11-.4.419.02.779.018,1.558,0,2.338a2.717,2.717,0,0,1-2.719,2.721q-3.651.028-7.3,0a2.711,2.711,0,0,1-2.748-2.749q-.022-3.649,0-7.3a2.7,2.7,0,0,1,2.721-2.717q3.65-.025,7.3,0a2.72,2.72,0,0,1,2.747,2.752c.012.779.014,1.559,0,2.338-.006.282.052.4.369.389.988-.022,1.977-.02,2.965,0,.3.005.39-.1.417-.38a11.437,11.437,0,0,1,2.561-6.16c.167-.206.17-.311-.021-.5-1.313-1.295-2.624-2.592-3.908-3.916-.292-.3-.435-.107-.642.045a9.069,9.069,0,0,1-10.368.291,9.137,9.137,0,0,1-3.908-9.724,9.137,9.137,0,0,1,7.65-6.946,8.99,8.99,0,0,1,9.082,4.4,8.836,8.836,0,0,1-.506,10.016c-.215.311-.22.46.055.728q1.88,1.828,3.71,3.709c.251.256.395.324.715.066a11.3,11.3,0,0,1,6.013-2.485c.283-.03.44-.081.431-.428q-.037-1.482,0-2.965c.008-.327-.121-.368-.394-.363q-1.169.021-2.338,0a2.722,2.722,0,0,1-2.748-2.752q-.021-3.62,0-7.243a2.713,2.713,0,0,1,2.78-2.775q3.593-.018,7.187,0a2.72,2.72,0,0,1,2.8,2.812q.015,3.564,0,7.129a2.733,2.733,0,0,1-2.844,2.831c-.76.006-1.521.011-2.281-.005-.268-.006-.359.063-.354.344q.025,1.511,0,3.022c0,.275.1.357.354.383a11.533,11.533,0,0,1,6.214,2.579c.138.111.232.2.412.021q3.571-3.6,7.157-7.193c.009-.009,0-.033.005-.061-.159-.159-.387-.11-.581-.171a3.659,3.659,0,0,1-2.6-3.323,3.614,3.614,0,0,1,2.346-3.555.787.787,0,0,0,.56-.659,5.462,5.462,0,0,1,5.387-4.154A5.469,5.469,0,0,1,4181-3925.9a.641.641,0,0,0,.476.532,3.643,3.643,0,0,1,2.368,3.971,3.645,3.645,0,0,1-3.614,3.1c-2.168.016-4.335.01-6.5,0a.882.882,0,0,0-.7.279q-4.063,4.083-8.148,8.144c-.242.24-.242.37-.034.629a11.335,11.335,0,0,1,2.506,6.063c.031.308.127.418.45.411q1.453-.032,2.909,0c.333.008.409-.1.4-.415-.021-.76-.015-1.521-.005-2.281a2.721,2.721,0,0,1,2.773-2.784q3.623-.019,7.244,0a2.709,2.709,0,0,1,2.753,2.744q.023,3.65,0,7.3a2.705,2.705,0,0,1-2.717,2.721q-3.678.027-7.357,0a2.713,2.713,0,0,1-2.692-2.689c-.017-.779-.02-1.56,0-2.338.01-.33-.046-.464-.424-.452-.969.031-1.938.021-2.908,0-.289-.005-.4.083-.423.373a11.4,11.4,0,0,1-2.558,6.161c-.2.248-.123.359.058.539q2.73,2.715,5.441,5.448a.942.942,0,0,0,.761.265q4.905-.008,9.81,0a2.755,2.755,0,0,1,3.012,3.007q0,4.306,0,8.611a2.752,2.752,0,0,1-2.98,2.982q-6.16,0-12.32,0a2.746,2.746,0,0,1-2.95-2.954q-.005-4.078,0-8.155C4165.635-3886.8,4166.024-3887.4,4167.984-3888.221Z" transform="translate(0)"/>
      <path id="Trazado_245725" data-name="Trazado 245725" d="M4135.656-3780.347a10.1,10.1,0,0,1,6.682,2.618c.267.237.325.4.02.647-.335.277-.592.779-.954.856-.335.072-.632-.455-.963-.7a8.2,8.2,0,0,0-10.344.507c-.281.253-.412.24-.665-.013-1.054-1.053-1.064-1.048.152-1.939A10.159,10.159,0,0,1,4135.656-3780.347Z" transform="translate(-0.962 -106.011)"/>
      <path id="Trazado_245726" data-name="Trazado 245726" d="M4148.406-3752.646a2.75,2.75,0,0,1-2.75,2.752,2.749,2.749,0,0,1-2.722-2.722,2.745,2.745,0,0,1,2.75-2.75A2.746,2.746,0,0,1,4148.406-3752.646Z" transform="translate(-11.065 -123.687)"/>
      <path id="Trazado_245727" data-name="Trazado 245727" d="M4141.713-3767.867a6.489,6.489,0,0,1,4.13,1.528c.292.243.388.405.046.684-.322.262-.557.723-.912.83s-.623-.392-.958-.587a4.524,4.524,0,0,0-5.167.394c-.34.276-.523.255-.758-.061a2.741,2.741,0,0,0-.281-.283c-.679-.678-.677-.676.128-1.269A6.374,6.374,0,0,1,4141.713-3767.867Z" transform="translate(-7.092 -114.841)"/>
      <path id="Trazado_245728" data-name="Trazado 245728" d="M4271.942-3780.341q3.076,0,6.154,0c.851,0,1.161.314,1.162,1.171q0,4.3,0,8.6c0,.859-.311,1.173-1.161,1.173q-6.153,0-12.308,0c-.812,0-1.131-.324-1.132-1.143q0-4.33,0-8.66c0-.821.319-1.142,1.13-1.144Q4268.865-3780.345,4271.942-3780.341Z" transform="translate(-97.196 -106.014)" fill="#efcfb3"/>
      <path id="Trazado_245729" data-name="Trazado 245729" d="M4147.16-3912.977a7.635,7.635,0,0,0-3.515-3.058c1.262-1.981,1.09-3.921-.432-5.189a3.638,3.638,0,0,0-4.839.125,3.638,3.638,0,0,0-.266,5.043,7.615,7.615,0,0,0-3.505,3.05,7.106,7.106,0,0,1,1.16-8.815,7.261,7.261,0,0,1,9.667-.479A7.241,7.241,0,0,1,4147.16-3912.977Z" transform="translate(-4.436 -4.421)" fill="#e5e8ec"/>
      <path id="Trazado_245730" data-name="Trazado 245730" d="M4277.294-3915.7c-1.5,0-3,.009-4.5,0a1.828,1.828,0,0,1-1.882-1.805,1.83,1.83,0,0,1,1.848-1.841c.873-.023.873-.023.89-.94a3.643,3.643,0,0,1,3.016-3.563,3.662,3.662,0,0,1,3.993,2.157c.188.426.222.651-.31.876a3.5,3.5,0,0,0-2.114,2.835c-.051.3-.041.531.374.464a1.774,1.774,0,0,1,.512,0c.571.077.912-.021,1.093-.706a1.706,1.706,0,0,1,2.075-1.073,1.848,1.848,0,0,1,1.392,1.961,1.817,1.817,0,0,1-1.761,1.631c-1.54.023-3.08.007-4.62.007Z" transform="translate(-101.62 -4.419)" fill="#e5e8ec"/>
      <path id="Trazado_245731" data-name="Trazado 245731" d="M4146.451-3887.169a7.412,7.412,0,0,1-4.717-1.773.447.447,0,0,1-.143-.664,5.329,5.329,0,0,1,4.859-3.027,5.329,5.329,0,0,1,4.919,3.023.449.449,0,0,1-.134.668A7.45,7.45,0,0,1,4146.451-3887.169Z" transform="translate(-10.05 -26.555)" fill="#d84318"/>
      <path id="Trazado_245732" data-name="Trazado 245732" d="M4215.289-3830.289c1.064,0,2.129.01,3.192-.006.324,0,.48.036.438.428-.1.944-.177,1.889-.331,2.827-.046.285-.144.412-.469.409q-2.822-.026-5.644,0c-.313,0-.429-.1-.478-.4-.156-.957-.243-1.92-.332-2.885-.029-.317.082-.383.374-.379C4213.124-3830.28,4214.207-3830.289,4215.289-3830.289Z" transform="translate(-59.698 -70.667)" fill="#69d5f3"/>
      <path id="Trazado_245733" data-name="Trazado 245733" d="M4215.292-3845.368c-1.064,0-2.128-.011-3.192.007-.331.005-.475-.047-.435-.432.1-.944.178-1.889.331-2.828.048-.292.154-.408.474-.405q2.821.024,5.643,0c.316,0,.427.11.474.4.155.957.241,1.921.332,2.885.03.323-.1.378-.377.374C4217.458-3845.375,4216.375-3845.368,4215.292-3845.368Z" transform="translate(-59.695 -57.412)" fill="#69d5f3"/>
      <path id="Trazado_245734" data-name="Trazado 245734" d="M4287.922-3836.533c1.386,0,2.772.009,4.158-.007.314,0,.412.076.417.4.022,1.428.034,1.428-1.379,1.428-2.43,0-4.86-.008-7.29.009-.363,0-.478-.081-.476-.462.007-1.371-.009-1.371,1.381-1.371Z" transform="translate(-110.425 -66.248)" fill="#fff59d"/>
      <path id="Trazado_245735" data-name="Trazado 245735" d="M4138.043-3834.718c-1.348,0-2.7-.014-4.044.009-.374.006-.469-.1-.468-.469.005-1.365-.009-1.365,1.329-1.365,2.431,0,4.861.012,7.291-.011.428,0,.535.1.527.529-.024,1.307,0,1.308-1.332,1.308Z" transform="translate(-4.411 -66.238)" fill="#fff59d"/>
      <path id="Trazado_245736" data-name="Trazado 245736" d="M4213.066-3911.436c1.368,0,2.734.01,4.1-.008.319,0,.408.085.413.408.021,1.424.032,1.424-1.383,1.424-2.412,0-4.823-.011-7.234.01-.423,0-.538-.1-.529-.526.024-1.31,0-1.31,1.328-1.31Z" transform="translate(-57.413 -13.245)" fill="#fff59d"/>
      <path id="Trazado_245737" data-name="Trazado 245737" d="M4212.985-3759.812c-1.367,0-2.734-.012-4.1.008-.347.005-.444-.078-.444-.436,0-1.4-.017-1.4,1.355-1.4,2.43,0,4.86.01,7.29-.01.4,0,.508.089.5.495-.018,1.34,0,1.34-1.355,1.34Z" transform="translate(-57.417 -119.243)" fill="#fff59d"/>
      <path id="Trazado_245738" data-name="Trazado 245738" d="M4287.9-3847.176c-1.369,0-2.737-.014-4.1.01-.364.006-.436-.105-.435-.446,0-1.119.25-1.388,1.355-1.388q3.307,0,6.614,0a1.2,1.2,0,0,1,1.164,1.682c-.092.255-.29.134-.432.135C4290.67-3847.172,4289.283-3847.176,4287.9-3847.176Z" transform="translate(-110.429 -57.429)" fill="#fff59d"/>
      <path id="Trazado_245739" data-name="Trazado 245739" d="M4138.086-3847.176c-1.35,0-2.7-.013-4.048.009-.375.006-.525-.055-.517-.48.025-1.083.265-1.353,1.336-1.353q3.279,0,6.557,0a1.2,1.2,0,0,1,1.247,1.661c-.079.265-.271.157-.413.158C4140.861-3847.172,4139.474-3847.176,4138.086-3847.176Z" transform="translate(-4.404 -57.43)" fill="#fff59d"/>
      <path id="Trazado_245740" data-name="Trazado 245740" d="M4137.952-3824.065c1.368,0,2.736.014,4.1-.009.375-.006.473.1.469.47-.014,1.1-.258,1.364-1.381,1.365h-6.5a1.191,1.191,0,0,1-1.259-1.651c.073-.272.263-.168.4-.169C4135.177-3824.069,4136.565-3824.065,4137.952-3824.065Z" transform="translate(-4.259 -75.065)" fill="#fff59d"/>
      <path id="Trazado_245741" data-name="Trazado 245741" d="M4287.775-3824.065c1.369,0,2.737.014,4.1-.009.376-.007.472.1.468.47-.013,1.1-.258,1.364-1.381,1.364h-6.5a1.191,1.191,0,0,1-1.258-1.651c.072-.272.264-.168.4-.169C4285-3824.069,4286.388-3824.065,4287.775-3824.065Z" transform="translate(-110.276 -75.065)" fill="#fff59d"/>
      <path id="Trazado_245742" data-name="Trazado 245742" d="M4212.86-3898.983c1.368,0,2.736.013,4.1-.008.351-.006.443.084.442.438-.005,1.123-.249,1.4-1.35,1.4q-3.308,0-6.614,0a1.2,1.2,0,0,1-1.171-1.676c.088-.26.286-.14.427-.141C4210.085-3898.987,4211.472-3898.983,4212.86-3898.983Z" transform="translate(-57.237 -22.049)" fill="#fff59d"/>
      <path id="Trazado_245743" data-name="Trazado 245743" d="M4213.02-3772.272c-1.387,0-2.775-.01-4.162.007-.319,0-.412-.082-.414-.407-.01-1.149.24-1.425,1.375-1.425h6.5a1.19,1.19,0,0,1,1.265,1.647c-.07.274-.26.172-.4.173C4215.795-3772.27,4214.407-3772.272,4213.02-3772.272Z" transform="translate(-57.42 -110.432)" fill="#fff59d"/>
      <path id="Trazado_245744" data-name="Trazado 245744" d="M4212.962-3922.078c-1.369,0-2.737-.01-4.1.007-.321,0-.41-.085-.413-.408-.01-1.149.24-1.424,1.376-1.424h6.5a1.19,1.19,0,0,1,1.263,1.648c-.07.274-.26.171-.4.171C4215.774-3922.075,4214.368-3922.078,4212.962-3922.078Z" transform="translate(-57.42 -4.428)" fill="#fff59d"/>
      <path id="Trazado_245745" data-name="Trazado 245745" d="M4212.864-3749.162c1.368,0,2.736.013,4.1-.009.373-.006.473.1.469.469-.014,1.1-.258,1.365-1.379,1.365q-3.25,0-6.5,0a1.191,1.191,0,0,1-1.261-1.649c.072-.273.262-.169.4-.17C4210.09-3749.166,4211.477-3749.162,4212.864-3749.162Z" transform="translate(-57.269 -128.068)" fill="#fff59d"/>
      <path id="Trazado_245746" data-name="Trazado 245746" d="M4244.205-3845.368c-.627,0-1.255-.01-1.882,0-.271.007-.4-.045-.413-.36a20.038,20.038,0,0,0-.3-2.888c-.065-.328.032-.421.367-.414,1.026.02,2.053.013,3.079,0a.443.443,0,0,1,.486.283,10.516,10.516,0,0,1,.876,2.991c.039.3-.016.4-.332.387C4245.461-3845.384,4244.833-3845.368,4244.205-3845.368Z" transform="translate(-80.876 -57.412)" fill="#69d5f3"/>
      <path id="Trazado_245747" data-name="Trazado 245747" d="M4192.265-3845.365c-.645,0-1.289-.014-1.933.007-.289.009-.34-.077-.307-.354a10.256,10.256,0,0,1,.887-3.035.407.407,0,0,1,.433-.271c1.061.01,2.122.013,3.182,0,.284,0,.368.075.315.353a23,23,0,0,0-.311,2.991c-.014.244-.092.322-.335.317C4193.553-3845.375,4192.908-3845.365,4192.265-3845.365Z" transform="translate(-44.381 -57.415)" fill="#69d5f3"/>
      <path id="Trazado_245748" data-name="Trazado 245748" d="M4192.25-3830.293c.606,0,1.213.016,1.819-.006.319-.012.459.043.476.416a18.31,18.31,0,0,0,.292,2.821c.06.3.011.436-.349.428-1.022-.023-2.045-.016-3.068,0a.477.477,0,0,1-.527-.307,10.8,10.8,0,0,1-.866-2.984c-.042-.326.065-.377.348-.369C4191-3830.282,4191.624-3830.293,4192.25-3830.293Z" transform="translate(-44.381 -70.662)" fill="#69d5f3"/>
      <path id="Trazado_245749" data-name="Trazado 245749" d="M4244.182-3830.3c.608,0,1.218.027,1.824-.009.408-.025.457.125.4.479a10.844,10.844,0,0,1-.857,2.881.444.444,0,0,1-.472.305c-1.045-.014-2.091-.018-3.137,0-.319.006-.391-.1-.335-.389a21.749,21.749,0,0,0,.3-2.945c.016-.294.141-.333.386-.328C4242.927-3830.294,4243.554-3830.3,4244.182-3830.3Z" transform="translate(-80.876 -70.653)" fill="#69d5f3"/>
      <path id="Trazado_245750" data-name="Trazado 245750" d="M4214.73-3811.494h5.471a7.176,7.176,0,0,1-1.805,3.224,1.269,1.269,0,0,1-1.925-.053A7.322,7.322,0,0,1,4214.73-3811.494Z" transform="translate(-61.868 -83.97)" fill="#69d5f3"/>
      <path id="Trazado_245751" data-name="Trazado 245751" d="M4220.2-3864.108h-5.458a7.692,7.692,0,0,1,1.581-3.017,1.379,1.379,0,0,1,2.3,0A7.7,7.7,0,0,1,4220.2-3864.108Z" transform="translate(-61.88 -44.17)" fill="#69d5f3"/>
      <path id="Trazado_245752" data-name="Trazado 245752" d="M4154.117-3911.413a1.837,1.837,0,0,1,1.828,1.805,1.839,1.839,0,0,1-1.85,1.842,1.838,1.838,0,0,1-1.8-1.835A1.83,1.83,0,0,1,4154.117-3911.413Z" transform="translate(-17.69 -13.267)" fill="#efcfb3"/>
      <path id="Trazado_245753" data-name="Trazado 245753" d="M4235.707-3865.634a10.115,10.115,0,0,1,4.325,3.039c-1.013,0-1.915-.007-2.815,0-.262,0-.3-.161-.357-.351A13.13,13.13,0,0,0,4235.707-3865.634Z" transform="translate(-76.712 -45.66)" fill="#68d5f2"/>
      <path id="Trazado_245754" data-name="Trazado 245754" d="M4197.632-3862.567a10.151,10.151,0,0,1,4.315-3.027,13.3,13.3,0,0,0-1.149,2.758c-.064.235-.205.275-.42.273C4199.509-3862.572,4198.64-3862.567,4197.632-3862.567Z" transform="translate(-49.77 -45.689)" fill="#68d5f2"/>
      <path id="Trazado_245755" data-name="Trazado 245755" d="M4201.953-3808.527a10.133,10.133,0,0,1-4.311-3.025c1.024,0,1.941,0,2.857,0a.263.263,0,0,1,.285.217A13.923,13.923,0,0,0,4201.953-3808.527Z" transform="translate(-49.777 -83.927)" fill="#68d5f2"/>
      <path id="Trazado_245756" data-name="Trazado 245756" d="M4235.713-3808.517a13.206,13.206,0,0,0,1.161-2.743c.052-.179.117-.3.34-.3.9.009,1.8,0,2.817,0A10.109,10.109,0,0,1,4235.713-3808.517Z" transform="translate(-76.716 -83.924)" fill="#68d5f2"/>
      <path id="Trazado_245757" data-name="Trazado 245757" d="M4151-3748.218a.918.918,0,0,1-.887.917.916.916,0,0,1-.931-.93.916.916,0,0,1,.915-.889A.916.916,0,0,1,4151-3748.218Z" transform="translate(-15.485 -128.107)" fill="#d84318"/>
      <path id="Trazado_245758" data-name="Trazado 245758" d="M4276.351-3766.819c-1.672,0-3.345-.012-5.016.009-.377,0-.468-.1-.465-.471q.026-3.192,0-6.383c0-.38.108-.465.473-.464,1.362.006,1.362-.008,1.362,1.333,0,1.216.015,2.432-.009,3.647-.007.375.056.522.48.517,1.344-.018,1.36,0,1.344-1.343,0-.39.081-.511.491-.505,1.332.018,1.351,0,1.333,1.353,0,.406.109.5.5.494,1.334-.017,1.334,0,1.334-1.305,0-.627.017-1.255-.007-1.881-.013-.345.049-.489.451-.486,1.381.008,1.381-.011,1.381,1.372,0,.646.011,1.292-.005,1.938-.007.265.062.4.344.353a.714.714,0,0,1,.171,0c.428.034,1.078-.194,1.235.094a3.6,3.6,0,0,1,.081,1.5c.006.331-.246.223-.405.223C4279.733-3766.816,4278.042-3766.819,4276.351-3766.819Z" transform="translate(-101.593 -110.411)"/>
    </g>
  </g>
</svg>
