<svg xmlns="http://www.w3.org/2000/svg" width="291" height="114.44" viewBox="0 0 291 114.44">
  <g id="Grupo_163260" data-name="Grupo 163260" transform="translate(-1129 -2170.84)">
    <g id="Grupo_163212" data-name="Grupo 163212">
      <g id="Grupo_151574" data-name="Grupo 151574" transform="translate(949 1749.84)">
        <g id="Grupo_141764" data-name="Grupo 141764" transform="translate(180 421)">
          <g id="Grupo_129487" data-name="Grupo 129487" transform="translate(0 0)" opacity="0.2">
            <g id="Grupo_129451" data-name="Grupo 129451" transform="translate(291 60.228) rotate(180)">
              <path id="Trazado_114977" data-name="Trazado 114977" d="M18.7,0H0L14.169,30.114,0,60.228H18.7L32.865,30.114Z" fill="#d84318"/>
              <path id="Trazado_114978" data-name="Trazado 114978" d="M18.7,0H0L14.169,30.114,0,60.228H18.7L32.865,30.114Z" transform="translate(32.865 0)" fill="#d84318"/>
              <path id="Trazado_114979" data-name="Trazado 114979" d="M18.7,0H0L14.169,30.114,0,60.228H18.7L32.865,30.114Z" transform="translate(65.73 0)" fill="#d84318"/>
            </g>
            <g id="Grupo_129486" data-name="Grupo 129486" transform="translate(0 54.212)">
              <path id="Trazado_114977-2" data-name="Trazado 114977" d="M18.7,0H0L14.169,30.114,0,60.228H18.7L32.865,30.114Z" transform="translate(0 0)" fill="#1b3f5e"/>
              <path id="Trazado_114978-2" data-name="Trazado 114978" d="M18.7,0H0L14.169,30.114,0,60.228H18.7L32.865,30.114Z" transform="translate(32.865 0)" fill="#1b3f5e"/>
              <path id="Trazado_114979-2" data-name="Trazado 114979" d="M18.7,0H0L14.169,30.114,0,60.228H18.7L32.865,30.114Z" transform="translate(65.73 0)" fill="#1b3f5e"/>
            </g>
          </g>
        </g>
      </g>
      <g id="Grupo_163167" data-name="Grupo 163167" transform="translate(1137.314 2175.141)">
        <path id="Trazado_245759" data-name="Trazado 245759" d="M4297.481-4360.333a1.56,1.56,0,0,1-1.667-1.2c-1.283-3.411-2.6-6.81-3.9-10.214-1.036-2.713-2.415-3.672-5.3-3.676-1.156,0-2.315-.04-3.469.014a2.321,2.321,0,0,1-2.115-.847v-1.128a2.276,2.276,0,0,1,2.111-.871c1.345.047,2.693-.008,4.04.017a7.451,7.451,0,0,1,7.192,5.039c.811,2.1,1.642,4.186,2.4,6.3a.932.932,0,0,0,1.068.742c1.817-.035,3.634-.027,5.45,0,.528.006.675-.062.552-.669a32.316,32.316,0,0,1-.3-10.654,2.563,2.563,0,0,0-.144-1.19q-.918-2.7-1.814-5.417a3.951,3.951,0,0,1,2.21-5.2,3.9,3.9,0,0,1,5.1,2.238c.675,1.408,1.338,2.821,2.009,4.23a.745.745,0,0,0,.118.139c.954-2.289,1.668-4.6,1.16-7.142a23.547,23.547,0,0,1-.305-3.365,3.955,3.955,0,0,1,3.325-4.307,3.934,3.934,0,0,1,4.484,3.321c.411,2.022.8,4.049,1.127,6.087.1.644.335.789.948.785,4.26-.026,8.52-.016,12.78-.014,1.626,0,2.049.43,2.054,2.068,0,1.128.019,2.256-.008,3.383-.011.448.128.59.581.585,2.036-.021,4.072-.008,6.108-.012.154,0,.378.024.452-.063.9-1.058,2.319-1.757,2.136-3.532a33.091,33.091,0,0,1-.022-3.851,2.923,2.923,0,0,1,3.043-3.088q1.362-.024,2.726,0a2.962,2.962,0,0,1,3.066,3.091c.024,1.472.014,2.944,0,4.417a1.617,1.617,0,0,0,.5,1.359,6.308,6.308,0,0,1,2.518,6.255,10.174,10.174,0,0,1,2.773-2.345,5.778,5.778,0,0,1,2.02-.717c.613-.067.67-.341.646-.853-.094-1.908-.153-3.818-.219-5.728-.041-1.141.4-1.772,1.277-1.834.91-.064,1.49.541,1.528,1.718.043,1.325.01,2.652.01,3.979l.3.035c.358-.979.722-1.956,1.076-2.936.688-1.909,1.364-3.822,2.059-5.729.379-1.042,1.071-1.439,1.912-1.134.807.293,1.092,1.084.725,2.11q-1.438,4.009-2.9,8.009a.909.909,0,0,0-.021.691c.953-1.071,1.854-2.078,2.749-3.09a1.4,1.4,0,0,1,1.919-.391,1.383,1.383,0,0,1,.192,2.252c-1.291,1.492-2.6,2.972-3.934,4.423-.394.428-.375.682-.02,1.137a7.223,7.223,0,0,1,1.207,7.076c-.352,1.067-.729,2.127-1.143,3.171-.222.558-.092.7.49.694,1.723-.027,3.445-.018,5.168-.006,1.314.009,1.761.481,1.761,1.847q0,11.465,0,22.932a8.97,8.97,0,0,1-7.937,9.093q-15.709,2.2-31.421,4.37-8.413,1.173-16.821,2.367a13.677,13.677,0,0,1-7.1-.768c-.529-.211-.768-.212-1.007.384-1.154,2.866-2.355,5.714-3.558,8.561-.176.417-.229.685.206,1.015a6.989,6.989,0,0,1,2.589,3.915c.1.388.251.529.627.5.217-.019.438,0,.658,0q21.754,0,43.507,0a3.037,3.037,0,0,1,1.3.126,1.327,1.327,0,0,1,.872,1.411,1.314,1.314,0,0,1-1.189,1.257,6.386,6.386,0,0,1-.938.021q-21.849,0-43.7-.021a1.1,1.1,0,0,0-1.276.931,7.37,7.37,0,0,1-8.95,4.879,7.461,7.461,0,0,1-5.355-8.7,7.441,7.441,0,0,1,8.2-5.844c.48.063.653-.044.824-.458q1.882-4.592,3.814-9.165a.669.669,0,0,0-.243-.937,14.109,14.109,0,0,1-4.223-6.092q-3.825-10.118-7.737-20.2a1.714,1.714,0,0,1,.535-2.3,1.318,1.318,0,0,1,1.926.445,7.386,7.386,0,0,1,.83,1.782c2.375,6.229,4.771,12.451,7.135,18.685a11.881,11.881,0,0,0,3.387,5.209,10.452,10.452,0,0,0,8.513,2.3c8.644-1.221,17.292-2.41,25.935-3.625,7.4-1.042,14.813-2.057,22.216-3.1a5.735,5.735,0,0,0,4.859-3.763,7.717,7.717,0,0,0,.411-2.679q-.01-9.819,0-19.638c0-1.52-.023-1.543-1.6-1.543l-68.959,0c-.595,0-1.189.025-1.782-.027-.8-.025-1.6,0-2.406-.028-.591-.021-.736.146-.594.756A1.4,1.4,0,0,1,4297.481-4360.333Z" transform="translate(-4281.029 4397.528)"/>
        <path id="Trazado_245760" data-name="Trazado 245760" d="M4315.426-4323c1.218-.526,1.279-.747.778-2.969h3.25a2.069,2.069,0,0,1,.54.865q4.905,12.854,9.817,25.708a7.554,7.554,0,0,0,6.366,5.268,14.214,14.214,0,0,0,3.818-.352q12.878-1.762,25.748-3.578c8.271-1.16,16.548-2.283,24.813-3.482a2,2,0,0,1,1.288.032,5.725,5.725,0,0,1-4.8,3.716c-10,1.425-20.016,2.792-30.024,4.189-6.072.847-12.146,1.685-18.213,2.57a10.686,10.686,0,0,1-12.014-6.98q-3.922-10.2-7.81-20.408c-.484-1.264-.781-1.437-2.115-1.3A11.98,11.98,0,0,0,4315.426-4323Z" transform="translate(-4298.973 4360.198)" fill="#d84318"/>
        <path id="Trazado_245761" data-name="Trazado 245761" d="M4458.585-4216.343a7.41,7.41,0,0,1-7.436-7.361,7.451,7.451,0,0,1,7.41-7.5,7.469,7.469,0,0,1,7.445,7.474A7.429,7.429,0,0,1,4458.585-4216.343Z" transform="translate(-4369.779 4310.76)"/>
        <path id="Trazado_245762" data-name="Trazado 245762" d="M4396.239-4301.575c-1.594.247-3.186.508-4.783.739q-4.425.64-8.854,1.251c-2.46.343-4.925.667-7.386,1.011-2.921.407-5.842.83-8.762,1.24-2.43.341-4.861.671-7.291,1.013-2.982.419-5.963.858-8.947,1.266-2.554.348-5.126.594-7.667,1.021a7.416,7.416,0,0,1-5.026-.891,7.94,7.94,0,0,1-3.528-4.336q-3.588-9.4-7.183-18.794c-1.009-2.652-1.977-5.319-2.962-7.979.312-.015.624-.042.936-.042q35.462,0,70.923-.019c.808,0,1.1.138,1.094,1.042-.045,6.92-.025,13.842-.023,20.763A5.272,5.272,0,0,1,4396.239-4301.575Z" transform="translate(-4303.368 4360.264)" fill="#d84318"/>
        <path id="Trazado_245763" data-name="Trazado 245763" d="M4452.08-4350.106c-.421-.144-.827-.3-1.245-.42a1.411,1.411,0,0,0-1.77.83,1.428,1.428,0,0,0,.767,1.8c.488.276,1.337.136,1.44.768.08.486-.316,1.053-.506,1.582-.6,1.664-.6,1.664-2.375,1.664-2.065,0-4.132-.026-6.2.014-.7.015-.94-.123-.974-.9a9.6,9.6,0,0,1,.786-3.722c.166-.455.388-.491.772-.337a8.038,8.038,0,0,0,1.063.36,1.3,1.3,0,0,0,1.653-.86,1.317,1.317,0,0,0-.7-1.734,4.2,4.2,0,0,0-.7-.274c-1.057-.385-1.064-.4-.43-1.385a4.592,4.592,0,0,1,5.346-1.846A4.423,4.423,0,0,1,4452.08-4350.106Z" transform="translate(-4364.596 4375.249)" fill="#fea85f"/>
        <path id="Trazado_245764" data-name="Trazado 245764" d="M4403.4-4351.525c0,1.817-.018,3.634.011,5.45.009.534-.159.707-.693.7-1.628-.028-3.258-.032-4.886,0-.569.012-.669-.225-.667-.722q.023-5.451,0-10.9c0-.528.153-.706.693-.7q2.443.047,4.886,0c.568-.012.673.22.667.721C4403.389-4355.159,4403.4-4353.341,4403.4-4351.525Z" transform="translate(-4341.616 4376.749)" fill="#fff59d"/>
        <path id="Trazado_245765" data-name="Trazado 245765" d="M4380.682-4370.072a25.648,25.648,0,0,1,.092,3.917c.031,1.5,0,3,.015,4.506.005.451-.08.685-.609.678-2.908-.037-5.817-.043-8.725-.06a1.639,1.639,0,0,1-.3-1.15c-.009-2.246-.019-4.492,0-6.738.011-1.166.106-1.236,1.306-1.237q3.649,0,7.3,0A1.9,1.9,0,0,1,4380.682-4370.072Z" transform="translate(-4328.041 4383.256)" fill="#d9d7da"/>
        <path id="Trazado_245766" data-name="Trazado 245766" d="M4427.051-4366.942a7.709,7.709,0,0,0,2.115,2.8,2.353,2.353,0,0,1,.81,1.9c-.022,3.717-.033,7.435.01,11.151.008.75-.257.857-.912.852-2.313-.021-2.313,0-2.313-2.332,0-.531-.025-1.063,0-1.592a5.164,5.164,0,0,0-1.483-4.084,2.683,2.683,0,0,1-.3-1.447c0-1.906,0-3.812,0-5.717,0-1.6.049-1.634,1.6-1.6A1.225,1.225,0,0,1,4427.051-4366.942Z" transform="translate(-4356.128 4381.608)" fill="#c2dcfe"/>
        <path id="Trazado_245767" data-name="Trazado 245767" d="M4330.749-4220.612a4.506,4.506,0,0,1-4.638,4.513,4.628,4.628,0,0,1-4.575-4.626,4.683,4.683,0,0,1,4.636-4.59A4.6,4.6,0,0,1,4330.749-4220.612Z" transform="translate(-4302.161 4307.687)" fill="#5d5360"/>
        <path id="Trazado_245768" data-name="Trazado 245768" d="M4333.542-4359.818a4.607,4.607,0,0,0-.456-2.264c-.174-.437-.045-.576.334-.761,2.034-1,2.028-1.007,2.98,1.007,1.408,2.981,2.821,5.96,4.217,8.947a2.264,2.264,0,0,0,1,1.189c1.092-.13,1.623.463,1.864,1.442.148.6.786,1.054.539,1.777-1.5.072-3-.033-4.491.049a1.38,1.38,0,0,1-1.473-1.013c-1.011-2.316-2.1-4.6-3.121-6.91A17.692,17.692,0,0,1,4333.542-4359.818Z" transform="translate(-4308.147 4379.776)" fill="#fff59d"/>
        <path id="Trazado_245769" data-name="Trazado 245769" d="M4377.787-4344.954a46.691,46.691,0,0,1,.106,5.78c.011.355-.283.354-.541.354q-5.59,0-11.18.005c-.413,0-.546-.168-.543-.562.011-1.723.007-3.445,0-5.168,0-.324.069-.546.46-.543,3.876.029,7.752-.1,11.628.061.021,0,.042.044.063.068a1.734,1.734,0,0,1-1.253.274c-2.161.008-4.323,0-6.484.01-.354,0-.822-.134-1,.294-.161.375.121.722.314,1.039a2.685,2.685,0,0,0,2.293,1.264c1.689.083,3.381.025,5.073.027.553,0,.763-.262.794-.8C4377.554-4343.558,4377.318-4344.3,4377.787-4344.954Z" transform="translate(-4325.164 4370.182)" fill="#caf29e"/>
        <path id="Trazado_245770" data-name="Trazado 245770" d="M4351.9-4353.179a10.6,10.6,0,0,1-.771-1.589c-.26-.863-.667-1.48-1.644-1.531,1.682.087,2.289-.807,1.576-2.34-.9-1.945-1.812-3.89-2.742-5.824a1.9,1.9,0,0,1-.186-1.247,28.969,28.969,0,0,1,1.9-6.605c.447.02.44.4.49.679.923,5.033,2.225,9.993,2.947,15.066.046.33-.085.691.148.993a7.832,7.832,0,0,1-.054,2.437A2.728,2.728,0,0,1,4351.9-4353.179Z" transform="translate(-4316.017 4384.375)" fill="#fff59d"/>
        <path id="Trazado_245771" data-name="Trazado 245771" d="M4355.733-4359.181a40.876,40.876,0,0,1-1.128-5.137c-.807-3.815-1.559-7.642-2.337-11.463-.01-.052-.079-.092-.121-.138a4.91,4.91,0,0,0,.112-2.21,1.579,1.579,0,0,1,0-.548,7.552,7.552,0,0,1,2.58-.521,1.349,1.349,0,0,1,.167.518,29.623,29.623,0,0,1,.8,6.669C4355.713-4367.736,4355.749-4363.458,4355.733-4359.181Z" transform="translate(-4318.13 4387.979)" fill="#fff59d"/>
        <path id="Trazado_245772" data-name="Trazado 245772" d="M4344.216-4344.565l1.668.039c-.234.243-.532.121-.8.121-3.343.01-6.686-.01-10.029.021-.632.006-.937-.135-1.076-.807a29.667,29.667,0,0,1-.252-10.613c1.009,1.762,1.716,3.667,2.586,5.494.8,1.689,1.551,3.406,2.312,5.115a.949.949,0,0,0,.991.671C4341.151-4344.564,4342.684-4344.555,4344.216-4344.565Z" transform="translate(-4308.335 4375.762)" fill="#fff59d"/>
        <path id="Trazado_245773" data-name="Trazado 245773" d="M4422.337-4367.034c-1.757.109-1.756.109-1.758,1.9q0,3.4-.011,6.8a5.354,5.354,0,0,0-3.783-1.082c-.616.046-.861-.157-.771-.774a2.32,2.32,0,0,0,0-.655,4.155,4.155,0,0,1,1.718-4.342.877.877,0,0,0,.362-.422c.422-1.812,1.827-1.6,3.15-1.54C4421.609-4367.132,4422-4367.27,4422.337-4367.034Z" transform="translate(-4351.415 4381.7)" fill="#c2dcfe"/>
        <path id="Trazado_245774" data-name="Trazado 245774" d="M4377.8-4370.138c-2.778,0-5.555.032-8.333,0-.689-.007-.918.179-.909.891.039,2.715.015,5.431.015,8.147-.781.017-1.562.012-2.341.058-.532.031-.611-.231-.609-.68q.02-3.943,0-7.888c0-.437.06-.69.6-.687,3.756.017,7.511,0,11.267,0A.293.293,0,0,1,4377.8-4370.138Z" transform="translate(-4325.162 4383.322)" fill="#d9d7da"/>
        <path id="Trazado_245775" data-name="Trazado 245775" d="M4419.3-4341.585c0,.094,0,.187,0,.281,0,2.612,0,2.6-2.682,2.346-.409-.039-.533-.181-.53-.567.011-1.715,0-3.431.006-5.146,0-.21-.035-.429.229-.552a2.159,2.159,0,0,1,2.97,1.767C4419.326-4342.834,4419.3-4342.209,4419.3-4341.585Z" transform="translate(-4351.489 4370.332)" fill="#b4b0b5"/>
        <path id="Trazado_245776" data-name="Trazado 245776" d="M4424.024-4376.5c-1.625,0-1.625,0-1.625-1.6,0-1.615,0-1.615,1.619-1.615,1.589,0,1.589,0,1.589,1.562v.094C4425.607-4376.5,4425.607-4376.5,4424.024-4376.5Z" transform="translate(-4354.78 4388.232)" fill="#b4afb5"/>
        <path id="Trazado_245777" data-name="Trazado 245777" d="M4351.377-4390.137c-.043-.8.2-1.342.958-1.444s1.14.359,1.276,1.055a11.037,11.037,0,0,0,.236,1.279c.2.608.01.794-.609.888C4351.405-4388.083,4351.41-4388.053,4351.377-4390.137Z" transform="translate(-4317.726 4394.433)" fill="#c18a65"/>
        <path id="Trazado_245778" data-name="Trazado 245778" d="M4329.327-4373.6c-.016-.779.24-1.129.73-1.323a.9.9,0,0,1,1.165.334c.4.63.684,1.327,1.022,1.994.112.222.039.349-.182.423-.059.02-.108.066-.167.084-.608.181-1.393.927-1.729.573A5.607,5.607,0,0,1,4329.327-4373.6Z" transform="translate(-4306.225 4385.78)" fill="#c18a65"/>
        <path id="Trazado_245779" data-name="Trazado 245779" d="M4461.629-4216.1a4.579,4.579,0,0,1-4.579-4.595,4.623,4.623,0,0,1,4.575-4.621,4.645,4.645,0,0,1,4.639,4.665A4.6,4.6,0,0,1,4461.629-4216.1Z" transform="translate(-4372.857 4307.687)" fill="#5d5360"/>
        <path id="Trazado_245780" data-name="Trazado 245780" d="M4351.15-4292.148a1.4,1.4,0,0,1-1.171,1.4,1.335,1.335,0,0,1-1.628-1.065c-.573-2.013-1.122-4.034-1.677-6.052q-2.618-9.536-5.233-19.072c-.05-.181-.094-.363-.137-.546a1.426,1.426,0,0,1,.88-1.82,1.4,1.4,0,0,1,1.815,1.037c.488,1.68.926,3.375,1.39,5.063q2.773,10.076,5.548,20.152C4351.02-4292.75,4351.081-4292.443,4351.15-4292.148Z" transform="translate(-4312.444 4356.757)"/>
        <path id="Trazado_245781" data-name="Trazado 245781" d="M4368.221-4317.754a1.385,1.385,0,0,1,1.252-1.575,1.4,1.4,0,0,1,1.552,1.3c.338,1.94.645,3.885.967,5.828q1.468,8.834,2.937,17.667c.056.34.115.68.144,1.022a1.415,1.415,0,0,1-1.2,1.631,1.371,1.371,0,0,1-1.541-1.188c-.389-2.089-.728-4.187-1.078-6.284q-1.479-8.879-2.951-17.76C4368.267-4317.36,4368.24-4317.609,4368.221-4317.754Z" transform="translate(-4326.516 4356.737)"/>
        <path id="Trazado_245782" data-name="Trazado 245782" d="M4398.673-4306.144q.306,5.437.611,10.874a4.208,4.208,0,0,1,.026.654c-.071.726-.85,1.548-1.48,1.419a1.462,1.462,0,0,1-1.276-1.305c-.122-1.4-.213-2.808-.294-4.214q-.545-9.467-1.077-18.934c-.055-.978.416-1.6,1.239-1.677.887-.084,1.479.417,1.554,1.468.189,2.622.326,5.248.48,7.872.075,1.281.143,2.563.214,3.843Z" transform="translate(-4340.579 4356.737)"/>
        <path id="Trazado_245783" data-name="Trazado 245783" d="M4418.081-4307.174q0-5.071,0-10.144a5.649,5.649,0,0,1,.027-.844,1.257,1.257,0,0,1,1.168-1.154,1.312,1.312,0,0,1,1.495.864,3,3,0,0,1,.129,1.2q0,10.192,0,20.382c0,.218.012.439-.006.656a1.477,1.477,0,0,1-1.408,1.479,1.4,1.4,0,0,1-1.4-1.549C4418.074-4299.911,4418.082-4303.542,4418.081-4307.174Z" transform="translate(-4352.526 4356.734)"/>
        <path id="Trazado_245784" data-name="Trazado 245784" d="M4438.152-4307.645c0-3.351-.006-6.7,0-10.054,0-1.123.612-1.735,1.569-1.629.769.084,1.231.652,1.242,1.606.018,1.5,0,3.007,0,4.51q0,7.518,0,15.034a4.945,4.945,0,0,1-.032.937,1.368,1.368,0,0,1-1.424,1.232,1.35,1.35,0,0,1-1.349-1.395c-.031-1.377-.012-2.755-.013-4.134Q4438.15-4304.591,4438.152-4307.645Z" transform="translate(-4362.995 4356.739)"/>
        <path id="Trazado_245785" data-name="Trazado 245785" d="M4457.436-4308.59q0-4.507,0-9.015c0-1.133.485-1.728,1.382-1.737s1.431.6,1.433,1.7q.01,9.109,0,18.217c0,1.107-.519,1.734-1.4,1.747s-1.417-.612-1.418-1.71Q4457.428-4303.989,4457.436-4308.59Z" transform="translate(-4373.058 4356.74)"/>
        <path id="Trazado_245786" data-name="Trazado 245786" d="M4375.291-4360.813c-.531,0-1.064.029-1.593-.007a1.254,1.254,0,0,1-1.261-1.262,1.233,1.233,0,0,1,1.046-1.444,11.919,11.919,0,0,1,3.637-.008,1.24,1.24,0,0,1,1.073,1.509,1.258,1.258,0,0,1-1.309,1.211c-.531.026-1.062.005-1.594.005Z" transform="translate(-4328.712 4379.865)" fill="#010101"/>
        <path id="Trazado_245787" data-name="Trazado 245787" d="M4329.731-4218.609a1.418,1.418,0,0,1,1.33,1.414,1.37,1.37,0,0,1-1.431,1.39,1.429,1.429,0,0,1-1.369-1.4A1.52,1.52,0,0,1,4329.731-4218.609Z" transform="translate(-4305.669 4304.189)" fill="#010101"/>
        <path id="Trazado_245788" data-name="Trazado 245788" d="M4381-4344.791c0,.845-.026,1.691,0,2.536.013.487-.174.662-.658.657-1.847-.017-3.695.024-5.542-.017a3.194,3.194,0,0,1-2.947-2.35c-.176-.625.054-.837.693-.833,2.817.02,5.635,0,8.453,0Z" transform="translate(-4328.38 4370.019)" fill="#caf29e"/>
        <path id="Trazado_245789" data-name="Trazado 245789" d="M4466.563-4217.184a1.422,1.422,0,0,1-1.477,1.373,1.425,1.425,0,0,1-1.333-1.423,1.434,1.434,0,0,1,1.382-1.382A1.439,1.439,0,0,1,4466.563-4217.184Z" transform="translate(-4376.354 4304.192)" fill="#010101"/>
      </g>
      <g id="TcGgoD.tif" transform="translate(1316.06 2177.959)">
        <g id="Grupo_147707" data-name="Grupo 147707" transform="translate(0)">
          <path id="Trazado_245790" data-name="Trazado 245790" d="M4115.738-4609.072a3.833,3.833,0,0,1-3.13-4.452c.146-.747-.1-.755-.668-.74-1.192.031-2.386.026-3.579,0a4,4,0,0,1-3.994-5c.108-.484,0-.625-.39-.766a1.134,1.134,0,0,1-.523-.332c-.7-.968-1.7-.891-2.714-.871-1.7.034-3.4-.07-5.1.027-2.786.162-4.028-1.632-4-3.965.066-5.9.022-11.808.022-17.712a6.194,6.194,0,0,0-.073-2.385c-.317-.7-1.368-.312-2.068-.577a8.543,8.543,0,0,1-2.719-1.488c-.311-.273-.484-.273-.786.05a4.715,4.715,0,0,1-3.41,1.531c-3.517.1-7.038.148-10.551-.014-2.819-.13-4.418-1.937-4.418-4.769q0-9.215,0-18.428a4.368,4.368,0,0,1,4.427-4.689c3.515-.1,7.037-.085,10.553,0,2.294.053,3.729,1.361,4.386,3.7.049.175.066.377.3.371,1.089-.032,2.228.225,3.225-.427a2.267,2.267,0,0,0,1.154-2.057c-.043-3.936-.02-7.872-.017-11.808,0-2.648,1.244-3.894,3.881-3.9,1.968,0,3.937-.039,5.9.018.8.023,1.08-.167,1.033-1.013a10.988,10.988,0,0,1,2.187-7.461,10.808,10.808,0,0,1,12.727-3.476,1.485,1.485,0,0,0,1.258.037,10.83,10.83,0,0,1,14.981,9.4c.007.119.012.238.016.358.023.681-.211,1.588.136,1.981.41.462,1.34.141,2.043.145,2.893.019,5.785,0,8.678.009,2.579,0,3.83,1.264,3.83,3.851q0,22.9-.025,45.8c0,.944.269,1.116,1.131,1.089,1.816-.056,3.639-.046,5.454.034a4.4,4.4,0,0,1,4.212,3.347,2.69,2.69,0,0,1,.059.973q.006,9.964,0,19.925c.25,2.287-2.2,3.676-4.045,3.748-.3.011-.595,0-.893,0h-9.357a5.292,5.292,0,0,1-3.976-1.227c-.268-.226-.557-.366-.883-.111a6.88,6.88,0,0,1-3.84,1.43h-10.021a1.558,1.558,0,0,0-.873-.088c-2.887-.006-5.775,0-8.663-.007A1.939,1.939,0,0,1,4115.738-4609.072Z" transform="translate(-4067.635 4700.518)"/>
          <path id="Trazado_245791" data-name="Trazado 245791" d="M4350.025-4473.013l-.087-.02-.077.047.01-21.189a.19.19,0,0,1,.153.045Z" transform="translate(-4258.401 4561.045)" fill="#282828"/>
          <path id="Trazado_245792" data-name="Trazado 245792" d="M4216.068-4418.371q4.881-.007,9.762-.012c.231,0,.481-.045.654.178H4216.1Z" transform="translate(-4167.966 4509.817)" fill="#060606"/>
          <path id="Trazado_245793" data-name="Trazado 245793" d="M4155.986-4637.3c.395-.781.745-1.431,1.055-2.1a5.353,5.353,0,0,0-1.876-7,3,3,0,0,0-4.5,1.093c-.087.147-.176.293-.262.436-.287-.091-.193-.3-.194-.457-.007-2.147.012-4.293-.015-6.44-.009-.724.244-1.014.987-1q3.174.047,6.351,0c.614-.01.762.212.748.776-.031,1.312-.021,2.624-.005,3.936.013,1.065.507,1.646,1.347,1.637s1.341-.6,1.357-1.659c.021-1.312.032-2.624-.007-3.936-.017-.588.175-.754.757-.751q7.38.03,14.759,0c.658,0,.8.24.78.833-.037,1.281-.021,2.563-.008,3.846.01,1.072.484,1.659,1.314,1.669.87.011,1.375-.6,1.388-1.714.014-1.282.037-2.566-.011-3.846-.024-.644.2-.8.812-.787,1.7.038,3.4.05,5.1,0,.731-.023.957.158.948.923-.042,3.787-.02,7.573-.02,11.359v30.589a3.593,3.593,0,0,0-4.6,1.094,5.1,5.1,0,0,0-1.063,5.254,30,30,0,0,0,1.312,2.908h-4.648c-3.578,0-7.156.054-10.733-.02a4.069,4.069,0,0,0-4.281,4.716c.091.4.008.6-.465.6-2.323.01-3.941,1-4.522,3.359-.11.447-.439.325-.708.327-1.938.009-3.877-.031-5.813.021-.851.023-1.079-.315-1.073-1.1.026-3.549.011-7.1.011-10.645,0-3.012.022-6.023-.017-9.034-.009-.722.219-.891.909-.888q7.379.04,14.759.006a4.062,4.062,0,0,0,4.289-3.97c.01-.439-.411-1.016-.043-1.246s.977-.1,1.48-.111c1.013-.016,2.029.02,3.04-.031a3.889,3.889,0,0,0,3.67-4.841.7.7,0,0,1,.441-.957,3.794,3.794,0,0,0,1.924-4.314,4.21,4.21,0,0,0-3.585-3.165c-1.312-.1-1.312-.1-1.342-1.4a4.018,4.018,0,0,0-4.289-3.959c-4.562-.018-9.125,0-13.686,0Z" transform="translate(-4123.436 4668.247)" fill="#d84318"/>
          <path id="Trazado_245794" data-name="Trazado 245794" d="M4192.533-4486.859c.212-.727.819-.807,1.422-.817,1.342-.025,2.684,0,4.025-.016,1.108-.009,1.744-.518,1.73-1.359s-.643-1.338-1.765-1.339c-3.846-.005-7.692,0-11.539,0a8.135,8.135,0,0,1-1.249-.062,1.14,1.14,0,0,1-1.048-1.146,1.158,1.158,0,0,1,.939-1.324,4.655,4.655,0,0,1,1.063-.089q5.188-.01,10.375-.006a8.025,8.025,0,0,0,.981-.044,1.218,1.218,0,0,0,1.12-1.2,1.207,1.207,0,0,0-.933-1.346,4.017,4.017,0,0,0-1.058-.117q-6.485-.01-12.969,0c-1.342,0-1.848-.312-1.872-1.126-.027-.927.666-1.456,1.925-1.457q6.395,0,12.79-.006a3.938,3.938,0,0,0,1.145-.132,1.191,1.191,0,0,0,.863-1.305,1.194,1.194,0,0,0-1-1.2,4.658,4.658,0,0,0-.977-.076c-2.564-.005-5.128,0-7.692-.006a5.884,5.884,0,0,1-.977-.069,1.149,1.149,0,0,1-1.042-1.237,1.216,1.216,0,0,1,1.044-1.261,3.69,3.69,0,0,1,.89-.041q7.425,0,14.848,0c2.646,0,3.746-1.812,2.553-4.187-.347-.691-.728-1.368-1.033-2.076a2.63,2.63,0,0,1,.658-3.021c.5-.446.844-.532,1.2.208.859,1.8,1.837,3.538,2.688,5.34a6.028,6.028,0,0,0,6.127,3.744c1.165-.038,1.167,0,1.166,1.176q0,6.664-.006,13.327c0,.3-.029.593-.044.89a4.287,4.287,0,0,1-3.058,1.961,10.324,10.324,0,0,1-2.39.287q-8.8,0-17.6,0a4.838,4.838,0,0,1-.8-.044C4192.561-4486.126,4192.35-4486.371,4192.533-4486.859Z" transform="translate(-4144.773 4573.954)" fill="#eaba8f"/>
          <path id="Trazado_245795" data-name="Trazado 245795" d="M4127.662-4601.377c-.021-1.876-.051-3.752-.059-5.628-.012-2.833-.006-5.664-.007-8.5,0-1.246,0-1.251,1.211-1.245a7.513,7.513,0,0,0,2.473-.272,5.721,5.721,0,0,0,3.374-3.006c.98-1.937,2-3.859,2.945-5.811.322-.661.621-.667,1.125-.224a2.607,2.607,0,0,1,.672,3.165c-.341.758-.758,1.482-1.122,2.231a2.542,2.542,0,0,0,2.429,3.911c4.949.012,9.9,0,14.848,0,.239,0,.478-.012.715,0,.925.061,1.5.578,1.492,1.335s-.556,1.287-1.51,1.295c-2.713.022-5.426.007-8.14.009a6.976,6.976,0,0,0-.893.027,1.216,1.216,0,0,0-1.149,1.163,1.226,1.226,0,0,0,.943,1.421,3.407,3.407,0,0,0,.972.09q6.44.008,12.88,0a2.1,2.1,0,0,1,1.211.217,1.336,1.336,0,0,1,.682,1.437,1.085,1.085,0,0,1-1.149.92c-.654.033-1.311.033-1.966.033q-5.77,0-11.539,0c-.3,0-.6,0-.892.03a1.253,1.253,0,0,0-1.265,1.253,1.272,1.272,0,0,0,1.218,1.393,5.632,5.632,0,0,0,.89.044c3.578,0,7.156.008,10.733,0,.711,0,1.322.137,1.584.879.317.906-.351,1.694-1.47,1.7-2.981.018-5.963.007-8.944.01-1.252,0-2.507-.033-3.756.025a1.307,1.307,0,0,0-1.359,1.363,1.318,1.318,0,0,0,1.392,1.319c.267.021.537.01.805.01,1.132,0,2.267-.025,3.4.013.679.022,1.411.05,1.61.939-.026.539-.471.488-.787.489-6.529.029-13.061.1-19.59-.034A4.682,4.682,0,0,1,4127.662-4601.377Z" transform="translate(-4108.165 4650.397)" fill="#eaba8f"/>
          <path id="Trazado_245796" data-name="Trazado 245796" d="M4279.023-4603.619a1.774,1.774,0,0,1-.151-1.111q-.01-15.255-.01-30.511a6.7,6.7,0,0,0-.125-1.42,1.191,1.191,0,0,0-1.224-.976,1.227,1.227,0,0,0-1.284.907,3.959,3.959,0,0,0-.137,1.326q0,16.866,0,33.731c0,1.142,0,1.131-1.141.922a2.676,2.676,0,0,1-1.921-1.463c-.5-.914-.946-1.857-1.432-2.78a2.127,2.127,0,0,1-.172-1.043q0-22.86-.018-45.72c0-.8.217-1.039,1-.984a21.687,21.687,0,0,0,2.861,0c.7-.043.842.23.836.873-.03,3.041-.014,6.083-.014,9.126,0,.179,0,.357,0,.536.026,1.148.561,1.833,1.415,1.812.822-.021,1.34-.649,1.348-1.783.021-3.191.036-6.383-.011-9.573-.012-.8.209-1.055,1-.991a23.438,23.438,0,0,0,2.593.009c.639-.02.952.241.932.888-.005.179,0,.357,0,.537q0,22.724.019,45.45c0,.827-.16,1.188-1.057,1.131A5.187,5.187,0,0,0,4279.023-4603.619Z" transform="translate(-4205.374 4668.229)" fill="#d84318"/>
          <path id="Trazado_245797" data-name="Trazado 245797" d="M4313.824-4485.6c1.172-.384,1.389-.68,1.391-1.942,0-2.684.015-5.369-.01-8.053-.005-.558.109-.779.724-.76,1.49.048,2.982-.006,4.473.024,1.723.036,2.293.638,2.293,2.331q0,9.037,0,18.075c0,1.4-.544,2.069-1.928,2.127-1.7.071-3.4.012-5.1.039-.543.008-.449-.337-.45-.651,0-2.267.006-4.534,0-6.8,0-1.108-.32-1.477-1.4-1.727A2.687,2.687,0,0,1,4313.824-4485.6Z" transform="translate(-4233.8 4562.515)" fill="#fff59d"/>
          <path id="Trazado_245798" data-name="Trazado 245798" d="M4082.936-4586.9c-1.805,0-3.525.067-5.237-.022-1.27-.067-1.728-.7-1.728-2.007q0-9.075,0-18.151c0-1.663.584-2.26,2.294-2.346.119-.005.238,0,.358,0h4.188c.176.227-.026.343-.112.474a3.917,3.917,0,0,0,.233,5.091c1.227,1.525,1.227,1.525.028,3.009a3.965,3.965,0,0,0,.044,5.51c1.138,1.369,1.138,1.482,0,2.873a3.919,3.919,0,0,0-.261,5.23C4082.8-4587.146,4082.848-4587.049,4082.936-4586.9Z" transform="translate(-4073.27 4638.946)" fill="#1b3f5e"/>
          <path id="Trazado_245799" data-name="Trazado 245799" d="M4107.937-4598.058q0,4.647,0,9.294c0,1.07-.308,1.554-1.338,1.793s-2.023.348-2.826-.775c-1.045-1.462-1.952-1.669-.136-3.739a3.739,3.739,0,0,0,.023-4.856c-.16-.215-.339-.415-.51-.621-.794-.961-.818-1.39.023-2.322a4.187,4.187,0,0,0,1.09-4.426,5.874,5.874,0,0,0-1.182-1.772,1.344,1.344,0,0,1-.015-2.121c.264-.322.539-.637.811-.951a2.635,2.635,0,0,1,3.539-.328,1.509,1.509,0,0,1,.519,1.349c-.008,3.158,0,6.316,0,9.474Z" transform="translate(-4091.233 4638.938)" fill="#1b3f5e"/>
          <path id="Trazado_245800" data-name="Trazado 245800" d="M4303.787-4485.646q-.005,1.332-.01,2.663a1.473,1.473,0,0,0-1.311,1.707c.022,2.233-.019,4.467.022,6.7.012.639-.183.85-.8.771-.382-.048-.776,0-1.159-.043-1.431-.175-1.9-.715-1.9-2.151,0-6.076.042-12.151-.018-18.225-.015-1.548.847-2.036,2.034-2.139,1.822-.157,1.822-.148,1.822,1.671,0,2.382.028,4.765-.014,7.147C4302.441-4486.539,4302.769-4485.877,4303.787-4485.646Z" transform="translate(-4223.763 4562.566)" fill="#fff59d"/>
          <path id="Trazado_245801" data-name="Trazado 245801" d="M4193.606-4691.854a12.609,12.609,0,0,0-2.611,3.872,12.034,12.034,0,0,0-.766,5.168c.027.625-.162.811-.791.8-1.787-.041-3.575-.014-5.363-.015-.319,0-.625.082-.644-.454-.084-2.445.253-4.75,1.943-6.676C4187.532-4691.619,4190.237-4692.421,4193.606-4691.854Z" transform="translate(-4145.898 4694.78)" fill="#fefefe"/>
          <path id="Trazado_245802" data-name="Trazado 245802" d="M4231.863-4691.789c5.427-1.137,9.971,2.6,10.088,8.168.034,1.611.034,1.611-1.551,1.611-1.49,0-2.98-.035-4.468.017-.638.021-.8-.167-.772-.788a11.293,11.293,0,0,0-1.93-7.272C4232.824-4690.628,4232.36-4691.162,4231.863-4691.789Z" transform="translate(-4178.642 4694.756)" fill="#fefefe"/>
          <path id="Trazado_245803" data-name="Trazado 245803" d="M4216.08-4678.546c-.954,0-1.906,0-2.859,0-.278,0-.5.021-.525-.391a8.951,8.951,0,0,1,2.662-7.552c.536-.5.888-.521,1.446,0a9.041,9.041,0,0,1,2.691,7.464c-.018.427-.209.482-.555.478C4217.986-4678.554,4217.032-4678.546,4216.08-4678.546Z" transform="translate(-4165.667 4691.293)" fill="#fefefe"/>
          <path id="Trazado_245804" data-name="Trazado 245804" d="M4127.8-4549.252a7.841,7.841,0,0,0,5.432,1.81c5.957-.057,11.914-.018,17.871-.026.365,0,.786.154,1.081-.228.183,1.01-.259,1.62-1.256,1.661-.833.034-1.668.01-2.5.01q-7.912,0-15.826,0a4.879,4.879,0,0,1-4.7-2.807A1.705,1.705,0,0,1,4127.8-4549.252Z" transform="translate(-4108.303 4598.272)" fill="#eaba8f"/>
          <path id="Trazado_245805" data-name="Trazado 245805" d="M4214.817-4434.661c-.022.561.336.586.765.583,1.936-.011,3.87-.005,5.806-.005q6.116,0,12.234,0a7.459,7.459,0,0,0,5.543-1.966,4.756,4.756,0,0,1-4.754,3.2c-4.979.013-9.959,0-14.939,0-1.134,0-2.268.029-3.4-.012A1.257,1.257,0,0,1,4214.817-4434.661Z" transform="translate(-4167.058 4521.755)" fill="#eaba8f"/>
          <path id="Trazado_245806" data-name="Trazado 245806" d="M4325.93-4443.528a1.885,1.885,0,0,1,1.87,1.783,1.879,1.879,0,0,1-1.846,1.893,1.873,1.873,0,0,1-1.821-1.827A1.88,1.88,0,0,1,4325.93-4443.528Z" transform="translate(-4241.009 4526.81)" fill="#000001"/>
        </g>
      </g>
      <path id="Trazado_250660" data-name="Trazado 250660" d="M475.614-284.916l20.131-13.743a3.334,3.334,0,0,0,.691-5.85L476.3-318.419a3.334,3.334,0,0,0-5.227,2.717v27.65A3.336,3.336,0,0,0,475.614-284.916Z" transform="translate(794.944 2527.143)" fill="#1b3f5e"/>
    </g>
  </g>
</svg>
