<svg xmlns="http://www.w3.org/2000/svg" width="573.288" height="452.982" viewBox="0 0 573.288 452.982">
  <g id="Grupo_163232" data-name="Grupo 163232" transform="translate(9040 7171.982)">
    <g id="Grupo_145297" data-name="Grupo 145297" transform="translate(-9850 -8858)">
      <g id="Grupo_145278" data-name="Grupo 145278" transform="translate(901.925 1723)">
        <path id="Trazado_230837" data-name="Trazado 230837" d="M1034.387-471.406a202.753,202.753,0,0,1,143.819-59.572,202.74,202.74,0,0,1,143.814,59.572" transform="translate(-974.817 530.978)" fill="none" stroke="#d84318" stroke-miterlimit="10" stroke-width="16.683"/>
        <path id="Trazado_230838" data-name="Trazado 230838" d="M1151.377-506.748a202.749,202.749,0,0,1,59.569,143.816" transform="translate(-804.175 566.321)" fill="none" stroke="#d84318" stroke-miterlimit="10" stroke-width="16.683"/>
        <path id="Trazado_230839" data-name="Trazado 230839" d="M1296.266-448.253c0,56.164-35.647,193.893-203.383,203.388" transform="translate(-889.494 651.642)" fill="none" stroke="#d84318" stroke-miterlimit="10" stroke-width="16.683"/>
        <path id="Trazado_230840" data-name="Trazado 230840" d="M1213.546-244.865c-169.708-5.807-203.388-147.224-203.388-203.388" transform="translate(-1010.158 651.642)" fill="none" stroke="#d84318" stroke-miterlimit="10" stroke-width="16.683"/>
        <path id="Trazado_230841" data-name="Trazado 230841" d="M1010.158-362.932a202.751,202.751,0,0,1,59.569-143.816" transform="translate(-1010.158 566.321)" fill="none" stroke="#d84318" stroke-miterlimit="10" stroke-width="16.683"/>
      </g>
      <g id="Grupo_145279" data-name="Grupo 145279" transform="translate(810 1775.7)">
        <g id="Grupo_145262" data-name="Grupo 145262" transform="translate(0 0)">
          <rect id="Rectángulo_42872" data-name="Rectángulo 42872" width="223.337" height="72.575" rx="6" transform="translate(0 0)" fill="#1b3f5e"/>
          <text id="Respuesta_Reacción_del_receptor_al_recibir_el_mensaje" data-name="Respuesta
Reacción del receptor
al recibir el mensaje" transform="translate(104.784 22.896)" fill="#fff" font-size="14" font-family="Roboto-Bold, Roboto" font-weight="700"><tspan x="-33.209" y="0">Respuesta</tspan><tspan font-family="Roboto-Regular, Roboto" font-weight="400"><tspan x="-67.484" y="17">Reacción del receptor</tspan><tspan x="-62.05" y="34">al recibir el mensaje</tspan></tspan></text>
        </g>
      </g>
      <g id="Grupo_145280" data-name="Grupo 145280" transform="translate(1159.951 1775.7)">
        <g id="Grupo_145263" data-name="Grupo 145263" transform="translate(0 0)">
          <rect id="Rectángulo_42872-2" data-name="Rectángulo 42872" width="223.337" height="72.575" rx="6" transform="translate(0 0)" fill="#1b3f5e"/>
          <text id="Emisor_Persona_que_formula_el_mensaje" data-name="Emisor
Persona que formula
el mensaje" transform="translate(105.483 22.896)" fill="#fff" font-size="14" font-family="Roboto-Bold, Roboto" font-weight="700"><tspan x="-21.964" y="0">Emisor</tspan><tspan font-family="Roboto-Regular, Roboto" font-weight="400"><tspan x="-65.068" y="17">Persona que formula</tspan><tspan x="-33.643" y="34">el mensaje</tspan></tspan></text>
        </g>
      </g>
      <g id="Grupo_145281" data-name="Grupo 145281" transform="translate(810 1926.389)">
        <g id="Grupo_145266" data-name="Grupo 145266" transform="translate(0 0)">
          <rect id="Rectángulo_42872-3" data-name="Rectángulo 42872" width="223.337" height="72.575" rx="6" transform="translate(0 0)" fill="#1b3f5e"/>
          <text id="Receptor_Público_al_que_llega_el_mensaje" data-name="Receptor
Público al que llega
el mensaje" transform="translate(105.88 22.896)" fill="#fff" font-size="14" font-family="Roboto-Bold, Roboto" font-weight="700"><tspan x="-28.4" y="0">Receptor</tspan><tspan font-family="Roboto-Regular, Roboto" font-weight="400"><tspan x="-60.348" y="17">Público al que llega</tspan><tspan x="-33.643" y="34">el mensaje</tspan></tspan></text>
        </g>
      </g>
      <g id="Grupo_145282" data-name="Grupo 145282" transform="translate(1159.951 1926.389)">
        <g id="Grupo_145267" data-name="Grupo 145267" transform="translate(0 0)">
          <rect id="Rectángulo_42872-4" data-name="Rectángulo 42872" width="223.337" height="72.575" rx="6" transform="translate(0 0)" fill="#1b3f5e"/>
          <text id="Mensaje_Información_que_transmite_el_emisor" data-name="Mensaje
Información que
transmite el emisor" transform="translate(105.88 22.896)" fill="#fff" font-size="14" font-family="Roboto-Bold, Roboto" font-weight="700"><tspan x="-26.79" y="0">Mensaje</tspan><tspan font-family="Roboto-Regular, Roboto" font-weight="400"><tspan x="-50.996" y="17">Información que</tspan><tspan x="-60.013" y="34">transmite el emisor</tspan></tspan></text>
        </g>
      </g>
      <g id="Grupo_145283" data-name="Grupo 145283" transform="translate(993.642 2065.078)">
        <g id="Grupo_145260" data-name="Grupo 145260" transform="translate(0 0)">
          <rect id="Rectángulo_42872-5" data-name="Rectángulo 42872" width="223.337" height="72.575" rx="6" transform="translate(0 0)" fill="#1b3f5e"/>
          <text id="Medio_Instrumento_físico_o_digital_que_transporta_el_mensaje" data-name="Medio
Instrumento físico o digital
que transporta el mensaje" transform="translate(103.691 22.896)" fill="#fff" font-size="14" font-family="Roboto-Bold, Roboto" font-weight="700"><tspan x="-19.674" y="0">Medio</tspan><tspan font-family="Roboto-Regular, Roboto" font-weight="400"><tspan x="-83.187" y="17">Instrumento físico o digital</tspan><tspan x="-81.006" y="34">que transporta el mensaje</tspan></tspan></text>
        </g>
      </g>
      <g id="Grupo_145285" data-name="Grupo 145285" transform="translate(618.533 2161.359)">
        <path id="Trazado_230842" data-name="Trazado 230842" d="M489.415-385.734l2.838-14.1a2.2,2.2,0,0,0-3.011-2.464l-14.9,6.263a2.2,2.2,0,0,0-.346,3.877l12.061,7.838A2.2,2.2,0,0,0,489.415-385.734Z" transform="translate(231.871 120.986)" fill="#1b3f5e"/>
        <path id="Trazado_230843" data-name="Trazado 230843" d="M473.88-300.372l13.412-5.2a2.2,2.2,0,0,0,.456-3.864l-13.3-9.187A2.2,2.2,0,0,0,471-316.826l-.116,14.383A2.2,2.2,0,0,0,473.88-300.372Z" transform="translate(192.82 214.749)" fill="#1b3f5e"/>
        <path id="Trazado_230844" data-name="Trazado 230844" d="M282.522-401.725l-13.412,5.2a2.2,2.2,0,0,0-.456,3.864l13.3,9.185a2.2,2.2,0,0,0,3.452-1.795l.116-14.383A2.2,2.2,0,0,0,282.522-401.725Z" transform="translate(-18 120.384)" fill="#526baa"/>
        <path id="Trazado_230845" data-name="Trazado 230845" d="M276.588-316.63l-2.836,14.1a2.2,2.2,0,0,0,3.011,2.462l14.9-6.263a2.2,2.2,0,0,0,.346-3.874l-12.061-7.84A2.2,2.2,0,0,0,276.588-316.63Z" transform="translate(17.672 214.134)" fill="#1b3f5e"/>
        <path id="Trazado_230847" data-name="Trazado 230847" d="M387.821-463.233l-11.9,8.078a2.2,2.2,0,0,1-3.437-1.82v-16.161a2.2,2.2,0,0,1,3.437-1.822l11.9,8.081A2.2,2.2,0,0,1,387.821-463.233Z" transform="translate(116.453 0)" fill="#1b3f5e"/>
      </g>
    </g>
    <g id="Grupo_163192" data-name="Grupo 163192" transform="translate(-8467 -7140) rotate(180)">
      <path id="Trazado_114972" data-name="Trazado 114972" d="M9.487,0H0L7.19,15.281,0,30.562H9.487l7.19-15.281Z" fill="#d84318"/>
      <path id="Trazado_114973" data-name="Trazado 114973" d="M9.487,0H0L7.19,15.281,0,30.562H9.487l7.19-15.281Z" transform="translate(16.677 0)" fill="#d84318"/>
      <path id="Trazado_114974" data-name="Trazado 114974" d="M9.487,0H0L7.19,15.281,0,30.562H9.487l7.19-15.281Z" transform="translate(33.354 0)" fill="#d84318"/>
      <path id="Trazado_114975" data-name="Trazado 114975" d="M9.487,0H0L7.19,15.281,0,30.562H9.487l7.19-15.281Z" transform="translate(50.031 0)" fill="#d84318"/>
      <path id="Trazado_114976" data-name="Trazado 114976" d="M9.487,0H0L7.19,15.281,0,30.562H9.487l7.19-15.281Z" transform="translate(66.708 0)" fill="#d84318"/>
      <path id="Trazado_114977" data-name="Trazado 114977" d="M9.487,0H0L7.19,15.281,0,30.562H9.487l7.19-15.281Z" transform="translate(83.385 0)" fill="#d84318"/>
      <path id="Trazado_114978" data-name="Trazado 114978" d="M9.487,0H0L7.19,15.281,0,30.562H9.487l7.19-15.281Z" transform="translate(100.062 0)" fill="#d84318"/>
      <path id="Trazado_114979" data-name="Trazado 114979" d="M9.487,0H0L7.19,15.281,0,30.562H9.487l7.19-15.281Z" transform="translate(116.739 0)" fill="#d84318"/>
    </g>
    <g id="Grupo_163193" data-name="Grupo 163193" transform="translate(-9040 -6749.563)">
      <path id="Trazado_114972-2" data-name="Trazado 114972" d="M729.852,386.057h-9.487l7.19,15.281-7.19,15.281h9.487l7.19-15.281Z" transform="translate(-720.365 -386.057)" fill="#d84318"/>
      <path id="Trazado_114973-2" data-name="Trazado 114973" d="M746.138,386.057H736.65l7.19,15.281-7.19,15.281h9.487l7.19-15.281Z" transform="translate(-719.973 -386.057)" fill="#d84318"/>
      <path id="Trazado_114974-2" data-name="Trazado 114974" d="M762.422,386.057h-9.487l7.19,15.281-7.19,15.281h9.487l7.19-15.281Z" transform="translate(-719.581 -386.057)" fill="#d84318"/>
      <path id="Trazado_114975-2" data-name="Trazado 114975" d="M778.708,386.057h-9.487l7.19,15.281-7.19,15.281h9.487l7.19-15.281Z" transform="translate(-719.19 -386.057)" fill="#d84318"/>
      <path id="Trazado_114976-2" data-name="Trazado 114976" d="M794.993,386.057h-9.487l7.19,15.281-7.19,15.281h9.487l7.19-15.281Z" transform="translate(-718.798 -386.057)" fill="#d84318"/>
      <path id="Trazado_114977-2" data-name="Trazado 114977" d="M811.278,386.057h-9.487l7.19,15.281-7.19,15.281h9.487l7.19-15.281Z" transform="translate(-718.406 -386.057)" fill="#d84318"/>
      <path id="Trazado_114978-2" data-name="Trazado 114978" d="M827.563,386.057h-9.487l7.19,15.281-7.19,15.281h9.487l7.19-15.281Z" transform="translate(-718.014 -386.057)" fill="#d84318"/>
      <path id="Trazado_114979-2" data-name="Trazado 114979" d="M843.849,386.057h-9.487l7.19,15.281-7.19,15.281h9.487l7.19-15.281Z" transform="translate(-717.622 -386.057)" fill="#d84318"/>
    </g>
  </g>
</svg>
