<svg xmlns="http://www.w3.org/2000/svg" width="34.561" height="43.379" viewBox="0 0 34.561 43.379">
  <g id="Grupo_163292" data-name="Grupo 163292" transform="translate(8963.322 8409.5)">
    <g id="Grupo_163197" data-name="Grupo 163197" transform="translate(-8963.322 -8409.5)">
      <path id="Trazado_189201" data-name="Trazado 189201" d="M391.775,301.453a2,2,0,0,1-1.305-1.363,3.039,3.039,0,0,1-.049-.715q0-12.553.007-25.107c0-.358-.065-.464-.448-.463a2.333,2.333,0,0,1-2.468-2.468q-.015-3.048,0-6.1a2.326,2.326,0,0,1,2.515-2.5c.351,0,.409-.112.4-.423-.021-.691-.007-1.383-.007-2.074a1.889,1.889,0,0,1,1.44-2.173h20.669a8.15,8.15,0,0,1,3.1.722,10.567,10.567,0,0,1,6.33,8.129,7.45,7.45,0,0,1,.1,1.349q0,10.248,0,20.5c0,.2,0,.4-.006.593a.715.715,0,0,1-.559.75.779.779,0,0,1-.941-.776,4.862,4.862,0,0,1-.021-.676c0-6.519-.022-13.039.015-19.558a3.6,3.6,0,0,0-3.263-3.53c-.282.008-.564,0-.846,0a1.921,1.921,0,0,1-1.927-1.983,4.581,4.581,0,0,0-.3-1.912,3.563,3.563,0,0,0-3.331-2.2c-1.566-.013-3.132,0-4.7,0h-13.5c-.756,0-.858.1-.863.851,0,.522,0,1.044,0,1.566,0,.712,0,.713.7.714,2.4,0,4.8,0,7.195,0a2.447,2.447,0,0,1,2.193,1.205,2.155,2.155,0,0,1,.334,1.165c0,1.044.013,2.089,0,3.132a2.379,2.379,0,0,1-2.258,2.364c-.816.048-1.636.031-2.454,0-.541-.018-.775-.258-.851-.8a.81.81,0,0,1,.9-.711c.648-.021,1.3,0,1.946-.009.884-.011,1.187-.319,1.19-1.209,0-.818,0-1.636,0-2.454s-.339-1.154-1.165-1.156c-2.764-.007-5.528,0-8.292,0-.423,0-.846-.012-1.269.006a.957.957,0,0,0-1.038,1.067c-.008,1.171,0,2.341-.006,3.512,0,.3.083.42.395.321a3.14,3.14,0,0,1,.966-.082c1.311,0,2.623-.01,3.935.006.6.007.827.2.951.75a.8.8,0,0,1-.883.773c-.648.026-1.3,0-1.947.011-.472.007-.509.046-.523.5,0,.155,0,.31,0,.466q0,13.653,0,27.306a2.513,2.513,0,0,1-.007.3c0,.042-.006.084,0,.127.033.754.124.849.879.849q13.505,0,27.01,0c.747,0,.817-.073.818-.833q0-3.07,0-6.14a3.706,3.706,0,0,1,.027-.634.85.85,0,0,1,.746-.8c.555.092.753.286.756.827.013,2.453.02,4.905,0,7.358a1.644,1.644,0,0,1-1.475,1.63Z" transform="translate(-387.505 -258.074)"/>
      <path id="Trazado_189202" data-name="Trazado 189202" d="M429.53,279.65c.113.53.274.671.8.673.748,0,1.5.009,2.244,0a2.3,2.3,0,0,0,2.329-2.253c.036-1.043.037-2.09,0-3.133a2.3,2.3,0,0,0-2.344-2.24q-3.853-.015-7.705,0c-.307,0-.407-.057-.4-.385.028-.789.006-1.581.01-2.371,0-.468.17-.639.636-.639,6.224,0,12.447-.011,18.671.006a3.55,3.55,0,0,1,3.581,3.71c-.042,1.574.78,2.557,2.442,2.378a1.388,1.388,0,0,1,.252.018.57.57,0,0,1,.534.459,5.2,5.2,0,0,1,.274,1.491c0,1.833,0,3.665,0,5.5,0,.227.061.492-.212.636-1.632-.166-3.269-.073-4.9-.077q-8.595-.019-17.189,0c-.184,0-.367-.006-.55.006a1.3,1.3,0,0,0-1.256,1.16,4.122,4.122,0,0,0-.022.592q0,10.481,0,20.961a2.145,2.145,0,0,0,.074.8,1.385,1.385,0,0,0,1.155.935,4.522,4.522,0,0,0,.634.016q8.468,0,16.935,0a1.319,1.319,0,0,1,.783.107c.059.234-.139.289-.276.352a8.775,8.775,0,0,1-3,.825c-1.69.139-3.383.08-5.076.083q-6.35.011-12.7,0c-.267,0-.578.092-.768-.214,0-.141-.013-.281-.013-.422q0-13.9-.011-27.805c0-.411.1-.521.5-.5.7.038,1.41.013,2.115.01.521,0,.683-.143.8-.673A2.134,2.134,0,0,1,429.53,279.65Z" transform="translate(-420.276 -268.032)" fill="#f8f5f8"/>
      <path id="Trazado_189203" data-name="Trazado 189203" d="M424.555,357.055a.791.791,0,0,0,.491.084c5.618,0,11.236.017,16.854-.011a8.68,8.68,0,0,0,4.495-1.076c.164-.184.388-.144.594-.146.9-.007,1.806,0,2.709,0a1.368,1.368,0,0,0,1.56-1.557q0-10.691,0-21.382a1.569,1.569,0,0,0-.433-1.237.252.252,0,0,1-.1-.261c.124-.132.071-.3.071-.444,0-1.8-.007-3.609.008-5.413a6.051,6.051,0,0,0-.273-1.7.6.6,0,0,0-.409-.478,3.636,3.636,0,0,1,3.391,3.244c.021.267.024.535.024.8q0,9.818,0,19.635c0,.7.177.885.817.89a.418.418,0,0,0-.173.393c.011.431,0,.862,0,1.293-.54.175-.646.313-.647.882q0,3.408,0,6.815c0,.647-.121.767-.762.767H425.606C424.549,358.156,424.5,358.107,424.555,357.055Z" transform="translate(-420.356 -316.047)" fill="#eeebee"/>
      <path id="Trazado_189204" data-name="Trazado 189204" d="M406.725,316.243h-1.666a.735.735,0,0,0-.837-.6c-1.425.011-2.85.007-4.275,0a3.135,3.135,0,0,0-1.147.232.712.712,0,0,1-.051-.425c0-1.228-.008-2.455,0-3.683a1.083,1.083,0,0,1,1.2-1.211q4.846-.005,9.692,0a1.079,1.079,0,0,1,1.2,1.171q.02,1.376,0,2.751a1.072,1.072,0,0,1-1.2,1.165c-.691,0-1.383.012-2.074,0A.73.73,0,0,0,406.725,316.243Z" transform="translate(-397.472 -304.625)" fill="#f1bdae"/>
      <path id="Trazado_189205" data-name="Trazado 189205" d="M635.088,280.9a5.216,5.216,0,0,0-3.407-1c-.565.021-.719-.146-.707-.737a5.2,5.2,0,0,0-.981-3.348C631.592,275.98,634.48,278.831,635.088,280.9Z" transform="translate(-602.595 -273.81)" fill="#e1dee1"/>
      <path id="Trazado_189206" data-name="Trazado 189206" d="M400.488,367.706a4.774,4.774,0,0,0,.005.633c.052.386-.087.509-.477.48a1.108,1.108,0,0,1-1.15-1.256,1.2,1.2,0,0,1,1.464-.937c.167.032.157.124.158.236C400.489,367.143,400.488,367.424,400.488,367.706Z" transform="translate(-397.574 -354.338)" fill="#f1bdae"/>
      <path id="Trazado_189207" data-name="Trazado 189207" d="M467.354,392.974a1.746,1.746,0,0,1,.7,1.539q-.016,10.647-.007,21.294a1.515,1.515,0,0,1-1.727,1.74q-1.65,0-3.3.014c-.155,0-.31-.014-.465-.014H445.024a1.522,1.522,0,0,1-1.738-1.735q0-10.653,0-21.306a1.512,1.512,0,0,1,1.741-1.726q10.651,0,21.3,0A2.246,2.246,0,0,1,467.354,392.974Z" transform="translate(-436.983 -377.557)"/>
      <path id="Trazado_189208" data-name="Trazado 189208" d="M549.506,407.53a.681.681,0,0,0-.789-.595c-.254.024-.3-.09-.3-.317.011-.761.013-1.523,0-2.285,0-.246.084-.311.318-.31q2.284.012,4.569,0c.219,0,.295.064.292.288-.011.776-.014,1.552,0,2.327.005.255-.1.3-.322.3-.437-.014-.874.005-1.311-.007a.688.688,0,0,0-.785.6.384.384,0,0,1-.132.085A3.433,3.433,0,0,1,549.506,407.53Z" transform="translate(-530.234 -387.533)" fill="#d84318"/>
      <path id="Trazado_189209" data-name="Trazado 189209" d="M494,406.925c-.747,0-1.493-.008-2.24,0-.237,0-.358-.03-.35-.315.019-.76.015-1.522,0-2.282,0-.238.07-.318.311-.316q2.282.013,4.565,0c.252,0,.3.093.3.321-.011.761-.012,1.522,0,2.283,0,.237-.065.316-.307.311C495.52,406.916,494.759,406.925,494,406.925Z" transform="translate(-479.668 -387.526)" fill="#d84318"/>
      <path id="Trazado_189210" data-name="Trazado 189210" d="M607.979,406.921c-.747,0-1.494-.009-2.24.005-.252,0-.344-.06-.338-.327.017-.747.014-1.494,0-2.24,0-.244.05-.35.324-.348,1.493.012,2.987.01,4.481,0,.272,0,.376.1.373.371-.01.747-.013,1.494,0,2.241.005.251-.09.3-.319.3C609.5,406.913,608.74,406.921,607.979,406.921Z" transform="translate(-580.781 -387.521)" fill="#d84318"/>
      <path id="Trazado_189211" data-name="Trazado 189211" d="M551.109,435.054l.074,0c.1.518.279.668.8.673.451,0,.9.009,1.354,0,.2-.005.271.05.268.258-.011.691-.01,1.382,0,2.073,0,.2-.068.269-.269.269q-2.306-.009-4.612,0c-.215,0-.3-.061-.3-.288q.018-1.015,0-2.031c0-.228.074-.3.291-.28a.694.694,0,0,0,.8-.588,6.92,6.92,0,0,1,1.15-.042A1.042,1.042,0,0,0,551.109,435.054Z" transform="translate(-530.24 -415.055)" fill="#f1bdae"/>
      <path id="Trazado_189212" data-name="Trazado 189212" d="M494,509.329c.761,0,1.522.008,2.282-.005.239,0,.317.067.312.309-.014.662-.012,1.325,0,1.987,0,.225-.044.323-.3.321q-2.282-.017-4.564,0c-.238,0-.319-.065-.314-.309.014-.662.018-1.325,0-1.986-.008-.277.1-.324.346-.32C492.508,509.337,493.255,509.329,494,509.329Z" transform="translate(-479.675 -480.935)" fill="#f1bdae"/>
      <path id="Trazado_189213" data-name="Trazado 189213" d="M551.018,577.72c.746,0,1.493.008,2.239,0,.243,0,.354.046.347.322-.018.661-.01,1.324,0,1.986,0,.193-.013.3-.265.3-1.549-.013-3.1-.01-4.646,0-.2,0-.267-.065-.264-.266.01-.676.013-1.352,0-2.028,0-.24.074-.317.313-.314C549.5,577.728,550.257,577.72,551.018,577.72Z" transform="translate(-530.241 -541.599)" fill="#f1bdae"/>
      <path id="Trazado_189214" data-name="Trazado 189214" d="M493.972,580.318c-.732,0-1.465-.016-2.2.007-.305.009-.378-.091-.368-.38.021-.633.019-1.268,0-1.9-.008-.267.088-.332.34-.33q2.26.015,4.52,0c.231,0,.325.055.32.3q-.022,1.013,0,2.028c.005.235-.084.278-.294.275C495.521,580.312,494.747,580.318,493.972,580.318Z" transform="translate(-479.668 -541.599)" fill="#f1bdae"/>
      <path id="Trazado_189215" data-name="Trazado 189215" d="M494.016,443.566c-.748,0-1.5-.009-2.243.005-.265.005-.376-.055-.366-.349.022-.648.017-1.3,0-1.947-.006-.243.073-.309.311-.307q2.286.015,4.571,0c.2,0,.3.034.3.273q-.023,1.016,0,2.032c.006.262-.109.3-.329.3C495.512,443.56,494.764,443.566,494.016,443.566Z" transform="translate(-479.667 -420.303)" fill="#f1bdae"/>
      <path id="Trazado_189216" data-name="Trazado 189216" d="M607.977,443.565c-.748,0-1.5-.007-2.243,0-.234,0-.324-.064-.318-.31.015-.663.011-1.326,0-1.989,0-.2.029-.305.271-.3q2.328.015,4.655,0c.221,0,.251.092.249.277-.008.663-.014,1.326,0,1.989.006.259-.07.343-.333.337C609.5,443.555,608.739,443.565,607.977,443.565Z" transform="translate(-580.795 -420.302)" fill="#f1bdae"/>
      <path id="Trazado_189217" data-name="Trazado 189217" d="M607.977,511.939c-.746,0-1.493-.008-2.239,0-.23,0-.326-.054-.32-.3.014-.676.013-1.352,0-2.028,0-.228.083-.283.3-.282q2.282.011,4.563,0c.232,0,.324.054.318.3-.015.676-.013,1.352,0,2.028,0,.227-.079.286-.295.283C609.526,511.932,608.751,511.939,607.977,511.939Z" transform="translate(-580.795 -480.94)" fill="#f1bdae"/>
      <path id="Trazado_189218" data-name="Trazado 189218" d="M551.029,509.338c.747,0,1.493.006,2.24,0,.218,0,.335.03.328.292-.016.676-.012,1.352,0,2.028,0,.213-.055.295-.283.293q-2.3-.013-4.606,0c-.225,0-.291-.075-.287-.292.011-.676.015-1.353,0-2.028-.006-.264.112-.3.33-.293C549.508,509.343,550.268,509.338,551.029,509.338Z" transform="translate(-530.236 -480.944)" fill="#f1bdae"/>
      <path id="Trazado_189219" data-name="Trazado 189219" d="M607.984,546.215c-.747,0-1.493-.01-2.24.005-.261.005-.339-.079-.333-.337.016-.648.015-1.3,0-1.944-.006-.241.071-.311.31-.31q2.282.015,4.564,0c.243,0,.31.074.3.31-.015.634-.02,1.268,0,1.9.01.289-.064.39-.369.381C609.478,546.2,608.731,546.215,607.984,546.215Z" transform="translate(-580.791 -511.365)" fill="#f1bdae"/>
      <path id="Trazado_189220" data-name="Trazado 189220" d="M551.018,543.641c.761,0,1.522.007,2.282,0,.213,0,.3.046.293.278q-.022,1.014,0,2.029c0,.229-.08.282-.294.281q-2.282-.011-4.564,0c-.228,0-.327-.052-.321-.3.016-.662.017-1.325,0-1.987-.007-.258.1-.3.323-.3C549.5,543.648,550.258,543.641,551.018,543.641Z" transform="translate(-530.233 -511.372)" fill="#f1bdae"/>
      <path id="Trazado_189221" data-name="Trazado 189221" d="M493.994,546.218c-.747,0-1.493-.009-2.24.005-.25,0-.35-.055-.342-.327.019-.648.02-1.3,0-1.944-.009-.28.1-.32.345-.319q2.261.014,4.522,0c.231,0,.32.051.314.3q-.025.993,0,1.987c.006.25-.085.306-.316.3C495.516,546.211,494.755,546.218,493.994,546.218Z" transform="translate(-479.67 -511.368)" fill="#f1bdae"/>
      <path id="Trazado_189222" data-name="Trazado 189222" d="M494.023,477.769c-.761,0-1.523-.007-2.284,0-.231,0-.324-.051-.318-.3.017-.662.016-1.326,0-1.988-.006-.251.094-.306.322-.305q2.284.011,4.568,0c.222,0,.292.068.288.289-.012.677-.014,1.354,0,2.031.005.233-.084.28-.294.277C495.546,477.763,494.785,477.769,494.023,477.769Z" transform="translate(-479.68 -450.647)" fill="#f1bdae"/>
      <path id="Trazado_189223" data-name="Trazado 189223" d="M551.015,477.767c-.761,0-1.523-.009-2.284.005-.241,0-.315-.071-.31-.311.014-.662.011-1.326,0-1.988,0-.215.06-.3.286-.3q2.305.011,4.61,0c.231,0,.284.084.28.3-.011.663-.02,1.326,0,1.988.01.287-.11.317-.346.313C552.509,477.759,551.762,477.767,551.015,477.767Z" transform="translate(-530.239 -450.644)" fill="#f1bdae"/>
      <path id="Trazado_189224" data-name="Trazado 189224" d="M607.99,477.773c-.747,0-1.495-.008-2.242,0-.238,0-.359-.03-.349-.315.021-.662.014-1.325,0-1.988,0-.219.069-.295.291-.294q2.305.011,4.61,0c.19,0,.279.044.276.257-.011.691-.014,1.382,0,2.073.006.249-.111.267-.306.265C609.512,477.769,608.751,477.773,607.99,477.773Z" transform="translate(-580.779 -450.65)" fill="#f1bdae"/>
      <path id="Trazado_189225" data-name="Trazado 189225" d="M608.579,580.393c-.971,0-1.942.01-2.913.012-.115,0-.283.048-.276-.155a18.191,18.191,0,0,1,.055-2.386,6.989,6.989,0,0,1,1.3-.036c1.111-.009,2.223,0,3.335-.006.248,0,.426.068.286.332A5.141,5.141,0,0,1,608.579,580.393Z" transform="translate(-580.759 -541.688)" fill="#f1bdae"/>
      <path id="Trazado_189226" data-name="Trazado 189226" d="M457.418,405.511c0,.394-.006.789,0,1.183,0,.178-.056.248-.242.247q-1.225-.011-2.45,0c-.17,0-.215-.069-.214-.226q.007-1.183,0-2.366c0-.246.126-.315.344-.315.76,0,1.521.008,2.281,0,.229,0,.289.086.282.3C457.41,404.722,457.419,405.116,457.418,405.511Z" transform="translate(-446.943 -387.539)" fill="#d84318"/>
      <path id="Trazado_189227" data-name="Trazado 189227" d="M455.958,509.339c.38,0,.761.008,1.141,0,.2-.006.312.03.307.271-.013.69-.01,1.38,0,2.07,0,.2-.058.273-.265.271q-1.2-.014-2.408,0c-.192,0-.237-.077-.236-.25.006-.7.01-1.409,0-2.113,0-.22.1-.253.28-.249C455.169,509.345,455.563,509.339,455.958,509.339Z" transform="translate(-446.925 -480.945)" fill="#d84318"/>
      <path id="Trazado_189228" data-name="Trazado 189228" d="M455.957,440.967c.366,0,.732.012,1.1,0,.239-.011.354.032.344.315-.022.66-.012,1.322,0,1.983,0,.2-.039.309-.276.306-.787-.011-1.575-.009-2.363,0-.193,0-.275-.049-.272-.26.011-.689.014-1.379,0-2.068-.005-.234.083-.282.293-.275C455.169,440.977,455.563,440.967,455.957,440.967Z" transform="translate(-446.914 -420.297)" fill="#d84318"/>
      <path id="Trazado_189229" data-name="Trazado 189229" d="M455.913,577.7c.381,0,.763.01,1.143,0,.228-.008.331.048.325.3-.015.677-.011,1.355,0,2.033,0,.194-.044.276-.257.272q-1.143-.017-2.287,0c-.28,0-.37-.117-.366-.383.011-.635.018-1.271,0-1.906-.009-.281.1-.33.346-.319C455.179,577.715,455.546,577.7,455.913,577.7Z" transform="translate(-446.9 -541.584)" fill="#d84318"/>
      <path id="Trazado_189230" data-name="Trazado 189230" d="M455.929,543.641c.38,0,.761.01,1.14,0,.222-.008.33.035.324.294-.017.661-.015,1.324,0,1.986.005.245-.08.311-.315.307q-1.14-.018-2.281,0c-.228,0-.324-.045-.318-.3.017-.676.013-1.352,0-2.028,0-.206.067-.267.266-.26C455.14,543.65,455.535,543.641,455.929,543.641Z" transform="translate(-446.911 -511.371)" fill="#d84318"/>
      <path id="Trazado_189231" data-name="Trazado 189231" d="M455.912,477.773c-.381,0-.762-.013-1.142,0-.229.01-.285-.073-.281-.29q.019-.994,0-1.988c0-.227.047-.323.3-.319.775.015,1.551.013,2.326,0,.226,0,.29.077.286.294-.011.663-.013,1.326,0,1.988,0,.234-.06.324-.305.313C456.7,477.76,456.307,477.773,455.912,477.773Z" transform="translate(-446.921 -450.651)" fill="#d84318"/>
      <path id="Trazado_189232" data-name="Trazado 189232" d="M609.118,580.235a9.713,9.713,0,0,0,1.629-2.137c.177-.32.118-.4-.241-.393-1.507.012-3.015,0-4.522,0,.089-.106.21-.058.315-.058,1.462,0,2.925.009,4.387-.01.346,0,.427.112.414.433-.023.59-.018,1.181,0,1.772.008.312-.109.426-.421.413C610.158,580.231,609.638,580.239,609.118,580.235Z" transform="translate(-581.299 -541.528)" fill="#d84318"/>
      <path id="Trazado_189233" data-name="Trazado 189233" d="M559.67,435.06a6.561,6.561,0,0,1-1.6.08v-.082Z" transform="translate(-538.801 -415.06)" fill="#afefc6"/>
    </g>
  </g>
</svg>
