<svg xmlns="http://www.w3.org/2000/svg" width="285.595" height="110.29" viewBox="0 0 285.595 110.29">
  <g id="Grupo_163245" data-name="Grupo 163245" transform="translate(-1131.405 -5639)">
    <g id="Grupo_163162" data-name="Grupo 163162" transform="translate(0 15.16)">
      <g id="Grupo_163160" data-name="Grupo 163160" transform="translate(961 5202.84)">
        <g id="Grupo_141764" data-name="Grupo 141764" transform="translate(180 407)">
          <g id="Grupo_129487" data-name="Grupo 129487" transform="translate(0 0)" opacity="0.2">
            <g id="Grupo_129451" data-name="Grupo 129451" transform="translate(276 74.228) rotate(180)">
              <path id="Trazado_114977" data-name="Trazado 114977" d="M18.7,0H0L14.169,30.114,0,60.228H18.7L32.865,30.114Z" transform="translate(0 0)" fill="#d84318"/>
              <path id="Trazado_114978" data-name="Trazado 114978" d="M18.7,0H0L14.169,30.114,0,60.228H18.7L32.865,30.114Z" transform="translate(32.865 0)" fill="#d84318"/>
              <path id="Trazado_114979" data-name="Trazado 114979" d="M18.7,0H0L14.169,30.114,0,60.228H18.7L32.865,30.114Z" transform="translate(65.73 0)" fill="#d84318"/>
            </g>
            <g id="Grupo_129486" data-name="Grupo 129486" transform="translate(-9.595 64.062)">
              <path id="Trazado_114977-2" data-name="Trazado 114977" d="M18.7,0H0L14.169,30.114,0,60.228H18.7L32.865,30.114Z" transform="translate(0 0)" fill="#1b3f5e"/>
              <path id="Trazado_114978-2" data-name="Trazado 114978" d="M18.7,0H0L14.169,30.114,0,60.228H18.7L32.865,30.114Z" transform="translate(32.865 0)" fill="#1b3f5e"/>
              <path id="Trazado_114979-2" data-name="Trazado 114979" d="M18.7,0H0L14.169,30.114,0,60.228H18.7L32.865,30.114Z" transform="translate(65.73 0)" fill="#1b3f5e"/>
            </g>
          </g>
        </g>
      </g>
      <g id="Grupo_163161" data-name="Grupo 163161" transform="translate(1178.568 5633.484)">
        <path id="Trazado_244002" data-name="Trazado 244002" d="M1487.165-1643.388c-1.371,0-2.623.023-3.874-.012a1.179,1.179,0,0,0-.929.465c-1.379,1.386-2.768,2.762-4.144,4.151a3.542,3.542,0,0,1-4.081.988,3.558,3.558,0,0,1-2.2-3.574c-.011-2.017-.011-2.017-2.11-2.017-2.767,0-3.756-.984-3.757-3.735v-4.377a9.382,9.382,0,0,1-4.168,2.077.336.336,0,0,0-.2.147,4.484,4.484,0,0,0,.416,2.829,16.7,16.7,0,0,1,5.539,9.749c.128.68-.014,1.719.373,1.969.544.351,1.465.134,2.224.136,2.414.007,4.828,0,7.241,0a2.955,2.955,0,0,1,3.236,3.244c.007,2.872.01,5.743-.007,8.615a1.135,1.135,0,0,0,.515,1.044,5.741,5.741,0,0,1,0,9.388,1.11,1.11,0,0,0-.512,1.046c.027,1.007.025,2.016,0,3.024a2.911,2.911,0,0,1-2.963,2.96q-4.032.036-8.066-.006c-.547-.006-.734.1-.715.692.047,1.526,0,3.055.026,4.582.008.465-.1.618-.6.617q-11.136-.025-22.273,0c-.58,0-.615-.23-.613-.695.015-4.155,0-8.309.018-12.464a1.748,1.748,0,0,0-.53-1.367,8.1,8.1,0,0,1-2.4-5.767c-.032-5.743-.128-11.49.028-17.229a15.994,15.994,0,0,1,6.746-12.725c1.109-.843,1.117-1.379-.024-2.194-.844-.6-1.668-1.237-2.532-1.81-7.593-5.032-9.186-14.417-4.734-21.974a17.121,17.121,0,0,1,15.089-8.821c3.877-.108,7.76-.03,11.64-.019a2.908,2.908,0,0,1,3.093,3.1,26.647,26.647,0,0,1-.115,4.114,8.425,8.425,0,0,1-2.384,4.736.748.748,0,0,0-.166,1.012,26.171,26.171,0,0,1,2.17,6.859c.088.536.291.727.871.719,2.6-.038,5.194-.03,7.791-.005.508,0,.713-.114.648-.647-.091-.746.329-1.747-.171-2.18-.423-.367-1.394-.114-2.123-.115-2.512-.006-3.579-1.059-3.58-3.547q0-6.828,0-13.656a2.99,2.99,0,0,1,3.333-3.329q7.471,0,14.94.009a1.559,1.559,0,0,0,1.329-.569,6.331,6.331,0,0,1,4.625-2.313,86.907,86.907,0,0,1,11.353.121,16.6,16.6,0,0,1,14.122,14.072,17.711,17.711,0,0,1-2.22,11.1c-.179.319-.376.564-.011.944a8.682,8.682,0,0,1,.079,11.875,1.119,1.119,0,0,0-.107.245c.227.1.464.2.691.32,4.782,2.459,7.431,6.365,7.562,11.745.135,5.557.041,11.119.032,16.679a8.747,8.747,0,0,1-7.692,9c-.595.094-.792.168-.645.87.962,4.594,1.856,9.2,2.782,13.852h-32.884c.68-3.421,1.355-6.819,2.032-10.218.244-1.226.445-2.463.754-3.672.161-.628-.011-.733-.6-.825a8.723,8.723,0,0,1-7.667-7.582,9.417,9.417,0,0,1-.078-1.461c-.005-5.377,0-10.753-.008-16.13A14.816,14.816,0,0,1,1487.165-1643.388Z" transform="translate(-1439.648 1690.38)"/>
        <path id="Trazado_244003" data-name="Trazado 244003" d="M1479.652-1505.76a14.016,14.016,0,0,1,3.369,7.775c.057.469-.178.485-.524.483q-1.97-.014-3.939,0a2.954,2.954,0,0,0-3.208,3.179c-.009,2.6-.017,5.191.009,7.786.005.559-.09.786-.73.783-2.214-.008-2.214.021-2.214-2.219,0-3.878-.019-7.756.018-11.633.006-.693-.175-.86-.855-.848-2.1.036-2.1,0-2.1,2.062,0,4.855.017,9.71-.018,14.565-.006.766.127,1.018.972,1.012,6.229-.044,12.459-.013,18.689-.039.7,0,.942.142.909.885-.065,1.463-.039,2.931-.008,4.4.01.491-.146.611-.62.61-6.749-.017-13.5.023-20.246-.035a5.664,5.664,0,0,1-5.521-5.534c-.053-5.8-.091-11.6.019-17.4a12.953,12.953,0,0,1,3.646-8.573c.4-.437.627-.365,1.03-.026,2.778,2.341,5.586,4.646,8.362,6.99.463.391.668.437.948-.172C1478.255-1503.047,1478.94-1504.34,1479.652-1505.76Z" transform="translate(-1457.721 1553.297)" fill="#fff59d"/>
        <path id="Trazado_244004" data-name="Trazado 244004" d="M1680.7-1599c-1.557,0-3.115-.014-4.672.009a.7.7,0,0,1-.8-.528c-.716-1.942-1.464-3.872-2.219-5.8-.144-.369-.236-.575.3-.677a4.479,4.479,0,0,0,3.7-3.6c.222-.9.6-1.323,1.545-1.14.5.1.74-.034.743-.654.009-2.274.034-2.359-2.242-2.255a5.971,5.971,0,0,1-6.5-5.031,16.157,16.157,0,0,1-.061-3.016c.032-.667-.193-.88-.815-.773a1.662,1.662,0,0,1-.275,0c-1.9,0-1.9,0-1.647-1.845a27.244,27.244,0,0,1,1.829-6.681c.2-.49.391-.731,1-.526a6.151,6.151,0,0,0,2.081.256c2.41-.051,4.824.109,7.23-.094.476-.04.5.252.6.5.651,1.608,1.3,3.217,1.916,4.84a.784.784,0,0,0,.93.622,1.47,1.47,0,0,1,1.651.873,1.711,1.711,0,0,1-.395,1.941c-.678.744-1.392,1.457-2.127,2.146a.919.919,0,0,0-.283,1.037c.855,3.334,1.682,6.675,2.521,10.013a4.235,4.235,0,0,0,3.29,3.319c.7.165.63.4.427.912-.735,1.837-1.458,3.68-2.136,5.538a.8.8,0,0,1-.926.619C1683.812-1599.019,1682.254-1599,1680.7-1599Z" transform="translate(-1611.783 1645.99)" fill="#efcfb3"/>
        <path id="Trazado_244005" data-name="Trazado 244005" d="M1643.277-1505.667c0-2.748-.023-5.5,0-8.243a10.294,10.294,0,0,1,7.4-9.816c.587-.171.835-.108,1.066.5q2.6,6.88,5.282,13.73c.2.519.206.757-.384,1.017a2.708,2.708,0,0,0-1.631,2.643c-.015,1.71-.02,3.42,0,5.129.007.485-.085.68-.636.691-2.307.045-2.307.066-2.307-2.216,0-3.878-.019-7.755.018-11.632.006-.69-.172-.861-.854-.85-2.1.036-2.1,0-2.1,2.062,0,4.183-.014,8.366.015,12.548a1.714,1.714,0,0,1-.666,1.584,2.266,2.266,0,0,0-.262.255c-1.727,1.729-1.719,1.72.123,3.328.311.272.5.268.738-.029.038-.047.092-.083.126-.132a4.739,4.739,0,0,1,4.965-2.025,20.6,20.6,0,0,0,3.2.015c.442-.011.572.134.566.57-.022,1.587-.025,3.175,0,4.763.008.463-.171.552-.587.549-2.839-.017-5.681.042-8.519-.031a5.787,5.787,0,0,1-5.558-5.714C1643.246-1499.866,1643.278-1502.766,1643.277-1505.667Z" transform="translate(-1593.382 1564.617)" fill="#d84318"/>
        <path id="Trazado_244006" data-name="Trazado 244006" d="M1571.164-1570.433c2.688,0,5.376.015,8.064-.012.565-.006.776.1.771.73-.033,3.94-.011,7.88-.02,11.821a2.184,2.184,0,0,1-2.15,2.126c-1.68,0-3.36.019-5.04-.011a1.573,1.573,0,0,0-1.277.518c-1.554,1.6-3.139,3.168-4.726,4.734-.285.281-.515.757-1.05.541-.57-.231-.413-.754-.416-1.192-.01-1.313-.027-2.627.008-3.94.013-.511-.124-.675-.651-.662-1.527.035-3.055-.01-4.582.024-.518.011-.661-.137-.657-.656q.034-5.223,0-10.446c0-.521.146-.656.659-.659.749,0,1.749.358,2.177-.156.362-.435.134-1.4.079-2.127-.042-.553.16-.647.655-.643C1565.727-1570.422,1568.445-1570.433,1571.164-1570.433Z" transform="translate(-1530.091 1599.828)" fill="#e5e8ec"/>
        <path id="Trazado_244007" data-name="Trazado 244007" d="M1470.327-1645.459c-.763,0-1.528.024-2.29-.006-1.017-.041-1.643-.639-1.618-1.493.025-.868.648-1.4,1.672-1.431,1.257-.036,1.257-.036,1.257-1.354,0-1.648,0-1.648-1.674-1.573a4.376,4.376,0,0,0-4.008,5.548,1.67,1.67,0,0,1-.151,1.375q-.781,1.45-1.476,2.946a4.655,4.655,0,0,1-2.251,2.542,4.241,4.241,0,0,0-1.852,5.455,3.4,3.4,0,0,0,1.062,1.684c1.57,1.066,1.45,2.476,1.021,4.016-.089.319-.11.542-.5.294-3.688-2.334-6.787-5.137-7.565-9.72a14.757,14.757,0,0,1,8.982-15.964,14.842,14.842,0,0,1,5.616-1.114c3.573,0,7.146.023,10.719-.019.752-.009.946.233.888.929a24.582,24.582,0,0,1-.146,3.193,5.845,5.845,0,0,1-5.669,4.692C1471.671-1645.448,1471-1645.459,1470.327-1645.459Z" transform="translate(-1448.788 1663.12)" fill="#656d78"/>
        <path id="Trazado_244008" data-name="Trazado 244008" d="M1685.731-1651.321c-.238-.912-.452-1.762-.684-2.607-.119-.435.233-.6.458-.817a6.522,6.522,0,0,0,2.123-3.234,4.376,4.376,0,0,0-2.612-5.156,1.458,1.458,0,0,1-.9-.913c-.45-1.2-.935-2.382-1.421-3.565a1.041,1.041,0,0,1,.069-1.007,4.229,4.229,0,0,0-.285-4.818c-1.15-1.587-2.823-1.9-4.648-1.784-.3.019-.341.176-.334.416.008.275,0,.55,0,.825,0,.519-.17,1.153.067,1.525.269.425.955.113,1.456.173a1.488,1.488,0,0,1,1.4,1.518,1.441,1.441,0,0,1-1.519,1.4c-1.221.041-2.444.039-3.666.008a22.976,22.976,0,0,1-4.294-.144,4.323,4.323,0,0,1-3.7-4.7,4.446,4.446,0,0,1,4.606-3.95q3.849-.014,7.7,0c5.549.011,9.824,2.357,12.443,7.253,2.656,4.966,2.073,9.892-.874,14.584A16.337,16.337,0,0,1,1685.731-1651.321Z" transform="translate(-1611.468 1681.15)" fill="#84524d"/>
        <path id="Trazado_244009" data-name="Trazado 244009" d="M1500.287-1591.814a5.792,5.792,0,0,1-4.442,1.505c-.706-.047-.963.146-.9.883.07.813.016,1.637.016,2.561a18.6,18.6,0,0,0-5.285-1.632c-.43-.057-.3-.36-.255-.63.363-2.165.7-4.334,1.094-6.493a1.63,1.63,0,0,0-.544-1.769,17.9,17.9,0,0,1-1.75-1.744,1.77,1.77,0,0,1-.449-2.013,1.467,1.467,0,0,1,1.65-.873c.494.05.688-.2.88-.593.826-1.7,1.693-3.376,2.515-5.076.22-.453.411-.516.953-.443a21.352,21.352,0,0,0,8.259-.2c.549-.141.785-.126,1.022.428a27.08,27.08,0,0,1,2.1,8.292c.038.419-.065.561-.464.519a1.5,1.5,0,0,0-.275,0c-.689.054-1.6-.305-2,.161-.336.393-.1,1.277-.113,1.945,0,.214.007.428,0,.641-.085,1.892-.018,1.813-1.977,1.527a3.3,3.3,0,0,1-2.288-1.543c-.238-.361-.432-.427-.8-.2a6.922,6.922,0,0,1-1.229.6c-.783.288-.913.626-.364,1.34A7.229,7.229,0,0,0,1500.287-1591.814Z" transform="translate(-1475.87 1628.489)" fill="#efcfb3"/>
        <path id="Trazado_244010" data-name="Trazado 244010" d="M1741.813-1508.838c1.016-2.635,1.991-5.158,2.963-7.682.865-2.247,1.746-4.487,2.578-6.746.205-.559.437-.647,1-.488a10.224,10.224,0,0,1,7.435,9.506c.065,5.772.048,11.545.007,17.317a5.85,5.85,0,0,1-5.148,5.66c-.458.056-.731.041-.715-.565.041-1.557.033-3.115,0-4.672-.01-.495.154-.667.625-.6a1.609,1.609,0,0,0,.366,0c.629-.054,1.638.276,1.81-.132a7.187,7.187,0,0,0,.137-2.513.249.249,0,0,0-.276-.28c-.122,0-.244,0-.366-.007-.727-.02-1.729.242-2.114-.131-.5-.488-.159-1.5-.163-2.277-.017-3.818-.022-7.636.007-11.453,0-.621-.124-.828-.789-.821-2.158.025-2.159-.006-2.159,2.185,0,1.038,0,2.077,0,3.115,0,.315.038.6-.444.591C1745.022-1508.852,1743.475-1508.838,1741.813-1508.838Z" transform="translate(-1667.786 1564.629)" fill="#d84318"/>
        <path id="Trazado_244011" data-name="Trazado 244011" d="M1717.776-1440.413c0,3.146-.019,6.293.016,9.438.007.638-.146.807-.795.8q-6.553-.047-13.105,0c-.643,0-.808-.155-.8-.8.03-2.15,0-2.15,2.179-2.151,1.252,0,2.505.017,3.757-.005a5.871,5.871,0,0,0,5.811-5.857,5.86,5.86,0,0,0-5.8-5.862c-1.772-.027-3.544-.019-5.316,0-.455.006-.636-.088-.625-.594.034-1.588.024-3.177,0-4.765,0-.388.092-.526.506-.524q6.828.021,13.656,0c.609,0,.513.337.513.7Q1717.775-1445.224,1717.776-1440.413Z" transform="translate(-1638.551 1509.444)" fill="#e5e8ec"/>
        <path id="Trazado_244012" data-name="Trazado 244012" d="M1694.651-1367.325H1693.6c-7.877,0-15.755-.009-23.632.014-.792,0-1.089-.054-.877-1.006.742-3.331,1.381-6.685,2.023-10.037.1-.507.219-.76.79-.714.815.065,1.888-.252,2.384.158.523.432.151,1.543.161,2.356.028,2.235,1.147,3.36,3.4,3.362q6.87,0,13.74,0a2.037,2.037,0,0,0,.817-.035c.992-.476,1.142.112,1.278.886C1693.97-1370.693,1694.313-1369.054,1694.651-1367.325Z" transform="translate(-1612.826 1455.378)" fill="#d84318"/>
        <path id="Trazado_244013" data-name="Trazado 244013" d="M1610.183-1663.271h-5.8c-1.772,0-3.544.018-5.316-.011-.544-.008-.791.06-.786.717.016,2.227-.015,2.227,2.2,2.227,3.452,0,6.905.042,10.356-.028a1.863,1.863,0,0,1,1.713,1.117c.309.542-.334,1.157-.567,1.73-.1.25-.5.109-.764.109-4.033.007-8.066.025-12.1-.015-.707-.007-.846.193-.834.858.037,2.094.008,2.094,2.144,2.094,3.269,0,6.538.009,9.807-.008.558,0,.91.039.606.724a3.817,3.817,0,0,0-.171.71c-.342,1.507-.342,1.507-1.93,1.507-1.13,0-2.261.022-3.391-.01a.83.83,0,0,0-.9.554c-.746,1.567-1.534,3.115-2.323,4.661-.127.25-.18.677-.581.6-.472-.1-.3-.536-.3-.842-.014-1.436-.028-2.872.005-4.307.012-.507-.117-.677-.648-.665-1.527.036-3.055-.009-4.582.025-.515.011-.662-.132-.659-.653q.031-6.69,0-13.38c0-.519.142-.657.657-.655q6.782.03,13.564,0c.454,0,.634.053.521.594A5.986,5.986,0,0,0,1610.183-1663.271Z" transform="translate(-1557.211 1672.135)" fill="#e5e8ec"/>
        <path id="Trazado_244014" data-name="Trazado 244014" d="M1532.322-1450.725c2.688,0,5.375.018,8.063-.015.6-.007.761.148.752.749q-.053,3.664,0,7.328c.008.6-.155.752-.751.749q-8.063-.036-16.126,0c-.6,0-.761-.148-.752-.749q.053-3.664,0-7.329c-.009-.6.154-.757.751-.75C1526.947-1450.706,1529.634-1450.725,1532.322-1450.725Z" transform="translate(-1502.963 1509.449)" fill="#e5e8ec"/>
        <path id="Trazado_244015" data-name="Trazado 244015" d="M1484.38-1359.329c-2.687,0-5.375-.017-8.062.013-.587.006-.772-.136-.764-.748.035-2.625.009-5.252.026-7.878,0-.216-.239-.727.367-.557,2.373.663,4.8.278,7.2.364,1.221.044,1.222.008,1.222,1.185,0,.55-.008,1.1,0,1.649a2.93,2.93,0,0,0,3.076,3.036c1.649.015,3.3.021,4.947-.007.545-.01.8.064.793.72-.008,2.223.022,2.223-2.211,2.223Z" transform="translate(-1466.743 1447.382)" fill="#fff59d"/>
        <path id="Trazado_244016" data-name="Trazado 244016" d="M1635.194-1591.648c.088-.223.125-.335.175-.44,1.295-2.693,1.294-2.684,4.271-2.5.395.024.527.112.5.519-.042.639,0,1.283-.035,1.923-.023.409.12.529.517.51.64-.03,1.284.015,1.923-.016.4-.019.487.119.525.508a8.647,8.647,0,0,0,6.3,7.916c.449.15.461.287.342.705a1.907,1.907,0,0,1-1.661,1.582c-.934.137-1.853.37-2.781.544a14.569,14.569,0,0,0-5.157,2.058v-5.137c0-1.649.006-3.3,0-4.947a2.96,2.96,0,0,0-3.259-3.22C1636.334-1591.65,1635.815-1591.648,1635.194-1591.648Z" transform="translate(-1587.287 1618.11)" fill="#fefefe"/>
        <path id="Trazado_244017" data-name="Trazado 244017" d="M1532.3-1366.922c2.688,0,5.375.018,8.062-.014.589-.007.761.138.757.745-.013,2.2.012,2.2-2.217,2.2-4.856,0-9.711-.015-14.566.017-.675,0-.866-.143-.852-.84.043-2.11.008-2.11,2.129-2.11Z" transform="translate(-1502.947 1446.176)" fill="#e5e8ec"/>
        <path id="Trazado_244018" data-name="Trazado 244018" d="M1753.4-1569.979a5.8,5.8,0,0,1-2.675,4.709c-1.076.73-3.42-.19-3.752-1.443a10.128,10.128,0,0,0-.389-1.5,1.472,1.472,0,0,1,.742-2.13,18.641,18.641,0,0,0,4.18-3.4c.289-.326.456-.278.691.043A6.147,6.147,0,0,1,1753.4-1569.979Z" transform="translate(-1671.232 1602.488)" fill="#84524d"/>
        <path id="Trazado_244019" data-name="Trazado 244019" d="M1704.166-1486.479h8.323c-.722,1.871-1.428,3.681-2.115,5.5-.091.24-.205.354-.455.339-.091-.005-.183,0-.275,0-1.067-.015-2.365.333-3.133-.154-.709-.449-.861-1.79-1.237-2.747S1704.546-1485.468,1704.166-1486.479Z" transform="translate(-1639.362 1536.433)" fill="#fff59d"/>
        <path id="Trazado_244020" data-name="Trazado 244020" d="M1714.765-1412.127a3.784,3.784,0,0,1,0-.663c.2-.815-.548-2.16.381-2.4,2.677-.689,4.658.15,5.29,1.828a2.946,2.946,0,0,1-2.477,3.949c-.03,0-.061.005-.091.005-1-.014-2.276.339-2.922-.146C1714.324-1410.024,1714.87-1411.375,1714.765-1412.127Z" transform="translate(-1647.273 1482.79)" fill="#efcfb3"/>
        <path id="Trazado_244021" data-name="Trazado 244021" d="M1583.393-1399.953c0-.761.031-1.524-.011-2.283-.027-.495.152-.621.618-.6.79.035,1.584-.01,2.375.016a2.939,2.939,0,0,1,2.881,2.939,2.937,2.937,0,0,1-2.906,2.914c-.791.023-1.585-.027-2.375.017-.509.028-.611-.172-.592-.628C1583.417-1398.369,1583.393-1399.161,1583.393-1399.953Z" transform="translate(-1548.167 1473.284)" fill="#efcfb3"/>
        <path id="Trazado_244022" data-name="Trazado 244022" d="M1492.283-1515.509a14.275,14.275,0,0,1,6.2,2.2c.487.307.547.562.281,1.075-.778,1.5-.754,1.515-2.036.446C1495.312-1512.97,1493.9-1514.157,1492.283-1515.509Z" transform="translate(-1479.388 1558.351)" fill="#fff59d"/>
        <path id="Trazado_244023" data-name="Trazado 244023" d="M1572.884-1543.519c-1.423,0-1.423,0-1.423-1.419,0-1.514,0-1.514,1.511-1.514,1.423,0,1.423,0,1.423,1.419C1574.394-1543.519,1574.394-1543.519,1572.884-1543.519Z" transform="translate(-1539.168 1581.713)"/>
        <path id="Trazado_244024" data-name="Trazado 244024" d="M1596.8-1543.519c-1.389,0-1.389,0-1.389-1.361,0-1.572,0-1.572,1.544-1.572,1.389,0,1.389,0,1.389,1.361C1598.34-1543.519,1598.34-1543.519,1596.8-1543.519Z" transform="translate(-1557.248 1581.713)"/>
        <path id="Trazado_244025" data-name="Trazado 244025" d="M1622.286-1544.925c0,1.406,0,1.406-1.436,1.406-1.5,0-1.5,0-1.5-1.527,0-1.406,0-1.406,1.436-1.406C1622.286-1546.452,1622.286-1546.452,1622.286-1544.925Z" transform="translate(-1575.327 1581.713)"/>
      </g>
      <g id="tS2IgQ.tif" transform="translate(1284.052 5640.786)">
        <g id="Grupo_145518" data-name="Grupo 145518" transform="translate(0)">
          <path id="Trazado_244026" data-name="Trazado 244026" d="M1258.262-1510.9a14.467,14.467,0,0,0-9.191-17.228c-3.769-1.408-7.528-2.823-11.188-4.507a50.758,50.758,0,0,1-14.6-10.61c-4-4-7.831-8.188-12.033-11.994-.918-.832-1.9-1.595-2.853-2.386a4.863,4.863,0,0,0-4.863-.805,13.27,13.27,0,0,0-5.4,3.664,44.663,44.663,0,0,0-7.532,10.98,76.014,76.014,0,0,0-5.633,14.209c-1.776,6.245-3.055,12.566-2.509,19.118a14.765,14.765,0,0,0,1.289,5.167,5.576,5.576,0,0,0,5.38,3.566,114.747,114.747,0,0,0,13.121-1.041c5.341-.6,10.669-1.414,16.07-1.2,1.335.052,2.664.227,4,.336.476.039.595.15.317.631-3.041,5.268-6.054,10.552-9.085,15.825-.722,1.257-.736,1.6.031,2.534l.542.192c.431-.068.768.221,1.159.305,2.147.71,4.306,1.375,6.505,1.918a2.241,2.241,0,0,0,2.677-1.083q5.177-7.7,10.4-15.37c.826-1.211.818-1.226,2.238-.716,3.27,1.172,6.608,1.841,10.041.916a13.709,13.709,0,0,0,9.777-8.369l.308-.869c.157-.305.136-.694.435-.933l.064-.181c-.068-.434.222-.773.308-1.167A2.61,2.61,0,0,0,1258.262-1510.9Z" transform="translate(-1160.776 1560.273)" fill="#010101"/>
          <path id="Trazado_244027" data-name="Trazado 244027" d="M1184.2-1435.478c-.1.381-.423.721-.218,1.16l.383-1.083C1184.341-1435.5,1184.287-1435.521,1184.2-1435.478Z" transform="translate(-1087.044 1485.75)" fill="#151515"/>
          <path id="Trazado_244028" data-name="Trazado 244028" d="M1293.287-1370.54a.531.531,0,0,1,.089-.141,1.343,1.343,0,0,0-1.173-.242Z" transform="translate(-1238.865 1446.739)" fill="#4c4c4c"/>
          <path id="Trazado_244029" data-name="Trazado 244029" d="M1183.106-1436.828l.078.049.088.028.319-.9a.321.321,0,0,1-.154-.077Z" transform="translate(-1085.951 1487.1)" fill="#656565"/>
          <path id="Trazado_244030" data-name="Trazado 244030" d="M1185.536-1432.055c-.393.164-.372.559-.491.877a.1.1,0,0,0,.172.026Z" transform="translate(-1088.663 1483.668)" fill="#151515"/>
          <path id="Trazado_244031" data-name="Trazado 244031" d="M1186.333-1429.812a1.047,1.047,0,0,0-.172-.026l-.309.909.075.053.086-.033Z" transform="translate(-1089.78 1482.327)" fill="#5f5f5f"/>
          <path id="Trazado_244032" data-name="Trazado 244032" d="M1385.31-1513.215l6.135,2.172c.211.074.418.161.634.215a1.37,1.37,0,0,0,1.781-.849,1.343,1.343,0,0,0-.882-1.758c-.918-.366-1.86-.67-2.793-1l-9.924-3.512c-.21-.075-.418-.159-.633-.221a1.413,1.413,0,0,0-1.887.81,1.393,1.393,0,0,0,.986,1.8C1380.913-1514.752,1383.115-1513.992,1385.31-1513.215Z" transform="translate(-1373.217 1535.791)" fill="#020202"/>
          <path id="Trazado_244033" data-name="Trazado 244033" d="M1359.906-1561.672a1.387,1.387,0,0,0,.581,1.56q5.5,3.8,11.023,7.571a1.355,1.355,0,0,0,1.933-.372,1.354,1.354,0,0,0-.524-1.968q-4.749-3.293-9.521-6.552a17.193,17.193,0,0,0-1.515-1A1.355,1.355,0,0,0,1359.906-1561.672Z" transform="translate(-1345.913 1562.613)" fill="#010101"/>
          <path id="Trazado_244034" data-name="Trazado 244034" d="M1405.342-1462.826c-.4-.034-.972-.084-1.542-.129q-5.47-.428-10.941-.852c-1.127-.086-1.72.319-1.815,1.2s.468,1.439,1.563,1.525c4.027.319,8.055.617,12.082.94a1.634,1.634,0,0,0,1.412-.4A1.378,1.378,0,0,0,1405.342-1462.826Z" transform="translate(-1391.033 1502.874)" fill="#010101"/>
          <path id="Trazado_244035" data-name="Trazado 244035" d="M1210.875-1533.452a45.9,45.9,0,0,1-2.018,15.6c-.33,1.2-.722,2.382-1.112,3.563-.546,1.653-1.108,2.138-2.06,1.828s-1.126-1.088-.567-2.682a57.458,57.458,0,0,0,2.784-11.411,26.019,26.019,0,0,0,.125-7.424c-.284-1.858-.829-3.6-2.387-4.575a70.773,70.773,0,0,1-16.18,45.772c1.367-.221,2.947.2,4.3-.844a22.341,22.341,0,0,0,5.529-6.877,38.569,38.569,0,0,0,2.956-6.527c.042-.121.082-.243.133-.359a1.407,1.407,0,0,1,1.824-.943,1.354,1.354,0,0,1,.758,1.9,46.929,46.929,0,0,1-3.065,6.9,33.561,33.561,0,0,1-4.121,5.942c.48-.036.8-.053,1.127-.085,4.943-.5,9.875-1.159,14.867-.787a60.3,60.3,0,0,1,9.414,1.632,7.9,7.9,0,0,0,8.6-2.942,3.418,3.418,0,0,1,.436-.5,1.287,1.287,0,0,1,1.825,0,1.23,1.23,0,0,1,.227,1.726,11.217,11.217,0,0,1-3.36,3.214l-.881.546c4.664,1.929,9.21,3,13.774.06,5.9-3.8,7.823-12.414,4.033-18.064a11.876,11.876,0,0,0-5.609-4.453c-1.8-.719-3.654-1.309-5.491-1.96,0,.01-.053.078-.036.111,2.384,4.626,2.059,9.354.548,14.126-.125.4-.253.792-.416,1.173a1.394,1.394,0,0,1-1.775.885,1.361,1.361,0,0,1-.784-1.809,25.471,25.471,0,0,0,1.371-5.948,12.593,12.593,0,0,0-4.142-10.655,10.65,10.65,0,0,0-2.751-1.516,52.893,52.893,0,0,1-13.894-10.652C1213.58-1530.774,1212.293-1532.038,1210.875-1533.452Z" transform="translate(-1154.652 1548.063)" fill="#d84318"/>
          <path id="Trazado_244036" data-name="Trazado 244036" d="M1312.1-1528.918a62.884,62.884,0,0,0-3.924,19.219,22.031,22.031,0,0,0,.5,5.7,7.481,7.481,0,0,0,.821,2.137,2.751,2.751,0,0,0,3.758,1.26,10.165,10.165,0,0,0,3.124-2.173,36.681,36.681,0,0,0,6.437-8.616c.6-1.05,1.131-2.142,1.728-3.2.346-.612.28-.907-.454-1.15-2.365-.783-4.685-1.7-7.058-2.457a4.223,4.223,0,0,1-3.074-3.652,12.972,12.972,0,0,1,1.416-7.87,10.16,10.16,0,0,1,2.973-3.806,4.147,4.147,0,0,1,4.225-.668c2.392.9,4.82,1.7,7.218,2.582.589.217.833.138.966-.5a45.356,45.356,0,0,0,1.189-13.749,12.13,12.13,0,0,0-.892-3.8c-.98-2.195-2.518-2.73-4.653-1.6a14.883,14.883,0,0,0-4.166,3.611,52.2,52.2,0,0,0-7.768,12.776C1313.575-1532.931,1312.811-1530.935,1312.1-1528.918Z" transform="translate(-1283.885 1556.1)" fill="#fff59d"/>
          <path id="Trazado_244037" data-name="Trazado 244037" d="M1263.773-1413.98a6.8,6.8,0,0,1-.849-.24c-.5-.212-.776-.088-1.069.4-1.2,1.992-2.487,3.929-3.667,5.931a2.625,2.625,0,0,1-2.107,1.412c-1.169.142-2.321.434-3.491.566a1.792,1.792,0,0,0-1.544,1.034c-.858,1.6-1.778,3.166-2.7,4.73-.344.582-.33.832.43.987,1.437.294,2.852.7,4.266,1.09a.74.74,0,0,0,.945-.364q4.981-7.411,9.993-14.8C1264.259-1413.648,1264.381-1413.9,1263.773-1413.98Z" transform="translate(-1192.275 1472.943)" fill="#d84318"/>
          <path id="Trazado_244038" data-name="Trazado 244038" d="M1313.983-1486.957c1.6.567,3.184,1.122,4.762,1.69.381.137.5-.072.624-.366a89.3,89.3,0,0,0,3.438-9.715c.1-.332.057-.541-.3-.665-1.444-.5-2.884-1.018-4.325-1.527-.261-.092-.447-.157-.5.269C1316.954-1491.471,1316.949-1491.472,1313.983-1486.957Z" transform="translate(-1276.951 1523.305)" fill="#fff59d"/>
          <path id="Trazado_244039" data-name="Trazado 244039" d="M1334.5-1496.235a9.487,9.487,0,0,0-.464,4.819c.268,1.234.8,1.422,1.8.676,2.234-1.67,3.958-6.54,3.277-9.261-.3-1.2-.844-1.376-1.833-.6A10.109,10.109,0,0,0,1334.5-1496.235Z" transform="translate(-1301.223 1525.399)" fill="#fff59d"/>
          <path id="Trazado_244040" data-name="Trazado 244040" d="M1260.187-1410.978a3.156,3.156,0,0,0,3.439-1.94c.733-1.469,1.72-2.811,2.609-4.23a9.7,9.7,0,0,0-1.844-.52c-.275-.108-.4.078-.517.281C1262.658-1415.271,1261.441-1413.157,1260.187-1410.978Z" transform="translate(-1199.066 1474.987)" fill="#d84318"/>
        </g>
      </g>
    </g>
  </g>
</svg>
