<svg xmlns="http://www.w3.org/2000/svg" xmlns:xlink="http://www.w3.org/1999/xlink" width="159" height="159" viewBox="0 0 159 159">
  <defs>
    <clipPath id="clip-path">
      <ellipse id="Elipse_5633-2" data-name="Elipse 5633-2" cx="69.527" cy="70.042" rx="69.527" ry="70.042" transform="translate(4460.73 -4163.616)" fill="none"/>
    </clipPath>
  </defs>
  <g id="Grupo_163247" data-name="Grupo 163247" transform="translate(-718 -5847)">
    <g id="Grupo_163204" data-name="Grupo 163204">
      <g id="Elipse_5721" data-name="Elipse 5721" transform="translate(718 5847)" fill="none" stroke="#fff59d" stroke-width="10">
        <circle cx="79.5" cy="79.5" r="79.5" stroke="none"/>
        <circle cx="79.5" cy="79.5" r="74.5" fill="none"/>
      </g>
      <g id="Grupo_163184" data-name="Grupo 163184" transform="translate(-3733.258 10020.074)">
        <g id="Grupo_145645" data-name="Grupo 145645" clip-path="url(#clip-path)">
          <ellipse id="Elipse_5643" data-name="Elipse 5643" cx="69.527" cy="70.042" rx="69.527" ry="70.042" transform="translate(4460.73 -4163.616)" fill="none"/>
          <ellipse id="Elipse_5633-2-2" data-name="Elipse 5633-2" cx="69.527" cy="70.042" rx="69.527" ry="70.042" transform="translate(4460.73 -4163.616)" fill="#1b3f5e"/>
          <g id="Grupo_145577" data-name="Grupo 145577">
            <path id="Trazado_244161" data-name="Trazado 244161" d="M4554.969-4063.525c.151-1.376.31-2.587.432-3.692h-43.587c.085,6.032,2.034,12.555,4.257,17.953,2.97,7.214-3.311,24.065-3.311,24.065l24,12.287s-3.183-20.054,1.4-21.9,11.65,1.082,14.643-.764,1.336-4.839.445-6.621,1.719-1.337,1.974-2.483-1.019-2.483-1.019-2.483,1.337-.382,1.464-1.4-1.4-1.528-1.018-2.674,3.947-.064,4.838-2.42S4554.724-4061.285,4554.969-4063.525Z" fill="#d84318"/>
            <path id="Trazado_244162" data-name="Trazado 244162" d="M4472.774-4084.285c-.561,4.35-2.583,13.851,16.324,23.184,11.07,5.464,18.479,1.342,23.337-5.8l-35.691-25.02C4474.561-4089.438,4473.194-4087.54,4472.774-4084.285Z" fill="#d84318"/>
          </g>
          <g id="Grupo_145644" data-name="Grupo 145644">
            <g id="Grupo_145578" data-name="Grupo 145578">
              <path id="Trazado_244163" data-name="Trazado 244163" d="M4533.563-4074.564h-.024l.024.025-.024-.025v4.62a4.581,4.581,0,0,0,3.257-1.387Z" fill="#d84318"/>
              <path id="Trazado_244164" data-name="Trazado 244164" d="M4528.907-4074.542a4.6,4.6,0,0,0,4.6,4.6h.033v-4.62h-4.631Z" fill="#6cad7e"/>
              <path id="Trazado_244165" data-name="Trazado 244165" d="M4533.539-4079.14h-.033a4.579,4.579,0,0,0-2.017.465l2.05,4.062Z" fill="#0f3041"/>
              <path id="Trazado_244166" data-name="Trazado 244166" d="M4531.489-4078.675a4.628,4.628,0,0,0-1.207.854,4.586,4.586,0,0,0-1.374,3.257h4.631v-.049Z" fill="#0c8485"/>
              <path id="Trazado_244167" data-name="Trazado 244167" d="M4538.1-4074.564a4.6,4.6,0,0,0-4.565-4.576v4.576h.024l3.233,3.233a4.581,4.581,0,0,0,1.308-3.211Z" fill="#fff59d"/>
            </g>
            <g id="Grupo_145587" data-name="Grupo 145587">
              <g id="Grupo_145579" data-name="Grupo 145579">
                <path id="Trazado_244168" data-name="Trazado 244168" d="M4531-4119.014h-3.775l-1.888-3.27,1.888-3.27H4531l1.888,3.27Zm-3.616-.277h3.457l1.728-2.993-1.728-2.993h-3.457l-1.728,2.993Z" fill="#0c8485"/>
              </g>
              <g id="Grupo_145581" data-name="Grupo 145581">
                <path id="Trazado_244169" data-name="Trazado 244169" d="M4536.389-4122.239h-3.776l-1.887-3.27,1.887-3.27h3.776l1.888,3.27Zm-3.616-.277h3.456l1.728-2.993-1.728-2.993h-3.456l-1.728,2.993Z" fill="#0c8485"/>
                <g id="Grupo_145580" data-name="Grupo 145580">
                  <path id="Trazado_244170" data-name="Trazado 244170" d="M4533.5-4128.641a.855.855,0,0,1-.856.856.855.855,0,0,1-.855-.856.855.855,0,0,1,.855-.855A.856.856,0,0,1,4533.5-4128.641Z" fill="#d84318"/>
                  <path id="Trazado_244171" data-name="Trazado 244171" d="M4537.108-4128.641a.856.856,0,0,1-.856.856.855.855,0,0,1-.856-.856.856.856,0,0,1,.856-.855A.856.856,0,0,1,4537.108-4128.641Z" fill="#d84318"/>
                  <path id="Trazado_244172" data-name="Trazado 244172" d="M4531.779-4125.43a.855.855,0,0,1-.855.855.856.856,0,0,1-.856-.855.856.856,0,0,1,.856-.856A.856.856,0,0,1,4531.779-4125.43Z" fill="#d84318"/>
                </g>
              </g>
              <g id="Grupo_145584" data-name="Grupo 145584">
                <path id="Trazado_244173" data-name="Trazado 244173" d="M4541.869-4119.145h-3.776l-1.888-3.269,1.888-3.27h3.776l1.887,3.27Zm-3.616-.276h3.456l1.728-2.993-1.728-2.994h-3.456l-1.728,2.994Z" fill="#0c8485"/>
                <g id="Grupo_145583" data-name="Grupo 145583">
                  <g id="Grupo_145582" data-name="Grupo 145582">
                    <path id="Trazado_244174" data-name="Trazado 244174" d="M4538.981-4125.546a.856.856,0,0,1-.856.856.856.856,0,0,1-.856-.856.856.856,0,0,1,.856-.855A.855.855,0,0,1,4538.981-4125.546Z" fill="#d84318"/>
                    <path id="Trazado_244175" data-name="Trazado 244175" d="M4542.587-4125.546a.856.856,0,0,1-.855.856.856.856,0,0,1-.856-.856.855.855,0,0,1,.856-.855A.855.855,0,0,1,4542.587-4125.546Z" fill="#d84318"/>
                    <path id="Trazado_244176" data-name="Trazado 244176" d="M4544.452-4122.545a.856.856,0,0,1-.855.856.855.855,0,0,1-.856-.856.855.855,0,0,1,.856-.855A.855.855,0,0,1,4544.452-4122.545Z" fill="#d84318"/>
                    <path id="Trazado_244177" data-name="Trazado 244177" d="M4542.587-4119.283a.856.856,0,0,1-.855.856.856.856,0,0,1-.856-.856.856.856,0,0,1,.856-.855A.855.855,0,0,1,4542.587-4119.283Z" fill="#d84318"/>
                    <path id="Trazado_244178" data-name="Trazado 244178" d="M4539.07-4119.283a.856.856,0,0,1-.856.856.856.856,0,0,1-.855-.856.856.856,0,0,1,.855-.855A.856.856,0,0,1,4539.07-4119.283Z" fill="#d84318"/>
                    <path id="Trazado_244179" data-name="Trazado 244179" d="M4537.259-4122.335a.855.855,0,0,1-.856.855.855.855,0,0,1-.855-.855.856.856,0,0,1,.855-.856A.855.855,0,0,1,4537.259-4122.335Z" fill="#d84318"/>
                  </g>
                </g>
                <path id="Trazado_244180" data-name="Trazado 244180" d="M4541.2-4120.3h-2.438l-1.219-2.111,1.219-2.112h2.438l1.219,2.112Zm-2.311-.219h2.184l1.092-1.892-1.092-1.892h-2.184l-1.093,1.892Z" fill="#0c8485"/>
                <path id="Trazado_244181" data-name="Trazado 244181" d="M4535.72-4123.4h-2.438l-1.219-2.111,1.219-2.111h2.438l1.219,2.111Zm-2.311-.219h2.184l1.093-1.892-1.093-1.892h-2.184l-1.092,1.892Z" fill="#0c8485"/>
                <path id="Trazado_244182" data-name="Trazado 244182" d="M4530.381-4120.087h-2.439l-1.219-2.111,1.219-2.112h2.439l1.218,2.112Zm-2.312-.219h2.185l1.092-1.892-1.092-1.892h-2.185l-1.092,1.892Z" fill="#0c8485"/>
              </g>
              <g id="Grupo_145586" data-name="Grupo 145586">
                <g id="Grupo_145585" data-name="Grupo 145585">
                  <path id="Trazado_244183" data-name="Trazado 244183" d="M4528.111-4125.415a.854.854,0,0,1-.855.855.856.856,0,0,1-.856-.855.856.856,0,0,1,.856-.856A.855.855,0,0,1,4528.111-4125.415Z" fill="#d84318"/>
                  <circle id="Elipse_5644" data-name="Elipse 5644" cx="0.856" cy="0.856" r="0.856" transform="translate(4530.007 -4120.008)" fill="#d84318"/>
                  <path id="Trazado_244184" data-name="Trazado 244184" d="M4528.111-4119.152a.855.855,0,0,1-.855.855.856.856,0,0,1-.856-.855.856.856,0,0,1,.856-.856A.855.855,0,0,1,4528.111-4119.152Z" fill="#d84318"/>
                  <path id="Trazado_244185" data-name="Trazado 244185" d="M4526.429-4122.284a.856.856,0,0,1-.855.856.856.856,0,0,1-.856-.856.856.856,0,0,1,.856-.855A.856.856,0,0,1,4526.429-4122.284Z" fill="#d84318"/>
                  <path id="Trazado_244186" data-name="Trazado 244186" d="M4533.583-4122.414a.75.75,0,0,1-.855.855.855.855,0,0,1-.856-.855.855.855,0,0,1,.856-.856A.855.855,0,0,1,4533.583-4122.414Z" fill="#d84318"/>
                </g>
              </g>
            </g>
            <g id="Grupo_145589" data-name="Grupo 145589">
              <rect id="Rectángulo_43397" data-name="Rectángulo 43397" width="0.45" height="10.942" transform="translate(4552.586 -4145.231)" fill="#f05c42"/>
              <rect id="Rectángulo_43398" data-name="Rectángulo 43398" width="7.861" height="1.469" transform="translate(4553.036 -4145.198)" fill="#fff"/>
              <path id="Trazado_244187" data-name="Trazado 244187" d="M4560.355-4133.8h-7.769v-10.007h8.311v9.427A.524.524,0,0,1,4560.355-4133.8Z" fill="#d84318"/>
              <rect id="Rectángulo_43399" data-name="Rectángulo 43399" width="1.329" height="10.007" transform="translate(4552.586 -4143.807)" fill="#0f3041"/>
              <rect id="Rectángulo_43400" data-name="Rectángulo 43400" width="8.31" height="0.24" transform="translate(4552.586 -4145.396)" fill="#d84318"/>
              <g id="Grupo_145588" data-name="Grupo 145588">
                <path id="Trazado_244188" data-name="Trazado 244188" d="M4556.506-4137.9l-.47,1.424h-.6l1.538-4.528h.706l1.545,4.528h-.625l-.484-1.424Zm1.484-.457-.443-1.3c-.1-.3-.168-.565-.235-.827h-.013c-.068.269-.142.544-.229.82l-.443,1.31Z" fill="#fff"/>
              </g>
            </g>
            <g id="Grupo_145592" data-name="Grupo 145592">
              <g id="Grupo_145590" data-name="Grupo 145590">
                <rect id="Rectángulo_43401" data-name="Rectángulo 43401" width="1.904" height="1.558" rx="0.304" transform="matrix(0.707, -0.707, 0.707, 0.707, 4566.147, -4120.018)" fill="#f1e4c4"/>
                <rect id="Rectángulo_43402" data-name="Rectángulo 43402" width="0.651" height="6.984" transform="matrix(0.707, -0.707, 0.707, 0.707, 4562.536, -4125.399)" fill="#fff59d"/>
                <rect id="Rectángulo_43403" data-name="Rectángulo 43403" width="0.651" height="6.984" transform="translate(4562.094 -4124.957) rotate(-45.012)" fill="#d84318"/>
                <rect id="Rectángulo_43404" data-name="Rectángulo 43404" width="0.651" height="6.984" transform="matrix(0.707, -0.707, 0.707, 0.707, 4561.651, -4124.514)" fill="#fff59d"/>
                <path id="Trazado_244189" data-name="Trazado 244189" d="M4561.058-4125.976l.479-.479-.807-.328Z" fill="#d64329"/>
                <path id="Trazado_244190" data-name="Trazado 244190" d="M4561.651-4124.515l1.346-1.346-1.461-.594-.479.479Z" fill="#f1e4c4"/>
              </g>
              <g id="Grupo_145591" data-name="Grupo 145591">
                <rect id="Rectángulo_43405" data-name="Rectángulo 43405" width="1.558" height="1.904" rx="0.304" transform="matrix(0.707, -0.707, 0.707, 0.707, 4560.603, -4120.263)" fill="#f1e4c4"/>
                <rect id="Rectángulo_43406" data-name="Rectángulo 43406" width="6.984" height="0.651" transform="matrix(0.707, -0.707, 0.707, 0.707, 4562.148, -4120.037)" fill="#fff59d"/>
                <rect id="Rectángulo_43407" data-name="Rectángulo 43407" width="6.984" height="0.651" transform="translate(4561.705 -4120.479) rotate(-44.988)" fill="#0c8485"/>
                <rect id="Rectángulo_43408" data-name="Rectángulo 43408" width="6.984" height="0.651" transform="translate(4561.262 -4120.922) rotate(-44.988)" fill="#fff59d"/>
                <path id="Trazado_244191" data-name="Trazado 244191" d="M4567.662-4126.454l.479.479.328-.807Z" fill="#0c8485"/>
                <path id="Trazado_244192" data-name="Trazado 244192" d="M4566.2-4125.86l1.346,1.346.594-1.461-.479-.479Z" fill="#f1e4c4"/>
              </g>
            </g>
            <g id="Grupo_145594" data-name="Grupo 145594">
              <path id="Trazado_244193" data-name="Trazado 244193" d="M4580.528-4123.6a4.386,4.386,0,0,1-4.557,4.194h-4.558v-4.194a4.388,4.388,0,0,1,4.558-4.194A4.387,4.387,0,0,1,4580.528-4123.6Z" fill="#0c8485"/>
              <g id="Grupo_145593" data-name="Grupo 145593">
                <path id="Trazado_244194" data-name="Trazado 244194" d="M4578.541-4124.714a.416.416,0,0,1-.416.416h-4.308a.417.417,0,0,1-.417-.416h0a.417.417,0,0,1,.417-.417h4.308a.416.416,0,0,1,.416.417Z" fill="#fff"/>
                <path id="Trazado_244195" data-name="Trazado 244195" d="M4578.541-4123.3a.416.416,0,0,1-.416.416h-4.308a.417.417,0,0,1-.417-.416h0a.417.417,0,0,1,.417-.416h4.308a.416.416,0,0,1,.416.416Z" fill="#fff"/>
                <path id="Trazado_244196" data-name="Trazado 244196" d="M4578.541-4121.877a.416.416,0,0,1-.416.416h-4.308a.417.417,0,0,1-.417-.416h0a.417.417,0,0,1,.417-.417h4.308a.416.416,0,0,1,.416.417Z" fill="#fff"/>
              </g>
            </g>
            <g id="Grupo_145595" data-name="Grupo 145595">
              <rect id="Rectángulo_43409" data-name="Rectángulo 43409" width="7.36" height="9.903" rx="0.623" transform="translate(4495.251 -4136.001)" fill="#f1e4c4"/>
              <rect id="Rectángulo_43410" data-name="Rectángulo 43410" width="1.258" height="1.258" rx="0.172" transform="translate(4495.95 -4131.138)" fill="#0f3041"/>
              <rect id="Rectángulo_43411" data-name="Rectángulo 43411" width="6.258" height="1.337" rx="0.183" transform="translate(4495.803 -4134.786)" fill="#fff"/>
              <path id="Rectángulo_43412" data-name="Rectángulo 43412" d="M.172,0h.913a.172.172,0,0,1,.172.172v.913a.173.173,0,0,1-.173.173H.172A.172.172,0,0,1,0,1.085V.172A.172.172,0,0,1,.172,0Z" transform="translate(4497.508 -4131.138)" fill="#0f3041"/>
              <rect id="Rectángulo_43413" data-name="Rectángulo 43413" width="1.258" height="1.258" rx="0.172" transform="translate(4499.067 -4131.138)" fill="#0f3041"/>
              <rect id="Rectángulo_43414" data-name="Rectángulo 43414" width="1.258" height="1.258" rx="0.172" transform="translate(4500.626 -4131.138)" fill="#0f3041"/>
              <path id="Rectángulo_43415" data-name="Rectángulo 43415" d="M.173,0h.913a.172.172,0,0,1,.172.172v.913a.172.172,0,0,1-.172.172H.172A.172.172,0,0,1,0,1.086V.173A.173.173,0,0,1,.173,0Z" transform="translate(4495.95 -4132.595)" fill="#0f3041"/>
              <path id="Rectángulo_43416" data-name="Rectángulo 43416" d="M.172,0h.913a.173.173,0,0,1,.173.173v.913a.172.172,0,0,1-.172.172H.172A.172.172,0,0,1,0,1.086V.172A.172.172,0,0,1,.172,0Z" transform="translate(4497.508 -4132.595)" fill="#0f3041"/>
              <path id="Rectángulo_43417" data-name="Rectángulo 43417" d="M.173,0h.913a.172.172,0,0,1,.172.172v.913a.172.172,0,0,1-.172.172H.172A.172.172,0,0,1,0,1.086V.173A.173.173,0,0,1,.173,0Z" transform="translate(4499.067 -4132.595)" fill="#0f3041"/>
              <path id="Rectángulo_43418" data-name="Rectángulo 43418" d="M.173,0h.913a.172.172,0,0,1,.172.172v.913a.172.172,0,0,1-.172.172H.172A.172.172,0,0,1,0,1.086V.173A.173.173,0,0,1,.173,0Z" transform="translate(4500.626 -4132.595)" fill="#0f3041"/>
              <rect id="Rectángulo_43419" data-name="Rectángulo 43419" width="1.258" height="1.258" rx="0.172" transform="translate(4495.95 -4129.668)" fill="#0f3041"/>
              <rect id="Rectángulo_43420" data-name="Rectángulo 43420" width="1.258" height="1.258" rx="0.172" transform="translate(4497.508 -4129.668)" fill="#0f3041"/>
              <rect id="Rectángulo_43421" data-name="Rectángulo 43421" width="1.258" height="1.258" rx="0.172" transform="translate(4499.067 -4129.668)" fill="#0f3041"/>
              <rect id="Rectángulo_43422" data-name="Rectángulo 43422" width="1.258" height="1.258" rx="0.172" transform="translate(4495.95 -4128.198)" fill="#0f3041"/>
              <path id="Rectángulo_43423" data-name="Rectángulo 43423" d="M.172,0h.913a.173.173,0,0,1,.173.173v.913a.172.172,0,0,1-.172.172H.172A.172.172,0,0,1,0,1.085V.172A.172.172,0,0,1,.172,0Z" transform="translate(4497.508 -4128.198)" fill="#0f3041"/>
              <rect id="Rectángulo_43424" data-name="Rectángulo 43424" width="1.258" height="1.258" rx="0.172" transform="translate(4499.067 -4128.198)" fill="#0f3041"/>
              <path id="Trazado_244197" data-name="Trazado 244197" d="M4501.884-4128.991v-.5a.172.172,0,0,0-.173-.172h-.913a.172.172,0,0,0-.172.172v2.384a.172.172,0,0,0,.172.172h.913a.172.172,0,0,0,.173-.172v-1.879Z" fill="#d84318"/>
            </g>
            <g id="Grupo_145596" data-name="Grupo 145596">
              <path id="Trazado_244198" data-name="Trazado 244198" d="M4508.866-4127.623l-.543,1.643h-.7l1.775-5.224h.813l1.783,5.224h-.721l-.558-1.643Zm1.713-.527-.512-1.5c-.116-.341-.193-.651-.271-.953h-.016c-.077.31-.162.627-.263.945l-.512,1.512Z" fill="#fff59d"/>
              <path id="Trazado_244199" data-name="Trazado 244199" d="M4512.765-4131.134a6.512,6.512,0,0,1,1.232-.109,2.156,2.156,0,0,1,1.434.38,1.1,1.1,0,0,1,.434.922,1.242,1.242,0,0,1-.883,1.148v.015a1.347,1.347,0,0,1,1.077,1.31,1.409,1.409,0,0,1-.442,1.046,2.62,2.62,0,0,1-1.806.489,7.821,7.821,0,0,1-1.046-.062Zm.674,2.139h.612c.714,0,1.132-.372,1.132-.876,0-.612-.465-.852-1.147-.852a2.881,2.881,0,0,0-.6.046Zm0,2.5a3.447,3.447,0,0,0,.566.032c.7,0,1.341-.256,1.341-1.016,0-.713-.613-1.008-1.349-1.008h-.558Z" fill="#d84318"/>
              <path id="Trazado_244200" data-name="Trazado 244200" d="M4520.617-4126.151a3.336,3.336,0,0,1-1.38.248,2.441,2.441,0,0,1-2.581-2.643,2.6,2.6,0,0,1,2.728-2.743,2.806,2.806,0,0,1,1.24.232l-.162.55a2.473,2.473,0,0,0-1.055-.216,1.942,1.942,0,0,0-2.038,2.154,1.9,1.9,0,0,0,2.007,2.1,2.714,2.714,0,0,0,1.1-.217Z" fill="#0c8485"/>
            </g>
            <g id="Grupo_145597" data-name="Grupo 145597">
              <path id="Trazado_244201" data-name="Trazado 244201" d="M4549.776-4132.284l-2.752-5.691s.024-1.479.024-2.1-.447-.62-.72-.62h-1.27c-.189,0-.538-.054-.538.62,0,.726.025,2.1.025,2.1l-2.753,5.691a.968.968,0,0,0,.951,1.484h6.082A.968.968,0,0,0,4549.776-4132.284Z" fill="#f1e4c4"/>
              <path id="Trazado_244202" data-name="Trazado 244202" d="M4547.891-4134.658c-1.4.212-2.657-.554-3.925-.606l-1.268,2.663a.748.748,0,0,0,.735,1.147h4.7a.748.748,0,0,0,.735-1.147Z" fill="#fff59d"/>
              <path id="Trazado_244203" data-name="Trazado 244203" d="M4544.381-4132.582a.515.515,0,0,1-.515.515.515.515,0,0,1-.514-.515.514.514,0,0,1,.514-.514A.514.514,0,0,1,4544.381-4132.582Z" fill="#ded2b5"/>
              <path id="Trazado_244204" data-name="Trazado 244204" d="M4548.205-4132.379a.43.43,0,0,1-.43.429.429.429,0,0,1-.429-.429.43.43,0,0,1,.429-.43A.431.431,0,0,1,4548.205-4132.379Z" fill="#ded2b5"/>
              <path id="Trazado_244205" data-name="Trazado 244205" d="M4545.51-4133.788a.429.429,0,0,1-.429.429.429.429,0,0,1-.429-.429.43.43,0,0,1,.429-.43A.429.429,0,0,1,4545.51-4133.788Z" fill="#ded2b5"/>
              <path id="Trazado_244206" data-name="Trazado 244206" d="M4546.48-4132.64a.373.373,0,0,1-.373.372.372.372,0,0,1-.372-.372.372.372,0,0,1,.372-.373A.373.373,0,0,1,4546.48-4132.64Z" fill="#ded2b5"/>
              <path id="Trazado_244207" data-name="Trazado 244207" d="M4547.4-4133.69a.373.373,0,0,1-.373.373.372.372,0,0,1-.372-.373.372.372,0,0,1,.372-.373A.373.373,0,0,1,4547.4-4133.69Z" fill="#ded2b5"/>
            </g>
            <path id="Trazado_244208" data-name="Trazado 244208" d="M4525.452-4140.1a2.185,2.185,0,0,0-2.735,1.368,2.184,2.184,0,0,0-2.736-1.368,2.184,2.184,0,0,0-1.4,2.753c.357,1.095,3.669,4.029,4.094,4.029s3.81-2.93,4.167-4.029A2.182,2.182,0,0,0,4525.452-4140.1Z" fill="#d84318"/>
            <g id="Grupo_145598" data-name="Grupo 145598">
              <path id="Trazado_244209" data-name="Trazado 244209" d="M4548.205-4113.437a2.457,2.457,0,0,0-3.679,2.246c0,1.792,1.1,3.595,2.452,3.595a1.992,1.992,0,0,0,1.227-.383,1.986,1.986,0,0,0,1.226.383c1.355,0,2.453-1.8,2.453-3.595A2.457,2.457,0,0,0,4548.205-4113.437Z" fill="#d84318"/>
              <path id="Trazado_244210" data-name="Trazado 244210" d="M4548.2-4113.415l.439-.186c0-.007.011-.695.489-.819s.342-.552-.1-.427C4548.1-4114.586,4548.2-4113.457,4548.2-4113.415Z" fill="#0f3041"/>
              <path id="Trazado_244211" data-name="Trazado 244211" d="M4548.245-4114.323c.346-1.01-.581-1.19-1.787-1.346C4545.694-4114.067,4547.9-4113.313,4548.245-4114.323Z" fill="#6cad7e"/>
            </g>
            <g id="Grupo_145599" data-name="Grupo 145599">
              <path id="Trazado_244212" data-name="Trazado 244212" d="M4524.787-4080.735a1.688,1.688,0,0,0-2.528,1.543c0,1.231.754,2.47,1.685,2.47a1.367,1.367,0,0,0,.843-.263,1.366,1.366,0,0,0,.843.263c.931,0,1.685-1.239,1.685-2.47A1.688,1.688,0,0,0,4524.787-4080.735Z" fill="#d84318"/>
              <path id="Trazado_244213" data-name="Trazado 244213" d="M4524.782-4080.72l.3-.128c0-.005.008-.478.337-.563s.235-.379-.069-.294C4524.714-4081.525,4524.782-4080.749,4524.782-4080.72Z" fill="#0f3041"/>
              <path id="Trazado_244214" data-name="Trazado 244214" d="M4524.815-4081.344c.238-.694-.4-.818-1.228-.926C4523.062-4081.168,4524.576-4080.65,4524.815-4081.344Z" fill="#6cad7e"/>
            </g>
            <g id="Grupo_145600" data-name="Grupo 145600">
              <path id="Trazado_244215" data-name="Trazado 244215" d="M4517.929-4117.512l-.4-.093,1.077-4.584,4.737,1.113-.093.4-4.341-1.02Z" fill="#0f3041"/>
              <path id="Trazado_244216" data-name="Trazado 244216" d="M4520.089-4121.633a1.362,1.362,0,0,1-1.639,1.015,1.363,1.363,0,0,1-1.016-1.638,1.364,1.364,0,0,1,1.639-1.016A1.363,1.363,0,0,1,4520.089-4121.633Z" fill="#f05c42"/>
              <path id="Trazado_244217" data-name="Trazado 244217" d="M4518.562-4117.363a.853.853,0,0,1-1.026.636.853.853,0,0,1-.636-1.026.853.853,0,0,1,1.026-.636A.854.854,0,0,1,4518.562-4117.363Z" fill="#6cad7e"/>
              <path id="Trazado_244218" data-name="Trazado 244218" d="M4523.927-4120.732a.854.854,0,0,1-1.027.636.853.853,0,0,1-.635-1.026.852.852,0,0,1,1.026-.636A.853.853,0,0,1,4523.927-4120.732Z" fill="#6cad7e"/>
            </g>
            <g id="Grupo_145601" data-name="Grupo 145601">
              <path id="Trazado_244219" data-name="Trazado 244219" d="M4499.891-4107.927v-3.4a.816.816,0,0,0-.816-.816h-.932a.816.816,0,0,0-.816.816v3.4a3.62,3.62,0,0,0-2.375,3.4,3.6,3.6,0,0,0,.839,2.317,1.262,1.262,0,0,0,.933.453l1.885,0,1.885,0a1.261,1.261,0,0,0,.933-.453,3.6,3.6,0,0,0,.839-2.317A3.62,3.62,0,0,0,4499.891-4107.927Z" fill="#f1e4c4"/>
              <path id="Trazado_244220" data-name="Trazado 244220" d="M4499.558-4104.7c-1.259.093-2.649-.727-3.843-.064-.007.083-.012.167-.012.252a2.855,2.855,0,0,0,.665,1.836,1,1,0,0,0,.74.359c1.444,0,2.1.01,3.3.01a2.864,2.864,0,0,0,1.033-2.205,2.915,2.915,0,0,0-.054-.555A5.555,5.555,0,0,1,4499.558-4104.7Z" fill="#d84318"/>
              <path id="Trazado_244221" data-name="Trazado 244221" d="M4497.493-4103.076a.283.283,0,0,1-.282.283.283.283,0,0,1-.283-.283.283.283,0,0,1,.283-.283A.282.282,0,0,1,4497.493-4103.076Z" fill="#ded2b5"/>
              <path id="Trazado_244222" data-name="Trazado 244222" d="M4500.2-4103.054a.283.283,0,0,1-.283.283.284.284,0,0,1-.283-.283.284.284,0,0,1,.283-.283A.283.283,0,0,1,4500.2-4103.054Z" fill="#ded2b5"/>
              <path id="Trazado_244223" data-name="Trazado 244223" d="M4500.986-4104.07a.282.282,0,0,1-.283.283.282.282,0,0,1-.282-.283.283.283,0,0,1,.282-.283A.283.283,0,0,1,4500.986-4104.07Z" fill="#ded2b5"/>
              <path id="Trazado_244224" data-name="Trazado 244224" d="M4499.175-4103.458a.283.283,0,0,1-.283.283.283.283,0,0,1-.283-.283.284.284,0,0,1,.283-.283A.284.284,0,0,1,4499.175-4103.458Z" fill="#ded2b5"/>
              <path id="Trazado_244225" data-name="Trazado 244225" d="M4496.835-4104.07a.236.236,0,0,1-.236.237.237.237,0,0,1-.236-.237.237.237,0,0,1,.236-.236A.236.236,0,0,1,4496.835-4104.07Z" fill="#ded2b5"/>
              <path id="Trazado_244226" data-name="Trazado 244226" d="M4498.2-4104.306a.236.236,0,0,1-.236.236.236.236,0,0,1-.236-.236.236.236,0,0,1,.236-.236A.236.236,0,0,1,4498.2-4104.306Z" fill="#ded2b5"/>
            </g>
            <g id="Grupo_145605" data-name="Grupo 145605">
              <g id="Grupo_145604" data-name="Grupo 145604">
                <path id="Trazado_244227" data-name="Trazado 244227" d="M4537.646-4093.673a22.9,22.9,0,0,0-3.4.362,22.936,22.936,0,0,0-3.4-.362,23.21,23.21,0,0,0-3.42.366v8.931a25.511,25.511,0,0,1,3.42-.366,24.915,24.915,0,0,1,3.377.359h.042a24.915,24.915,0,0,1,3.378-.359,25.533,25.533,0,0,1,3.42.366v-8.931A23.229,23.229,0,0,0,4537.646-4093.673Z" fill="#fff59d"/>
                <path id="Trazado_244228" data-name="Trazado 244228" d="M4534.267-4085.01a23.646,23.646,0,0,0-3.169-.339,23.634,23.634,0,0,0-3.168.339v-8.275a21.521,21.521,0,0,1,3.168-.339,21.523,21.523,0,0,1,3.169.339Z" fill="#f1e4c4"/>
                <path id="Trazado_244229" data-name="Trazado 244229" d="M4540.565-4085.01a23.646,23.646,0,0,0-3.169-.339,23.645,23.645,0,0,0-3.168.339v-8.275a21.521,21.521,0,0,1,3.168-.339,21.523,21.523,0,0,1,3.169.339Z" fill="#f1e4c4"/>
                <path id="Trazado_244230" data-name="Trazado 244230" d="M4534.172-4093.308h.15v8.283l-.075.015-.075-.015Z" fill="#d0c6ab"/>
                <g id="Grupo_145602" data-name="Grupo 145602">
                  <path id="Trazado_244231" data-name="Trazado 244231" d="M4533.394-4091.917a15.222,15.222,0,0,0-4.32,0l-.034-.144a15.421,15.421,0,0,1,4.385,0Z" fill="#0f3041"/>
                  <path id="Trazado_244232" data-name="Trazado 244232" d="M4533.394-4091.268a15.2,15.2,0,0,0-4.32,0l-.034-.143a15.48,15.48,0,0,1,4.385,0Z" fill="#0f3041"/>
                  <path id="Trazado_244233" data-name="Trazado 244233" d="M4533.394-4090.62a15.263,15.263,0,0,0-4.32,0l-.034-.143a15.47,15.47,0,0,1,4.385,0Z" fill="#0f3041"/>
                  <path id="Trazado_244234" data-name="Trazado 244234" d="M4533.394-4089.971a15.2,15.2,0,0,0-4.32,0l-.034-.144a15.462,15.462,0,0,1,4.385,0Z" fill="#0f3041"/>
                  <path id="Trazado_244235" data-name="Trazado 244235" d="M4533.394-4089.322a15.245,15.245,0,0,0-4.32,0l-.034-.143a15.421,15.421,0,0,1,4.385,0Z" fill="#0f3041"/>
                  <path id="Trazado_244236" data-name="Trazado 244236" d="M4533.394-4088.673a15.2,15.2,0,0,0-4.32,0l-.034-.143a15.411,15.411,0,0,1,4.385,0Z" fill="#0f3041"/>
                  <path id="Trazado_244237" data-name="Trazado 244237" d="M4533.353-4088.013a15.243,15.243,0,0,0-4.32,0l-.034-.143a15.48,15.48,0,0,1,4.385,0Z" fill="#0f3041"/>
                  <path id="Trazado_244238" data-name="Trazado 244238" d="M4533.335-4086.343a28.94,28.94,0,0,0-4.279,0l0-1.31a26.521,26.521,0,0,1,4.341,0Z" fill="#d84318"/>
                </g>
                <g id="Grupo_145603" data-name="Grupo 145603">
                  <path id="Trazado_244239" data-name="Trazado 244239" d="M4535.222-4091.905l-.034-.144a12.054,12.054,0,0,1,2.311-.162l0,.146A11.832,11.832,0,0,0,4535.222-4091.905Z" fill="#0f3041"/>
                  <path id="Trazado_244240" data-name="Trazado 244240" d="M4535.222-4091.257l-.034-.143a11.974,11.974,0,0,1,2.311-.162l0,.146A11.936,11.936,0,0,0,4535.222-4091.257Z" fill="#0f3041"/>
                  <path id="Trazado_244241" data-name="Trazado 244241" d="M4535.222-4090.608l-.034-.143a12.052,12.052,0,0,1,2.311-.162l0,.146A11.9,11.9,0,0,0,4535.222-4090.608Z" fill="#0f3041"/>
                  <path id="Trazado_244242" data-name="Trazado 244242" d="M4535.222-4089.959l-.034-.144a12.193,12.193,0,0,1,2.311-.162l0,.147A11.806,11.806,0,0,0,4535.222-4089.959Z" fill="#0f3041"/>
                  <path id="Trazado_244243" data-name="Trazado 244243" d="M4535.222-4089.31l-.034-.144a12.073,12.073,0,0,1,2.311-.162l0,.147A11.779,11.779,0,0,0,4535.222-4089.31Z" fill="#0f3041"/>
                  <path id="Trazado_244244" data-name="Trazado 244244" d="M4539.542-4088.661a15.189,15.189,0,0,0-4.32,0l-.034-.143a15.471,15.471,0,0,1,4.385,0Z" fill="#0f3041"/>
                  <path id="Trazado_244245" data-name="Trazado 244245" d="M4539.542-4088.013a15.243,15.243,0,0,0-4.32,0l-.034-.143a15.481,15.481,0,0,1,4.385,0Z" fill="#0f3041"/>
                  <path id="Trazado_244246" data-name="Trazado 244246" d="M4539.542-4087.364a15.263,15.263,0,0,0-4.32,0l-.034-.144a15.462,15.462,0,0,1,4.385,0Z" fill="#0f3041"/>
                  <path id="Trazado_244247" data-name="Trazado 244247" d="M4539.542-4086.715a15.222,15.222,0,0,0-4.32,0l-.034-.144a15.4,15.4,0,0,1,4.385,0Z" fill="#0f3041"/>
                </g>
              </g>
              <path id="Trazado_244248" data-name="Trazado 244248" d="M4539.558-4089.307a10.645,10.645,0,0,0-1.636-.156v-2.74a15.19,15.19,0,0,1,1.636.157Z" fill="#d84318"/>
            </g>
            <g id="Grupo_145606" data-name="Grupo 145606">
              <rect id="Rectángulo_43425" data-name="Rectángulo 43425" width="3.774" height="2.225" rx="0.776" transform="translate(4570.76 -4116.448)" fill="#0f3041"/>
              <path id="Rectángulo_43426" data-name="Rectángulo 43426" d="M.486,0H1.878a.485.485,0,0,1,.485.485V.908a.486.486,0,0,1-.486.486H.486A.486.486,0,0,1,0,.908V.486A.486.486,0,0,1,.486,0Z" transform="translate(4564.284 -4116.158)" fill="#0f3041"/>
              <rect id="Rectángulo_43427" data-name="Rectángulo 43427" width="13.211" height="8.376" rx="0.776" transform="translate(4562.707 -4115.46)" fill="#d84318"/>
              <rect id="Rectángulo_43428" data-name="Rectángulo 43428" width="13.211" height="1.545" transform="translate(4562.707 -4112.044)" fill="#6cad7e"/>
              <path id="Trazado_244249" data-name="Trazado 244249" d="M4573.6-4111.175a3.132,3.132,0,0,1-3.132,3.131,3.131,3.131,0,0,1-3.132-3.131,3.132,3.132,0,0,1,3.132-3.132A3.133,3.133,0,0,1,4573.6-4111.175Z" fill="#0f3041"/>
              <path id="Trazado_244250" data-name="Trazado 244250" d="M4572.938-4111.175a2.471,2.471,0,0,1-2.471,2.47,2.47,2.47,0,0,1-2.471-2.47,2.471,2.471,0,0,1,2.471-2.471A2.471,2.471,0,0,1,4572.938-4111.175Z" fill="#fff59d"/>
              <path id="Trazado_244251" data-name="Trazado 244251" d="M4571.356-4111.175a.889.889,0,0,1-.889.889.889.889,0,0,1-.889-.889.889.889,0,0,1,.889-.89A.889.889,0,0,1,4571.356-4111.175Z" fill="#0f3041"/>
              <path id="Trazado_244252" data-name="Trazado 244252" d="M4565.141-4114.223a.542.542,0,0,1-.542.542.541.541,0,0,1-.542-.542.541.541,0,0,1,.542-.541A.542.542,0,0,1,4565.141-4114.223Z" fill="#faae3e"/>
              <path id="Trazado_244253" data-name="Trazado 244253" d="M4566.74-4114.223a.542.542,0,0,1-.542.542.542.542,0,0,1-.542-.542.542.542,0,0,1,.542-.541A.542.542,0,0,1,4566.74-4114.223Z" fill="#faae3e"/>
            </g>
            <path id="Trazado_244254" data-name="Trazado 244254" d="M4510.078-4092.59a1.155,1.155,0,0,0,.979-1.023.344.344,0,0,0,.006-.063v-3.011l2.291-.484v2.047a1.376,1.376,0,0,0-.669-.022,1.1,1.1,0,0,0-.963,1.208,1.1,1.1,0,0,0,1.37.712,1.154,1.154,0,0,0,.979-1.023.306.306,0,0,0,.006-.063v-3.3h0c0-.011,0-.023,0-.034s0-.027,0-.039h0l0-.01a.248.248,0,0,0-.018-.058c0-.009-.009-.017-.014-.026a.3.3,0,0,0-.02-.035c-.007-.01-.014-.018-.022-.027a.238.238,0,0,0-.023-.027l-.025-.021c-.01-.007-.018-.016-.029-.023l-.027-.014c-.011-.006-.022-.013-.034-.018s-.023-.007-.034-.011l-.033-.01a.522.522,0,0,0-.056,0l-.015,0h0c-.012,0-.025,0-.038,0l-.035,0h0l-3.014.636a.363.363,0,0,0-.287.354v2.492a1.368,1.368,0,0,0-.67-.021,1.1,1.1,0,0,0-.962,1.207A1.1,1.1,0,0,0,4510.078-4092.59Z" fill="#d84318"/>
            <path id="Trazado_244255" data-name="Trazado 244255" d="M4546.782-4117.775a.777.777,0,0,0,.659-.688.312.312,0,0,0,0-.042v-2.025l1.541-.326v1.377a.924.924,0,0,0-.451-.015.742.742,0,0,0-.647.812.74.74,0,0,0,.921.479.776.776,0,0,0,.659-.688.173.173,0,0,0,0-.042v-2.222h0l0-.023a.15.15,0,0,0,0-.026h0l0-.007a.249.249,0,0,0-.013-.038l-.009-.017a.2.2,0,0,0-.013-.025l-.016-.018-.015-.017-.016-.015-.02-.015-.018-.01c-.008,0-.015-.009-.023-.012l-.023-.007-.022-.007a.245.245,0,0,0-.038,0l-.01,0h0l-.026,0-.024,0h0l-2.028.428a.243.243,0,0,0-.193.238v1.676a.916.916,0,0,0-.45-.015.742.742,0,0,0-.647.812A.741.741,0,0,0,4546.782-4117.775Z" fill="#0c8485"/>
            <path id="Trazado_244256" data-name="Trazado 244256" d="M4546.442-4079.19c1.235-.177,1.48-.79,1.442-1.7q-.019-.414-.038-.83v-.789c.178-.326,1.051-.037,1.207-.016a1.252,1.252,0,0,0,1.269-.625l.007-.1-.023-.046-.093-.026c-.665.166-1.122-.306-1.606-.68-.541-.418-.889-.173-1.027-.03a.187.187,0,0,0-.1.168v.291c0,.066,0,.132,0,.2v2.192a2.019,2.019,0,0,0-1.364-.078,1.53,1.53,0,0,0-1.091,1.026C4544.81-4079.22,4545.8-4079.1,4546.442-4079.19Z" fill="#0f3041"/>
            <path id="Trazado_244257" data-name="Trazado 244257" d="M4558.354-4112.429c.845-.122,1.012-.54.986-1.162-.009-.189-.017-.378-.026-.567v-.539c.121-.222.718-.026.824-.011a.853.853,0,0,0,.867-.427l0-.065-.016-.031-.063-.018c-.454.113-.767-.209-1.1-.464-.37-.286-.608-.119-.7-.021a.128.128,0,0,0-.072.114v.2q0,.067,0,.135v1.5a1.378,1.378,0,0,0-.932-.053,1.048,1.048,0,0,0-.745.7C4557.24-4112.45,4557.915-4112.366,4558.354-4112.429Z" fill="#0f3041"/>
            <path id="Trazado_244258" data-name="Trazado 244258" d="M4526.036-4128.437c1.236-.177,1.481-.79,1.442-1.7q-.018-.414-.037-.829v-.789c.178-.326,1.051-.038,1.206-.016a1.253,1.253,0,0,0,1.27-.625l.007-.1-.024-.045-.092-.026c-.665.165-1.122-.306-1.606-.68-.541-.418-.89-.173-1.027-.03a.185.185,0,0,0-.106.167v.292q0,.1,0,.2v2.192a2.014,2.014,0,0,0-1.364-.078,1.527,1.527,0,0,0-1.09,1.026C4524.4-4128.467,4525.393-4128.344,4526.036-4128.437Z" fill="#0c8485"/>
            <g id="Grupo_145607" data-name="Grupo 145607">
              <path id="Trazado_244259" data-name="Trazado 244259" d="M4517.941-4082.353c-1.124,0-2-2.607-2-5.936s.88-5.937,2-5.937,2,2.608,2,5.937S4519.065-4082.353,4517.941-4082.353Zm0-11.647c-.859,0-1.778,2.295-1.778,5.711s.919,5.711,1.778,5.711,1.779-2.3,1.779-5.711S4518.8-4094,4517.941-4094Z" fill="#6cad7e"/>
              <path id="Trazado_244260" data-name="Trazado 244260" d="M4517.941-4086.285c-3.329,0-5.936-.88-5.936-2s2.607-2,5.936-2,5.937.88,5.937,2S4521.27-4086.285,4517.941-4086.285Zm0-3.782c-3.416,0-5.71.919-5.71,1.778s2.294,1.778,5.71,1.778,5.711-.919,5.711-1.778S4521.357-4090.067,4517.941-4090.067Z" fill="#6cad7e"/>
              <path id="Trazado_244261" data-name="Trazado 244261" d="M4521.211-4084.473c-.824,0-2.57-1.169-4.243-2.843a15.748,15.748,0,0,1-2.3-2.823c-.381-.634-.76-1.465-.4-1.822a.545.545,0,0,1,.4-.144c.825,0,2.57,1.169,4.244,2.843,1.78,1.78,3.331,4.013,2.7,4.645A.549.549,0,0,1,4521.211-4084.473Zm-6.54-7.406a.33.33,0,0,0-.242.077c-.193.193-.029.771.437,1.546a15.469,15.469,0,0,0,2.261,2.781c1.609,1.608,3.327,2.776,4.084,2.776a.336.336,0,0,0,.243-.077c.385-.385-.629-2.257-2.7-4.327C4517.146-4090.711,4515.429-4091.879,4514.671-4091.879Z" fill="#fff59d"/>
              <path id="Trazado_244262" data-name="Trazado 244262" d="M4514.671-4084.473a.545.545,0,0,1-.4-.144c-.632-.632.919-2.865,2.7-4.645,1.673-1.674,3.419-2.843,4.243-2.843a.549.549,0,0,1,.4.144c.357.357-.023,1.188-.4,1.822a15.663,15.663,0,0,1-2.3,2.823C4517.241-4085.642,4515.5-4084.473,4514.671-4084.473Zm6.54-7.406c-.757,0-2.475,1.168-4.084,2.776-2.069,2.07-3.083,3.942-2.7,4.327a.331.331,0,0,0,.242.077c.758,0,2.475-1.168,4.084-2.776a15.526,15.526,0,0,0,2.262-2.781c.466-.775.63-1.353.437-1.546A.335.335,0,0,0,4521.211-4091.879Z" fill="#fff59d"/>
              <path id="Trazado_244263" data-name="Trazado 244263" d="M4522.006-4091.859a.533.533,0,0,1-.533.534.534.534,0,0,1-.534-.534.533.533,0,0,1,.534-.533A.533.533,0,0,1,4522.006-4091.859Z" fill="#0c8485"/>
              <path id="Trazado_244264" data-name="Trazado 244264" d="M4522.006-4084.763a.533.533,0,0,1-.533.534.534.534,0,0,1-.534-.534.534.534,0,0,1,.534-.533A.533.533,0,0,1,4522.006-4084.763Z" fill="#0c8485"/>
              <path id="Trazado_244265" data-name="Trazado 244265" d="M4518.475-4082.465a.534.534,0,0,1-.534.533.533.533,0,0,1-.533-.533.533.533,0,0,1,.533-.534A.534.534,0,0,1,4518.475-4082.465Z" fill="#0f3041"/>
              <path id="Trazado_244266" data-name="Trazado 244266" d="M4517.292-4092.926a.533.533,0,0,1-.533.534.534.534,0,0,1-.534-.534.533.533,0,0,1,.534-.533A.533.533,0,0,1,4517.292-4092.926Z" fill="#0f3041"/>
              <path id="Trazado_244267" data-name="Trazado 244267" d="M4518.7-4088.289a.59.59,0,0,1-.59.59.59.59,0,0,1-.589-.59.59.59,0,0,1,.589-.59A.59.59,0,0,1,4518.7-4088.289Z" fill="#d84318"/>
              <path id="Trazado_244268" data-name="Trazado 244268" d="M4512.651-4088.289a.534.534,0,0,1-.533.534.534.534,0,0,1-.534-.534.533.533,0,0,1,.534-.533A.533.533,0,0,1,4512.651-4088.289Z" fill="#0f3041"/>
            </g>
            <g id="Grupo_145609" data-name="Grupo 145609">
              <rect id="Rectángulo_43429" data-name="Rectángulo 43429" width="19.138" height="12.843" rx="1.428" transform="translate(4523.886 -4116.023)" fill="#0f3041"/>
              <rect id="Rectángulo_43430" data-name="Rectángulo 43430" width="16.869" height="10.212" transform="translate(4525.02 -4114.708)" fill="#6cad7e"/>
              <g id="Grupo_145608" data-name="Grupo 145608">
                <path id="Trazado_244269" data-name="Trazado 244269" d="M4527.849-4108.472v-.068c0-.031,0-.063,0-.094s0-.058,0-.079v-.042c0-.02,0-.052,0-.094s.008-.086.013-.133.011-.089.016-.126a.435.435,0,0,1,.013-.07c.006-.017.02-.05.042-.1a.316.316,0,0,1,.052-.091v-.988l-.094-.021a.813.813,0,0,1-.094-.027l-.047-.02a.158.158,0,0,1-.047-.026l-.029-.026c-.012-.011-.018-.018-.018-.021l0-.063c0-.038,0-.066,0-.084s0-.043,0-.078l0-.058a.153.153,0,0,1,.01-.031c.007-.017.016-.037.026-.058l.031-.06a.193.193,0,0,1,.027-.039c.01-.014.03-.039.059-.076s.063-.074.1-.112l.1-.113.07-.075c.011-.011.027-.026.05-.045l.073-.06.07-.055c.021-.015.035-.025.042-.029l.063-.005.042,0,.036,0a.383.383,0,0,1,.068.014c.035.008.063.016.084.023a.1.1,0,0,1,.084.057.971.971,0,0,1,.026.1l.021.094,0,.049c0,.03,0,.054,0,.071s0,.04,0,.068l0,.047a.32.32,0,0,1-.024.07.412.412,0,0,0-.023.071c0,.014-.008.035-.014.063l-.015.086c0,.03-.01.058-.013.084a.4.4,0,0,0-.006.05v.282c0,.014,0,.048-.012.1s-.019.116-.029.181-.021.123-.032.177-.017.088-.021.1a.593.593,0,0,1,0,.06c0,.033-.008.068-.013.1s-.01.072-.016.1a.252.252,0,0,1-.013.06.13.13,0,0,1-.023.047.133.133,0,0,0-.024.047v.062q0,.267.024.529c.016.174.023.35.023.527v.058a.037.037,0,0,1-.013.018l-.028.029-.032.029-.021.018a.235.235,0,0,0,0,.026l0,.021.188.377v.047a.277.277,0,0,1-.031.078.185.185,0,0,1-.063.063h-.423a.135.135,0,0,1-.047-.019.208.208,0,0,1-.047-.028c-.007,0-.015-.017-.024-.04a.549.549,0,0,0-.023-.054.781.781,0,0,1-.027-.095c-.01-.045-.017-.076-.02-.094s-.008-.047-.013-.088l-.016-.131c0-.045-.01-.087-.013-.126s0-.064,0-.078v-.037c0-.028,0-.056,0-.086s0-.058,0-.086Z" fill="#fff"/>
                <path id="Trazado_244270" data-name="Trazado 244270" d="M4529.643-4108.331v-.026l.02-.019a.4.4,0,0,0,.032-.028l.028-.029c.009-.009.014-.015.014-.018l0-.04c0-.022,0-.041,0-.054s0-.028,0-.053l0-.042a.1.1,0,0,0-.014-.026c-.008-.014-.018-.029-.028-.044s-.021-.031-.032-.045l-.02-.026a.139.139,0,0,1-.019-.034c-.008-.019-.018-.039-.028-.06s-.02-.041-.029-.06a.139.139,0,0,0-.019-.034.139.139,0,0,0-.052,0h-.089l-.089,0-.052,0-.065,0-.1-.013-.1-.016a.358.358,0,0,1-.062-.013.16.16,0,0,1-.026-.047l-.021-.047a.833.833,0,0,1-.029-.1.513.513,0,0,1-.018-.092l0-.03,0-.037a.351.351,0,0,1,0-.042l0-.031a.365.365,0,0,1,.018-.063c.012-.035.022-.061.029-.079a.448.448,0,0,0,.026-.052.167.167,0,0,1,.021-.042.189.189,0,0,1,.044-.026l.05-.021.282-.047c.021,0,.052-.009.092-.018l.1-.021.044-.008s.014-.029.04-.078.044-.085.055-.11a.437.437,0,0,0,.026-.068l.021-.073v-.047a.262.262,0,0,0-.008-.034l-.016-.06c0-.021-.011-.04-.016-.058a.142.142,0,0,1-.007-.036.316.316,0,0,1,.01-.061c.007-.029.016-.061.026-.1s.021-.069.032-.1a.45.45,0,0,1,.026-.071.518.518,0,0,1,.044-.052.17.17,0,0,1,.05-.042l.044,0,.066,0,.073,0,.052,0,.05.021a.168.168,0,0,1,.044.026.3.3,0,0,1,.039.058c.016.028.032.057.047.089a.894.894,0,0,1,.039.086.172.172,0,0,1,.016.05.471.471,0,0,1,0,.114c0,.056-.008.116-.016.178s-.013.122-.02.178a1.064,1.064,0,0,0-.011.12h.565c.01,0,.027.015.049.045a.33.33,0,0,1,.045.07l0,.042q0,.036,0,.063c0,.017,0,.042,0,.073l0,.057a.442.442,0,0,1,0,.05c0,.023-.008.047-.014.073s-.01.051-.015.073a.114.114,0,0,1-.013.039s-.006.011-.019.022-.021.019-.028.026-.027.016-.05.028a.13.13,0,0,1-.044.019h-.188l-.1,0-.143.013-.142.016c-.043,0-.074.009-.091.013l.141.141a.231.231,0,0,1,.021.06.782.782,0,0,0,.026.081l.029.11a.6.6,0,0,1,.018.078v.032c0,.021,0,.043,0,.068s0,.05,0,.078v.126c0,.027,0,.053,0,.075a.57.57,0,0,0,0,.06v.032a.133.133,0,0,1-.018.05.205.205,0,0,1-.029.044h-.376a.308.308,0,0,1-.071-.018.41.41,0,0,1-.07-.029l-.024-.021a.105.105,0,0,1-.023-.026.161.161,0,0,1-.027-.047l-.02-.047Z" fill="#fff"/>
                <path id="Trazado_244271" data-name="Trazado 244271" d="M4531.007-4108.049s0-.017.005-.042.008-.051.013-.081l.016-.089c0-.029.01-.053.013-.07a.9.9,0,0,1,.136-.3c.063-.091.127-.178.193-.262.014-.017.033-.041.058-.07l.073-.089.065-.079c.02-.022.032-.037.039-.044l.753-.753.037-.031.068-.055.073-.058c.024-.019.044-.033.057-.044l.142-.094.517-.518a.173.173,0,0,0,.026-.047l.021-.047v-.047a.445.445,0,0,0-.044-.049.344.344,0,0,0-.05-.045h-.042l-.062,0c-.025,0-.046,0-.063,0h-.1a.617.617,0,0,0-.065,0l-.065,0h-.026l-.06.008c-.033,0-.068.011-.1.015l-.1.016a.416.416,0,0,1-.06.008h-.094l-.282-.094a.1.1,0,0,0-.026,0l-.021,0a.625.625,0,0,0-.047.068c-.025.038-.04.063-.047.073a.492.492,0,0,1-.018.071.238.238,0,0,1-.029.07.322.322,0,0,1-.026.037l-.045.057-.044.058a.232.232,0,0,0-.026.037.185.185,0,0,0-.013.044c-.006.023-.011.047-.016.073s-.01.052-.013.076a.331.331,0,0,0,0,.042c0,.01-.011.027-.021.049a.194.194,0,0,1-.026.045.086.086,0,0,1-.042.023.289.289,0,0,0-.053.024h-.047l-.036-.021c-.018-.01-.037-.021-.058-.031s-.041-.02-.06-.029a.146.146,0,0,0-.034-.013s-.019-.006-.047-.006-.044,0-.047.006c-.007-.011-.017-.029-.031-.055l-.045-.084c-.015-.029-.029-.058-.042-.086s-.02-.047-.023-.057l0-.032c0-.017,0-.029,0-.036s0-.025,0-.042l0-.032a.082.082,0,0,1,.013-.026l.029-.044c.01-.016.021-.031.031-.045l.021-.026c0-.01.018-.039.042-.086l.076-.149.073-.149a.94.94,0,0,1,.044-.086l.188-.189.095-.047.062-.018c.028-.008.057-.018.087-.029l.083-.028a.518.518,0,0,0,.05-.019l.044-.013.074-.015c.026-.005.05-.01.073-.013l.044-.006h.094l.188-.047a.422.422,0,0,1,.066-.01l.11-.013c.039,0,.079-.01.117-.013s.066-.007.084-.011h.094c.007,0,.023.015.047.045a.234.234,0,0,0,.047.049.041.041,0,0,0,.021.006l.026-.006.235-.094h.048a.554.554,0,0,0,.065.013l.091.016.081.013a.3.3,0,0,0,.045,0l.047.021a.2.2,0,0,1,.047.026l.047.045a.451.451,0,0,1,.047.049l.094.141.094.1.047.094c.007.017.017.044.029.081a.563.563,0,0,1,.018.06l0,.068c0,.042,0,.075,0,.1s0,.052,0,.092l0,.07a.484.484,0,0,1-.018.089c-.012.046-.022.079-.029.1l-.021.047a.16.16,0,0,1-.026.047l-.188.235-.141.188a.105.105,0,0,1-.021.024l-.026.023-.235.188-.424.377-.094.047-.094.094-.659.706v.036a.3.3,0,0,1,.047.008.1.1,0,0,0,.047,0l.424-.1.062-.013.073-.015.066-.013a.2.2,0,0,1,.034,0l.125-.006c.07,0,.148-.008.233-.013l.254-.015.188-.014h.188c.017,0,.044.011.078.021a.191.191,0,0,1,.063.027.147.147,0,0,1,.026.044.3.3,0,0,1,.021.05s0,.023,0,.06,0,.063,0,.081,0,.044,0,.081,0,.056,0,.06a.16.16,0,0,0-.01.031.492.492,0,0,1-.016.047.179.179,0,0,1-.018.066l-.034.033-.087.084-.07.068a.16.16,0,0,1-.047.026l-.047.021q-.042,0-.149.006l-.227.012-.228.016c-.072,0-.121.01-.149.013-.011,0-.032,0-.065.006l-.1.012-.1.016-.062.013-.141.047a3.79,3.79,0,0,1-.4.094,4.042,4.042,0,0,0-.4.1.4.4,0,0,0-.058.018c-.024.009-.049.018-.073.029l-.068.028a.136.136,0,0,0-.037.019s-.009,0-.018.015a.428.428,0,0,1-.029.032.317.317,0,0,0-.028.031c-.009.01-.016.016-.019.016h-.094l-.078-.021a.224.224,0,0,1-.063-.026l-.047-.045a.341.341,0,0,1-.047-.049.187.187,0,0,1-.026-.047c-.01-.025-.018-.041-.021-.048s-.008-.044-.013-.081-.01-.074-.016-.114-.01-.078-.013-.113S4531.007-4108.038,4531.007-4108.049Z" fill="#fff"/>
                <path id="Trazado_244272" data-name="Trazado 244272" d="M4534.243-4108.765c0-.017,0-.045,0-.084a.2.2,0,0,1,.008-.062.277.277,0,0,1,.061-.068c.036-.035.063-.06.081-.074a.214.214,0,0,1,.062-.026l.079-.021.329-.047.065-.013.089-.015c.03-.006.057-.01.081-.014l.047,0,.188-.047.06-.021.1-.031c.037-.011.071-.02.1-.029a.456.456,0,0,1,.06-.013l.065,0,.1,0,.094,0,.073,0a.125.125,0,0,1,.044.018l.05.029.029.026c.012.011.018.018.018.021a.6.6,0,0,1,.005.068l0,.039,0,.034a.373.373,0,0,1-.023.071.391.391,0,0,0-.024.07v.283s-.006.01-.018.021l-.029.026-.05.029a.123.123,0,0,1-.044.018.668.668,0,0,1-.078.013l-.134.016-.133.013-.078,0-.33.047h-.094l-.376-.047h-.047l-.019.021a.286.286,0,0,1-.029.031l-.028.029c-.009.009-.015.013-.019.013l-.034,0-.039,0-.036,0-.031,0a.367.367,0,0,1-.045-.037l-.06-.055a.424.424,0,0,1-.055-.057.3.3,0,0,1-.029-.039.19.19,0,0,1-.008-.058C4534.244-4108.722,4534.243-4108.747,4534.243-4108.765Zm1.422-1.469h.052l.086,0,.086,0h.058a.163.163,0,0,1,.044.029l.061.055c.02.021.039.041.055.06a.192.192,0,0,1,.028.044.144.144,0,0,1,.008.058c0,.035,0,.061,0,.078s0,.046,0,.084a.171.171,0,0,1-.008.063.3.3,0,0,1-.063.078.276.276,0,0,1-.078.063l-.1.018-.156.029-.157.028-.1.019-.235.047-.188.047a.553.553,0,0,1-.052.021c-.028.01-.058.021-.092.031l-.091.029a.3.3,0,0,1-.047.013l-.071,0-.107,0h-.052l-.063,0-.057,0h-.026a.127.127,0,0,1-.045-.018l-.05-.029a.309.309,0,0,0-.028-.026c-.013-.01-.019-.018-.019-.021v-.518c0-.007.012-.02.034-.042l.06-.052a.2.2,0,0,1,.048-.028.128.128,0,0,1,.047-.019c.013,0,.053-.009.119-.018l.21-.029.206-.028q.1-.013.123-.019a.3.3,0,0,0,.052-.008l.089-.015.089-.016.052-.008h.037l.086,0,.087,0Z" fill="#fff"/>
                <path id="Trazado_244273" data-name="Trazado 244273" d="M4536.229-4107.882v-.026a.339.339,0,0,1,.031-.078.186.186,0,0,1,.064-.063l.046-.021a.154.154,0,0,0,.048-.026l0-.021,0-.026-.094-.094a.416.416,0,0,1-.029-.052.238.238,0,0,1-.019-.042.179.179,0,0,1,.04-.05.209.209,0,0,1,.054-.044l.029,0,.04,0,.039,0,.033,0a.222.222,0,0,1,.042.013c.025.008.05.018.076.029s.051.021.073.031l.045.021c.017.007.042.016.073.026l.091.031.079.026a.191.191,0,0,0,.039.011l.058,0,.078,0,.081,0,.065,0,.377-.094c.059-.018.115-.036.167-.055a.728.728,0,0,0,.162-.086.674.674,0,0,1,.065-.042c.03-.018.061-.037.092-.057l.081-.056a.263.263,0,0,0,.044-.034l.33-.329v-.047a.3.3,0,0,1-.011-.044.608.608,0,0,0-.015-.066.723.723,0,0,0-.021-.081.175.175,0,0,0-.026-.023q-.027-.031-.063-.066l-.052-.049a.248.248,0,0,0-.042,0l-.029,0-.024,0-.047.021a.158.158,0,0,0-.047.026h-1.035a.156.156,0,0,1-.047-.019.2.2,0,0,1-.047-.028.208.208,0,0,1-.028-.047.143.143,0,0,1-.019-.047v-.518a.106.106,0,0,1,.019-.042l.028-.052a.066.066,0,0,1,.047-.047l.471-.235c.059-.032.134-.071.225-.118l.263-.138.312-.168v-.047l-.074-.018-.062-.016-.053-.013-.083-.013-.126-.016-.128-.013-.086,0h-.188a.124.124,0,0,1-.047-.021l-.048-.026h-.047l-.026.021c-.014.01-.028.021-.044.031l-.044.029a.071.071,0,0,1-.027.013.285.285,0,0,1-.052.018l-.091.029-.092.029a.233.233,0,0,0-.047.018l-.023.024-.042.039a.582.582,0,0,0-.047.045.174.174,0,0,0-.029.033l-.047.1a.066.066,0,0,1-.047.047c-.011.007-.027.016-.05.028a.127.127,0,0,1-.044.019l-.032,0-.041,0-.037,0-.032,0a.448.448,0,0,0-.046-.021.183.183,0,0,1-.048-.026l-.093-.094c0-.018-.008-.051-.014-.1s-.01-.1-.015-.157-.01-.108-.013-.156-.006-.084-.006-.1l0-.057c0-.032,0-.056,0-.074s0-.052,0-.1c0,0,.006-.011.019-.021l.029-.026c.017-.011.043-.029.078-.055a.212.212,0,0,1,.063-.04l.054-.018.087-.029.089-.028a.4.4,0,0,0,.052-.019c.01,0,.033-.007.068-.013l.112-.015c.04,0,.079-.01.115-.013s.064-.006.081-.006h.052c.028,0,.06,0,.094,0s.072,0,.11,0h.142q.042,0,.075,0c.023,0,.045,0,.066,0h.026l.094.094.065.006c.04,0,.071,0,.092,0l.052,0,.068,0a.633.633,0,0,0,.068,0l.031,0a.159.159,0,0,0,.047-.02l.047-.027h.047l.035-.007.06-.016c.02,0,.039-.01.057-.016a.184.184,0,0,1,.037-.008l.073.006c.038,0,.079.008.123.013l.13.015.1.013.079.021a.185.185,0,0,1,.062.026c.007.008.023.022.048.045a.484.484,0,0,1,.046.049.183.183,0,0,1,.026.048c.011.024.018.04.022.047s.007.029.013.057l.015.086c0,.03.01.058.013.084a.457.457,0,0,1,.006.055v.037c0,.017,0,.039,0,.065s0,.053,0,.081v.125c0,.025,0,.048,0,.071s0,.044,0,.065v.027a.171.171,0,0,1-.019.047.254.254,0,0,1-.028.047l-.04.039-.057.06c-.019.021-.038.04-.055.057a.182.182,0,0,1-.037.032l-.376.235a.067.067,0,0,0-.047.047l.068.036.1.058.1.06a.456.456,0,0,0,.063.034c.018.014.045.032.081.055s.057.036.06.039l.019.042c.008.021.018.044.029.068s.019.048.028.071a.415.415,0,0,1,.018.055.384.384,0,0,1,.011.07c0,.037.008.076.013.118s.01.081.013.117a.385.385,0,0,0,.011.071.092.092,0,0,0,.015.037c.011.017.021.036.032.057s.02.041.031.06a.174.174,0,0,1,.015.034.315.315,0,0,1-.023.071.307.307,0,0,0-.023.07v.189l-.021.049a.223.223,0,0,1-.026.045.226.226,0,0,1-.027.013l-.044.013-.045.01a.075.075,0,0,0-.026.011.18.18,0,0,0-.023.07.2.2,0,0,1-.024.071.784.784,0,0,1-.07.073c-.037.035-.061.057-.071.068l.047.047-.037.039-.054.06a.815.815,0,0,1-.058.058.165.165,0,0,1-.039.031c-.01.007-.034.021-.071.042s-.077.044-.122.068-.09.048-.134.07-.076.042-.1.055a.1.1,0,0,1-.034.019l-.067.028c-.027.011-.053.021-.079.029l-.055.019a.583.583,0,0,1-.073.026l-.068.021c-.017.007-.045.015-.083.026l-.12.031-.113.026a.47.47,0,0,1-.06.011l-.076.013-.1.015q-.049.009-.094.013a.55.55,0,0,1-.06.006h-.564l-.042-.006c-.021,0-.045-.007-.07-.013l-.074-.015-.05-.013a.382.382,0,0,0-.047-.021.192.192,0,0,1-.046-.026.066.066,0,0,1-.048-.047.243.243,0,0,1-.031-.053c-.014-.028-.029-.057-.044-.089s-.03-.06-.042-.086-.02-.044-.024-.055Z" fill="#fff"/>
              </g>
            </g>
            <g id="Grupo_145610" data-name="Grupo 145610">
              <path id="Trazado_244274" data-name="Trazado 244274" d="M4503.972-4116.261c.254.186.2.339-.111.339h-14.126a.575.575,0,0,1-.573-.573v-10.066c0-.316.208-.421.462-.234Zm-12.312-2.732a.575.575,0,0,0,.573.573h4c.315,0,.365-.153.111-.34l-4.227-3.1c-.254-.187-.462-.082-.462.233Z" fill="#fff59d"/>
              <rect id="Rectángulo_43431" data-name="Rectángulo 43431" width="0.176" height="1.211" transform="translate(4490.837 -4117.133)" fill="#0c8485"/>
              <rect id="Rectángulo_43432" data-name="Rectángulo 43432" width="0.176" height="0.627" transform="translate(4491.264 -4116.549)" fill="#0c8485"/>
              <rect id="Rectángulo_43433" data-name="Rectángulo 43433" width="0.177" height="0.627" transform="translate(4491.689 -4116.549)" fill="#0c8485"/>
              <rect id="Rectángulo_43434" data-name="Rectángulo 43434" width="0.177" height="0.627" transform="translate(4492.115 -4116.549)" fill="#0c8485"/>
              <rect id="Rectángulo_43435" data-name="Rectángulo 43435" width="0.177" height="0.627" transform="translate(4492.542 -4116.549)" fill="#0c8485"/>
              <rect id="Rectángulo_43436" data-name="Rectángulo 43436" width="0.177" height="1.211" transform="translate(4492.967 -4117.133)" fill="#0c8485"/>
              <rect id="Rectángulo_43437" data-name="Rectángulo 43437" width="0.176" height="0.627" transform="translate(4493.394 -4116.549)" fill="#0c8485"/>
              <rect id="Rectángulo_43438" data-name="Rectángulo 43438" width="0.176" height="0.627" transform="translate(4493.819 -4116.549)" fill="#0c8485"/>
              <rect id="Rectángulo_43439" data-name="Rectángulo 43439" width="0.177" height="0.627" transform="translate(4494.246 -4116.549)" fill="#0c8485"/>
              <rect id="Rectángulo_43440" data-name="Rectángulo 43440" width="0.177" height="0.627" transform="translate(4494.671 -4116.549)" fill="#0c8485"/>
              <rect id="Rectángulo_43441" data-name="Rectángulo 43441" width="0.176" height="1.211" transform="translate(4495.098 -4117.133)" fill="#0c8485"/>
              <rect id="Rectángulo_43442" data-name="Rectángulo 43442" width="0.176" height="0.627" transform="translate(4495.523 -4116.549)" fill="#0c8485"/>
              <rect id="Rectángulo_43443" data-name="Rectángulo 43443" width="0.176" height="0.627" transform="translate(4495.95 -4116.549)" fill="#0c8485"/>
              <rect id="Rectángulo_43444" data-name="Rectángulo 43444" width="0.177" height="0.627" transform="translate(4496.375 -4116.549)" fill="#0c8485"/>
              <rect id="Rectángulo_43445" data-name="Rectángulo 43445" width="0.177" height="0.627" transform="translate(4496.801 -4116.549)" fill="#0c8485"/>
              <rect id="Rectángulo_43446" data-name="Rectángulo 43446" width="0.176" height="1.211" transform="translate(4497.228 -4117.133)" fill="#0c8485"/>
              <rect id="Rectángulo_43447" data-name="Rectángulo 43447" width="0.176" height="0.627" transform="translate(4497.654 -4116.549)" fill="#0c8485"/>
              <rect id="Rectángulo_43448" data-name="Rectángulo 43448" width="0.177" height="0.627" transform="translate(4498.08 -4116.549)" fill="#0c8485"/>
              <rect id="Rectángulo_43449" data-name="Rectángulo 43449" width="0.176" height="0.627" transform="translate(4498.505 -4116.549)" fill="#0c8485"/>
              <rect id="Rectángulo_43450" data-name="Rectángulo 43450" width="0.176" height="0.627" transform="translate(4498.932 -4116.549)" fill="#0c8485"/>
              <rect id="Rectángulo_43451" data-name="Rectángulo 43451" width="0.176" height="1.211" transform="translate(4499.357 -4117.133)" fill="#0c8485"/>
              <rect id="Rectángulo_43452" data-name="Rectángulo 43452" width="0.176" height="0.627" transform="translate(4499.784 -4116.549)" fill="#0c8485"/>
              <rect id="Rectángulo_43453" data-name="Rectángulo 43453" width="0.176" height="0.627" transform="translate(4500.209 -4116.549)" fill="#0c8485"/>
              <rect id="Rectángulo_43454" data-name="Rectángulo 43454" width="0.176" height="0.627" transform="translate(4500.635 -4116.549)" fill="#0c8485"/>
              <rect id="Rectángulo_43455" data-name="Rectángulo 43455" width="0.176" height="0.627" transform="translate(4501.062 -4116.549)" fill="#0c8485"/>
              <rect id="Rectángulo_43456" data-name="Rectángulo 43456" width="0.176" height="1.211" transform="translate(4501.488 -4117.133)" fill="#0c8485"/>
            </g>
            <g id="Grupo_145613" data-name="Grupo 145613">
              <g id="Grupo_145611" data-name="Grupo 145611">
                <path id="Trazado_244275" data-name="Trazado 244275" d="M4565.281-4097.859a.214.214,0,0,0-.215-.212l-.7,0a.363.363,0,0,1-.3-.192l-.315-.541a.363.363,0,0,1-.018-.359l.348-.609a.214.214,0,0,0-.079-.291l-1.3-.743a.215.215,0,0,0-.292.079l-.348.609a.366.366,0,0,1-.319.167h-.626a.36.36,0,0,1-.32-.164l-.353-.6a.213.213,0,0,0-.292-.077l-1.292.752a.215.215,0,0,0-.077.292l.353.606a.314.314,0,0,1,0,.322,5.2,5.2,0,0,0-.278.452c-.043.087-.233.323-.351.323l-.7,0a.216.216,0,0,0-.213.214l.006,1.5a.213.213,0,0,0,.214.212l.7,0a.363.363,0,0,1,.3.193l.315.54a.364.364,0,0,1,.018.359l-.348.609a.214.214,0,0,0,.079.292l1.3.742a.214.214,0,0,0,.291-.079l.349-.609a.365.365,0,0,1,.319-.167h.625a.361.361,0,0,1,.32.164l.353.606a.215.215,0,0,0,.292.077l1.292-.753a.215.215,0,0,0,.077-.292l-.352-.6a.316.316,0,0,1,0-.323,4.891,4.891,0,0,0,.277-.452c.044-.087.234-.323.351-.324l.7,0a.214.214,0,0,0,.213-.214Zm-3.833,2.679a1.962,1.962,0,0,1-1.961-1.961,1.961,1.961,0,0,1,1.961-1.961,1.961,1.961,0,0,1,1.961,1.961A1.961,1.961,0,0,1,4561.448-4095.18Z" fill="#0c8485"/>
                <path id="Trazado_244276" data-name="Trazado 244276" d="M4561.44-4094.964a2.173,2.173,0,0,1-2.171-2.171,2.174,2.174,0,0,1,2.171-2.171,2.173,2.173,0,0,1,2.171,2.171A2.173,2.173,0,0,1,4561.44-4094.964Zm0-3.706a1.536,1.536,0,0,0-1.535,1.535,1.537,1.537,0,0,0,1.535,1.535,1.537,1.537,0,0,0,1.535-1.535A1.537,1.537,0,0,0,4561.44-4098.67Z" fill="#036b6d"/>
              </g>
              <g id="Grupo_145612" data-name="Grupo 145612">
                <path id="Trazado_244277" data-name="Trazado 244277" d="M4568.64-4101.28a.127.127,0,0,0-.127-.126l-.412,0a.214.214,0,0,1-.178-.113l-.186-.318a.213.213,0,0,1-.01-.212l.2-.358a.125.125,0,0,0-.046-.171l-.763-.437a.127.127,0,0,0-.172.047l-.205.358a.215.215,0,0,1-.187.1h-.369a.217.217,0,0,1-.188-.1l-.207-.356a.125.125,0,0,0-.172-.045l-.76.442a.126.126,0,0,0-.045.172l.207.356a.184.184,0,0,1,0,.19,2.936,2.936,0,0,0-.163.266c-.026.051-.138.19-.207.19l-.412,0a.126.126,0,0,0-.125.126l0,.879a.126.126,0,0,0,.126.126l.412,0a.213.213,0,0,1,.179.114l.186.317a.217.217,0,0,1,.01.212l-.205.358a.126.126,0,0,0,.047.171l.763.437a.127.127,0,0,0,.172-.046l.205-.358a.212.212,0,0,1,.187-.1h.368a.212.212,0,0,1,.188.1l.208.356a.128.128,0,0,0,.172.046l.76-.443a.125.125,0,0,0,.045-.172l-.207-.356a.186.186,0,0,1,0-.19,2.653,2.653,0,0,0,.163-.266c.026-.051.138-.19.207-.19l.412,0a.126.126,0,0,0,.125-.126Zm-2.255,1.576a1.154,1.154,0,0,1-1.154-1.154,1.154,1.154,0,0,1,1.154-1.154,1.154,1.154,0,0,1,1.153,1.154A1.154,1.154,0,0,1,4566.385-4099.7Z" fill="#0c8485"/>
                <path id="Trazado_244278" data-name="Trazado 244278" d="M4566.38-4099.578a1.278,1.278,0,0,1-1.277-1.277,1.278,1.278,0,0,1,1.277-1.277,1.279,1.279,0,0,1,1.277,1.277A1.278,1.278,0,0,1,4566.38-4099.578Zm0-2.18a.9.9,0,0,0-.9.9.9.9,0,0,0,.9.9.9.9,0,0,0,.9-.9A.9.9,0,0,0,4566.38-4101.758Z" fill="#036b6d"/>
              </g>
            </g>
            <g id="Grupo_145614" data-name="Grupo 145614">
              <path id="Trazado_244279" data-name="Trazado 244279" d="M4495.818-4110a.131.131,0,0,0-.131-.129l-.426,0a.22.22,0,0,1-.184-.118l-.193-.328a.222.222,0,0,1-.01-.219l.212-.37a.13.13,0,0,0-.049-.177l-.788-.452a.132.132,0,0,0-.178.048l-.212.37a.22.22,0,0,1-.194.1h-.38a.221.221,0,0,1-.2-.1l-.214-.368a.13.13,0,0,0-.178-.047l-.785.458a.129.129,0,0,0-.047.177l.214.368a.19.19,0,0,1,0,.2,3.024,3.024,0,0,0-.169.275c-.026.053-.141.2-.213.2h-.426a.13.13,0,0,0-.129.131l0,.909a.13.13,0,0,0,.13.13l.426,0a.221.221,0,0,1,.185.117l.192.329a.223.223,0,0,1,.011.218l-.212.37a.13.13,0,0,0,.048.178l.789.451a.13.13,0,0,0,.177-.048l.212-.37a.223.223,0,0,1,.194-.1h.381a.221.221,0,0,1,.194.1l.215.369a.131.131,0,0,0,.177.047l.786-.458a.13.13,0,0,0,.047-.178l-.215-.368a.192.192,0,0,1,0-.2,3.015,3.015,0,0,0,.168-.275c.027-.053.142-.2.214-.2h.426a.13.13,0,0,0,.129-.131Zm-2.331,1.629a1.192,1.192,0,0,1-1.193-1.192,1.193,1.193,0,0,1,1.193-1.193,1.193,1.193,0,0,1,1.192,1.193A1.192,1.192,0,0,1,4493.487-4108.366Z" fill="#0c8485"/>
              <path id="Trazado_244280" data-name="Trazado 244280" d="M4493.482-4108.235a1.321,1.321,0,0,1-1.32-1.32,1.321,1.321,0,0,1,1.32-1.32,1.321,1.321,0,0,1,1.32,1.32A1.321,1.321,0,0,1,4493.482-4108.235Zm0-2.253a.934.934,0,0,0-.934.933.935.935,0,0,0,.934.934.935.935,0,0,0,.933-.934A.934.934,0,0,0,4493.482-4110.488Z" fill="#036b6d"/>
            </g>
            <g id="Grupo_145615" data-name="Grupo 145615">
              <path id="Trazado_244281" data-name="Trazado 244281" d="M4542.8-4081.256a.131.131,0,0,0-.131-.129h-.425a.218.218,0,0,1-.185-.117l-.192-.328a.222.222,0,0,1-.011-.219l.212-.37a.129.129,0,0,0-.049-.177l-.788-.452a.132.132,0,0,0-.178.048l-.211.37a.223.223,0,0,1-.194.1h-.381a.222.222,0,0,1-.2-.1l-.214-.368a.131.131,0,0,0-.178-.047l-.785.457a.13.13,0,0,0-.047.178l.214.369a.189.189,0,0,1,0,.2,2.787,2.787,0,0,0-.168.275c-.027.053-.142.2-.214.2h-.426a.13.13,0,0,0-.129.131l0,.909a.129.129,0,0,0,.131.129h.426a.224.224,0,0,1,.184.117l.192.329a.217.217,0,0,1,.011.218l-.212.37a.131.131,0,0,0,.048.178l.789.451a.131.131,0,0,0,.178-.048l.211-.37a.224.224,0,0,1,.194-.1h.381a.222.222,0,0,1,.194.1l.215.369a.131.131,0,0,0,.177.046l.786-.457a.131.131,0,0,0,.047-.178l-.214-.368a.192.192,0,0,1,0-.2,3.019,3.019,0,0,0,.168-.275c.027-.053.142-.2.214-.2h.426a.129.129,0,0,0,.129-.131Zm-2.331,1.629a1.193,1.193,0,0,1-1.193-1.192,1.193,1.193,0,0,1,1.193-1.193,1.193,1.193,0,0,1,1.192,1.193A1.193,1.193,0,0,1,4540.466-4079.627Z" fill="#0c8485"/>
              <path id="Trazado_244282" data-name="Trazado 244282" d="M4540.461-4079.5a1.321,1.321,0,0,1-1.32-1.32,1.321,1.321,0,0,1,1.32-1.32,1.321,1.321,0,0,1,1.32,1.32A1.321,1.321,0,0,1,4540.461-4079.5Zm0-2.254a.935.935,0,0,0-.934.934.934.934,0,0,0,.934.933.933.933,0,0,0,.933-.933A.934.934,0,0,0,4540.461-4081.75Z" fill="#036b6d"/>
            </g>
            <path id="Trazado_244283" data-name="Trazado 244283" d="M4510.3-4145.164a5.565,5.565,0,0,0-5.565,5.566,5.565,5.565,0,0,0,5.565,5.566,5.566,5.566,0,0,0,5.566-5.566A5.566,5.566,0,0,0,4510.3-4145.164Zm0,7.834a2.268,2.268,0,0,1-2.268-2.268,2.269,2.269,0,0,1,2.268-2.269,2.269,2.269,0,0,1,2.269,2.269A2.268,2.268,0,0,1,4510.3-4137.33Z" fill="#0f3041"/>
            <path id="Trazado_244284" data-name="Trazado 244284" d="M4556.966-4132a2.655,2.655,0,0,0-2.655,2.655,2.655,2.655,0,0,0,2.655,2.656,2.656,2.656,0,0,0,2.656-2.656A2.656,2.656,0,0,0,4556.966-4132Zm0,3.738a1.083,1.083,0,0,1-1.082-1.083,1.083,1.083,0,0,1,1.082-1.082,1.082,1.082,0,0,1,1.082,1.082A1.082,1.082,0,0,1,4556.966-4128.258Z" fill="#0f3041"/>
            <g id="Grupo_145616" data-name="Grupo 145616">
              <rect id="Rectángulo_43457" data-name="Rectángulo 43457" width="19.73" height="3.676" rx="0.573" transform="translate(4523.502 -4101.871)" fill="#fff59d"/>
              <rect id="Rectángulo_43458" data-name="Rectángulo 43458" width="0.176" height="1.211" transform="translate(4524.699 -4099.406)" fill="#0c8485"/>
              <rect id="Rectángulo_43459" data-name="Rectángulo 43459" width="0.176" height="0.627" transform="translate(4525.125 -4098.822)" fill="#0c8485"/>
              <rect id="Rectángulo_43460" data-name="Rectángulo 43460" width="0.176" height="0.627" transform="translate(4525.551 -4098.822)" fill="#0c8485"/>
              <rect id="Rectángulo_43461" data-name="Rectángulo 43461" width="0.177" height="0.627" transform="translate(4525.977 -4098.822)" fill="#0c8485"/>
              <rect id="Rectángulo_43462" data-name="Rectángulo 43462" width="0.176" height="0.627" transform="translate(4526.403 -4098.822)" fill="#0c8485"/>
              <rect id="Rectángulo_43463" data-name="Rectángulo 43463" width="0.177" height="1.211" transform="translate(4526.829 -4099.406)" fill="#0c8485"/>
              <rect id="Rectángulo_43464" data-name="Rectángulo 43464" width="0.176" height="0.627" transform="translate(4527.255 -4098.822)" fill="#0c8485"/>
              <rect id="Rectángulo_43465" data-name="Rectángulo 43465" width="0.176" height="0.627" transform="translate(4527.681 -4098.822)" fill="#0c8485"/>
              <rect id="Rectángulo_43466" data-name="Rectángulo 43466" width="0.177" height="0.627" transform="translate(4528.107 -4098.822)" fill="#0c8485"/>
              <rect id="Rectángulo_43467" data-name="Rectángulo 43467" width="0.176" height="0.627" transform="translate(4528.533 -4098.822)" fill="#0c8485"/>
              <rect id="Rectángulo_43468" data-name="Rectángulo 43468" width="0.176" height="1.211" transform="translate(4528.959 -4099.406)" fill="#0c8485"/>
              <rect id="Rectángulo_43469" data-name="Rectángulo 43469" width="0.176" height="0.627" transform="translate(4529.385 -4098.822)" fill="#0c8485"/>
              <rect id="Rectángulo_43470" data-name="Rectángulo 43470" width="0.176" height="0.627" transform="translate(4529.811 -4098.822)" fill="#0c8485"/>
              <rect id="Rectángulo_43471" data-name="Rectángulo 43471" width="0.177" height="0.627" transform="translate(4530.237 -4098.822)" fill="#0c8485"/>
              <rect id="Rectángulo_43472" data-name="Rectángulo 43472" width="0.177" height="0.627" transform="translate(4530.663 -4098.822)" fill="#0c8485"/>
              <rect id="Rectángulo_43473" data-name="Rectángulo 43473" width="0.176" height="1.211" transform="translate(4531.089 -4099.406)" fill="#0c8485"/>
              <rect id="Rectángulo_43474" data-name="Rectángulo 43474" width="0.176" height="0.627" transform="translate(4531.515 -4098.822)" fill="#0c8485"/>
              <rect id="Rectángulo_43475" data-name="Rectángulo 43475" width="0.177" height="0.627" transform="translate(4531.941 -4098.822)" fill="#0c8485"/>
              <rect id="Rectángulo_43476" data-name="Rectángulo 43476" width="0.176" height="0.627" transform="translate(4532.367 -4098.822)" fill="#0c8485"/>
              <rect id="Rectángulo_43477" data-name="Rectángulo 43477" width="0.176" height="0.627" transform="translate(4532.793 -4098.822)" fill="#0c8485"/>
              <rect id="Rectángulo_43478" data-name="Rectángulo 43478" width="0.176" height="1.211" transform="translate(4533.219 -4099.406)" fill="#0c8485"/>
              <rect id="Rectángulo_43479" data-name="Rectángulo 43479" width="0.176" height="0.627" transform="translate(4533.645 -4098.822)" fill="#0c8485"/>
              <rect id="Rectángulo_43480" data-name="Rectángulo 43480" width="0.176" height="0.627" transform="translate(4534.071 -4098.822)" fill="#0c8485"/>
              <rect id="Rectángulo_43481" data-name="Rectángulo 43481" width="0.176" height="0.627" transform="translate(4534.497 -4098.822)" fill="#0c8485"/>
              <rect id="Rectángulo_43482" data-name="Rectángulo 43482" width="0.176" height="0.627" transform="translate(4534.923 -4098.822)" fill="#0c8485"/>
              <rect id="Rectángulo_43483" data-name="Rectángulo 43483" width="0.176" height="1.211" transform="translate(4535.349 -4099.406)" fill="#0c8485"/>
              <rect id="Rectángulo_43484" data-name="Rectángulo 43484" width="0.176" height="1.211" transform="translate(4535.349 -4099.406)" fill="#0c8485"/>
              <rect id="Rectángulo_43485" data-name="Rectángulo 43485" width="0.176" height="0.627" transform="translate(4535.775 -4098.822)" fill="#0c8485"/>
              <rect id="Rectángulo_43486" data-name="Rectángulo 43486" width="0.177" height="0.627" transform="translate(4536.201 -4098.822)" fill="#0c8485"/>
              <rect id="Rectángulo_43487" data-name="Rectángulo 43487" width="0.177" height="0.627" transform="translate(4536.627 -4098.822)" fill="#0c8485"/>
              <rect id="Rectángulo_43488" data-name="Rectángulo 43488" width="0.177" height="0.627" transform="translate(4537.053 -4098.822)" fill="#0c8485"/>
              <rect id="Rectángulo_43489" data-name="Rectángulo 43489" width="0.177" height="1.211" transform="translate(4537.479 -4099.406)" fill="#0c8485"/>
              <rect id="Rectángulo_43490" data-name="Rectángulo 43490" width="0.176" height="0.627" transform="translate(4537.905 -4098.822)" fill="#0c8485"/>
              <rect id="Rectángulo_43491" data-name="Rectángulo 43491" width="0.176" height="0.627" transform="translate(4538.331 -4098.822)" fill="#0c8485"/>
              <rect id="Rectángulo_43492" data-name="Rectángulo 43492" width="0.177" height="0.627" transform="translate(4538.757 -4098.822)" fill="#0c8485"/>
              <rect id="Rectángulo_43493" data-name="Rectángulo 43493" width="0.177" height="0.627" transform="translate(4539.183 -4098.822)" fill="#0c8485"/>
              <rect id="Rectángulo_43494" data-name="Rectángulo 43494" width="0.176" height="1.211" transform="translate(4539.609 -4099.406)" fill="#0c8485"/>
              <rect id="Rectángulo_43495" data-name="Rectángulo 43495" width="0.176" height="0.627" transform="translate(4540.035 -4098.822)" fill="#0c8485"/>
              <rect id="Rectángulo_43496" data-name="Rectángulo 43496" width="0.176" height="0.627" transform="translate(4540.461 -4098.822)" fill="#0c8485"/>
              <rect id="Rectángulo_43497" data-name="Rectángulo 43497" width="0.176" height="0.627" transform="translate(4540.887 -4098.822)" fill="#0c8485"/>
              <rect id="Rectángulo_43498" data-name="Rectángulo 43498" width="0.177" height="0.627" transform="translate(4541.313 -4098.822)" fill="#0c8485"/>
              <rect id="Rectángulo_43499" data-name="Rectángulo 43499" width="0.176" height="1.211" transform="translate(4541.739 -4099.406)" fill="#0c8485"/>
            </g>
            <g id="Grupo_145617" data-name="Grupo 145617">
              <path id="Trazado_244285" data-name="Trazado 244285" d="M4546.1-4128.776a.946.946,0,0,0-.945.945v2.1a.946.946,0,0,0,.945.945h2.719v-3.987Z" fill="#f1e4c4"/>
              <path id="Trazado_244286" data-name="Trazado 244286" d="M4551.242-4128.776h-2.424v3.987h2.424a.945.945,0,0,0,.945-.945v-2.1A.945.945,0,0,0,4551.242-4128.776Z" fill="#d84318"/>
            </g>
            <g id="Grupo_145618" data-name="Grupo 145618">
              <rect id="Rectángulo_43500" data-name="Rectángulo 43500" width="1.826" height="1.494" rx="0.291" transform="translate(4505.156 -4092.986) rotate(-41.077)" fill="#f1e4c4"/>
              <rect id="Rectángulo_43501" data-name="Rectángulo 43501" width="0.624" height="6.699" transform="translate(4502.055 -4098.375) rotate(-41.057)" fill="#fff59d"/>
              <rect id="Rectángulo_43502" data-name="Rectángulo 43502" width="0.624" height="6.699" transform="translate(4501.603 -4097.98) rotate(-41.054)" fill="#0c8485"/>
              <rect id="Rectángulo_43503" data-name="Rectángulo 43503" width="0.624" height="6.699" transform="matrix(0.754, -0.657, 0.657, 0.754, 4501.149, -4097.585)" fill="#fff59d"/>
              <path id="Trazado_244287" data-name="Trazado 244287" d="M4500.677-4099.022l.489-.426-.75-.368Z" fill="#0c8485"/>
              <path id="Trazado_244288" data-name="Trazado 244288" d="M4501.149-4097.585l1.376-1.2-1.359-.664-.489.426Z" fill="#f1e4c4"/>
            </g>
            <g id="Grupo_145619" data-name="Grupo 145619">
              <rect id="Rectángulo_43504" data-name="Rectángulo 43504" width="2.483" height="3.141" transform="translate(4545.919 -4089.815)" fill="#0c8485"/>
              <rect id="Rectángulo_43505" data-name="Rectángulo 43505" width="2.483" height="4.786" transform="translate(4549.261 -4091.459)" fill="#fff59d"/>
              <rect id="Rectángulo_43506" data-name="Rectángulo 43506" width="2.483" height="6.198" transform="translate(4552.604 -4092.872)" fill="#d84318"/>
            </g>
            <g id="Grupo_145620" data-name="Grupo 145620">
              <path id="Trazado_244289" data-name="Trazado 244289" d="M4555.271-4095.673h-8.945v-8.458c0-.3.653-.394.653,0v7.8h8.292C4555.728-4096.326,4555.881-4095.673,4555.271-4095.673Z" fill="#081928"/>
              <path id="Trazado_244290" data-name="Trazado 244290" d="M4547.7-4097.424a.194.194,0,0,1-.1-.029.2.2,0,0,1-.062-.27l.718-1.152a.2.2,0,0,1,.267-.064l.764.456,2.31-3a.2.2,0,0,1,.189-.073.2.2,0,0,1,.153.133l.452,1.415,1.738-3.05a.2.2,0,0,1,.267-.073.2.2,0,0,1,.073.267l-1.959,3.438a.192.192,0,0,1-.19.1.2.2,0,0,1-.167-.135l-.474-1.485-2.188,2.839a.194.194,0,0,1-.255.049l-.749-.447-.617.988A.194.194,0,0,1,4547.7-4097.424Z" fill="#fff59d"/>
            </g>
            <g id="Grupo_145621" data-name="Grupo 145621">
              <path id="Trazado_244291" data-name="Trazado 244291" d="M4516.781-4113.549a.175.175,0,0,0,.171.178l.32.006a.442.442,0,0,1,.287.137l.3.354a1.388,1.388,0,0,0,.141.14l.71-.039a.243.243,0,0,0,.121-.093l.241-.322a.384.384,0,0,1,.279-.137l.232.005a.175.175,0,0,0,.178-.171l.013-.688a.175.175,0,0,0-.171-.178l-2.63-.051a.176.176,0,0,0-.178.172Z" fill="#0f3041"/>
              <path id="Trazado_244292" data-name="Trazado 244292" d="M4517.317-4108.658l-.555-.036-.012.635.555.036Z" fill="#0f3041"/>
              <path id="Trazado_244293" data-name="Trazado 244293" d="M4517.365-4111.17l-.441-.007-.012.634.441.007Z" fill="#0f3041"/>
              <path id="Trazado_244294" data-name="Trazado 244294" d="M4518.809-4110.546l-.06.12c-.02-1.3-.015-2.357-.015-2.357l-.75.036s-.027.5-.048,1.249l-.564-.011-.026,1.317.551.011c-.012.379-.024.78-.038,1.187l-.536-.01-.025,1.316.515.01c-.015.412-.031.813-.047,1.187l-.491-.009-.026,1.317.453.009c-.014.228-.027.421-.04.568a4.965,4.965,0,0,1-.132.614h0l-.006.016s-.024.08-.071.211a20.853,20.853,0,0,1-2.138,3.85c-.055.078-.022.142.075.141l5.467.015a.149.149,0,0,0,.092-.21s-1.048-2.216-1.616-3.76c-.05-.135-.078-.218-.078-.218l-.007-.016h0c-.027-.081-.094-.283-.123-.377a1.065,1.065,0,0,0,.747.347c1.129.022,1.756-1.852,1.793-3.714s-.519-3.76-1.648-3.781C4519.511-4111.5,4519.106-4111.126,4518.809-4110.546Zm.145,2.786c.035-1.814.655-3.007,1.049-3s.968,1.223.933,3.038-.655,3.006-1.05,3S4518.918-4105.945,4518.954-4107.76Z" fill="#fff59d"/>
              <path id="Trazado_244295" data-name="Trazado 244295" d="M4517.268-4106.158l-.443,0-.012.634.443,0Z" fill="#0f3041"/>
              <path id="Rectángulo_43507" data-name="Rectángulo 43507" d="M.174,0H1.747a.175.175,0,0,1,.175.175V.322A.175.175,0,0,1,1.747.5H.175A.175.175,0,0,1,0,.322V.174A.174.174,0,0,1,.174,0Z" transform="matrix(0.019, -1, 1, 0.019, 4516.404, -4109.908)" fill="#f05c42"/>
              <path id="Trazado_244296" data-name="Trazado 244296" d="M4516.793-4108.886v-.016l0-.278a.175.175,0,0,0-.171-.178l-.147,0a.175.175,0,0,0-.178.171l-.031,1.573a.177.177,0,0,0,.171.178l.148,0a.175.175,0,0,0,.178-.171Z" fill="#f05c42"/>
              <rect id="Rectángulo_43508" data-name="Rectángulo 43508" width="1.921" height="0.497" rx="0.175" transform="translate(4516.307 -4104.899) rotate(-88.879)" fill="#f05c42"/>
            </g>
            <g id="Grupo_145622" data-name="Grupo 145622">
              <path id="Trazado_244297" data-name="Trazado 244297" d="M4556.028-4105.687a1.9,1.9,0,0,0,1.308-.564,1.933,1.933,0,0,0,.553-1.068,5.062,5.062,0,0,1,.949-2.085.266.266,0,0,0,.27-.064.266.266,0,0,0,0-.377.266.266,0,0,0-.194-.079l-2.093,2.084a.431.431,0,0,1-.078.5.432.432,0,0,1-.61,0,.431.431,0,0,1,0-.609.43.43,0,0,1,.518-.066l2.086-2.077a.26.26,0,0,0-.077-.2.267.267,0,0,0-.377,0,.266.266,0,0,0-.065.27,5.449,5.449,0,0,1-2.218.977,1.947,1.947,0,0,0-.932.52,1.9,1.9,0,0,0-.57,1.294l-.688.558s-.281.147-.072.356,1.006,1.012,1.316,1.322a.269.269,0,0,0,.454-.057Z" fill="#0f3041"/>
              <rect id="Rectángulo_43509" data-name="Rectángulo 43509" width="1.237" height="1.554" rx="0.158" transform="matrix(0.709, -0.706, 0.706, 0.709, 4553.118, -4105.446)" fill="#0f3041"/>
            </g>
            <g id="Grupo_145624" data-name="Grupo 145624">
              <g id="Grupo_145623" data-name="Grupo 145623">
                <path id="Trazado_244298" data-name="Trazado 244298" d="M4566.242-4129.163a.463.463,0,0,0,.4.3.465.465,0,0,0,.442-.226,2.781,2.781,0,0,1,1.292-1.212,15.826,15.826,0,0,1-1.054-3.13A3.416,3.416,0,0,0,4566.242-4129.163Z" fill="#6cad7e"/>
                <path id="Trazado_244299" data-name="Trazado 244299" d="M4571.848-4133.424a15.836,15.836,0,0,1-1.055,3.125,2.8,2.8,0,0,1,1.285,1.209.466.466,0,0,0,.441.227.466.466,0,0,0,.394-.3A3.416,3.416,0,0,0,4571.848-4133.424Z" fill="#6cad7e"/>
                <path id="Trazado_244300" data-name="Trazado 244300" d="M4572.131-4135.779a7.227,7.227,0,0,0-2.169-5.175.6.6,0,0,0-.423-.172.589.589,0,0,0-.418.18,7.331,7.331,0,0,0-2.087,5.167,12.847,12.847,0,0,0,1.532,5.813h2.033A12.863,12.863,0,0,0,4572.131-4135.779Z" fill="#d84318"/>
                <rect id="Rectángulo_43510" data-name="Rectángulo 43510" width="2.901" height="0.714" transform="translate(4568.15 -4130.055)" fill="#fff59d"/>
              </g>
              <path id="Trazado_244301" data-name="Trazado 244301" d="M4570.731-4137.024a1.165,1.165,0,0,1-1.165,1.165,1.164,1.164,0,0,1-1.164-1.165,1.164,1.164,0,0,1,1.164-1.164A1.165,1.165,0,0,1,4570.731-4137.024Z" fill="#fff"/>
            </g>
            <path id="Trazado_244302" data-name="Trazado 244302" d="M4560.321-4103.813l-.325.984h-.418l1.063-3.128h.487l1.068,3.128h-.432l-.334-.984Zm1.026-.315-.307-.9c-.07-.2-.116-.39-.162-.571h-.01c-.046.186-.1.376-.157.566l-.307.906Z" fill="#fff59d"/>
            <path id="Trazado_244303" data-name="Trazado 244303" d="M4521.273-4096.489a3.9,3.9,0,0,1,.738-.065,1.3,1.3,0,0,1,.858.227.656.656,0,0,1,.26.553.742.742,0,0,1-.529.687v.009a.806.806,0,0,1,.645.785.844.844,0,0,1-.264.626,1.569,1.569,0,0,1-1.082.292,4.633,4.633,0,0,1-.626-.037Zm.4,1.281h.367c.427,0,.678-.223.678-.524,0-.367-.279-.511-.687-.511a1.717,1.717,0,0,0-.358.028Zm0,1.5a2.156,2.156,0,0,0,.339.019c.418,0,.8-.153.8-.608,0-.427-.367-.6-.807-.6h-.335Z" fill="#d84318"/>
            <path id="Trazado_244304" data-name="Trazado 244304" d="M4566.1-4138.737a2.018,2.018,0,0,1-.826.148,1.462,1.462,0,0,1-1.546-1.583,1.557,1.557,0,0,1,1.634-1.643,1.687,1.687,0,0,1,.743.139l-.1.33a1.479,1.479,0,0,0-.631-.13,1.163,1.163,0,0,0-1.221,1.29,1.137,1.137,0,0,0,1.2,1.258,1.612,1.612,0,0,0,.659-.13Z" fill="#0c8485"/>
            <g id="Grupo_145635" data-name="Grupo 145635">
              <g id="Grupo_145630" data-name="Grupo 145630">
                <g id="Grupo_145629" data-name="Grupo 145629">
                  <rect id="Rectángulo_43511" data-name="Rectángulo 43511" width="2.069" height="1.221" transform="translate(4509.698 -4113.93)" fill="#102f41"/>
                  <g id="Grupo_145627" data-name="Grupo 145627">
                    <g id="Grupo_145626" data-name="Grupo 145626">
                      <g id="Grupo_145625" data-name="Grupo 145625">
                        <path id="Trazado_244305" data-name="Trazado 244305" d="M4512.571-4114.112l.732-.366-4.317-8.052-.713.382Z" fill="#102f41"/>
                      </g>
                    </g>
                  </g>
                  <g id="Grupo_145628" data-name="Grupo 145628">
                    <path id="Trazado_244306" data-name="Trazado 244306" d="M4509.612-4122.32a4.457,4.457,0,0,0-2.95,3.985,4.172,4.172,0,0,0,4.167,4.167,4.808,4.808,0,0,0,2.812-1.1c.3-.374,1.135,0,.337.565a5.748,5.748,0,0,1-3.149,1.178,4.82,4.82,0,0,1-4.815-4.815c0-2.119,1.731-4.288,3.281-4.563C4509.8-4122.989,4510.285-4122.629,4509.612-4122.32Z" fill="#d64329"/>
                  </g>
                </g>
              </g>
              <path id="Trazado_244307" data-name="Trazado 244307" d="M4507.889-4112.111c0-.677,1.335-.751,2.9-.751s2.766.074,2.766.751Z" fill="#d64329"/>
              <g id="Grupo_145634" data-name="Grupo 145634">
                <g id="Grupo_145633" data-name="Grupo 145633">
                  <path id="Trazado_244308" data-name="Trazado 244308" d="M4514.474-4118.318a3.552,3.552,0,0,1-3.552,3.552,3.551,3.551,0,0,1-3.552-3.552,3.552,3.552,0,0,1,3.552-3.551A3.552,3.552,0,0,1,4514.474-4118.318Z" fill="#6cad7e"/>
                  <g id="Grupo_145632" data-name="Grupo 145632">
                    <g id="Grupo_145631" data-name="Grupo 145631">
                      <path id="Trazado_244309" data-name="Trazado 244309" d="M4513.558-4119.347l.062.044h.058v-.111l.182-.017.172.128h.284l.02-.018c-.028-.1-.06-.189-.1-.281l-.185,0-.093-.1-.018-.164-.095.052-.051.2-.138-.146-.005-.138-.133-.114-.049-.049h-.154l.049.137.185.1.032.035-.04.02,0,.108-.091.038-.076-.017-.049-.068.125.006.034-.045-.277-.187-.021-.08-.113.1-.114-.024-.174.226-.034.089-.112.01h-.164l-.1-.046-.028-.2.035-.093.167-.037.183.037.022-.1-.077-.019.026-.157.184-.029.128-.182.133-.022.12.018h.044l-.024-.171-.146.059-.051-.127-.084-.012-.016-.087.069-.075.163-.065.043-.075a3.536,3.536,0,0,0-2.346-.888,3.53,3.53,0,0,0-2.088.681l.179,0,.08.044.151.033.011.059.24.009-.033-.077-.212-.006.05-.047-.018-.056h-.192l.21-.157h.2l.1.13.156.009.1-.091.071.035-.13.127-.171,0a.672.672,0,0,1,.015.124l.218-.006.024-.059.15-.009.018-.088-.089-.015.03-.08.068-.02.236.011-.13.118.021.092.136.02-.009-.165.13-.068.23-.026.334.147v.127l.106.027-.053.1h-.151l-.044.115-.345-.081.271-.144-.1-.088-.234.03-.02.021h0l0,.005-.068.07-.11.009.008.055.039.016v.018l-.091.013-.007.053-.086,0-.015-.1-.155.047-.317.186.036.13.088.058.177.025v.2l.082-.014.075-.157.189-.059v-.242l.1-.079.254.06-.018.16h.068l.186-.092.009.21.135.082,0,.124-.13.044.009.041.156.072,0,.086-.045,0v0l-.2-.061-.009-.063h0l.058-.04v-.058l-.062-.015-.016.053-.108.017-.011,0v.006l-.038,0-.031-.062-.035-.015h-.078l-.035.029v.064l.066.022.066.009-.015.006-.06.067-.026-.033-.058-.016-.157.148.02.017-.232.129-.218.227-.015.1-.219.143-.109.11.012.218-.151-.07v-.128h-.419l-.217.11-.094.174-.037.138.061.133.171.021.271-.182.024.091-.083.156.207.035.021.32.283.048.18-.208.219.044.077.107.209-.012.006-.062.116.056.129.2.225,0,.082.145.012.177.248.094.313,0,.092.15.139.045-.027.124-.152.193-.044.428-.138.109-.2-.007-.068.118.05.222-.222.284-.07.129-.212.1-.139.021,0,.059.1.028-.012.063-.087.084.053.067.1,0-.006.082-.028.079-.009.065.156.131-.021.068-.211,0-.211-.184-.164-.288.023-.278-.124-.166.051-.28-.074-.021v-.608s-.207-.157-.219-.157-.109-.026-.109-.026l-.021-.115-.268-.337.026-.121.009-.2.186-.13-.027-.221-.271-.021-.213-.242-.151-.041-.1-.018.012-.089-.124-.018v.051l-.31-.077-.125-.191.051-.093-.2-.286-.033-.21h-.08l.026.2.136.21-.014.082-.116-.017-.141-.242v-.28l-.148-.072v-.2a3.54,3.54,0,0,0-.284,1.391,3.557,3.557,0,0,0,3.554,3.553,3.549,3.549,0,0,0,2.756-1.313h-.117v-.237l-.136-.182v-.284l-.1-.1-.008-.119.131-.251-.249-.44.029-.3-.224-.023-.083-.083h-.151l-.076.071h-.266l-.009.023h-.148l-.339-.386,0-.3.056-.02.021-.116h-.08l-.033-.121.393-.283v-.2l.192-.106.078.007h.158l.124-.066.4-.031v.2Zm-1-1.267.032-.05.117-.023.029.141.063.1.041.047.075.03-.071.084-.137.013h-.1l.011-.122.086-.018-.007-.058-.08-.05-.056-.039Zm-.192.222.071-.114.1-.022.069.03-.006.076-.147.1h-.082Zm-1.931.437-.074.006,0-.051.033-.041.045.034Zm.26-.091-.051,0-.01.048-.039.025-.062,0,0-.026h-.024v-.052h.1l.021-.055h.04l.047.01Z" fill="#0c8485"/>
                    </g>
                  </g>
                </g>
              </g>
            </g>
            <g id="Grupo_145641" data-name="Grupo 145641">
              <g id="Grupo_145636" data-name="Grupo 145636">
                <path id="Trazado_244310" data-name="Trazado 244310" d="M4553.588-4114.919a1.854,1.854,0,0,0,1.463-.1,2.6,2.6,0,0,0,.9-1.265,2.483,2.483,0,0,1,.774-1.151c.666-.614,2.4-.529,2.723-.877a1.426,1.426,0,0,0,.333-.959,3.931,3.931,0,0,0-.118-1.361,3.683,3.683,0,0,0-.631-1.238,3.25,3.25,0,0,0-2.821-1.6,5.012,5.012,0,0,0-3.227,1.17,5.05,5.05,0,0,0-.655.515,4.633,4.633,0,0,0-1.086,1.938,4.021,4.021,0,0,0-.062,2.1A3.615,3.615,0,0,0,4553.588-4114.919Zm.138-2.223c.045-.53.285-.83.66-.8a.843.843,0,0,1,.743.917c-.045.529-.533,1.067-.908,1.035S4553.681-4116.613,4553.726-4117.142Z" fill="#fff59d"/>
              </g>
              <g id="Grupo_145637" data-name="Grupo 145637">
                <path id="Trazado_244311" data-name="Trazado 244311" d="M4555.689-4122.166a.868.868,0,0,1,1.226-.048.845.845,0,0,1,.012,1.207.831.831,0,0,1-1.194.055A.854.854,0,0,1,4555.689-4122.166Z" fill="#058486"/>
              </g>
              <g id="Grupo_145638" data-name="Grupo 145638">
                <path id="Trazado_244312" data-name="Trazado 244312" d="M4557.251-4120.323a.872.872,0,0,1,1.229-.047.858.858,0,0,1,.022,1.219.825.825,0,0,1-1.19.029A.839.839,0,0,1,4557.251-4120.323Z" fill="#102f41"/>
              </g>
              <g id="Grupo_145639" data-name="Grupo 145639">
                <path id="Trazado_244313" data-name="Trazado 244313" d="M4553.171-4121.77a.85.85,0,0,1,1.21-.064.868.868,0,0,1,.031,1.226.844.844,0,0,1-1.206.028A.825.825,0,0,1,4553.171-4121.77Z" fill="#d84318"/>
              </g>
              <g id="Grupo_145640" data-name="Grupo 145640">
                <path id="Trazado_244314" data-name="Trazado 244314" d="M4552-4119.575a.866.866,0,0,1,1.222-.065.867.867,0,0,1,.017,1.225.851.851,0,0,1-1.212.052A.851.851,0,0,1,4552-4119.575Z" fill="#6dae7e"/>
              </g>
            </g>
            <g id="Grupo_145643" data-name="Grupo 145643">
              <circle id="Elipse_5645" data-name="Elipse 5645" cx="3.571" cy="3.571" r="3.571" transform="translate(4505.497 -4108.113)" fill="#0c8485"/>
              <g id="Grupo_145642" data-name="Grupo 145642">
                <path id="Trazado_244315" data-name="Trazado 244315" d="M4508.579-4106.153c.067-.1.134-.2.2-.289.085-.116.169-.229.255-.338a1.915,1.915,0,0,1-1.091-1.15c.073-.025.146-.047.22-.066a1.732,1.732,0,0,0,1.008,1.045,8.127,8.127,0,0,1,.959-1c.077.024.153.052.228.081a7.456,7.456,0,0,0-.987,1.014,6.056,6.056,0,0,0,1.937.417c.3.029.581.056.845.108.048.082.093.165.134.251a6.937,6.937,0,0,0-1-.145,6.077,6.077,0,0,1-2.056-.458c-.092.118-.185.24-.276.366-.06.082-.119.166-.177.251a8.286,8.286,0,0,1,3.607,2.836c-.033.081-.067.161-.1.24a7.933,7.933,0,0,0-3.6-2.883l-.024-.011c-.141.216-.279.441-.409.673,1.065.6,1.548,2.618,1.889,4.074-.068.022-.138.041-.208.058-.332-1.417-.8-3.383-1.786-3.943a8.431,8.431,0,0,0-.98,2.869,5.125,5.125,0,0,0-.041.6c-.073-.048-.143-.1-.212-.149q.009-.24.039-.48a8.641,8.641,0,0,1,1-2.935,1.839,1.839,0,0,0-1.8.333,4.409,4.409,0,0,0-.632.558c-.009-.1-.014-.194-.015-.292a4.565,4.565,0,0,1,.521-.442,2.036,2.036,0,0,1,2.035-.348c.129-.229.264-.452.4-.665a11.292,11.292,0,0,0-2.256-.7c.048-.065.1-.127.151-.188A11.64,11.64,0,0,1,4508.579-4106.153Z" fill="none"/>
                <path id="Trazado_244316" data-name="Trazado 244316" d="M4508.78-4106.065c.058-.085.117-.169.177-.251.091-.126.184-.248.276-.366a6.077,6.077,0,0,0,2.056.458,6.937,6.937,0,0,1,1,.145,3.537,3.537,0,0,1,.349,1.537,3.567,3.567,0,0,1-.251,1.313A8.286,8.286,0,0,0,4508.78-4106.065Z" fill="#d84318"/>
                <path id="Trazado_244317" data-name="Trazado 244317" d="M4506.145-4104.781a1.839,1.839,0,0,1,1.8-.333,8.641,8.641,0,0,0-1,2.935q-.03.24-.039.48a3.562,3.562,0,0,1-1.4-2.524A4.409,4.409,0,0,1,4506.145-4104.781Z" fill="#d84318"/>
                <path id="Trazado_244318" data-name="Trazado 244318" d="M4508.249-4105.21c.13-.232.268-.457.409-.673l.024.011a7.933,7.933,0,0,1,3.6,2.883,3.588,3.588,0,0,1-2.144,1.853C4509.8-4102.592,4509.314-4104.6,4508.249-4105.21Z" fill="#d84318"/>
                <path id="Trazado_244319" data-name="Trazado 244319" d="M4508.144-4105.021c.985.56,1.454,2.526,1.786,3.943a3.54,3.54,0,0,1-.863.106,3.552,3.552,0,0,1-1.944-.578,5.125,5.125,0,0,1,.041-.6A8.431,8.431,0,0,1,4508.144-4105.021Z" fill="#d84318"/>
                <path id="Trazado_244320" data-name="Trazado 244320" d="M4509.036-4106.78c-.086.109-.17.222-.255.338-.068.094-.135.19-.2.289a11.64,11.64,0,0,0-2.227-.7,3.575,3.575,0,0,1,1.593-1.075A1.915,1.915,0,0,0,4509.036-4106.78Z" fill="#d84318"/>
                <path id="Trazado_244321" data-name="Trazado 244321" d="M4509.173-4106.951a1.732,1.732,0,0,1-1.008-1.045,3.553,3.553,0,0,1,.9-.116,3.566,3.566,0,0,1,1.065.162A8.127,8.127,0,0,0,4509.173-4106.951Z" fill="#d84318"/>
                <path id="Trazado_244322" data-name="Trazado 244322" d="M4509.373-4106.855a7.456,7.456,0,0,1,.987-1.014,3.583,3.583,0,0,1,1.795,1.539c-.264-.052-.548-.079-.845-.108A6.056,6.056,0,0,1,4509.373-4106.855Z" fill="#d84318"/>
                <path id="Trazado_244323" data-name="Trazado 244323" d="M4508.054-4105.305a2.036,2.036,0,0,0-2.035.348,4.565,4.565,0,0,0-.521.442v-.027a3.544,3.544,0,0,1,.7-2.125,11.292,11.292,0,0,1,2.256.7C4508.318-4105.757,4508.183-4105.534,4508.054-4105.305Z" fill="#d84318"/>
              </g>
            </g>
          </g>
        </g>
      </g>
    </g>
  </g>
</svg>
